  0
SECTION
  2
HEADER
  9
$ACADVER
  1
AC1014
  9
$HANDSEED
  5
FFFF
  9
$MEASUREMENT
 70
     1
  0
ENDSEC
  0
SECTION
  2
TABLES
  0
TABLE
  2
VPORT
  5
8
330
0
100
AcDbSymbolTable
 70
     4
  0
VPORT
  5
2E
330
8
100
AcDbSymbolTableRecord
100
AcDbViewportTableRecord
  2
*ACTIVE
 70
     0
 10
0.0
 20
0.0
 11
1.0
 21
1.0
 12
210.0
 22
148.5
 13
0.0
 23
0.0
 14
10.0
 24
10.0
 15
10.0
 25
10.0
 16
0.0
 26
0.0
 36
1.0
 17
0.0
 27
0.0
 37
0.0
 40
341.0
 41
1.24
 42
50.0
 43
0.0
 44
0.0
 50
0.0
 51
0.0
 71
     0
 72
   100
 73
     1
 74
     3
 75
     0
 76
     0
 77
     0
 78
     0
  0
ENDTAB
  0
TABLE
  2
LTYPE
  5
5
330
0
100
AcDbSymbolTable
 70
     1
  0
LTYPE
  5
14
330
5
100
AcDbSymbolTableRecord
100
AcDbLinetypeTableRecord
  2
BYBLOCK
 70
     0
  3

 72
    65
 73
     0
 40
0.0
  0
LTYPE
  5
15
330
5
100
AcDbSymbolTableRecord
100
AcDbLinetypeTableRecord
  2
BYLAYER
 70
     0
  3

 72
    65
 73
     0
 40
0.0
  0
LTYPE
  5
16
330
5
100
AcDbSymbolTableRecord
100
AcDbLinetypeTableRecord
  2
CONTINUOUS
 70
     0
  3
Solid line
 72
    65
 73
     0
 40
0.0
  0
ENDTAB
  0
TABLE
  2
LAYER
  5
2
100
AcDbSymbolTable
 70
2
  0
LAYER
  5
50
100
AcDbSymbolTableRecord
100
AcDbLayerTableRecord
  2
0
 70
0
  6
CONTINUOUS
  0
LAYER
  5
51
100
AcDbSymbolTableRecord
100
AcDbLayerTableRecord
  2
Layer_1
 70
0
  6
CONTINUOUS
  0
ENDTAB
  0
TABLE
  2
STYLE
  5
3
330
0
100
AcDbSymbolTable
 70
     1
  0
STYLE
  5
11
330
3
100
AcDbSymbolTableRecord
100
AcDbTextStyleTableRecord
  2
STANDARD
 70
     0
 40
0.0
 41
1.0
 50
0.0
 71
     0
 42
2.5
  3
txt
  4

  0
ENDTAB
  0
TABLE
  2
VIEW
  5
6
330
0
100
AcDbSymbolTable
 70
     0
  0
ENDTAB
  0
TABLE
  2
UCS
  5
7
330
0
100
AcDbSymbolTable
 70
     0
  0
ENDTAB
  0
TABLE
  2
APPID
  5
9
330
0
100
AcDbSymbolTable
 70
     2
  0
APPID
  5
12
330
9
100
AcDbSymbolTableRecord
100
AcDbRegAppTableRecord
  2
ACAD
 70
     0
  0
ENDTAB
  0
TABLE
  2
DIMSTYLE
  5
A
330
0
100
AcDbSymbolTable
 70
     1
  0
DIMSTYLE
105
27
330
A
100
AcDbSymbolTableRecord
100
AcDbDimStyleTableRecord
  2
ISO-25
 70
     0
  3

  4

  5

  6

  7

 40
1.0
 41
2.5
 42
0.625
 43
3.75
 44
1.25
 45
0.0
 46
0.0
 47
0.0
 48
0.0
140
2.5
141
2.5
142
0.0
143
0.03937007874016
144
1.0
145
0.0
146
1.0
147
0.625
 71
     0
 72
     0
 73
     0
 74
     0
 75
     0
 76
     0
 77
     1
 78
     8
170
     0
171
     3
172
     1
173
     0
174
     0
175
     0
176
     0
177
     0
178
     0
270
     2
271
     2
272
     2
273
     2
274
     3
340
11
275
     0
280
     0
281
     0
282
     0
283
     0
284
     8
285
     0
286
     0
287
     3
288
     0
  0
ENDTAB
  0
TABLE
  2
BLOCK_RECORD
  5
1
330
0
100
AcDbSymbolTable
 70
     1
  0
BLOCK_RECORD
  5
1F
330
1
100
AcDbSymbolTableRecord
100
AcDbBlockTableRecord
  2
*MODEL_SPACE
  0
BLOCK_RECORD
  5
1B
330
1
100
AcDbSymbolTableRecord
100
AcDbBlockTableRecord
  2
*PAPER_SPACE
  0
ENDTAB
  0
ENDSEC
  0
SECTION
  2
BLOCKS
  0
BLOCK
  5
20
330
1F
100
AcDbEntity
  8
0
100
AcDbBlockBegin
  2
*MODEL_SPACE
 70
     0
 10
0.0
 20
0.0
 30
0.0
  3
*MODEL_SPACE
  1

  0
ENDBLK
  5
21
330
1F
100
AcDbEntity
  8
0
100
AcDbBlockEnd
  0
BLOCK
  5
1C
330
1B
100
AcDbEntity
 67
     1
  8
0
100
AcDbBlockBegin
  2
*PAPER_SPACE
  1

  0
ENDBLK
  5
1D
330
1B
100
AcDbEntity
 67
     1
  8
0
100
AcDbBlockEnd
  0
ENDSEC
  0
SECTION
  2
ENTITIES
  0
SPLINE
  5
100
100
AcDbEntity
  8
Layer_1
 62
7
100
AcDbSpline
 70
0
 71
3
 72
40
 73
36
 74
34
 40
0.000000
 40
0.000000
 40
0.000000
 40
0.000000
 40
7.468243
 40
15.999758
 40
27.226008
 40
38.549678
 40
45.430484
 40
51.353143
 40
54.596314
 40
55.998068
 40
58.956702
 40
63.795747
 40
68.289567
 40
73.915118
 40
77.997470
 40
81.501948
 40
83.871128
 40
84.312012
 40
85.071511
 40
86.391983
 40
88.123279
 40
89.691572
 40
92.136984
 40
96.013281
 40
99.663577
 40
103.228311
 40
104.609609
 40
105.492916
 40
106.364447
 40
108.801731
 40
111.882360
 40
114.489403
 40
115.574725
 40
116.759950
 40
117.799598
 40
117.799598
 40
117.799598
 40
117.799598
 10
59.707887
 20
21.409884
 30
0.0
 10
57.321750
 20
22.157522
 30
0.0
 10
52.209755
 20
23.759241
 30
0.0
 10
44.585897
 20
28.853912
 30
0.0
 10
36.740996
 20
35.613867
 30
0.0
 10
29.577469
 20
42.294699
 30
0.0
 10
22.567883
 20
46.566870
 30
0.0
 10
17.273643
 20
47.441807
 30
0.0
 10
13.448351
 20
46.445100
 30
0.0
 10
11.514557
 20
48.599803
 30
0.0
 10
13.180463
 20
51.751569
 30
0.0
 10
14.386058
 20
55.596366
 30
0.0
 10
19.000994
 20
58.361453
 30
0.0
 10
23.794830
 20
58.775337
 30
0.0
 10
28.119361
 20
58.315213
 30
0.0
 10
31.548681
 20
57.642097
 30
0.0
 10
33.017837
 20
56.192435
 30
0.0
 10
34.135719
 20
55.535040
 30
0.0
 10
34.874871
 20
56.214609
 30
0.0
 10
35.691216
 20
57.063020
 30
0.0
 10
36.720844
 20
58.304196
 30
0.0
 10
38.581782
 20
58.944981
 30
0.0
 10
41.205784
 20
59.128193
 30
0.0
 10
44.551657
 20
59.090593
 30
0.0
 10
48.152302
 20
58.053467
 30
0.0
 10
50.612516
 20
56.503979
 30
0.0
 10
52.077201
 20
55.251024
 30
0.0
 10
53.129828
 20
54.863238
 30
0.0
 10
54.446804
 20
55.492405
 30
0.0
 10
56.541337
 20
55.885190
 30
0.0
 10
59.256707
 20
55.781170
 30
0.0
 10
61.528726
 20
55.357109
 30
0.0
 10
62.909559
 20
54.479927
 30
0.0
 10
63.806834
 20
53.835913
 30
0.0
 10
64.342889
 20
53.321930
 30
0.0
 10
64.593380
 20
53.081754
 30
0.0
 11
59.707887
 21
21.409884
 31
0.0
 11
52.687113
 21
23.956134
 31
0.0
 11
45.442241
 21
28.461528
 31
0.0
 11
36.815858
 21
35.645831
 31
0.0
 11
28.164138
 21
42.951530
 31
0.0
 11
22.143815
 21
46.283375
 31
0.0
 11
16.266928
 21
47.018283
 31
0.0
 11
13.025569
 21
47.126698
 31
0.0
 11
12.106725
 21
48.185301
 31
0.0
 11
12.746765
 21
51.073875
 31
0.0
 11
14.947902
 21
55.383325
 31
0.0
 11
18.709778
 21
57.841516
 31
0.0
 11
24.282347
 21
58.611780
 31
0.0
 11
28.346151
 21
58.223074
 31
0.0
 11
31.705998
 21
57.226682
 31
0.0
 11
33.627291
 21
55.840448
 31
0.0
 11
34.032706
 21
55.667194
 31
0.0
 11
34.688470
 21
56.050355
 31
0.0
 11
35.608173
 21
56.997875
 31
0.0
 11
36.848977
 21
58.205265
 31
0.0
 11
38.302963
 21
58.793029
 31
0.0
 11
40.732704
 21
59.069434
 31
0.0
 11
44.605745
 21
58.910594
 31
0.0
 11
48.109083
 21
57.885272
 31
0.0
 11
51.147653
 21
56.021290
 31
0.0
 11
52.273422
 21
55.220899
 31
0.0
 11
53.124226
 21
54.983489
 31
0.0
 11
53.958050
 21
55.237071
 31
0.0
 11
56.337320
 21
55.765678
 31
0.0
 11
59.417068
 21
55.691999
 31
0.0
 11
61.942819
 21
55.046046
 31
0.0
 11
62.875034
 21
54.490259
 31
0.0
 11
63.827273
 21
53.784569
 31
0.0
 11
64.593380
 21
53.081754
 31
0.0
  0
LWPOLYLINE
  5
101
100
AcDbEntity
  8
Layer_1
 62
7
100
AcDbPolyline
 90
3
 70
1
 10
64.593380
 20
53.081754
 30
0.0
 10
65.692147
 20
51.899121
 30
0.0
 10
66.544204
 20
53.612800
 30
0.0
  0
SPLINE
  5
102
100
AcDbEntity
  8
Layer_1
 62
7
100
AcDbSpline
 70
0
 71
3
 72
28
 73
24
 74
22
 40
0.000000
 40
0.000000
 40
0.000000
 40
0.000000
 40
2.530039
 40
5.084836
 40
7.952443
 40
9.668950
 40
10.243353
 40
11.269328
 40
14.772737
 40
18.105130
 40
21.410141
 40
22.744844
 40
23.989380
 40
25.679340
 40
27.345211
 40
29.233305
 40
30.942026
 40
32.916012
 40
34.355504
 40
36.683996
 40
42.475138
 40
47.784853
 40
53.197730
 40
53.197730
 40
53.197730
 40
53.197730
 10
66.544204
 20
53.612800
 30
0.0
 10
67.021807
 20
54.330138
 30
0.0
 10
67.981685
 20
55.771833
 30
0.0
 10
70.539803
 20
56.812192
 30
0.0
 10
72.984597
 20
56.983598
 30
0.0
 10
74.610982
 20
56.336085
 30
0.0
 10
75.828089
 20
56.884990
 30
0.0
 10
74.581027
 20
58.756771
 30
0.0
 10
74.571362
 20
61.188822
 30
0.0
 10
75.448393
 20
64.656804
 30
0.0
 10
77.504356
 20
66.478487
 30
0.0
 10
79.215676
 20
67.495660
 30
0.0
 10
79.916956
 20
68.800359
 30
0.0
 10
80.137460
 20
70.321511
 30
0.0
 10
80.471743
 20
72.037031
 30
0.0
 10
80.937814
 20
73.731985
 30
0.0
 10
81.503259
 20
75.493195
 30
0.0
 10
82.271691
 20
77.066880
 30
0.0
 10
82.088503
 20
79.042848
 30
0.0
 10
80.528182
 20
81.851600
 30
0.0
 10
79.210757
 20
86.186514
 30
0.0
 10
79.408454
 20
91.874711
 30
0.0
 10
81.176378
 20
95.032449
 30
0.0
 10
82.068845
 20
96.626509
 30
0.0
 11
66.544204
 21
53.612800
 31
0.0
 11
68.144319
 21
55.572578
 31
0.0
 11
70.464197
 21
56.642699
 31
0.0
 11
73.330048
 21
56.742997
 31
0.0
 11
75.037509
 21
56.567001
 31
0.0
 11
75.536364
 21
56.851752
 31
0.0
 11
75.242863
 21
57.834850
 31
0.0
 11
74.728646
 21
61.300317
 31
0.0
 11
75.737541
 21
64.476316
 31
0.0
 11
78.090028
 21
66.797717
 31
0.0
 11
79.154483
 21
67.602930
 31
0.0
 11
79.782386
 21
68.677457
 31
0.0
 11
80.152073
 21
70.326486
 31
0.0
 11
80.476953
 21
71.960370
 31
0.0
 11
80.966525
 21
73.783888
 31
0.0
 11
81.514800
 21
75.402258
 31
0.0
 11
82.144203
 21
77.273213
 31
0.0
 11
82.044645
 21
78.709259
 31
0.0
 11
81.136874
 21
80.853513
 31
0.0
 11
79.496073
 21
86.407349
 31
0.0
 11
79.809259
 21
91.707820
 31
0.0
 11
82.068845
 21
96.626509
 31
0.0
  0
LWPOLYLINE
  5
103
100
AcDbEntity
  8
Layer_1
 62
7
100
AcDbPolyline
 90
3
 70
1
 10
82.068845
 20
96.626509
 30
0.0
 10
83.711745
 20
99.009286
 30
0.0
 10
82.609092
 20
103.005245
 30
0.0
  0
SPLINE
  5
104
100
AcDbEntity
  8
Layer_1
 62
7
100
AcDbSpline
 70
0
 71
3
 72
85
 73
81
 74
79
 40
0.000000
 40
0.000000
 40
0.000000
 40
0.000000
 40
8.281955
 40
16.621929
 40
24.148315
 40
28.805742
 40
33.081912
 40
36.860926
 40
37.927518
 40
38.691873
 40
40.105751
 40
41.724245
 40
43.996349
 40
46.437505
 40
55.572150
 40
66.724679
 40
81.127787
 40
91.544665
 40
98.369895
 40
104.557213
 40
109.779619
 40
114.435137
 40
119.390442
 40
124.085935
 40
129.471256
 40
132.709496
 40
133.402688
 40
135.654597
 40
140.854867
 40
145.559758
 40
148.865264
 40
151.893445
 40
165.725650
 40
180.432437
 40
197.691290
 40
205.417146
 40
213.791006
 40
223.157567
 40
228.890260
 40
235.515818
 40
240.696082
 40
249.153985
 40
257.790817
 40
265.834010
 40
273.752677
 40
281.259508
 40
289.894466
 40
294.223100
 40
297.774853
 40
299.780811
 40
301.651639
 40
305.092343
 40
310.384331
 40
326.444806
 40
338.423870
 40
345.399053
 40
345.980712
 40
346.989335
 40
349.547412
 40
354.102173
 40
356.404005
 40
358.464687
 40
360.451190
 40
363.617936
 40
367.287115
 40
377.109985
 40
384.265936
 40
390.120379
 40
393.270263
 40
396.040277
 40
398.329999
 40
399.400824
 40
400.841851
 40
402.361431
 40
404.203005
 40
405.580564
 40
407.411764
 40
410.159475
 40
412.452569
 40
414.814166
 40
414.814166
 40
414.814166
 40
414.814166
 10
82.609092
 20
103.005245
 30
0.0
 10
82.123418
 20
105.742037
 30
0.0
 10
81.148668
 20
111.234794
 30
0.0
 10
82.381260
 20
119.275803
 30
0.0
 10
84.842476
 20
125.846674
 30
0.0
 10
88.902338
 20
129.720007
 30
0.0
 10
93.120661
 20
131.216577
 30
0.0
 10
96.126662
 20
130.434264
 30
0.0
 10
97.837659
 20
129.384291
 30
0.0
 10
97.979295
 20
128.213756
 30
0.0
 10
97.315219
 20
127.095018
 30
0.0
 10
96.829372
 20
125.394381
 30
0.0
 10
96.312158
 20
123.347858
 30
0.0
 10
95.371654
 20
118.825990
 30
0.0
 10
95.383106
 20
111.121971
 30
0.0
 10
98.569665
 20
99.913747
 30
0.0
 10
103.647463
 20
89.029431
 30
0.0
 10
108.459318
 20
79.653513
 30
0.0
 10
111.208475
 20
72.283404
 30
0.0
 10
111.883221
 20
66.209178
 30
0.0
 10
112.017565
 20
60.842442
 30
0.0
 10
111.258000
 20
55.936766
 30
0.0
 10
109.777433
 20
51.358498
 30
0.0
 10
107.361903
 20
47.008570
 30
0.0
 10
105.234104
 20
42.917975
 30
0.0
 10
103.057096
 20
40.971150
 30
0.0
 10
101.980805
 20
38.796532
 30
0.0
 10
106.394980
 20
39.343145
 30
0.0
 10
109.366535
 20
38.835472
 30
0.0
 10
114.077003
 20
38.972423
 30
0.0
 10
117.701502
 20
39.282479
 30
0.0
 10
124.225423
 20
41.043520
 30
0.0
 10
133.734448
 20
46.260035
 30
0.0
 10
143.168896
 20
58.629822
 30
0.0
 10
148.216657
 20
71.047879
 30
0.0
 10
149.767499
 20
82.169643
 30
0.0
 10
148.312690
 20
90.636193
 30
0.0
 10
145.558298
 20
98.013701
 30
0.0
 10
141.846661
 20
104.245783
 30
0.0
 10
138.582236
 20
109.103421
 30
0.0
 10
134.263557
 20
114.305721
 30
0.0
 10
129.113145
 20
119.668715
 30
0.0
 10
124.276709
 20
126.545463
 30
0.0
 10
120.186074
 20
133.662074
 30
0.0
 10
117.160343
 20
140.912899
 30
0.0
 10
115.422192
 20
148.787449
 30
0.0
 10
115.102296
 20
155.620212
 30
0.0
 10
115.081264
 20
161.128624
 30
0.0
 10
114.922401
 20
164.411218
 30
0.0
 10
115.070097
 20
166.913219
 30
0.0
 10
114.237422
 20
169.251146
 30
0.0
 10
112.406412
 20
172.272825
 30
0.0
 10
107.813208
 20
179.169614
 30
0.0
 10
101.896099
 20
188.305819
 30
0.0
 10
95.768490
 20
199.019147
 30
0.0
 10
94.238046
 20
204.410090
 30
0.0
 10
93.414534
 20
207.878263
 30
0.0
 10
91.971846
 20
206.388788
 30
0.0
 10
90.457077
 20
204.826680
 30
0.0
 10
88.180104
 20
202.431644
 30
0.0
 10
86.550410
 20
199.683316
 30
0.0
 10
87.491679
 20
197.572515
 30
0.0
 10
88.925928
 20
195.692031
 30
0.0
 10
90.796221
 20
193.399338
 30
0.0
 10
94.527828
 20
189.297429
 30
0.0
 10
98.944807
 20
184.003203
 30
0.0
 10
102.093151
 20
176.793408
 30
0.0
 10
101.139837
 20
171.129559
 30
0.0
 10
98.710433
 20
167.961284
 30
0.0
 10
96.453699
 20
166.349082
 30
0.0
 10
94.277237
 20
165.986396
 30
0.0
 10
92.810678
 20
166.687421
 30
0.0
 10
91.660903
 20
167.380363
 30
0.0
 10
90.401391
 20
168.364420
 30
0.0
 10
89.174292
 20
169.398857
 30
0.0
 10
88.448160
 20
170.976449
 30
0.0
 10
88.436857
 20
172.986870
 30
0.0
 10
88.699996
 20
175.294249
 30
0.0
 10
90.357889
 20
177.413782
 30
0.0
 10
91.946587
 20
177.636339
 30
0.0
 10
92.752627
 20
177.749255
 30
0.0
 11
82.609092
 21
103.005245
 31
0.0
 11
81.604688
 21
111.226069
 31
0.0
 11
82.724734
 21
119.490491
 31
0.0
 11
85.775732
 21
126.370745
 31
0.0
 11
89.203180
 21
129.524192
 31
0.0
 11
93.280451
 21
130.813180
 31
0.0
 11
96.948168
 21
129.902795
 31
0.0
 11
97.767460
 21
129.219876
 31
0.0
 11
97.892323
 21
128.465788
 31
0.0
 11
97.405932
 21
127.138206
 31
0.0
 11
96.895907
 21
125.602173
 31
0.0
 11
96.341048
 21
123.398860
 31
0.0
 11
95.861477
 21
121.005274
 31
0.0
 11
95.757829
 21
111.871216
 31
0.0
 11
98.511019
 21
101.063865
 31
0.0
 11
104.301242
 21
87.875885
 31
0.0
 11
108.786954
 21
78.474302
 31
0.0
 11
110.995735
 21
72.016358
 31
0.0
 11
111.822828
 21
65.884570
 31
0.0
 11
111.857831
 21
60.662282
 31
0.0
 11
111.155444
 21
56.060053
 31
0.0
 11
109.605115
 21
51.353512
 31
0.0
 11
107.474675
 21
47.169152
 31
0.0
 11
104.642530
 21
42.588689
 31
0.0
 11
102.621382
 21
40.058638
 31
0.0
 11
102.368939
 21
39.413047
 31
0.0
 11
104.594751
 21
39.071207
 31
0.0
 11
109.793769
 21
38.957099
 31
0.0
 11
114.498000
 21
39.035902
 31
0.0
 11
117.784219
 21
39.392463
 31
0.0
 11
120.718066
 21
40.142410
 31
0.0
 11
132.832563
 21
46.818401
 31
0.0
 11
142.109796
 21
58.229910
 31
0.0
 11
148.467089
 21
74.275246
 31
0.0
 11
149.353219
 21
81.950116
 31
0.0
 11
148.131389
 21
90.234358
 31
0.0
 11
144.821004
 21
98.996425
 31
0.0
 11
141.958569
 21
103.963339
 31
0.0
 11
138.212849
 21
109.428465
 31
0.0
 11
134.926493
 21
113.432837
 31
0.0
 11
129.316981
 21
119.762884
 31
0.0
 11
124.279223
 21
126.778285
 31
0.0
 11
120.316820
 21
133.777737
 31
0.0
 11
117.337674
 21
141.114629
 31
0.0
 11
115.701333
 21
148.440944
 31
0.0
 11
115.117558
 21
157.056146
 31
0.0
 11
115.045096
 21
161.384174
 31
0.0
 11
114.979164
 21
164.935315
 31
0.0
 11
114.934038
 21
166.940765
 31
0.0
 11
114.377259
 21
168.726821
 31
0.0
 11
112.709035
 21
171.736052
 31
0.0
 11
109.818337
 21
176.168771
 31
0.0
 11
101.194755
 21
189.717671
 31
0.0
 11
95.624602
 21
200.322923
 31
0.0
 11
93.622554
 21
207.004614
 31
0.0
 11
93.402050
 21
207.542856
 31
0.0
 11
92.556700
 21
206.992672
 31
0.0
 11
90.778576
 21
205.153642
 31
0.0
 11
87.814032
 21
201.695704
 31
0.0
 11
86.908363
 21
199.579531
 31
0.0
 11
87.555728
 21
197.623175
 31
0.0
 11
88.701367
 21
196.000304
 31
0.0
 11
90.707326
 21
193.549916
 31
0.0
 11
93.139325
 21
190.802507
 31
0.0
 11
99.083216
 21
182.982089
 31
0.0
 11
101.497727
 21
176.245786
 31
0.0
 11
100.419453
 21
170.491498
 31
0.0
 11
98.517150
 21
167.980919
 31
0.0
 11
96.200158
 21
166.462852
 31
0.0
 11
93.921865
 21
166.234357
 31
0.0
 11
92.932986
 21
166.645188
 31
0.0
 11
91.699385
 21
167.390031
 31
0.0
 11
90.488129
 21
168.307626
 31
0.0
 11
89.175470
 21
169.599262
 31
0.0
 11
88.597293
 21
170.849614
 31
0.0
 11
88.468028
 21
172.676246
 31
0.0
 11
88.995501
 21
175.372853
 31
0.0
 11
90.475107
 21
177.124722
 31
0.0
 11
92.752627
 21
177.749255
 31
0.0
  0
LWPOLYLINE
  5
105
100
AcDbEntity
  8
Layer_1
 62
7
100
AcDbPolyline
 90
3
 70
1
 10
92.752627
 20
177.749255
 30
0.0
 10
94.379486
 20
177.749255
 30
0.0
 10
92.428540
 20
176.472826
 30
0.0
  0
SPLINE
  5
106
100
AcDbEntity
  8
Layer_1
 62
7
100
AcDbSpline
 70
0
 71
3
 72
22
 73
18
 74
16
 40
0.000000
 40
0.000000
 40
0.000000
 40
0.000000
 40
2.336243
 40
4.403615
 40
6.605241
 40
8.537809
 40
10.621551
 40
12.498408
 40
14.729431
 40
17.896860
 40
21.377808
 40
25.340271
 40
30.202241
 40
37.127564
 40
40.845637
 40
43.934169
 40
45.726862
 40
45.726862
 40
45.726862
 40
45.726862
 10
92.428540
 20
176.472826
 30
0.0
 10
91.807972
 20
175.973840
 30
0.0
 10
90.638255
 20
175.033294
 30
0.0
 10
90.017505
 20
172.780360
 30
0.0
 10
90.586450
 20
170.681225
 30
0.0
 10
92.128339
 20
169.182551
 30
0.0
 10
93.946163
 20
168.429461
 30
0.0
 10
96.172039
 20
168.252763
 30
0.0
 10
97.922338
 20
170.265003
 30
0.0
 10
98.981317
 20
172.994545
 30
0.0
 10
99.586118
 20
176.539071
 30
0.0
 10
98.819972
 20
180.671289
 30
0.0
 10
95.993140
 20
185.185720
 30
0.0
 10
92.513415
 20
189.005023
 30
0.0
 10
89.395203
 20
192.355604
 30
0.0
 10
87.469474
 20
194.480708
 30
0.0
 10
86.451150
 20
195.750037
 30
0.0
 10
86.077157
 20
196.216215
 30
0.0
 11
92.428540
 21
176.472826
 31
0.0
 11
90.779584
 21
174.817840
 31
0.0
 11
90.216062
 21
172.828753
 31
0.0
 11
90.794309
 21
170.704421
 31
0.0
 11
92.147101
 21
169.324285
 31
0.0
 11
94.065928
 21
168.511832
 31
0.0
 11
95.942743
 21
168.524520
 31
0.0
 11
97.585199
 21
170.034421
 31
0.0
 11
98.849967
 21
172.938378
 31
0.0
 11
99.364532
 21
176.381084
 31
0.0
 11
98.667404
 21
180.281740
 31
0.0
 11
96.273362
 21
184.513444
 31
0.0
 11
91.781670
 21
189.784574
 31
0.0
 11
89.258620
 21
192.515560
 31
0.0
 11
87.209222
 21
194.826187
 31
0.0
 11
86.077157
 21
196.216215
 31
0.0
  0
LWPOLYLINE
  5
107
100
AcDbEntity
  8
Layer_1
 62
7
100
AcDbPolyline
 90
3
 70
1
 10
86.077157
 20
196.216215
 30
0.0
 10
85.121696
 20
197.603453
 30
0.0
 10
83.125191
 20
193.408905
 30
0.0
  0
SPLINE
  5
108
100
AcDbEntity
  8
Layer_1
 62
7
100
AcDbSpline
 70
0
 71
3
 72
178
 73
174
 74
172
 40
0.000000
 40
0.000000
 40
0.000000
 40
0.000000
 40
2.815226
 40
5.734025
 40
8.129371
 40
13.926108
 40
19.271255
 40
27.182659
 40
32.777944
 40
37.495398
 40
40.325480
 40
42.018848
 40
43.722739
 40
45.071044
 40
46.291580
 40
47.656777
 40
48.871107
 40
50.250225
 40
52.055585
 40
53.901804
 40
56.021406
 40
56.877474
 40
57.726032
 40
58.469472
 40
59.214600
 40
59.849269
 40
60.355930
 40
60.711941
 40
60.847195
 40
63.262008
 40
67.609642
 40
70.921779
 40
72.048630
 40
72.785041
 40
73.052392
 40
74.797914
 40
77.942135
 40
81.119685
 40
82.704316
 40
84.568622
 40
86.314269
 40
87.823894
 40
89.073124
 40
89.812257
 40
90.637601
 40
91.728458
 40
92.984946
 40
93.519572
 40
93.728598
 40
94.080595
 40
94.615498
 40
95.518432
 40
96.649273
 40
97.986142
 40
99.416049
 40
100.637273
 40
101.710693
 40
102.769210
 40
103.619427
 40
106.345042
 40
111.770985
 40
120.596161
 40
126.664657
 40
131.080667
 40
135.436879
 40
145.660455
 40
156.187558
 40
164.387105
 40
166.890578
 40
168.473987
 40
169.868699
 40
170.930239
 40
171.461445
 40
172.216447
 40
172.774708
 40
173.387034
 40
174.896429
 40
182.352266
 40
191.884685
 40
204.843700
 40
210.021019
 40
214.239871
 40
216.587080
 40
218.614505
 40
222.520406
 40
230.024195
 40
237.899302
 40
242.473666
 40
246.255260
 40
255.010789
 40
264.283031
 40
276.476694
 40
289.349575
 40
299.020610
 40
307.217626
 40
313.941749
 40
321.466234
 40
328.547587
 40
345.139179
 40
359.888269
 40
373.959102
 40
378.778193
 40
385.039698
 40
390.356194
 40
395.856258
 40
401.851312
 40
407.927407
 40
410.594191
 40
412.519299
 40
413.303208
 40
413.955386
 40
415.609466
 40
417.929243
 40
431.422836
 40
443.612337
 40
455.596489
 40
472.904002
 40
490.530144
 40
509.904061
 40
514.520723
 40
518.377553
 40
523.159524
 40
532.268709
 40
540.586845
 40
549.125277
 40
575.304236
 40
598.469024
 40
617.574662
 40
622.860740
 40
627.201135
 40
631.479609
 40
638.707769
 40
645.799371
 40
655.519755
 40
659.697973
 40
661.481642
 40
662.816130
 40
664.503465
 40
665.086742
 40
667.042886
 40
668.546734
 40
669.561573
 40
670.452611
 40
672.807510
 40
675.611908
 40
678.403416
 40
681.523558
 40
683.522901
 40
684.175714
 40
686.424193
 40
690.103904
 40
692.869331
 40
693.823163
 40
694.774532
 40
695.517612
 40
696.652526
 40
698.675248
 40
701.159723
 40
704.443734
 40
708.578267
 40
712.683194
 40
716.359431
 40
719.360877
 40
721.042149
 40
726.699746
 40
734.541684
 40
741.100181
 40
744.361098
 40
747.956570
 40
751.108578
 40
755.645770
 40
759.010701
 40
761.956156
 40
761.956156
 40
761.956156
 40
761.956156
 10
83.125191
 20
193.408905
 30
0.0
 10
82.737680
 20
192.554205
 30
0.0
 10
81.948401
 20
190.813361
 30
0.0
 10
80.943048
 20
188.294963
 30
0.0
 10
79.747555
 20
184.790345
 30
0.0
 10
78.509790
 20
180.433352
 30
0.0
 10
75.487186
 20
174.807414
 30
0.0
 10
71.881928
 20
169.662444
 30
0.0
 10
68.522365
 20
164.597871
 30
0.0
 10
66.231106
 20
160.867638
 30
0.0
 10
64.751177
 20
158.153441
 30
0.0
 10
64.072076
 20
156.188343
 30
0.0
 10
63.440456
 20
154.737328
 30
0.0
 10
62.823249
 20
153.453131
 30
0.0
 10
62.189346
 20
152.304866
 30
0.0
 10
61.592997
 20
151.187349
 30
0.0
 10
60.999755
 20
150.008385
 30
0.0
 10
60.226801
 20
148.758428
 30
0.0
 10
59.265072
 20
147.394350
 30
0.0
 10
58.025317
 20
145.872585
 30
0.0
 10
57.151783
 20
144.681194
 30
0.0
 10
55.912993
 20
143.745122
 30
0.0
 10
55.295965
 20
144.550579
 30
0.0
 10
54.934794
 20
145.193428
 30
0.0
 10
54.739835
 20
145.896817
 30
0.0
 10
54.770527
 20
146.532016
 30
0.0
 10
54.903448
 20
147.013516
 30
0.0
 10
54.986261
 20
147.337111
 30
0.0
 10
54.847566
 20
148.343498
 30
0.0
 10
51.672235
 20
145.372761
 30
0.0
 10
49.364241
 20
144.890736
 30
0.0
 10
46.711322
 20
143.072545
 30
0.0
 10
45.299342
 20
142.205427
 30
0.0
 10
44.688971
 20
141.711235
 30
0.0
 10
43.690340
 20
142.034926
 30
0.0
 10
46.195907
 20
143.873939
 30
0.0
 10
47.523853
 20
145.222462
 30
0.0
 10
49.997006
 20
146.699465
 30
0.0
 10
51.914658
 20
147.728390
 30
0.0
 10
53.377138
 20
148.676862
 30
0.0
 10
54.750122
 20
149.676383
 30
0.0
 10
55.965058
 20
150.591973
 30
0.0
 10
56.955373
 20
151.126036
 30
0.0
 10
57.857739
 20
151.634331
 30
0.0
 10
58.702639
 20
150.932798
 30
0.0
 10
58.574285
 20
149.798538
 30
0.0
 10
58.159595
 20
148.892282
 30
0.0
 10
57.569510
 20
148.521139
 30
0.0
 10
57.522462
 20
148.078210
 30
0.0
 10
58.028985
 20
148.080436
 30
0.0
 10
58.476473
 20
148.439110
 30
0.0
 10
58.996110
 20
149.149309
 30
0.0
 10
59.479626
 20
150.158430
 30
0.0
 10
60.036511
 20
151.334139
 30
0.0
 10
60.705171
 20
152.486160
 30
0.0
 10
61.444581
 20
153.484908
 30
0.0
 10
62.074823
 20
154.406980
 30
0.0
 10
62.500375
 20
155.321853
 30
0.0
 10
62.696700
 20
156.861863
 30
0.0
 10
63.674930
 20
159.728744
 30
0.0
 10
66.681710
 20
164.550546
 30
0.0
 10
70.342891
 20
170.237726
 30
0.0
 10
73.900838
 20
175.602026
 30
0.0
 10
76.248739
 20
179.979649
 30
0.0
 10
78.197724
 20
186.015680
 30
0.0
 10
81.335199
 20
193.801079
 30
0.0
 10
86.033025
 20
202.209795
 30
0.0
 10
90.221990
 20
208.064581
 30
0.0
 10
93.254952
 20
210.733136
 30
0.0
 10
95.109686
 20
211.513630
 30
0.0
 10
96.333155
 20
210.730943
 30
0.0
 10
97.077357
 20
210.031893
 30
0.0
 10
96.997698
 20
209.029330
 30
0.0
 10
96.237654
 20
209.269679
 30
0.0
 10
95.497191
 20
209.495944
 30
0.0
 10
95.421507
 20
208.337931
 30
0.0
 10
96.014031
 20
205.503715
 30
0.0
 10
97.692977
 20
199.223232
 30
0.0
 10
102.477700
 20
190.549566
 30
0.0
 10
107.559949
 20
182.812027
 30
0.0
 10
111.839585
 20
176.711967
 30
0.0
 10
113.972309
 20
173.435321
 30
0.0
 10
115.714761
 20
171.140975
 30
0.0
 10
116.677245
 20
168.512679
 30
0.0
 10
116.891384
 20
164.004207
 30
0.0
 10
117.227512
 20
157.601521
 30
0.0
 10
117.450508
 20
150.956398
 30
0.0
 10
117.952120
 20
145.545474
 30
0.0
 10
119.626410
 20
140.074413
 30
0.0
 10
122.380594
 20
133.319300
 30
0.0
 10
127.836374
 20
124.793023
 30
0.0
 10
135.183629
 20
116.012455
 30
0.0
 10
142.570484
 20
107.080551
 30
0.0
 10
148.026900
 20
98.363233
 30
0.0
 10
150.984818
 20
90.623861
 30
0.0
 10
151.778225
 20
83.133970
 30
0.0
 10
151.406586
 20
76.001581
 30
0.0
 10
149.112754
 20
65.824408
 30
0.0
 10
143.402949
 20
54.084803
 30
0.0
 10
133.164658
 20
42.796052
 30
0.0
 10
123.030175
 20
36.959921
 30
0.0
 10
114.636985
 20
36.076182
 30
0.0
 10
109.174263
 20
36.227809
 30
0.0
 10
103.483408
 20
36.918892
 30
0.0
 10
98.240578
 20
38.964134
 30
0.0
 10
92.922915
 20
41.537164
 30
0.0
 10
88.917172
 20
44.135608
 30
0.0
 10
85.773437
 20
46.292481
 30
0.0
 10
84.642527
 20
47.026734
 30
0.0
 10
83.033292
 20
47.853522
 30
0.0
 10
83.939335
 20
46.589122
 30
0.0
 10
84.855896
 20
45.762788
 30
0.0
 10
89.294665
 20
41.531241
 30
0.0
 10
96.677562
 20
36.142934
 30
0.0
 10
108.417106
 20
31.092577
 30
0.0
 10
122.272226
 20
29.336220
 30
0.0
 10
138.055692
 20
32.594426
 30
0.0
 10
153.063327
 20
43.611337
 30
0.0
 10
160.535048
 20
55.608056
 30
0.0
 10
164.241701
 20
64.114610
 30
0.0
 10
165.721085
 20
68.283412
 30
0.0
 10
167.283159
 20
73.990958
 30
0.0
 10
168.930375
 20
81.221134
 30
0.0
 10
169.617512
 20
89.891272
 30
0.0
 10
168.387298
 20
104.213497
 30
0.0
 10
164.602950
 20
123.193676
 30
0.0
 10
157.601869
 20
144.962318
 30
0.0
 10
150.003681
 20
159.075827
 30
0.0
 10
143.941737
 20
166.496902
 30
0.0
 10
140.561760
 20
169.724182
 30
0.0
 10
136.019332
 20
172.399153
 30
0.0
 10
130.680259
 20
175.895743
 30
0.0
 10
127.274132
 20
183.476827
 30
0.0
 10
126.633333
 20
190.591517
 30
0.0
 10
126.414900
 20
195.600535
 30
0.0
 10
125.986443
 20
198.272998
 30
0.0
 10
124.589675
 20
198.945755
 30
0.0
 10
122.731868
 20
199.228326
 30
0.0
 10
123.623953
 20
200.720216
 30
0.0
 10
125.223227
 20
200.104612
 30
0.0
 10
126.639350
 20
200.115132
 30
0.0
 10
127.808851
 20
200.304990
 30
0.0
 10
128.884056
 20
201.322234
 30
0.0
 10
129.370092
 20
203.389987
 30
0.0
 10
129.156873
 20
206.071061
 30
0.0
 10
127.821398
 20
208.701233
 30
0.0
 10
126.314673
 20
210.874403
 30
0.0
 10
125.053965
 20
212.309631
 30
0.0
 10
125.075461
 20
214.328730
 30
0.0
 10
127.710980
 20
211.280156
 30
0.0
 10
129.045085
 20
209.829961
 30
0.0
 10
130.636827
 20
207.605180
 30
0.0
 10
130.906630
 20
206.073313
 30
0.0
 10
131.146803
 20
205.224724
 30
0.0
 10
131.330948
 20
204.290886
 30
0.0
 10
132.067834
 20
203.191956
 30
0.0
 10
133.176737
 20
201.685385
 30
0.0
 10
134.886648
 20
199.722612
 30
0.0
 10
136.882405
 20
197.091790
 30
0.0
 10
138.976227
 20
193.866707
 30
0.0
 10
140.945420
 20
190.416686
 30
0.0
 10
142.634076
 20
187.242110
 30
0.0
 10
144.025120
 20
184.831183
 30
0.0
 10
145.881174
 20
181.910217
 30
0.0
 10
149.956637
 20
178.760490
 30
0.0
 10
155.012289
 20
174.442513
 30
0.0
 10
159.797786
 20
170.982359
 30
0.0
 10
163.601217
 20
168.631808
 30
0.0
 10
166.395061
 20
166.808448
 30
0.0
 10
169.518839
 20
164.710120
 30
0.0
 10
172.601459
 20
162.705093
 30
0.0
 10
175.949837
 20
161.193198
 30
0.0
 10
178.062163
 20
161.041750
 30
0.0
 10
179.048119
 20
160.971059
 30
0.0
 11
83.125191
 21
193.408905
 31
0.0
 11
81.981979
 21
190.836248
 31
0.0
 11
80.904080
 21
188.123773
 31
0.0
 11
80.124853
 21
185.858716
 31
0.0
 11
78.265818
 21
180.368164
 31
0.0
 11
75.824031
 21
175.613349
 31
0.0
 11
71.470941
 21
169.007221
 31
0.0
 11
68.390932
 21
164.335952
 31
0.0
 11
65.943897
 21
160.302790
 31
0.0
 11
64.659609
 21
157.780893
 31
0.0
 11
64.052928
 21
156.199933
 31
0.0
 11
63.382327
 21
154.633555
 31
0.0
 11
62.792988
 21
153.420870
 31
0.0
 11
62.215076
 21
152.345823
 31
0.0
 11
61.574430
 21
151.140279
 31
0.0
 11
61.009747
 21
150.065231
 31
0.0
 11
60.292471
 21
148.887317
 31
0.0
 11
59.251777
 21
147.412094
 31
0.0
 11
58.112973
 21
145.958942
 31
0.0
 11
56.707322
 21
144.372482
 31
0.0
 11
55.941465
 21
143.989968
 31
0.0
 11
55.313574
 21
144.560760
 31
0.0
 11
54.958341
 21
145.213839
 31
0.0
 11
54.773187
 21
145.935597
 31
0.0
 11
54.798197
 21
146.569773
 31
0.0
 11
54.915099
 21
147.062763
 31
0.0
 11
54.970857
 21
147.414381
 31
0.0
 11
54.953400
 21
147.548503
 31
0.0
 11
52.761416
 21
146.535324
 31
0.0
 11
48.947281
 21
144.448628
 31
0.0
 11
46.123445
 21
142.717674
 31
0.0
 11
45.183517
 21
142.096121
 31
0.0
 11
44.513127
 21
141.791361
 31
0.0
 11
44.257412
 21
141.869373
 31
0.0
 11
45.316184
 21
143.257123
 31
0.0
 11
47.750117
 21
145.247622
 31
0.0
 11
50.445639
 21
146.930176
 31
0.0
 11
51.828005
 21
147.704850
 31
0.0
 11
53.397686
 21
148.710704
 31
0.0
 11
54.814854
 21
149.729976
 31
0.0
 11
56.046355
 21
150.603116
 31
0.0
 11
57.129292
 21
151.225870
 31
0.0
 11
57.829213
 21
151.463416
 31
0.0
 11
58.490660
 21
150.969775
 31
0.0
 11
58.528550
 21
149.879576
 31
0.0
 11
57.922513
 21
148.778904
 31
0.0
 11
57.570339
 21
148.376662
 31
0.0
 11
57.567940
 21
148.167650
 31
0.0
 11
57.914808
 21
148.107777
 31
0.0
 11
58.374963
 21
148.380499
 31
0.0
 11
58.926414
 21
149.095476
 31
0.0
 11
59.449775
 21
150.097920
 31
0.0
 11
60.039231
 21
151.297821
 31
0.0
 11
60.763957
 21
152.530463
 31
0.0
 11
61.467055
 21
153.528983
 31
0.0
 11
62.053165
 21
154.428263
 31
0.0
 11
62.471200
 21
155.400737
 31
0.0
 11
62.630657
 21
156.235867
 31
0.0
 11
63.443857
 21
158.837344
 31
0.0
 11
66.086003
 21
163.576534
 31
0.0
 11
70.860912
 21
170.998392
 31
0.0
 11
74.113819
 21
176.121403
 31
0.0
 11
76.134585
 21
180.047934
 31
0.0
 11
77.624836
 21
184.141312
 31
0.0
 11
81.485189
 21
193.608052
 31
0.0
 11
86.618080
 21
202.798989
 31
0.0
 11
91.657102
 21
209.267438
 31
0.0
 11
93.622395
 21
210.818244
 31
0.0
 11
95.143653
 21
211.257516
 31
0.0
 11
96.391490
 21
210.634519
 31
0.0
 11
97.009218
 21
209.771225
 31
0.0
 11
96.922332
 21
209.247172
 31
0.0
 11
96.168532
 21
209.289759
 31
0.0
 11
95.612841
 21
209.343266
 31
0.0
 11
95.462764
 21
208.749616
 31
0.0
 11
95.653493
 21
207.252320
 31
0.0
 11
97.730300
 21
200.091567
 31
0.0
 11
102.026826
 21
191.582345
 31
0.0
 11
109.061126
 21
180.698655
 31
0.0
 11
111.995037
 21
176.432884
 31
0.0
 11
114.369561
 21
172.945715
 31
0.0
 11
115.670626
 21
170.992099
 31
0.0
 11
116.389417
 21
169.096368
 31
0.0
 11
116.836043
 21
165.216087
 31
0.0
 11
117.198143
 21
157.721039
 31
0.0
 11
117.585675
 21
149.855473
 31
0.0
 11
118.144254
 21
145.315342
 31
0.0
 11
119.172169
 21
141.676133
 31
0.0
 11
122.545996
 21
133.596740
 31
0.0
 11
127.442899
 21
125.723062
 31
0.0
 11
135.030492
 21
116.177705
 31
0.0
 11
142.992970
 21
106.062863
 31
0.0
 11
147.989031
 21
97.782265
 31
0.0
 11
150.779525
 21
90.074853
 31
0.0
 11
151.582479
 21
83.398844
 31
0.0
 11
151.181388
 21
75.885057
 31
0.0
 11
149.652965
 21
68.970617
 31
0.0
 11
142.454142
 21
54.022109
 31
0.0
 11
132.439476
 21
43.194270
 31
0.0
 11
119.902935
 21
36.804943
 31
0.0
 11
115.119490
 21
36.219887
 31
0.0
 11
108.859181
 21
36.342264
 31
0.0
 11
103.600417
 21
37.123625
 31
0.0
 11
98.419215
 21
38.969121
 31
0.0
 11
93.039254
 21
41.614248
 31
0.0
 11
87.893866
 21
44.845953
 31
0.0
 11
85.685462
 21
46.340840
 31
0.0
 11
84.035273
 21
47.332262
 31
0.0
 11
83.300556
 21
47.605582
 31
0.0
 11
83.628042
 21
47.041587
 31
0.0
 11
84.762546
 21
45.837893
 31
0.0
 11
86.458456
 21
44.255093
 31
0.0
 11
97.361791
 21
36.305607
 31
0.0
 11
108.618453
 21
31.628909
 31
0.0
 11
120.505923
 21
30.109714
 31
0.0
 11
137.433486
 21
33.716321
 31
0.0
 11
151.767458
 21
43.973910
 31
0.0
 11
162.458075
 21
60.131242
 31
0.0
 11
164.288759
 21
64.369421
 31
0.0
 11
165.577212
 21
68.004668
 31
0.0
 11
166.879510
 21
72.605893
 31
0.0
 11
168.761908
 21
81.518459
 31
0.0
 11
169.385721
 21
89.813171
 31
0.0
 11
168.814304
 21
98.332461
 31
0.0
 11
163.893364
 21
124.044759
 31
0.0
 11
156.456872
 21
145.983446
 31
0.0
 11
147.029345
 21
162.601121
 31
0.0
 11
143.649052
 21
166.665138
 31
0.0
 11
140.451485
 21
169.600201
 31
0.0
 11
136.864149
 21
171.931803
 31
0.0
 11
131.171516
 21
176.386038
 31
0.0
 11
127.979101
 21
182.718440
 31
0.0
 11
126.576988
 21
192.337169
 31
0.0
 11
126.250384
 21
196.502602
 31
0.0
 11
125.723417
 21
198.206651
 31
0.0
 11
124.559830
 21
198.860044
 31
0.0
 11
123.073723
 21
199.659160
 31
0.0
 11
123.358916
 21
200.167959
 31
0.0
 11
125.314676
 21
200.206730
 31
0.0
 11
126.817921
 21
200.164168
 31
0.0
 11
127.802333
 21
200.410808
 31
0.0
 11
128.472576
 21
200.997940
 31
0.0
 11
129.218812
 21
203.231475
 31
0.0
 11
128.978877
 21
206.025591
 31
0.0
 11
127.822664
 21
208.566395
 31
0.0
 11
126.048062
 21
211.132730
 31
0.0
 11
125.095672
 21
212.890662
 31
0.0
 11
125.126643
 21
213.542740
 31
0.0
 11
126.927150
 21
212.195956
 31
0.0
 11
129.314953
 21
209.396193
 31
0.0
 11
130.702981
 21
207.004340
 31
0.0
 11
130.922495
 21
206.076110
 31
0.0
 11
131.152015
 21
205.152842
 31
0.0
 11
131.341853
 21
204.434422
 31
0.0
 11
131.903230
 21
203.448071
 31
0.0
 11
133.106795
 21
201.822391
 31
0.0
 11
134.691984
 21
199.909333
 31
0.0
 11
136.682172
 21
197.297078
 31
0.0
 11
138.947498
 21
193.838369
 31
0.0
 11
140.997531
 21
190.281996
 31
0.0
 11
142.759597
 21
187.055567
 31
0.0
 11
144.269984
 21
184.461842
 31
0.0
 11
145.201702
 21
183.062351
 31
0.0
 11
149.331315
 21
179.195220
 31
0.0
 11
155.416525
 21
174.248886
 31
0.0
 11
160.746333
 21
170.426971
 31
0.0
 11
163.499580
 21
168.679629
 31
0.0
 11
166.514383
 21
166.720449
 31
0.0
 11
169.138047
 21
164.973583
 31
0.0
 11
173.006020
 21
162.601897
 31
0.0
 11
176.126084
 21
161.341753
 31
0.0
 11
179.048119
 21
160.971059
 31
0.0
  0
LWPOLYLINE
  5
109
100
AcDbEntity
  8
Layer_1
 62
7
100
AcDbPolyline
 90
5
 70
1
 10
179.048119
 20
160.971059
 30
0.0
 10
181.035621
 20
160.971059
 30
0.0
 10
179.718581
 20
162.009877
 30
0.0
 10
178.401543
 20
163.048692
 30
0.0
 10
181.233919
 20
165.072013
 30
0.0
  0
SPLINE
  5
10a
100
AcDbEntity
  8
Layer_1
 62
7
100
AcDbSpline
 70
0
 71
3
 72
19
 73
15
 74
13
 40
0.000000
 40
0.000000
 40
0.000000
 40
0.000000
 40
2.116004
 40
3.835989
 40
5.237963
 40
8.353560
 40
11.928354
 40
14.036876
 40
14.549410
 40
16.211226
 40
19.395594
 40
21.756598
 40
23.356769
 40
25.305120
 40
25.305120
 40
25.305120
 40
25.305120
 10
181.233919
 20
165.072013
 30
0.0
 10
181.818780
 20
165.466227
 30
0.0
 10
182.879043
 20
166.180876
 30
0.0
 10
184.485094
 20
166.914507
 30
0.0
 10
186.543083
 20
167.255947
 30
0.0
 10
189.395518
 20
166.714188
 30
0.0
 10
191.539472
 20
165.836708
 30
0.0
 10
194.790883
 20
165.444673
 30
0.0
 10
193.998644
 20
163.925339
 30
0.0
 10
191.861744
 20
164.814781
 30
0.0
 10
189.704695
 20
164.938670
 30
0.0
 10
187.345354
 20
165.618593
 30
0.0
 10
185.343028
 20
165.523784
 30
0.0
 10
184.256636
 20
165.028454
 30
0.0
 10
183.660141
 20
164.756489
 30
0.0
 11
181.233919
 21
165.072013
 31
0.0
 11
183.023774
 21
166.200682
 31
0.0
 11
184.604698
 21
166.878198
 31
0.0
 11
185.987509
 21
167.109201
 31
0.0
 11
189.075768
 21
166.697372
 31
0.0
 11
192.528835
 21
165.772446
 31
0.0
 11
194.424526
 21
164.849289
 31
0.0
 11
194.185407
 21
164.395953
 31
0.0
 11
192.525582
 21
164.477277
 31
0.0
 11
189.401780
 21
165.095387
 31
0.0
 11
187.081971
 21
165.534508
 31
0.0
 11
185.484581
 21
165.440223
 31
0.0
 11
183.660141
 21
164.756489
 31
0.0
  0
LWPOLYLINE
  5
10b
100
AcDbEntity
  8
Layer_1
 62
7
100
AcDbPolyline
 90
3
 70
1
 10
183.660141
 20
164.756489
 30
0.0
 10
181.195486
 20
163.666375
 30
0.0
 10
183.774148
 20
162.724074
 30
0.0
  0
SPLINE
  5
10c
100
AcDbEntity
  8
Layer_1
 62
7
100
AcDbSpline
 70
0
 71
3
 72
13
 73
9
 74
7
 40
0.000000
 40
0.000000
 40
0.000000
 40
0.000000
 40
1.478717
 40
2.672046
 40
3.431674
 40
4.108216
 40
5.771196
 40
9.701218
 40
9.701218
 40
9.701218
 40
9.701218
 10
183.774148
 20
162.724074
 30
0.0
 10
184.235047
 20
162.534406
 30
0.0
 10
185.067894
 20
162.191675
 30
0.0
 10
185.986358
 20
161.576071
 30
0.0
 10
186.694544
 20
160.881467
 30
0.0
 10
186.191737
 20
159.735916
 30
0.0
 10
183.745321
 20
160.068291
 30
0.0
 10
181.978546
 20
159.941562
 30
0.0
 10
180.737089
 20
159.852514
 30
0.0
 11
183.774148
 21
162.724074
 31
0.0
 11
185.120802
 21
162.113234
 31
0.0
 11
186.103661
 21
161.436459
 31
0.0
 11
186.543524
 21
160.817141
 31
0.0
 11
186.307177
 21
160.183225
 31
0.0
 11
184.666681
 21
159.910689
 31
0.0
 11
180.737089
 21
159.852514
 31
0.0
  0
LWPOLYLINE
  5
10d
100
AcDbEntity
  8
Layer_1
 62
7
100
AcDbPolyline
 90
3
 70
1
 10
180.737089
 20
159.852514
 30
0.0
 10
174.739938
 20
159.852514
 30
0.0
 10
170.503585
 20
162.544372
 30
0.0
  0
SPLINE
  5
10e
100
AcDbEntity
  8
Layer_1
 62
7
100
AcDbSpline
 70
0
 71
3
 72
16
 73
12
 74
10
 40
0.000000
 40
0.000000
 40
0.000000
 40
0.000000
 40
3.205282
 40
6.784187
 40
9.962603
 40
21.660192
 40
31.527781
 40
41.285904
 40
45.338166
 40
49.322352
 40
52.388245
 40
52.388245
 40
52.388245
 40
52.388245
 10
170.503585
 20
162.544372
 30
0.0
 10
169.597065
 20
163.109829
 30
0.0
 10
167.678357
 20
164.306655
 30
0.0
 10
164.831633
 20
166.017723
 30
0.0
 10
159.494076
 20
169.073483
 30
0.0
 10
152.446760
 20
173.400176
 30
0.0
 10
144.763453
 20
180.651927
 30
0.0
 10
140.722916
 20
187.501603
 30
0.0
 10
137.972340
 20
192.750295
 30
0.0
 10
136.058628
 20
195.925183
 30
0.0
 10
134.675249
 20
197.825643
 30
0.0
 10
134.073654
 20
198.652103
 30
0.0
 11
170.503585
 21
162.544372
 31
0.0
 11
167.779603
 21
164.233678
 31
0.0
 11
164.710599
 21
166.074813
 31
0.0
 11
161.960997
 21
167.669183
 31
0.0
 11
152.176330
 21
174.079635
 31
0.0
 11
145.106939
 21
180.963893
 31
0.0
 11
139.860048
 21
189.191354
 31
0.0
 11
137.925454
 21
192.751996
 31
0.0
 11
135.846639
 21
196.150857
 31
0.0
 11
134.073654
 21
198.652103
 31
0.0
  0
SPLINE
  5
10f
100
AcDbEntity
  8
Layer_1
 62
7
100
AcDbSpline
 70
0
 71
3
 72
19
 73
15
 74
13
 40
0.000000
 40
0.000000
 40
0.000000
 40
0.000000
 40
2.725603
 40
5.927570
 40
10.421111
 40
17.322148
 40
22.122748
 40
27.607927
 40
48.776912
 40
74.929304
 40
107.752760
 40
118.243239
 40
129.490270
 40
138.049927
 40
138.049927
 40
138.049927
 40
138.049927
 10
130.067279
 20
200.329923
 30
0.0
 10
129.557717
 20
199.562403
 30
0.0
 10
128.449536
 20
197.893220
 30
0.0
 10
128.155110
 20
194.321434
 30
0.0
 10
128.690568
 20
189.513203
 30
0.0
 10
129.386576
 20
184.129149
 30
0.0
 10
132.058578
 20
178.823506
 30
0.0
 10
141.101146
 20
173.130646
 30
0.0
 10
153.546282
 20
160.239213
 30
0.0
 10
164.186799
 20
135.331729
 30
0.0
 10
169.811212
 20
112.760373
 30
0.0
 10
171.463190
 20
94.636320
 30
0.0
 10
171.613617
 20
84.504526
 30
0.0
 10
170.740116
 20
77.953650
 30
0.0
 10
170.362623
 20
75.122624
 30
0.0
 11
130.067279
 21
200.329923
 31
0.0
 11
128.737491
 21
197.950726
 31
0.0
 11
128.278115
 21
194.781883
 31
0.0
 11
128.613402
 21
190.300868
 31
0.0
 11
129.934674
 21
183.527497
 31
0.0
 11
132.247923
 21
179.320998
 31
0.0
 11
136.533913
 21
175.897917
 31
0.0
 11
151.397300
 21
160.824575
 31
0.0
 11
162.700378
 21
137.240936
 31
0.0
 11
170.358616
 21
105.323376
 31
0.0
 11
171.312134
 21
94.876321
 31
0.0
 11
171.313597
 21
83.629290
 31
0.0
 11
170.362623
 21
75.122624
 31
0.0
  0
LWPOLYLINE
  5
110
100
AcDbEntity
  8
Layer_1
 62
7
100
AcDbPolyline
 90
3
 70
1
 10
134.073654
 20
198.652103
 30
0.0
 10
131.400846
 20
201.937844
 30
0.0
 10
130.067279
 20
200.329923
 30
0.0
  0
SPLINE
  5
111
100
AcDbEntity
  8
Layer_1
 62
7
100
AcDbSpline
 70
0
 71
3
 72
16
 73
12
 74
10
 40
0.000000
 40
0.000000
 40
0.000000
 40
0.000000
 40
22.905107
 40
42.217108
 40
60.490237
 40
63.773123
 40
67.551545
 40
73.784424
 40
81.612361
 40
87.794261
 40
94.750668
 40
94.750668
 40
94.750668
 40
94.750668
 10
170.362623
 20
75.122624
 30
0.0
 10
168.192700
 20
67.755956
 30
0.0
 10
164.193248
 20
54.178225
 30
0.0
 10
151.705950
 20
37.642126
 30
0.0
 10
139.473770
 20
30.794875
 30
0.0
 10
131.336202
 20
28.444932
 30
0.0
 10
126.892868
 20
28.137891
 30
0.0
 10
120.954055
 20
28.148957
 30
0.0
 10
114.197949
 20
28.180665
 30
0.0
 10
107.246024
 20
29.149581
 30
0.0
 10
103.061366
 20
30.463191
 30
0.0
 10
100.845693
 20
31.158715
 30
0.0
 11
170.362623
 21
75.122624
 31
0.0
 11
162.464731
 21
53.622223
 31
0.0
 11
150.569907
 21
38.408198
 31
0.0
 11
134.647869
 21
29.441819
 31
0.0
 11
131.475491
 21
28.597217
 31
0.0
 11
127.715113
 21
28.228399
 31
0.0
 11
121.482719
 21
28.150581
 31
0.0
 11
113.658102
 21
28.378520
 31
0.0
 11
107.540846
 21
29.270192
 31
0.0
 11
100.845693
 21
31.158715
 31
0.0
  0
LWPOLYLINE
  5
112
100
AcDbEntity
  8
Layer_1
 62
7
100
AcDbPolyline
 90
3
 70
1
 10
100.845693
 20
31.158715
 30
0.0
 10
97.433582
 20
32.259096
 30
0.0
 10
94.211947
 20
29.362475
 30
0.0
  0
SPLINE
  5
113
100
AcDbEntity
  8
Layer_1
 62
7
100
AcDbSpline
 70
0
 71
3
 72
13
 73
9
 74
7
 40
0.000000
 40
0.000000
 40
0.000000
 40
0.000000
 40
5.116347
 40
10.568247
 40
16.015481
 40
22.584662
 40
30.447990
 40
36.548514
 40
36.548514
 40
36.548514
 40
36.548514
 10
94.211947
 20
29.362475
 30
0.0
 10
92.875166
 20
28.296524
 30
0.0
 10
90.113933
 20
26.094714
 30
0.0
 10
85.325135
 20
23.678758
 30
0.0
 10
79.838265
 20
21.631746
 30
0.0
 10
73.209536
 20
20.929380
 30
0.0
 10
66.358254
 20
20.595298
 30
0.0
 10
61.730105
 20
21.162211
 30
0.0
 10
59.708161
 20
21.409884
 30
0.0
 11
94.211947
 21
29.362475
 31
0.0
 11
90.108139
 21
26.307026
 31
0.0
 11
85.282578
 21
23.769868
 31
0.0
 11
80.142924
 21
21.965343
 31
0.0
 11
73.640371
 21
21.032094
 31
0.0
 11
65.779947
 21
20.818433
 31
0.0
 11
59.708161
 21
21.409884
 31
0.0
  0
LWPOLYLINE
  5
114
100
AcDbEntity
  8
Layer_1
 62
7
100
AcDbPolyline
 90
2
 70
1
 10
59.708161
 20
21.409884
 30
0.0
 10
59.707887
 20
21.409884
 30
0.0
  0
SPLINE
  5
115
100
AcDbEntity
  8
Layer_1
 62
7
100
AcDbSpline
 70
0
 71
3
 72
40
 73
36
 74
34
 40
0.000000
 40
0.000000
 40
0.000000
 40
0.000000
 40
4.361418
 40
8.391379
 40
10.040713
 40
10.632362
 40
11.975829
 40
13.791097
 40
23.092814
 40
32.681801
 40
43.356704
 40
46.995077
 40
51.983626
 40
57.248931
 40
67.214326
 40
73.294282
 40
77.356051
 40
80.439442
 40
83.000985
 40
86.189061
 40
89.414577
 40
92.601579
 40
94.834690
 40
95.477875
 40
96.414270
 40
98.189336
 40
104.291255
 40
111.904029
 40
123.016793
 40
130.827289
 40
136.598007
 40
140.730744
 40
148.238088
 40
156.228174
 40
164.413865
 40
164.413865
 40
164.413865
 40
164.413865
 10
75.749638
 20
23.366435
 30
0.0
 10
77.283360
 20
23.669443
 30
0.0
 10
80.234244
 20
24.252430
 30
0.0
 10
82.344015
 20
24.631512
 30
0.0
 10
86.010852
 20
26.077517
 30
0.0
 10
84.437356
 20
26.009513
 30
0.0
 10
83.363562
 20
25.762250
 30
0.0
 10
79.200616
 20
24.767713
 30
0.0
 10
72.314833
 20
24.051185
 30
0.0
 10
62.607875
 20
26.777270
 30
0.0
 10
55.738476
 20
30.986739
 30
0.0
 10
50.923367
 20
35.259318
 30
0.0
 10
47.579941
 20
38.464038
 30
0.0
 10
42.876660
 20
43.294841
 30
0.0
 10
37.995516
 20
48.440542
 30
0.0
 10
33.137713
 20
53.104223
 30
0.0
 10
29.410880
 20
55.478908
 30
0.0
 10
26.413655
 20
56.806700
 30
0.0
 10
23.413247
 20
56.959376
 30
0.0
 10
20.500930
 20
56.168039
 30
0.0
 10
17.604174
 20
54.649994
 30
0.0
 10
15.598132
 20
52.717900
 30
0.0
 10
14.170114
 20
50.924446
 30
0.0
 10
14.612998
 20
49.579329
 30
0.0
 10
15.848111
 20
49.364689
 30
0.0
 10
18.671802
 20
49.266485
 30
0.0
 10
23.935399
 20
48.296730
 30
0.0
 10
30.993249
 20
43.805868
 30
0.0
 10
37.692785
 20
38.041441
 30
0.0
 10
43.886652
 20
32.616162
 30
0.0
 10
48.542052
 20
28.977364
 30
0.0
 10
53.489060
 20
25.900400
 30
0.0
 10
59.769993
 20
23.844022
 30
0.0
 10
67.632886
 20
22.673497
 30
0.0
 10
73.022330
 20
23.133601
 30
0.0
 10
75.749638
 20
23.366435
 30
0.0
 11
75.749638
 21
23.366435
 31
0.0
 11
80.029965
 21
24.203553
 31
0.0
 11
83.915484
 21
25.272821
 31
0.0
 11
85.386644
 21
26.018469
 31
0.0
 11
84.795003
 21
26.015282
 31
0.0
 11
83.471347
 21
25.785422
 31
0.0
 11
81.702241
 21
25.378648
 31
0.0
 11
72.429745
 21
24.641930
 31
0.0
 11
63.150097
 21
27.057878
 31
0.0
 11
54.018197
 21
32.586164
 31
0.0
 11
51.273683
 21
34.974762
 31
0.0
 11
47.666096
 21
38.420185
 31
0.0
 11
43.976459
 21
42.176515
 31
0.0
 11
37.027898
 21
49.319806
 31
0.0
 11
32.503588
 21
53.381392
 31
0.0
 11
29.072880
 21
55.555835
 31
0.0
 11
26.200473
 21
56.676810
 31
0.0
 11
23.643408
 21
56.828201
 31
0.0
 11
20.549148
 21
56.060488
 31
0.0
 11
17.705633
 21
54.537867
 31
0.0
 11
15.370264
 21
52.369219
 31
0.0
 11
14.405382
 21
50.355321
 31
0.0
 11
14.644942
 21
49.758413
 31
0.0
 11
15.523874
 21
49.435437
 31
0.0
 11
17.293305
 21
49.294112
 31
0.0
 11
23.271222
 21
48.070215
 31
0.0
 11
29.899846
 21
44.326464
 31
0.0
 11
38.515775
 21
37.307967
 31
0.0
 11
44.452112
 21
32.232167
 31
0.0
 11
49.044235
 21
28.737372
 31
0.0
 11
52.582789
 21
26.602389
 31
0.0
 11
59.659323
 21
24.095819
 31
0.0
 11
67.572585
 21
22.990491
 31
0.0
 11
75.749638
 21
23.366435
 31
0.0
  0
LWPOLYLINE
  5
116
100
AcDbEntity
  8
Layer_1
 62
7
100
AcDbPolyline
 90
2
 70
1
 10
75.749638
 20
23.366435
 30
0.0
 10
75.749638
 20
23.366435
 30
0.0
  0
SPLINE
  5
117
100
AcDbEntity
  8
Layer_1
 62
7
100
AcDbSpline
 70
0
 71
3
 72
31
 73
27
 74
25
 40
0.000000
 40
0.000000
 40
0.000000
 40
0.000000
 40
3.728528
 40
7.382897
 40
8.969967
 40
9.650773
 40
11.241635
 40
13.402803
 40
27.218199
 40
39.990099
 40
52.441092
 40
56.798910
 40
60.458335
 40
63.618890
 40
68.509293
 40
72.753206
 40
75.812244
 40
82.561466
 40
95.262969
 40
105.329951
 40
110.667940
 40
114.974093
 40
118.109511
 40
123.020400
 40
129.434070
 40
134.231684
 40
134.231684
 40
134.231684
 40
134.231684
 10
84.347547
 20
28.142532
 30
0.0
 10
85.581453
 20
28.629566
 30
0.0
 10
88.024723
 20
29.593946
 30
0.0
 10
89.813173
 20
30.494592
 30
0.0
 10
93.008018
 20
32.099583
 30
0.0
 10
91.281119
 20
32.065540
 30
0.0
 10
90.005255
 20
32.002753
 30
0.0
 10
83.970098
 20
31.446865
 30
0.0
 10
74.433147
 20
31.945870
 30
0.0
 10
62.087299
 20
37.336527
 30
0.0
 10
55.507634
 20
44.997744
 30
0.0
 10
52.029304
 20
50.872966
 30
0.0
 10
49.572561
 20
53.690136
 30
0.0
 10
46.533315
 20
56.226784
 30
0.0
 10
42.523268
 20
57.372281
 30
0.0
 10
38.206621
 20
57.340944
 30
0.0
 10
34.687230
 20
52.826162
 30
0.0
 10
43.386838
 20
47.574377
 30
0.0
 10
48.570502
 20
40.587481
 30
0.0
 10
55.846443
 20
34.170489
 30
0.0
 10
61.265054
 20
30.500176
 30
0.0
 10
64.962537
 20
28.379160
 30
0.0
 10
68.840332
 20
26.846238
 30
0.0
 10
73.739414
 20
26.975769
 30
0.0
 10
79.100135
 20
27.102518
 30
0.0
 10
82.774980
 20
27.830856
 30
0.0
 10
84.347547
 20
28.142532
 30
0.0
 11
84.347547
 21
28.142532
 31
0.0
 11
87.801549
 21
29.546735
 31
0.0
 11
91.091837
 21
31.136836
 31
0.0
 11
92.400721
 21
32.034397
 31
0.0
 11
91.720982
 21
32.072479
 31
0.0
 11
90.131816
 21
31.999041
 31
0.0
 11
87.977272
 21
31.829966
 31
0.0
 11
74.198165
 21
32.830672
 31
0.0
 11
62.592557
 21
38.162771
 31
0.0
 11
54.191603
 21
47.352504
 31
0.0
 11
51.792540
 21
50.990508
 31
0.0
 11
49.384870
 21
53.746324
 31
0.0
 11
46.899610
 21
55.698908
 31
0.0
 11
42.239465
 21
57.181845
 31
0.0
 11
38.042571
 21
56.551868
 31
0.0
 11
36.219119
 21
54.095705
 31
0.0
 11
40.592552
 21
48.955172
 31
0.0
 11
49.623093
 21
40.023345
 31
0.0
 11
57.176100
 21
33.367806
 31
0.0
 11
61.591332
 21
30.367830
 31
0.0
 11
65.362565
 21
28.289188
 31
0.0
 11
68.313351
 21
27.229137
 31
0.0
 11
73.216857
 21
26.959973
 31
0.0
 11
79.620147
 21
27.324739
 31
0.0
 11
84.347547
 21
28.142532
 31
0.0
  0
LWPOLYLINE
  5
118
100
AcDbEntity
  8
Layer_1
 62
7
100
AcDbPolyline
 90
2
 70
1
 10
84.347547
 20
28.142532
 30
0.0
 10
84.347547
 20
28.142532
 30
0.0
  0
SPLINE
  5
119
100
AcDbEntity
  8
Layer_1
 62
7
100
AcDbSpline
 70
0
 71
3
 72
31
 73
27
 74
25
 40
0.000000
 40
0.000000
 40
0.000000
 40
0.000000
 40
0.398283
 40
0.843238
 40
1.276581
 40
2.261747
 40
4.163148
 40
6.577022
 40
10.208995
 40
14.731530
 40
21.193099
 40
26.535583
 40
30.837459
 40
33.176159
 40
35.738845
 40
38.119981
 40
39.894043
 40
40.764648
 40
41.969380
 40
44.254079
 40
53.462121
 40
63.016584
 40
72.243765
 40
76.543616
 40
80.480491
 40
82.065800
 40
82.065800
 40
82.065800
 40
82.065800
 10
87.606782
 20
34.016043
 30
0.0
 10
87.518332
 20
34.115995
 30
0.0
 10
87.331069
 20
34.327611
 30
0.0
 10
86.937623
 20
34.524819
 30
0.0
 10
86.315187
 20
34.581718
 30
0.0
 10
85.261562
 20
34.945025
 30
0.0
 10
83.639838
 20
35.638126
 30
0.0
 10
81.225998
 20
36.734270
 30
0.0
 10
78.161159
 20
38.494714
 30
0.0
 10
74.356438
 20
41.559635
 30
0.0
 10
70.364376
 20
45.252162
 30
0.0
 10
66.418281
 20
48.905564
 30
0.0
 10
63.367864
 20
51.457174
 30
0.0
 10
61.003038
 20
53.470554
 30
0.0
 10
58.585441
 20
54.116162
 30
0.0
 10
56.363888
 20
54.183974
 30
0.0
 10
54.637861
 20
53.608681
 30
0.0
 10
54.019056
 20
52.359781
 30
0.0
 10
54.574540
 20
50.917959
 30
0.0
 10
56.452497
 20
47.211816
 30
0.0
 10
60.953523
 20
41.568687
 30
0.0
 10
68.726682
 20
36.279162
 30
0.0
 10
76.195710
 20
33.759340
 30
0.0
 10
82.001837
 20
33.589841
 30
0.0
 10
85.324736
 20
33.341365
 30
0.0
 10
87.097777
 20
33.865579
 30
0.0
 10
87.606782
 20
34.016071
 30
0.0
 11
87.606782
 21
34.016043
 31
0.0
 11
87.325232
 21
34.297750
 31
0.0
 11
86.928225
 21
34.498673
 31
0.0
 11
86.501712
 21
34.575314
 31
0.0
 11
85.556179
 21
34.851931
 31
0.0
 11
83.798500
 21
35.577116
 31
0.0
 11
81.609209
 21
36.593872
 31
0.0
 11
78.467451
 21
38.416119
 31
0.0
 11
74.890606
 21
41.183700
 31
0.0
 11
70.088991
 21
45.507629
 31
0.0
 11
66.135054
 21
49.100472
 31
0.0
 11
62.861444
 21
51.891459
 31
0.0
 11
60.976880
 21
53.276355
 31
0.0
 11
58.526872
 21
54.027901
 31
0.0
 11
56.145749
 21
54.020136
 31
0.0
 11
54.544982
 21
53.255385
 31
0.0
 11
54.178008
 21
52.465903
 31
0.0
 11
54.445474
 21
51.291236
 31
0.0
 11
55.458490
 21
49.243396
 31
0.0
 11
61.168030
 21
42.019187
 31
0.0
 11
69.040565
 21
36.605229
 31
0.0
 11
77.845996
 21
33.847466
 31
0.0
 11
82.135636
 21
33.551319
 31
0.0
 11
86.071924
 21
33.619313
 31
0.0
 11
87.606782
 21
34.016071
 31
0.0
  0
LWPOLYLINE
  5
11a
100
AcDbEntity
  8
Layer_1
 62
7
100
AcDbPolyline
 90
2
 70
1
 10
87.606782
 20
34.016071
 30
0.0
 10
87.606782
 20
34.016043
 30
0.0
  0
SPLINE
  5
11b
100
AcDbEntity
  8
Layer_1
 62
7
100
AcDbSpline
 70
0
 71
3
 72
16
 73
12
 74
10
 40
0.000000
 40
0.000000
 40
0.000000
 40
0.000000
 40
7.197417
 40
14.677979
 40
21.610859
 40
26.176070
 40
29.999462
 40
33.479009
 40
41.337740
 40
53.165757
 40
63.190632
 40
63.190632
 40
63.190632
 40
63.190632
 10
92.495963
 20
36.142649
 30
0.0
 10
90.578465
 20
37.582670
 30
0.0
 10
86.668035
 20
40.519361
 30
0.0
 10
81.501141
 20
45.645276
 30
0.0
 10
78.226483
 20
51.051848
 30
0.0
 10
74.532522
 20
54.781241
 30
0.0
 10
69.895511
 20
55.101045
 30
0.0
 10
66.988434
 20
49.690081
 30
0.0
 10
74.352948
 20
43.668527
 30
0.0
 10
81.677854
 20
37.933625
 30
0.0
 10
88.891073
 20
36.060583
 30
0.0
 10
92.200092
 20
35.201336
 30
0.0
 11
92.495963
 21
36.142649
 31
0.0
 11
86.839913
 21
40.593707
 31
0.0
 11
81.628546
 21
45.960314
 31
0.0
 11
77.531389
 21
51.552998
 31
0.0
 11
73.981963
 21
54.424013
 31
0.0
 11
70.159450
 21
54.341994
 31
0.0
 11
68.372293
 21
51.356476
 31
0.0
 11
72.867242
 21
44.910153
 31
0.0
 11
82.657258
 21
38.272566
 31
0.0
 11
92.200092
 21
35.201336
 31
0.0
  0
LWPOLYLINE
  5
11c
100
AcDbEntity
  8
Layer_1
 62
7
100
AcDbPolyline
 90
4
 70
1
 10
92.200092
 20
35.201336
 30
0.0
 10
93.922582
 20
35.193237
 30
0.0
 10
92.495963
 20
36.142629
 30
0.0
 10
92.495963
 20
36.142649
 30
0.0
  0
SPLINE
  5
11d
100
AcDbEntity
  8
Layer_1
 62
7
100
AcDbSpline
 70
0
 71
3
 72
25
 73
21
 74
19
 40
0.000000
 40
0.000000
 40
0.000000
 40
0.000000
 40
3.465730
 40
7.619567
 40
12.821445
 40
18.479959
 40
23.152222
 40
27.262717
 40
29.099536
 40
30.015232
 40
31.897565
 40
37.114681
 40
45.333126
 40
58.035556
 40
61.590486
 40
64.222040
 40
65.363397
 40
65.592044
 40
66.085332
 40
66.809999
 40
66.809999
 40
66.809999
 40
66.809999
 10
98.237000
 20
42.663797
 30
0.0
 10
97.721364
 20
43.703427
 30
0.0
 10
96.587714
 20
45.989102
 30
0.0
 10
93.615388
 20
49.132769
 30
0.0
 10
89.719101
 20
52.260727
 30
0.0
 10
85.664847
 20
55.493547
 30
0.0
 10
82.615368
 20
59.323956
 30
0.0
 10
80.928314
 20
62.303340
 30
0.0
 10
80.625662
 20
64.945870
 30
0.0
 10
78.887062
 20
65.331261
 30
0.0
 10
76.906752
 20
63.048303
 30
0.0
 10
75.860481
 20
57.593472
 30
0.0
 10
82.851282
 20
50.801214
 30
0.0
 10
89.217609
 20
46.563547
 30
0.0
 10
94.794527
 20
43.021083
 30
0.0
 10
96.799640
 20
42.396706
 30
0.0
 10
98.154702
 20
40.998933
 30
0.0
 10
98.578677
 20
41.555430
 30
0.0
 10
98.423722
 20
42.059415
 30
0.0
 10
98.306654
 20
42.438341
 30
0.0
 10
98.237000
 20
42.663797
 30
0.0
 11
98.237000
 21
42.663797
 31
0.0
 11
96.559185
 21
45.696324
 31
0.0
 11
93.807297
 21
48.807831
 31
0.0
 11
89.833842
 21
52.165090
 31
0.0
 11
85.561926
 21
55.875820
 31
0.0
 11
82.626741
 21
59.511026
 31
0.0
 11
80.893152
 21
63.238068
 31
0.0
 11
80.179298
 21
64.930498
 31
0.0
 11
79.288034
 21
65.140610
 31
0.0
 11
77.819899
 21
63.962578
 31
0.0
 11
76.745682
 21
58.857251
 31
0.0
 11
81.628276
 21
52.246418
 31
0.0
 11
91.945708
 21
44.836809
 31
0.0
 11
95.022990
 21
43.056959
 31
0.0
 11
97.326715
 21
41.784981
 31
0.0
 11
98.358142
 21
41.296253
 31
0.0
 11
98.494226
 21
41.479993
 31
0.0
 11
98.450704
 21
41.971357
 31
0.0
 11
98.237000
 21
42.663797
 31
0.0
  0
LWPOLYLINE
  5
11e
100
AcDbEntity
  8
Layer_1
 62
7
100
AcDbPolyline
 90
2
 70
1
 10
98.237000
 20
42.663797
 30
0.0
 10
98.237000
 20
42.663797
 30
0.0
  0
SPLINE
  5
11f
100
AcDbEntity
  8
Layer_1
 62
7
100
AcDbSpline
 70
0
 71
3
 72
16
 73
12
 74
10
 40
0.000000
 40
0.000000
 40
0.000000
 40
0.000000
 40
4.010032
 40
8.870149
 40
13.846093
 40
18.546651
 40
24.613509
 40
29.101315
 40
30.155703
 40
31.380655
 40
32.511062
 40
32.511062
 40
32.511062
 40
32.511062
 10
100.820155
 20
46.807119
 30
0.0
 10
100.553755
 20
48.119216
 30
0.0
 10
99.964481
 20
51.021562
 30
0.0
 10
98.273378
 20
55.333589
 30
0.0
 10
96.196503
 20
59.721322
 30
0.0
 10
93.274078
 20
64.092851
 30
0.0
 10
90.368727
 20
68.260387
 30
0.0
 10
88.071200
 20
71.381762
 30
0.0
 10
86.584509
 20
73.078695
 30
0.0
 10
85.852697
 20
73.948356
 30
0.0
 10
85.351714
 20
74.552865
 30
0.0
 10
85.111277
 20
74.842987
 30
0.0
 11
100.820155
 21
46.807119
 31
0.0
 11
99.919974
 21
50.714807
 31
0.0
 11
98.237728
 21
55.274498
 31
0.0
 11
96.047752
 21
59.742610
 31
0.0
 11
93.517811
 21
63.704257
 31
0.0
 11
90.041987
 21
68.676723
 31
0.0
 11
87.312534
 21
72.239094
 31
0.0
 11
86.624453
 21
73.038017
 31
0.0
 11
85.833631
 21
73.973489
 31
0.0
 11
85.111277
 21
74.842987
 31
0.0
  0
LWPOLYLINE
  5
120
100
AcDbEntity
  8
Layer_1
 62
7
100
AcDbPolyline
 90
3
 70
1
 10
85.111277
 20
74.842987
 30
0.0
 10
83.963919
 20
76.241169
 30
0.0
 10
83.275449
 20
74.563350
 30
0.0
  0
SPLINE
  5
121
100
AcDbEntity
  8
Layer_1
 62
7
100
AcDbSpline
 70
0
 71
3
 72
19
 73
15
 74
13
 40
0.000000
 40
0.000000
 40
0.000000
 40
0.000000
 40
1.440650
 40
3.496589
 40
5.734556
 40
10.328667
 40
14.517586
 40
19.907039
 40
27.988501
 40
33.477726
 40
36.458615
 40
38.160314
 40
39.145402
 40
41.873096
 40
41.873096
 40
41.873096
 40
41.873096
 10
83.275449
 20
74.563350
 30
0.0
 10
83.137693
 20
74.102894
 30
0.0
 10
82.803347
 20
72.985326
 30
0.0
 10
82.517727
 20
71.088819
 30
0.0
 10
82.185521
 20
68.153995
 30
0.0
 10
82.174624
 20
64.399679
 30
0.0
 10
84.269296
 20
60.010645
 30
0.0
 10
88.599204
 20
55.915314
 30
0.0
 10
93.207570
 20
51.810837
 30
0.0
 10
97.214294
 20
47.535481
 30
0.0
 10
99.141884
 20
45.482956
 30
0.0
 10
100.167344
 20
42.663188
 30
0.0
 10
101.347798
 20
44.782549
 30
0.0
 10
101.043625
 20
45.949665
 30
0.0
 10
100.820155
 20
46.807119
 30
0.0
 11
83.275449
 21
74.563350
 31
0.0
 11
82.889375
 21
73.175395
 31
0.0
 11
82.539029
 21
71.149526
 31
0.0
 11
82.300262
 21
68.924332
 31
0.0
 11
82.531763
 21
64.336058
 31
0.0
 11
84.270264
 21
60.524935
 31
0.0
 11
87.934577
 21
56.572846
 31
0.0
 11
93.832909
 21
51.048381
 31
0.0
 11
97.634480
 21
47.088628
 31
0.0
 11
99.368029
 21
44.663652
 31
0.0
 11
100.336973
 21
43.264750
 31
0.0
 11
100.889484
 21
44.080306
 31
0.0
 11
100.820155
 21
46.807119
 31
0.0
  0
LWPOLYLINE
  5
122
100
AcDbEntity
  8
Layer_1
 62
7
100
AcDbPolyline
 90
2
 70
1
 10
100.820155
 20
46.807119
 30
0.0
 10
100.820155
 20
46.807119
 30
0.0
  0
SPLINE
  5
123
100
AcDbEntity
  8
Layer_1
 62
7
100
AcDbSpline
 70
0
 71
3
 72
16
 73
12
 74
10
 40
0.000000
 40
0.000000
 40
0.000000
 40
0.000000
 40
6.985911
 40
14.057032
 40
21.223191
 40
25.978696
 40
31.578425
 40
38.976463
 40
43.432775
 40
47.449106
 40
50.159436
 40
50.159436
 40
50.159436
 40
50.159436
 10
104.607239
 20
49.472916
 30
0.0
 10
105.076426
 20
51.765482
 30
0.0
 10
106.020522
 20
56.378578
 30
0.0
 10
105.269226
 20
63.518387
 30
0.0
 10
103.216961
 20
69.555286
 30
0.0
 10
100.357183
 20
74.665781
 30
0.0
 10
96.925116
 20
79.496137
 30
0.0
 10
93.205175
 20
83.972139
 30
0.0
 10
89.848313
 20
88.059983
 30
0.0
 10
87.536245
 20
90.986178
 30
0.0
 10
86.245915
 20
92.820291
 30
0.0
 10
85.726010
 20
93.559298
 30
0.0
 11
104.607239
 21
49.472916
 31
0.0
 11
105.658728
 21
56.379241
 31
0.0
 11
105.017428
 21
63.421222
 31
0.0
 11
102.718864
 21
70.208742
 31
0.0
 11
100.429230
 21
74.376764
 31
0.0
 11
97.224981
 21
78.969122
 31
0.0
 11
92.585664
 21
84.731734
 31
0.0
 11
89.766419
 21
88.182904
 31
0.0
 11
87.302024
 21
91.354287
 31
0.0
 11
85.726010
 21
93.559298
 31
0.0
  0
LWPOLYLINE
  5
124
100
AcDbEntity
  8
Layer_1
 62
7
100
AcDbPolyline
 90
3
 70
1
 10
85.726010
 20
93.559298
 30
0.0
 10
83.991495
 20
96.273771
 30
0.0
 10
82.854845
 20
94.087297
 30
0.0
  0
SPLINE
  5
125
100
AcDbEntity
  8
Layer_1
 62
7
100
AcDbSpline
 70
0
 71
3
 72
19
 73
15
 74
13
 40
0.000000
 40
0.000000
 40
0.000000
 40
0.000000
 40
3.233807
 40
6.047771
 40
9.149157
 40
12.989627
 40
17.717547
 40
22.649727
 40
34.095378
 40
45.194491
 40
53.732051
 40
55.259687
 40
56.656325
 40
60.339205
 40
60.339205
 40
60.339205
 40
60.339205
 10
82.854845
 20
94.087297
 30
0.0
 10
82.382510
 20
93.111839
 30
0.0
 10
81.499164
 20
91.287568
 30
0.0
 10
81.072061
 20
88.220360
 30
0.0
 10
81.485132
 20
84.960304
 30
0.0
 10
82.938278
 20
81.320244
 30
0.0
 10
85.251412
 20
77.439855
 30
0.0
 10
89.836251
 20
72.063306
 30
0.0
 10
95.517487
 20
65.098307
 30
0.0
 10
100.403500
 20
54.964665
 30
0.0
 10
102.065194
 20
49.940604
 30
0.0
 10
102.383276
 20
44.202690
 30
0.0
 10
104.074667
 20
47.019369
 30
0.0
 10
104.383396
 20
48.441678
 30
0.0
 10
104.607239
 20
49.472916
 30
0.0
 11
82.854845
 21
94.087297
 31
0.0
 11
81.609683
 21
91.102823
 31
0.0
 11
81.204647
 21
88.318162
 31
0.0
 11
81.567709
 21
85.238100
 31
0.0
 11
82.908354
 21
81.639228
 31
0.0
 11
85.322616
 21
77.574187
 31
0.0
 11
88.405770
 21
73.724438
 31
0.0
 11
95.301110
 21
64.588946
 31
0.0
 11
100.312556
 21
54.685628
 31
0.0
 11
102.247960
 21
46.370332
 31
0.0
 11
102.569057
 21
44.876823
 31
0.0
 11
103.414438
 21
45.988546
 31
0.0
 11
104.607239
 21
49.472916
 31
0.0
  0
LWPOLYLINE
  5
126
100
AcDbEntity
  8
Layer_1
 62
7
100
AcDbPolyline
 90
2
 70
1
 10
104.607239
 20
49.472916
 30
0.0
 10
104.607239
 20
49.472916
 30
0.0
  0
SPLINE
  5
127
100
AcDbEntity
  8
Layer_1
 62
7
100
AcDbSpline
 70
0
 71
3
 72
40
 73
36
 74
34
 40
0.000000
 40
0.000000
 40
0.000000
 40
0.000000
 40
5.211439
 40
11.855793
 40
17.476443
 40
19.872591
 40
23.367154
 40
27.209193
 40
47.471074
 40
61.517874
 40
72.966326
 40
75.003013
 40
76.491471
 40
77.109573
 40
77.382591
 40
78.075871
 40
79.045523
 40
85.508212
 40
94.058358
 40
104.898456
 40
111.727772
 40
118.643359
 40
130.836894
 40
137.589167
 40
144.222157
 40
149.937019
 40
153.096137
 40
156.224484
 40
160.670173
 40
163.912889
 40
166.127142
 40
166.848332
 40
167.509082
 40
168.761312
 40
170.337119
 40
170.337119
 40
170.337119
 40
170.337119
 10
108.875359
 20
54.429515
 30
0.0
 10
109.249737
 20
56.131817
 30
0.0
 10
110.101430
 20
60.004478
 30
0.0
 10
110.022254
 20
65.846986
 30
0.0
 10
109.654882
 20
70.780978
 30
0.0
 10
108.241565
 20
74.365317
 30
0.0
 10
106.975856
 20
77.348683
 30
0.0
 10
103.025477
 20
85.662324
 30
0.0
 10
97.539677
 20
97.109060
 30
0.0
 10
93.283991
 20
112.002229
 30
0.0
 10
93.624317
 20
121.178507
 30
0.0
 10
94.989590
 20
126.204651
 30
0.0
 10
95.000927
 20
127.387032
 30
0.0
 10
95.545988
 20
128.407265
 30
0.0
 10
94.922044
 20
128.487778
 30
0.0
 10
94.327732
 20
128.518319
 30
0.0
 10
91.558181
 20
128.648334
 30
0.0
 10
86.475823
 20
125.463938
 30
0.0
 10
83.624773
 20
116.943950
 30
0.0
 10
83.633072
 20
108.190049
 30
0.0
 10
84.839069
 20
99.968894
 30
0.0
 10
89.285364
 20
92.393219
 30
0.0
 10
94.883389
 20
85.860930
 30
0.0
 10
99.909268
 20
78.957072
 30
0.0
 10
103.160204
 20
73.472527
 30
0.0
 10
105.354764
 20
68.779449
 30
0.0
 10
106.613577
 20
64.971665
 30
0.0
 10
107.073385
 20
61.385629
 30
0.0
 10
107.065953
 20
57.876098
 30
0.0
 10
107.153961
 20
54.311185
 30
0.0
 10
107.183538
 20
52.764950
 30
0.0
 10
107.413901
 20
50.898023
 30
0.0
 10
107.906713
 20
52.160517
 30
0.0
 10
108.322698
 20
52.997949
 30
0.0
 10
108.677603
 20
53.917264
 30
0.0
 10
108.875359
 20
54.429515
 30
0.0
 11
108.875359
 21
54.429515
 31
0.0
 11
109.823549
 21
59.553969
 31
0.0
 11
109.943730
 21
66.197236
 31
0.0
 11
109.189006
 21
71.766984
 31
0.0
 11
108.369337
 21
74.018577
 31
0.0
 11
106.999253
 21
77.233361
 31
0.0
 11
105.375371
 21
80.715354
 31
0.0
 11
97.253718
 21
99.278289
 31
0.0
 11
93.857785
 21
112.908411
 31
0.0
 11
94.506714
 21
124.338457
 31
0.0
 11
94.935505
 21
126.329495
 31
0.0
 11
95.241335
 21
127.786195
 31
0.0
 11
95.357992
 21
128.393189
 31
0.0
 11
95.094242
 21
128.463719
 31
0.0
 11
94.402789
 21
128.514024
 31
0.0
 11
93.433327
 21
128.533213
 31
0.0
 11
87.717499
 21
125.517313
 31
0.0
 11
84.294276
 21
117.682356
 31
0.0
 11
83.958464
 21
106.847461
 31
0.0
 11
85.250042
 21
100.141390
 31
0.0
 11
88.493370
 21
94.033513
 31
0.0
 11
95.904448
 21
84.350630
 31
0.0
 11
99.843186
 21
78.866148
 31
0.0
 11
103.214270
 21
73.153675
 31
0.0
 11
105.581605
 21
67.952198
 31
0.0
 11
106.518328
 21
64.935150
 31
0.0
 11
106.960708
 21
61.838240
 31
0.0
 11
107.089739
 21
57.394423
 31
0.0
 11
107.155201
 21
54.152368
 31
0.0
 11
107.289681
 21
51.942203
 31
0.0
 11
107.464075
 21
51.242416
 31
0.0
 11
107.780571
 21
51.822434
 31
0.0
 11
108.287587
 21
52.967429
 31
0.0
 11
108.875359
 21
54.429515
 31
0.0
  0
LWPOLYLINE
  5
128
100
AcDbEntity
  8
Layer_1
 62
7
100
AcDbPolyline
 90
2
 70
1
 10
108.875359
 20
54.429515
 30
0.0
 10
108.875359
 20
54.429515
 30
0.0
  0
SPLINE
  5
129
100
AcDbEntity
  8
Layer_1
 62
7
100
AcDbSpline
 70
0
 71
3
 72
46
 73
42
 74
40
 40
0.000000
 40
0.000000
 40
0.000000
 40
0.000000
 40
2.456207
 40
7.126375
 40
12.173983
 40
14.899786
 40
15.459219
 40
18.937659
 40
21.790271
 40
22.462218
 40
24.451287
 40
27.264628
 40
30.228080
 40
33.365048
 40
34.958964
 40
36.354990
 40
37.251996
 40
39.442617
 40
43.518382
 40
49.975447
 40
58.081149
 40
65.084345
 40
70.833880
 40
75.337143
 40
79.806874
 40
84.869770
 40
90.304580
 40
93.621671
 40
98.174087
 40
102.303404
 40
106.582505
 40
112.376827
 40
118.317137
 40
122.166517
 40
125.896471
 40
131.930466
 40
137.327804
 40
142.514609
 40
146.774248
 40
149.948804
 40
152.669078
 40
152.669078
 40
152.669078
 40
152.669078
 10
40.238265
 20
142.433081
 30
0.0
 10
40.624506
 20
143.147451
 30
0.0
 10
41.745136
 20
145.220106
 30
0.0
 10
44.813992
 20
148.440076
 30
0.0
 10
46.231141
 20
150.895301
 30
0.0
 10
50.633942
 20
153.873868
 30
0.0
 10
47.982995
 20
154.013531
 30
0.0
 10
46.385421
 20
152.122094
 30
0.0
 10
44.769633
 20
150.400370
 30
0.0
 10
42.483160
 20
150.477781
 30
0.0
 10
44.835520
 20
152.703419
 30
0.0
 10
46.150579
 20
154.151214
 30
0.0
 10
49.020910
 20
155.628771
 30
0.0
 10
51.488877
 20
156.170637
 30
0.0
 10
53.527176
 20
156.413154
 30
0.0
 10
54.791171
 20
156.652579
 30
0.0
 10
56.304958
 20
156.843543
 30
0.0
 10
58.017979
 20
158.794487
 30
0.0
 10
59.559055
 20
162.692036
 30
0.0
 10
61.382627
 20
168.662348
 30
0.0
 10
63.562321
 20
175.502536
 30
0.0
 10
66.383387
 20
181.893807
 30
0.0
 10
69.593149
 20
186.688680
 30
0.0
 10
72.671110
 20
190.516049
 30
0.0
 10
75.033937
 20
194.577546
 30
0.0
 10
77.034001
 20
199.141480
 30
0.0
 10
79.082543
 20
203.297532
 30
0.0
 10
79.646914
 20
207.809608
 30
0.0
 10
78.284123
 20
211.648597
 30
0.0
 10
77.295933
 20
215.845509
 30
0.0
 10
76.740744
 20
220.560219
 30
0.0
 10
76.564885
 20
225.895815
 30
0.0
 10
76.388718
 20
231.085932
 30
0.0
 10
76.630606
 20
235.603531
 30
0.0
 10
77.699566
 20
240.026909
 30
0.0
 10
79.201068
 20
244.858047
 30
0.0
 10
81.594780
 20
249.885682
 30
0.0
 10
84.514050
 20
253.907617
 30
0.0
 10
87.304912
 20
257.050492
 30
0.0
 10
89.741380
 20
259.429458
 30
0.0
 10
91.423738
 20
260.455423
 30
0.0
 10
92.200092
 20
260.928873
 30
0.0
 11
40.238265
 21
142.433081
 31
0.0
 11
41.477270
 21
144.553887
 31
0.0
 11
44.408678
 21
148.189450
 31
0.0
 11
47.854077
 21
151.878294
 31
0.0
 11
49.697185
 21
153.886517
 31
0.0
 11
49.139475
 21
153.930380
 31
0.0
 11
46.242470
 21
152.005048
 31
0.0
 11
43.841755
 21
150.464280
 31
0.0
 11
43.172638
 21
150.525890
 31
0.0
 11
44.266826
 21
152.186957
 31
0.0
 11
46.334339
 21
154.094909
 31
0.0
 11
48.963222
 21
155.462763
 31
0.0
 11
52.008625
 21
156.215152
 31
0.0
 11
53.586646
 21
156.439693
 31
0.0
 11
54.964014
 21
156.667164
 31
0.0
 11
55.842538
 21
156.848320
 31
0.0
 11
57.476799
 21
158.307091
 31
0.0
 11
59.233911
 21
161.984647
 31
0.0
 11
61.230581
 21
168.125249
 31
0.0
 11
63.822376
 21
175.805418
 31
0.0
 11
66.748158
 21
182.168165
 31
0.0
 11
69.899304
 21
186.977264
 31
0.0
 11
72.586084
 21
190.591208
 31
0.0
 11
74.861329
 21
194.438514
 31
0.0
 11
77.020095
 21
199.018103
 31
0.0
 11
79.039280
 21
204.063899
 31
0.0
 11
79.376397
 21
207.363815
 31
0.0
 11
78.325187
 21
211.793200
 31
0.0
 11
77.382697
 21
215.813519
 31
0.0
 11
76.851068
 21
220.059467
 31
0.0
 11
76.565565
 21
225.846751
 31
0.0
 11
76.470319
 21
231.786297
 31
0.0
 11
76.751279
 21
235.625410
 31
0.0
 11
77.547874
 21
239.269308
 31
0.0
 11
79.407468
 21
245.009605
 31
0.0
 11
81.769945
 21
249.862435
 31
0.0
 11
84.766060
 21
254.096375
 31
0.0
 11
87.590769
 21
257.284719
 31
0.0
 11
89.928091
 21
259.432912
 31
0.0
 11
92.200092
 21
260.928873
 31
0.0
  0
LWPOLYLINE
  5
12a
100
AcDbEntity
  8
Layer_1
 62
7
100
AcDbPolyline
 90
3
 70
1
 10
92.200092
 20
260.928873
 30
0.0
 10
93.922582
 20
261.869102
 30
0.0
 10
91.390106
 20
262.412366
 30
0.0
  0
SPLINE
  5
12b
100
AcDbEntity
  8
Layer_1
 62
7
100
AcDbSpline
 70
0
 71
3
 72
52
 73
48
 74
46
 40
0.000000
 40
0.000000
 40
0.000000
 40
0.000000
 40
4.593929
 40
10.043817
 40
15.685316
 40
21.604643
 40
27.843805
 40
33.730891
 40
36.396726
 40
38.823533
 40
42.300493
 40
46.113726
 40
49.455404
 40
55.342404
 40
65.161733
 40
70.536704
 40
74.990625
 40
78.231702
 40
81.229498
 40
84.440181
 40
87.414838
 40
89.941361
 40
92.673067
 40
93.979606
 40
94.917721
 40
95.975044
 40
96.794444
 40
97.450062
 40
97.867434
 40
98.180278
 40
98.610762
 40
99.200175
 40
101.141434
 40
103.183071
 40
105.689843
 40
108.662675
 40
111.897166
 40
114.771967
 40
118.231382
 40
123.199043
 40
131.509384
 40
145.097777
 40
157.839678
 40
171.834304
 40
177.127465
 40
181.947616
 40
187.123062
 40
187.123062
 40
187.123062
 40
187.123062
 10
91.390106
 20
262.412366
 30
0.0
 10
89.857894
 20
262.553330
 30
0.0
 10
86.507981
 20
262.861525
 30
0.0
 10
81.333821
 20
261.781706
 30
0.0
 10
75.949766
 20
259.924446
 30
0.0
 10
70.955219
 20
256.615404
 30
0.0
 10
66.620026
 20
252.394937
 30
0.0
 10
63.839274
 20
248.286097
 30
0.0
 10
62.267359
 20
244.956919
 30
0.0
 10
61.745342
 20
242.119007
 30
0.0
 10
61.800896
 20
238.883859
 30
0.0
 10
61.672144
 20
235.304713
 30
0.0
 10
63.041780
 20
231.125141
 30
0.0
 10
65.979870
 20
225.464723
 30
0.0
 10
68.958332
 20
219.305095
 30
0.0
 10
70.563128
 20
212.357647
 30
0.0
 10
67.396029
 20
208.764288
 30
0.0
 10
64.141146
 20
207.168495
 30
0.0
 10
60.829830
 20
207.361914
 30
0.0
 10
58.202606
 20
209.108785
 30
0.0
 10
56.399847
 20
211.490419
 30
0.0
 10
56.092232
 20
214.402695
 30
0.0
 10
57.307542
 20
216.345614
 30
0.0
 10
58.445546
 20
217.562144
 30
0.0
 10
59.500304
 20
218.022945
 30
0.0
 10
60.454158
 20
217.854772
 30
0.0
 10
61.260845
 20
217.579186
 30
0.0
 10
61.789880
 20
217.277465
 30
0.0
 10
62.142078
 20
216.861403
 30
0.0
 10
61.891382
 20
216.476328
 30
0.0
 10
61.422048
 20
216.407786
 30
0.0
 10
60.473607
 20
216.615557
 30
0.0
 10
58.724940
 20
216.370980
 30
0.0
 10
57.870785
 20
214.083426
 30
0.0
 10
58.414904
 20
211.470352
 30
0.0
 10
61.060741
 20
209.727855
 30
0.0
 10
64.223238
 20
209.599684
 30
0.0
 10
67.161636
 20
211.487004
 30
0.0
 10
67.742776
 20
215.546364
 30
0.0
 10
66.051525
 20
220.897394
 30
0.0
 10
61.810115
 20
228.749167
 30
0.0
 10
58.569942
 20
240.379566
 30
0.0
 10
63.688927
 20
253.773770
 30
0.0
 10
72.685199
 20
260.344906
 30
0.0
 10
80.159714
 20
263.290785
 30
0.0
 10
85.157821
 20
264.451482
 30
0.0
 10
88.495584
 20
264.538646
 30
0.0
 10
90.223786
 20
264.583778
 30
0.0
 11
91.390106
 21
262.412366
 31
0.0
 11
86.801153
 21
262.626131
 31
0.0
 11
81.432813
 21
261.686874
 31
0.0
 11
76.136579
 21
259.743574
 31
0.0
 11
71.161264
 21
256.536602
 31
0.0
 11
66.703164
 21
252.171685
 31
0.0
 11
63.415347
 21
247.288240
 31
0.0
 11
62.347917
 21
244.845441
 31
0.0
 11
61.875782
 21
242.465003
 31
0.0
 11
61.769411
 21
238.989671
 31
0.0
 11
61.904470
 21
235.178830
 31
0.0
 11
62.834042
 21
231.969047
 31
0.0
 11
65.344720
 21
226.644269
 31
0.0
 11
69.207993
 21
217.616848
 31
0.0
 11
69.686029
 21
212.263176
 31
0.0
 11
66.942092
 21
208.754868
 31
0.0
 11
63.989605
 21
207.417932
 31
0.0
 11
60.997545
 21
207.603281
 31
0.0
 11
58.267010
 21
209.292265
 31
0.0
 11
56.579861
 21
211.742185
 31
0.0
 11
56.369995
 21
214.259977
 31
0.0
 11
57.651864
 21
216.672243
 31
0.0
 11
58.598813
 21
217.572428
 31
0.0
 11
59.470796
 21
217.918411
 31
0.0
 11
60.522683
 21
217.811320
 31
0.0
 11
61.295268
 21
217.538324
 31
0.0
 11
61.846302
 21
217.183081
 31
0.0
 11
62.056490
 21
216.822498
 31
0.0
 11
61.898862
 21
216.552267
 31
0.0
 11
61.483806
 21
216.438053
 31
0.0
 11
60.898064
 21
216.503728
 31
0.0
 11
59.000656
 21
216.093444
 31
0.0
 11
58.118921
 21
214.252024
 31
0.0
 11
58.646418
 21
211.801381
 31
0.0
 11
61.044771
 21
210.044784
 31
0.0
 11
64.278058
 21
209.956539
 31
0.0
 11
66.648536
 21
211.582981
 31
0.0
 11
67.448701
 21
214.948584
 31
0.0
 11
66.283680
 21
219.777703
 31
0.0
 11
62.846252
 21
227.343802
 31
0.0
 11
60.036909
 21
240.638614
 31
0.0
 11
64.464630
 21
252.586472
 31
0.0
 11
75.425407
 21
261.287673
 31
0.0
 11
80.353104
 21
263.220381
 31
0.0
 11
85.057963
 21
264.268313
 31
0.0
 11
90.223786
 21
264.583778
 31
0.0
  0
LWPOLYLINE
  5
12c
100
AcDbEntity
  8
Layer_1
 62
7
100
AcDbPolyline
 90
3
 70
1
 10
90.223786
 20
264.583778
 30
0.0
 10
94.697962
 20
264.583778
 30
0.0
 10
94.166730
 20
265.944783
 30
0.0
  0
SPLINE
  5
12d
100
AcDbEntity
  8
Layer_1
 62
7
100
AcDbSpline
 70
0
 71
3
 72
115
 73
111
 74
109
 40
0.000000
 40
0.000000
 40
0.000000
 40
0.000000
 40
3.217875
 40
7.424223
 40
11.235060
 40
13.276412
 40
15.542428
 40
18.124110
 40
28.111189
 40
38.327212
 40
49.264563
 40
53.704192
 40
59.033932
 40
64.123405
 40
66.463052
 40
68.413540
 40
70.958632
 40
77.806600
 40
83.885810
 40
89.385132
 40
91.259440
 40
93.055452
 40
94.628930
 40
95.785202
 40
96.625290
 40
97.407686
 40
97.838498
 40
98.211623
 40
98.540769
 40
99.452185
 40
101.052196
 40
102.563959
 40
103.341947
 40
104.160728
 40
105.393938
 40
106.759811
 40
108.028027
 40
109.770336
 40
111.622394
 40
112.967311
 40
114.828174
 40
120.423272
 40
126.121613
 40
132.675045
 40
134.316848
 40
135.539965
 40
136.081754
 40
139.696403
 40
147.341164
 40
153.887347
 40
158.832035
 40
164.090314
 40
168.428950
 40
177.045441
 40
185.276410
 40
192.801947
 40
196.953609
 40
201.591887
 40
206.623055
 40
213.998819
 40
219.539207
 40
224.278122
 40
225.635094
 40
226.920693
 40
228.296460
 40
230.005447
 40
230.525436
 40
232.048182
 40
234.197590
 40
236.084137
 40
238.200942
 40
245.347212
 40
253.012289
 40
262.857073
 40
265.671323
 40
267.704661
 40
270.082243
 40
278.670724
 40
288.157052
 40
298.201524
 40
304.527733
 40
312.004743
 40
320.206491
 40
324.520560
 40
329.684673
 40
337.559325
 40
348.994745
 40
358.306743
 40
366.298887
 40
370.644415
 40
374.538467
 40
378.923125
 40
387.653858
 40
395.489096
 40
402.669779
 40
404.246546
 40
405.826072
 40
407.078967
 40
408.285384
 40
409.279552
 40
410.726302
 40
415.680893
 40
422.189031
 40
428.574139
 40
434.725970
 40
440.291445
 40
446.676527
 40
451.927701
 40
456.983137
 40
463.689141
 40
463.689141
 40
463.689141
 40
463.689141
 10
94.166730
 20
265.944783
 30
0.0
 10
93.959133
 20
267.001611
 30
0.0
 10
93.480170
 20
269.439907
 30
0.0
 10
93.765841
 20
273.200044
 30
0.0
 10
94.278068
 20
276.542611
 30
0.0
 10
95.440816
 20
279.010754
 30
0.0
 10
96.792924
 20
280.877885
 30
0.0
 10
100.174256
 20
284.492714
 30
0.0
 10
107.261553
 20
288.257371
 30
0.0
 10
117.950150
 20
287.815900
 30
0.0
 10
126.013883
 20
283.949387
 30
0.0
 10
130.461776
 20
278.594221
 30
0.0
 10
132.852353
 20
274.225079
 30
0.0
 10
134.282384
 20
270.210591
 30
0.0
 10
134.929846
 20
267.123712
 30
0.0
 10
136.182924
 20
265.170432
 30
0.0
 10
138.979611
 20
262.613159
 30
0.0
 10
143.470825
 20
259.813400
 30
0.0
 10
149.708923
 20
259.007107
 30
0.0
 10
154.295641
 20
260.676128
 30
0.0
 10
156.071435
 20
263.264986
 30
0.0
 10
156.346189
 20
265.062185
 30
0.0
 10
155.722716
 20
266.558377
 30
0.0
 10
154.700049
 20
267.209303
 30
0.0
 10
153.611270
 20
267.259022
 30
0.0
 10
153.338448
 20
266.504419
 30
0.0
 10
153.306263
 20
265.980689
 30
0.0
 10
153.084678
 20
265.654957
 30
0.0
 10
152.513335
 20
265.417313
 30
0.0
 10
152.052275
 20
266.693152
 30
0.0
 10
152.528342
 20
267.848714
 30
0.0
 10
153.184252
 20
269.075933
 30
0.0
 10
154.217345
 20
269.468062
 30
0.0
 10
155.163539
 20
269.196494
 30
0.0
 10
156.095268
 20
268.547132
 30
0.0
 10
157.123238
 20
267.726227
 30
0.0
 10
157.721125
 20
266.341164
 30
0.0
 10
157.822078
 20
264.724466
 30
0.0
 10
157.993528
 20
263.056591
 30
0.0
 10
157.332141
 20
261.439034
 30
0.0
 10
155.134856
 20
259.441379
 30
0.0
 10
151.275473
 20
257.081659
 30
0.0
 10
145.041782
 20
257.117252
 30
0.0
 10
140.783018
 20
259.062605
 30
0.0
 10
138.089839
 20
260.749966
 30
0.0
 10
137.150914
 20
261.284611
 30
0.0
 10
135.375440
 20
262.241951
 30
0.0
 10
137.705710
 20
255.172833
 30
0.0
 10
138.098929
 20
251.403757
 30
0.0
 10
140.094340
 20
244.679913
 30
0.0
 10
142.912056
 20
239.952927
 30
0.0
 10
145.789984
 20
236.016374
 30
0.0
 10
150.007299
 20
231.608430
 30
0.0
 10
156.554700
 20
228.391904
 30
0.0
 10
164.655261
 20
227.296848
 30
0.0
 10
171.519185
 20
228.770151
 30
0.0
 10
175.421443
 20
232.853424
 30
0.0
 10
176.790947
 20
237.386638
 30
0.0
 10
176.542541
 20
243.175407
 30
0.0
 10
174.042606
 20
248.677051
 30
0.0
 10
168.835015
 20
252.922941
 30
0.0
 10
164.606678
 20
250.730821
 30
0.0
 10
163.517533
 20
248.514712
 30
0.0
 10
163.234730
 20
247.177547
 30
0.0
 10
163.197498
 20
245.783823
 30
0.0
 10
163.820524
 20
244.344502
 30
0.0
 10
162.489487
 20
243.597193
 30
0.0
 10
161.979900
 20
245.607769
 30
0.0
 10
161.278529
 20
247.048122
 30
0.0
 10
161.584144
 20
249.254195
 30
0.0
 10
163.657429
 20
252.357674
 30
0.0
 10
169.899426
 20
255.000098
 30
0.0
 10
177.126949
 20
249.047109
 30
0.0
 10
178.981036
 20
242.330838
 30
0.0
 10
179.247938
 20
237.427967
 30
0.0
 10
178.852594
 20
235.026727
 30
0.0
 10
177.011706
 20
231.067170
 30
0.0
 10
171.702198
 20
226.139242
 30
0.0
 10
162.201128
 20
224.244206
 30
0.0
 10
153.404712
 20
225.982807
 30
0.0
 10
146.971143
 20
230.868193
 30
0.0
 10
142.323142
 20
236.597502
 30
0.0
 10
139.079137
 20
242.458798
 30
0.0
 10
136.915110
 20
247.951188
 30
0.0
 10
135.481639
 20
253.567419
 30
0.0
 10
134.016125
 20
261.587627
 30
0.0
 10
131.614628
 20
270.861096
 30
0.0
 10
126.874317
 20
279.400182
 30
0.0
 10
121.049478
 20
283.985468
 30
0.0
 10
115.939616
 20
285.919275
 30
0.0
 10
111.682026
 20
286.243924
 30
0.0
 10
106.091368
 20
285.036083
 30
0.0
 10
99.784667
 20
281.637051
 30
0.0
 10
94.885266
 20
274.888441
 30
0.0
 10
94.951068
 20
268.977198
 30
0.0
 10
96.078574
 20
265.727123
 30
0.0
 10
96.375209
 20
264.278743
 30
0.0
 10
96.525816
 20
262.951162
 30
0.0
 10
96.494539
 20
261.756227
 30
0.0
 10
95.712863
 20
260.736395
 30
0.0
 10
93.391259
 20
259.794254
 30
0.0
 10
90.068483
 20
256.964906
 30
0.0
 10
86.120946
 20
252.509646
 30
0.0
 10
82.669394
 20
247.143764
 30
0.0
 10
80.236641
 20
241.596388
 30
0.0
 10
78.703998
 20
235.728960
 30
0.0
 10
78.260560
 20
229.997537
 30
0.0
 10
78.102104
 20
224.427598
 30
0.0
 10
78.808163
 20
218.780814
 30
0.0
 10
79.715972
 20
214.965624
 30
0.0
 10
80.233576
 20
212.790322
 30
0.0
 11
94.166730
 21
265.944783
 31
0.0
 11
93.669381
 21
269.123992
 31
0.0
 11
93.832169
 21
273.327188
 31
0.0
 11
94.597231
 21
277.060439
 31
0.0
 11
95.459953
 21
278.910528
 31
0.0
 11
96.764507
 21
280.763354
 31
0.0
 11
98.530402
 21
282.646623
 31
0.0
 11
107.349232
 21
287.333836
 31
0.0
 11
117.563613
 21
287.150684
 31
0.0
 11
127.281093
 21
282.131099
 31
0.0
 11
130.161792
 21
278.752952
 31
0.0
 11
132.757952
 21
274.098268
 31
0.0
 11
134.440478
 21
269.294953
 31
0.0
 11
135.102546
 21
267.050935
 31
0.0
 11
136.127416
 21
265.391403
 31
0.0
 11
137.948918
 21
263.613870
 31
0.0
 11
143.869060
 21
260.171983
 31
0.0
 11
149.912925
 21
259.517393
 31
0.0
 11
154.927489
 21
261.774978
 31
0.0
 11
155.951387
 21
263.344903
 31
0.0
 11
156.175809
 21
265.126837
 31
0.0
 11
155.530361
 21
266.561839
 31
0.0
 11
154.538919
 21
267.156825
 31
0.0
 11
153.701303
 21
267.092412
 31
0.0
 11
153.348538
 21
266.394058
 31
0.0
 11
153.264630
 21
265.971496
 31
0.0
 11
153.044655
 21
265.670109
 31
0.0
 11
152.736240
 21
265.555147
 31
0.0
 11
152.256868
 21
266.330313
 31
0.0
 11
152.580161
 21
267.897322
 31
0.0
 11
153.471392
 21
269.118443
 31
0.0
 11
154.204548
 21
269.378725
 31
0.0
 11
155.004805
 21
269.205543
 31
0.0
 11
156.055128
 21
268.559301
 31
0.0
 11
157.057693
 21
267.631686
 31
0.0
 11
157.594461
 21
266.482663
 31
0.0
 11
157.831581
 21
264.756565
 31
0.0
 11
157.833588
 21
262.904508
 31
0.0
 11
157.332520
 21
261.656416
 31
0.0
 11
156.046861
 21
260.311094
 31
0.0
 11
151.150826
 21
257.602966
 31
0.0
 11
145.453782
 21
257.481354
 31
0.0
 11
139.385305
 21
259.955429
 31
0.0
 11
137.979844
 21
260.804072
 31
0.0
 11
136.916995
 21
261.409355
 31
0.0
 11
136.426863
 21
261.640237
 31
0.0
 11
136.706412
 21
258.036414
 31
0.0
 11
138.461685
 21
250.595891
 31
0.0
 11
140.499838
 21
244.375083
 31
0.0
 11
142.930423
 21
240.069018
 31
0.0
 11
146.068910
 21
235.850086
 31
0.0
 11
149.129358
 21
232.774793
 31
0.0
 11
156.776591
 21
228.804435
 31
0.0
 11
164.943125
 21
227.776539
 31
0.0
 11
172.170254
 21
229.874709
 31
0.0
 11
175.030358
 21
232.884045
 31
0.0
 11
176.499131
 21
237.283627
 31
0.0
 11
176.322256
 21
242.311686
 31
0.0
 11
173.131280
 21
248.961465
 31
0.0
 11
168.394317
 21
251.834979
 31
0.0
 11
164.172863
 21
249.681694
 31
0.0
 11
163.560777
 21
248.470610
 31
0.0
 11
163.279492
 21
247.216160
 31
0.0
 11
163.311611
 21
245.840768
 31
0.0
 11
163.334688
 21
244.131937
 31
0.0
 11
162.876116
 21
243.886782
 31
0.0
 11
162.053160
 21
245.167992
 31
0.0
 11
161.446654
 21
247.230055
 31
0.0
 11
161.693863
 21
249.100335
 31
0.0
 11
162.810613
 21
250.898594
 31
0.0
 11
169.447450
 21
253.548416
 31
0.0
 11
175.810517
 21
249.274684
 31
0.0
 11
179.063043
 21
239.982707
 31
0.0
 11
179.143046
 21
237.169594
 31
0.0
 11
178.789980
 21
235.167143
 31
0.0
 11
177.830429
 21
232.991791
 31
0.0
 11
171.615823
 21
227.063835
 31
0.0
 11
162.379072
 21
224.902152
 31
0.0
 11
152.573756
 21
227.080954
 31
0.0
 11
147.451369
 21
230.793377
 31
0.0
 11
142.650825
 21
236.525781
 31
0.0
 11
138.662554
 21
243.692535
 31
0.0
 11
137.097292
 21
247.712628
 31
0.0
 11
135.752033
 21
252.698442
 31
0.0
 11
134.152197
 21
260.408867
 31
0.0
 11
130.925700
 21
271.379672
 31
0.0
 11
126.134914
 21
279.364762
 31
0.0
 11
119.831462
 21
284.278098
 31
0.0
 11
115.746041
 21
285.758958
 31
0.0
 11
111.863193
 21
286.054139
 31
0.0
 11
107.560370
 21
285.210968
 31
0.0
 11
99.950879
 21
280.930623
 31
0.0
 11
95.609947
 21
274.407797
 31
0.0
 11
95.592155
 21
267.227136
 31
0.0
 11
96.045349
 21
265.716900
 31
0.0
 11
96.370770
 21
264.171261
 31
0.0
 11
96.497967
 21
262.924839
 31
0.0
 11
96.356862
 21
261.726702
 31
0.0
 11
95.769526
 21
260.924577
 31
0.0
 11
94.510928
 21
260.211123
 31
0.0
 11
90.545903
 21
257.240170
 31
0.0
 11
86.224964
 21
252.373411
 31
0.0
 11
82.779447
 21
246.997724
 31
0.0
 11
80.318439
 21
241.359597
 31
0.0
 11
78.926018
 21
235.971122
 31
0.0
 11
78.288388
 21
229.617957
 31
0.0
 11
78.236681
 21
224.367037
 31
0.0
 11
78.817199
 21
219.345043
 31
0.0
 11
80.233576
 21
212.790322
 31
0.0
  0
LWPOLYLINE
  5
12e
100
AcDbEntity
  8
Layer_1
 62
7
100
AcDbPolyline
 90
3
 70
1
 10
80.233576
 20
212.790322
 30
0.0
 10
81.154425
 20
208.961895
 30
0.0
 10
82.227694
 20
211.951413
 30
0.0
  0
SPLINE
  5
12f
100
AcDbEntity
  8
Layer_1
 62
7
100
AcDbSpline
 70
0
 71
3
 72
25
 73
21
 74
19
 40
0.000000
 40
0.000000
 40
0.000000
 40
0.000000
 40
5.321604
 40
10.106634
 40
14.163242
 40
18.780866
 40
22.234775
 40
25.567992
 40
27.125031
 40
28.865184
 40
30.440035
 40
32.085016
 40
33.178458
 40
34.366467
 40
36.265237
 40
37.707597
 40
39.011563
 40
40.326972
 40
42.877817
 40
46.410819
 40
46.410819
 40
46.410819
 40
46.410819
 10
82.227694
 20
211.951413
 30
0.0
 10
82.876148
 20
213.603838
 30
0.0
 10
84.107673
 20
216.742076
 30
0.0
 10
86.409804
 20
220.885712
 30
0.0
 10
89.191322
 20
224.432259
 30
0.0
 10
92.224242
 20
227.128202
 30
0.0
 10
95.897162
 20
228.692493
 30
0.0
 10
98.700348
 20
227.976058
 30
0.0
 10
100.794613
 20
227.302874
 30
0.0
 10
102.414161
 20
227.074460
 30
0.0
 10
104.067207
 20
227.043355
 30
0.0
 10
105.507776
 20
227.162198
 30
0.0
 10
106.747163
 20
227.738092
 30
0.0
 10
107.455044
 20
229.003153
 30
0.0
 10
107.911751
 20
230.412243
 30
0.0
 10
107.590627
 20
232.189388
 30
0.0
 10
106.128681
 20
232.514484
 30
0.0
 10
104.612684
 20
233.282430
 30
0.0
 10
102.743729
 20
234.948374
 30
0.0
 10
101.292762
 20
236.355113
 30
0.0
 10
100.450159
 20
237.172033
 30
0.0
 11
82.227694
 21
211.951413
 31
0.0
 11
84.287071
 21
216.858392
 31
0.0
 11
86.642456
 21
221.023566
 31
0.0
 11
89.157737
 21
224.206242
 31
0.0
 11
92.705401
 21
227.162004
 31
0.0
 11
95.960452
 21
228.317050
 31
0.0
 11
99.251409
 21
227.787955
 31
0.0
 11
100.748950
 21
227.361647
 31
0.0
 11
102.469895
 21
227.103808
 31
0.0
 11
104.044380
 21
227.069849
 31
0.0
 11
105.673866
 21
227.295100
 31
0.0
 11
106.640637
 21
227.805953
 31
0.0
 11
107.303361
 21
228.791935
 31
0.0
 11
107.774365
 21
230.631360
 31
0.0
 11
107.360772
 21
232.013150
 31
0.0
 11
106.176106
 21
232.558030
 31
0.0
 11
104.993118
 21
233.133217
 31
0.0
 11
103.006881
 21
234.733739
 31
0.0
 11
100.450159
 21
237.172033
 31
0.0
  0
LWPOLYLINE
  5
130
100
AcDbEntity
  8
Layer_1
 62
7
100
AcDbPolyline
 90
3
 70
1
 10
100.450159
 20
237.172033
 30
0.0
 10
95.886154
 20
241.786036
 30
0.0
 10
96.182612
 20
244.553027
 30
0.0
  0
SPLINE
  5
131
100
AcDbEntity
  8
Layer_1
 62
7
100
AcDbSpline
 70
0
 71
3
 72
34
 73
30
 74
28
 40
0.000000
 40
0.000000
 40
0.000000
 40
0.000000
 40
1.750084
 40
2.957841
 40
3.990001
 40
4.766339
 40
5.258329
 40
5.660876
 40
6.439113
 40
7.928654
 40
9.839425
 40
11.968726
 40
14.037729
 40
15.624165
 40
16.930409
 40
18.231538
 40
19.252302
 40
20.183164
 40
20.546533
 40
22.012215
 40
25.152602
 40
28.055778
 40
31.110243
 40
34.023785
 40
34.573594
 40
36.815292
 40
40.726604
 40
44.431089
 40
47.544798
 40
47.544798
 40
47.544798
 40
47.544798
 10
96.182612
 20
244.553027
 30
0.0
 10
96.236440
 20
245.132623
 30
0.0
 10
96.327417
 20
246.112207
 30
0.0
 10
96.174838
 20
247.468217
 30
0.0
 10
95.571985
 20
248.318671
 30
0.0
 10
95.072702
 20
248.855868
 30
0.0
 10
94.824549
 20
249.457090
 30
0.0
 10
95.276323
 20
249.875967
 30
0.0
 10
95.607933
 20
250.699006
 30
0.0
 10
95.876521
 20
252.077132
 30
0.0
 10
96.060670
 20
253.907993
 30
0.0
 10
96.317125
 20
255.931022
 30
0.0
 10
96.761803
 20
257.810786
 30
0.0
 10
97.364056
 20
259.363520
 30
0.0
 10
98.053112
 20
260.566105
 30
0.0
 10
98.497073
 20
261.748937
 30
0.0
 10
98.923698
 20
262.583607
 30
0.0
 10
98.893786
 20
263.837188
 30
0.0
 10
99.880485
 20
263.284291
 30
0.0
 10
100.110858
 20
261.562597
 30
0.0
 10
101.656928
 20
259.524334
 30
0.0
 10
103.984466
 20
257.413827
 30
0.0
 10
106.840617
 20
256.881538
 30
0.0
 10
109.033510
 20
255.539313
 30
0.0
 10
110.830571
 20
256.870963
 30
0.0
 10
107.271757
 20
258.199232
 30
0.0
 10
105.796733
 20
260.414175
 30
0.0
 10
103.347422
 20
263.335274
 30
0.0
 10
102.731016
 20
265.528665
 30
0.0
 10
102.449517
 20
266.530335
 30
0.0
 11
96.182612
 21
244.553027
 31
0.0
 11
96.272651
 21
246.300793
 31
0.0
 11
96.062868
 21
247.490192
 31
0.0
 11
95.510742
 21
248.362265
 31
0.0
 11
95.043548
 21
248.982289
 31
0.0
 11
94.924533
 21
249.459667
 31
0.0
 11
95.154837
 21
249.789824
 31
0.0
 11
95.503602
 21
250.485537
 31
0.0
 11
95.829234
 21
251.939049
 31
0.0
 11
96.061234
 21
253.835683
 31
0.0
 11
96.357337
 21
255.944295
 31
0.0
 11
96.851023
 21
257.953536
 31
0.0
 11
97.435410
 21
259.428416
 31
0.0
 11
98.026508
 21
260.593266
 31
0.0
 11
98.537791
 21
261.789731
 31
0.0
 11
98.858567
 21
262.758782
 31
0.0
 11
99.134462
 21
263.647819
 31
0.0
 11
99.463934
 21
263.494570
 31
0.0
 11
100.107626
 21
262.177799
 31
0.0
 11
101.787260
 21
259.524339
 31
0.0
 11
104.039317
 21
257.692216
 31
0.0
 11
106.908637
 21
256.644951
 31
0.0
 11
109.776202
 21
256.129394
 31
0.0
 11
110.206029
 21
256.472232
 31
0.0
 11
108.469644
 21
257.890040
 31
0.0
 11
105.607808
 21
260.556171
 31
0.0
 11
103.490061
 21
263.595637
 31
0.0
 11
102.449517
 21
266.530335
 31
0.0
  0
LWPOLYLINE
  5
132
100
AcDbEntity
  8
Layer_1
 62
7
100
AcDbPolyline
 90
3
 70
1
 10
102.449517
 20
266.530335
 30
0.0
 10
102.147934
 20
268.631152
 30
0.0
 10
103.865595
 20
265.808303
 30
0.0
  0
SPLINE
  5
133
100
AcDbEntity
  8
Layer_1
 62
7
100
AcDbSpline
 70
0
 71
3
 72
40
 73
36
 74
34
 40
0.000000
 40
0.000000
 40
0.000000
 40
0.000000
 40
5.819308
 40
12.187778
 40
20.594769
 40
31.142248
 40
39.367641
 40
46.470733
 40
49.123994
 40
51.027226
 40
53.243868
 40
56.522511
 40
59.632879
 40
63.109282
 40
65.362830
 40
67.514931
 40
69.352023
 40
70.124376
 40
70.796082
 40
71.264788
 40
71.549798
 40
71.974754
 40
72.648494
 40
74.543942
 40
76.402049
 40
79.169285
 40
83.818001
 40
88.749810
 40
94.958590
 40
102.421186
 40
111.068351
 40
121.729431
 40
126.588721
 40
130.015160
 40
132.689292
 40
132.689292
 40
132.689292
 40
132.689292
 10
103.865595
 20
265.808303
 30
0.0
 10
105.000175
 20
264.215718
 30
0.0
 10
107.376403
 20
260.880258
 30
0.0
 10
113.305365
 20
257.134604
 30
0.0
 10
121.236644
 20
254.288591
 30
0.0
 10
129.528862
 20
250.534253
 30
0.0
 10
135.791548
 20
243.885218
 30
0.0
 10
136.176038
 20
237.473647
 30
0.0
 10
134.998563
 20
233.740977
 30
0.0
 10
133.591948
 20
231.886359
 30
0.0
 10
131.319757
 20
230.816646
 30
0.0
 10
128.373310
 20
230.258654
 30
0.0
 10
125.270647
 20
231.816519
 30
0.0
 10
123.469786
 20
234.347683
 30
0.0
 10
123.242874
 20
237.058437
 30
0.0
 10
124.117398
 20
239.065535
 30
0.0
 10
125.648450
 20
239.931268
 30
0.0
 10
126.762711
 20
239.776205
 30
0.0
 10
127.346555
 20
239.595482
 30
0.0
 10
127.836156
 20
239.369703
 30
0.0
 10
127.832560
 20
238.894684
 30
0.0
 10
127.309567
 20
238.740128
 30
0.0
 10
126.381668
 20
238.718397
 30
0.0
 10
124.632690
 20
238.254513
 30
0.0
 10
124.646581
 20
235.693977
 30
0.0
 10
126.218595
 20
233.047153
 30
0.0
 10
131.027563
 20
231.141749
 30
0.0
 10
134.617530
 20
236.467662
 30
0.0
 10
133.828742
 20
242.926656
 30
0.0
 10
128.694613
 20
248.807494
 30
0.0
 10
120.539349
 20
252.778006
 30
0.0
 10
112.471930
 20
253.941723
 30
0.0
 10
106.245859
 20
254.589656
 30
0.0
 10
102.603676
 20
255.649872
 30
0.0
 10
101.218509
 20
257.183333
 30
0.0
 10
100.611333
 20
257.855512
 30
0.0
 11
103.865595
 21
265.808303
 31
0.0
 11
107.527513
 21
261.285615
 31
0.0
 11
112.787999
 21
257.696090
 31
0.0
 11
120.535960
 21
254.433176
 31
0.0
 11
129.863604
 21
249.509318
 31
0.0
 11
135.089289
 21
243.157208
 31
0.0
 11
135.638362
 21
236.075371
 31
0.0
 11
134.757986
 21
233.572425
 31
0.0
 11
133.569607
 21
232.085804
 31
0.0
 11
131.614376
 21
231.041497
 31
0.0
 11
128.362614
 21
230.622523
 31
0.0
 11
125.548487
 21
231.947319
 31
0.0
 11
123.589615
 21
234.819287
 31
0.0
 11
123.434619
 21
237.067498
 31
0.0
 11
124.372204
 21
239.004628
 31
0.0
 11
126.014155
 21
239.828582
 31
0.0
 11
126.782697
 21
239.751941
 31
0.0
 11
127.423648
 21
239.551016
 31
0.0
 11
127.798249
 21
239.269308
 31
0.0
 11
127.790091
 21
238.984414
 31
0.0
 11
127.414786
 21
238.785082
 31
0.0
 11
126.745238
 21
238.710034
 31
0.0
 11
124.998095
 21
237.975042
 31
0.0
 11
124.769582
 21
236.131040
 31
0.0
 11
126.126793
 21
233.719490
 31
0.0
 11
130.551679
 21
232.294376
 31
0.0
 11
133.738218
 21
236.058510
 31
0.0
 11
133.352825
 21
242.255318
 31
0.0
 11
128.709244
 21
248.097193
 31
0.0
 11
121.039850
 21
252.091420
 31
0.0
 11
110.573335
 21
254.118899
 31
0.0
 11
105.764433
 21
254.816879
 31
0.0
 11
102.556251
 21
256.020226
 31
0.0
 11
100.611333
 21
257.855512
 31
0.0
  0
LWPOLYLINE
  5
134
100
AcDbEntity
  8
Layer_1
 62
7
100
AcDbPolyline
 90
3
 70
1
 10
100.611333
 20
257.855512
 30
0.0
 10
99.503571
 20
259.559725
 30
0.0
 10
98.804761
 20
258.287843
 30
0.0
  0
SPLINE
  5
135
100
AcDbEntity
  8
Layer_1
 62
7
100
AcDbSpline
 70
0
 71
3
 72
10
 73
6
 74
4
 40
0.000000
 40
0.000000
 40
0.000000
 40
0.000000
 40
1.139857
 40
2.763485
 40
4.535527
 40
4.535527
 40
4.535527
 40
4.535527
 10
98.804761
 20
258.287843
 30
0.0
 10
98.665796
 20
257.933626
 30
0.0
 10
98.328887
 20
257.074856
 30
0.0
 10
98.035141
 20
255.584377
 30
0.0
 10
97.899313
 20
254.461278
 30
0.0
 10
97.828430
 20
253.875186
 30
0.0
 11
98.804761
 21
258.287843
 31
0.0
 11
98.414735
 21
257.216790
 31
0.0
 11
98.063979
 21
255.631502
 31
0.0
 11
97.828430
 21
253.875186
 31
0.0
  0
LWPOLYLINE
  5
136
100
AcDbEntity
  8
Layer_1
 62
7
100
AcDbPolyline
 90
3
 70
1
 10
97.828430
 20
253.875186
 30
0.0
 10
97.550913
 20
250.734408
 30
0.0
 10
100.042980
 20
249.676780
 30
0.0
  0
SPLINE
  5
137
100
AcDbEntity
  8
Layer_1
 62
7
100
AcDbSpline
 70
0
 71
3
 72
133
 73
129
 74
127
 40
0.000000
 40
0.000000
 40
0.000000
 40
0.000000
 40
1.548305
 40
2.123033
 40
2.648748
 40
5.405798
 40
6.646919
 40
8.501943
 40
10.432270
 40
12.666710
 40
16.805566
 40
19.906115
 40
22.234774
 40
23.303787
 40
25.453421
 40
29.156669
 40
32.397160
 40
33.385018
 40
34.375365
 40
35.211390
 40
35.930532
 40
36.600979
 40
37.162651
 40
37.691058
 40
38.196371
 40
38.808753
 40
39.442707
 40
39.862694
 40
40.536166
 40
41.304472
 40
42.235640
 40
43.358631
 40
44.329991
 40
45.006534
 40
45.302313
 40
46.398283
 40
48.160449
 40
49.944423
 40
54.555945
 40
60.857293
 40
65.953833
 40
67.042883
 40
68.065417
 40
69.351743
 40
72.472256
 40
75.554230
 40
78.515102
 40
80.878299
 40
84.649514
 40
91.251684
 40
99.969554
 40
103.862069
 40
106.562978
 40
114.338366
 40
121.599399
 40
127.941692
 40
130.529655
 40
132.285739
 40
134.031237
 40
140.040608
 40
145.526147
 40
150.398597
 40
151.932316
 40
153.177732
 40
155.142923
 40
156.217835
 40
156.661567
 40
157.120477
 40
158.786073
 40
160.712165
 40
162.594197
 40
165.915392
 40
169.610079
 40
173.807329
 40
181.200662
 40
187.837808
 40
195.445871
 40
199.485571
 40
203.635122
 40
207.584294
 40
210.098832
 40
211.301520
 40
215.809690
 40
221.348462
 40
226.739783
 40
234.497565
 40
240.188275
 40
243.843799
 40
246.227629
 40
247.296521
 40
248.951996
 40
250.866992
 40
253.149188
 40
255.091567
 40
257.002673
 40
259.957999
 40
262.758736
 40
264.198934
 40
264.837909
 40
266.442563
 40
268.684654
 40
271.858229
 40
274.048495
 40
276.864524
 40
278.980778
 40
280.809949
 40
281.984270
 40
284.459305
 40
288.139874
 40
292.999406
 40
301.122246
 40
308.489417
 40
314.493425
 40
321.126711
 40
324.879841
 40
328.432977
 40
331.837808
 40
336.655284
 40
341.848532
 40
350.699911
 40
355.774124
 40
360.499865
 40
362.901559
 40
364.593069
 40
366.658697
 40
368.286539
 40
370.154993
 40
372.600875
 40
372.600875
 40
372.600875
 40
372.600875
 10
100.042980
 20
249.676780
 30
0.0
 10
100.461399
 20
249.521356
 30
0.0
 10
101.035134
 20
249.308238
 30
0.0
 10
102.095081
 20
248.594778
 30
0.0
 10
100.379263
 20
248.091683
 30
0.0
 10
99.170322
 20
248.251033
 30
0.0
 10
97.387650
 20
246.914705
 30
0.0
 10
97.727356
 20
245.077595
 30
0.0
 10
97.686429
 20
243.072486
 30
0.0
 10
99.370168
 20
240.707562
 30
0.0
 10
101.454579
 20
238.425764
 30
0.0
 10
103.650294
 20
236.034842
 30
0.0
 10
105.161772
 20
234.619856
 30
0.0
 10
106.667149
 20
233.219454
 30
0.0
 10
108.898597
 20
235.065469
 30
0.0
 10
111.368952
 20
236.286553
 30
0.0
 10
113.672109
 20
237.776790
 30
0.0
 10
114.842102
 20
239.066893
 30
0.0
 10
115.307784
 20
239.901370
 30
0.0
 10
115.460581
 20
240.743084
 30
0.0
 10
115.525490
 20
241.482974
 30
0.0
 10
115.829779
 20
242.091638
 30
0.0
 10
116.311393
 20
242.435729
 30
0.0
 10
116.811718
 20
242.675123
 30
0.0
 10
117.001350
 20
243.244842
 30
0.0
 10
116.889367
 20
243.811806
 30
0.0
 10
116.654400
 20
244.378292
 30
0.0
 10
117.072865
 20
244.898292
 30
0.0
 10
117.741920
 20
244.813024
 30
0.0
 10
118.512492
 20
245.041319
 30
0.0
 10
119.238991
 20
245.683408
 30
0.0
 10
119.759938
 20
246.551524
 30
0.0
 10
120.243953
 20
247.331854
 30
0.0
 10
120.575497
 20
247.900896
 30
0.0
 10
121.346888
 20
248.157378
 30
0.0
 10
121.074371
 20
246.436745
 30
0.0
 10
120.621762
 20
245.287207
 30
0.0
 10
118.731631
 20
243.114620
 30
0.0
 10
117.339162
 20
239.040023
 30
0.0
 10
117.266694
 20
233.727209
 30
0.0
 10
117.781542
 20
229.367650
 30
0.0
 10
119.348786
 20
227.472295
 30
0.0
 10
120.419084
 20
226.994415
 30
0.0
 10
122.242149
 20
226.964635
 30
0.0
 10
124.739541
 20
226.736101
 30
0.0
 10
127.633141
 20
225.675603
 30
0.0
 10
130.049085
 20
224.180264
 30
0.0
 10
131.996783
 20
221.802348
 30
0.0
 10
133.713295
 20
217.895002
 30
0.0
 10
136.034843
 20
211.964616
 30
0.0
 10
138.325157
 20
206.053589
 30
0.0
 10
140.290472
 20
201.205515
 30
0.0
 10
144.040475
 20
198.103944
 30
0.0
 10
148.959652
 20
194.855849
 30
0.0
 10
155.495050
 20
191.879515
 30
0.0
 10
160.823706
 20
190.760698
 30
0.0
 10
164.384836
 20
190.590705
 30
0.0
 10
166.425327
 20
190.858045
 30
0.0
 10
169.271201
 20
192.340342
 30
0.0
 10
172.316376
 20
195.829358
 30
0.0
 10
173.369783
 20
201.606133
 30
0.0
 10
170.975227
 20
205.245793
 30
0.0
 10
168.429001
 20
206.330647
 30
0.0
 10
166.924824
 20
205.468814
 30
0.0
 10
166.325701
 20
204.060165
 30
0.0
 10
165.981812
 20
203.081240
 30
0.0
 10
165.393875
 20
202.434572
 30
0.0
 10
164.864695
 20
203.440030
 30
0.0
 10
165.053541
 20
204.711388
 30
0.0
 10
165.918904
 20
206.400046
 30
0.0
 10
167.874976
 20
207.930023
 30
0.0
 10
171.214068
 20
207.549760
 30
0.0
 10
173.915756
 20
204.649953
 30
0.0
 10
175.085865
 20
199.543089
 30
0.0
 10
173.461457
 20
193.240314
 30
0.0
 10
167.403247
 20
188.422789
 30
0.0
 10
160.908569
 20
188.522148
 30
0.0
 10
155.945255
 20
189.890535
 30
0.0
 10
151.880248
 20
191.510143
 30
0.0
 10
149.580504
 20
192.547646
 30
0.0
 10
145.656420
 20
195.168074
 30
0.0
 10
147.841452
 20
192.094369
 30
0.0
 10
150.592352
 20
190.481043
 30
0.0
 10
154.642001
 20
186.892136
 30
0.0
 10
158.707562
 20
182.251094
 30
0.0
 10
162.295318
 20
177.072764
 30
0.0
 10
165.691712
 20
172.460453
 30
0.0
 10
168.380261
 20
169.672926
 30
0.0
 10
170.734167
 20
168.569907
 30
0.0
 10
172.393821
 20
169.127415
 30
0.0
 10
173.763898
 20
169.829488
 30
0.0
 10
175.394250
 20
170.909351
 30
0.0
 10
177.082617
 20
172.070439
 30
0.0
 10
178.995092
 20
172.857525
 30
0.0
 10
181.210302
 20
173.284107
 30
0.0
 10
183.973990
 20
173.038376
 30
0.0
 10
185.719677
 20
172.918906
 30
0.0
 10
188.332687
 20
171.738204
 30
0.0
 10
186.747879
 20
171.398404
 30
0.0
 10
185.440792
 20
171.361561
 30
0.0
 10
183.011594
 20
171.271957
 30
0.0
 10
180.500105
 20
171.362400
 30
0.0
 10
177.806416
 20
170.666587
 30
0.0
 10
175.839123
 20
169.304541
 30
0.0
 10
173.883792
 20
168.174437
 30
0.0
 10
172.346067
 20
167.463416
 30
0.0
 10
170.553907
 20
166.882099
 30
0.0
 10
168.178830
 20
168.101243
 30
0.0
 10
165.488342
 20
170.511911
 30
0.0
 10
162.067685
 20
174.950016
 30
0.0
 10
158.028701
 20
180.375667
 30
0.0
 10
153.262218
 20
185.747229
 30
0.0
 10
148.351330
 20
190.279246
 30
0.0
 10
143.952901
 20
193.513193
 30
0.0
 10
140.582118
 20
196.772700
 30
0.0
 10
138.823123
 20
199.914183
 30
0.0
 10
137.192617
 20
203.480254
 30
0.0
 10
135.511546
 20
207.623710
 30
0.0
 10
133.291014
 20
213.525929
 30
0.0
 10
131.323591
 20
219.482812
 30
0.0
 10
127.444937
 20
224.925139
 30
0.0
 10
123.110629
 20
225.352684
 30
0.0
 10
120.169895
 20
225.248969
 30
0.0
 10
118.226145
 20
226.162238
 30
0.0
 10
117.197703
 20
227.691649
 30
0.0
 10
116.351830
 20
229.345011
 30
0.0
 10
115.975650
 20
231.314226
 30
0.0
 10
115.925326
 20
232.750620
 30
0.0
 10
115.896796
 20
233.564939
 30
0.0
 11
100.042980
 21
249.676780
 31
0.0
 11
101.444944
 21
249.019708
 31
0.0
 11
101.861066
 21
248.623280
 31
0.0
 11
101.386713
 21
248.396640
 31
0.0
 11
98.694243
 21
247.803404
 31
0.0
 11
97.759772
 21
246.986615
 31
0.0
 11
97.654649
 21
245.134572
 31
0.0
 11
97.875997
 21
243.216977
 31
0.0
 11
98.997516
 21
241.284384
 31
0.0
 11
101.705424
 21
238.154310
 31
0.0
 11
103.832946
 21
235.898860
 31
0.0
 11
105.516644
 21
234.290192
 31
0.0
 11
106.392009
 21
233.676575
 31
0.0
 11
108.357713
 21
234.546593
 31
0.0
 11
111.531624
 21
236.454561
 31
0.0
 11
114.161858
 21
238.347350
 31
0.0
 11
114.812577
 21
239.090604
 31
0.0
 11
115.276693
 21
239.965466
 31
0.0
 11
115.453727
 21
240.782533
 31
0.0
 11
115.574094
 21
241.491529
 31
0.0
 11
115.889651
 21
242.083072
 31
0.0
 11
116.332082
 21
242.429093
 31
0.0
 11
116.765370
 21
242.731542
 31
0.0
 11
116.948092
 21
243.202662
 31
0.0
 11
116.867553
 21
243.809725
 31
0.0
 11
116.770376
 21
244.436187
 31
0.0
 11
117.030350
 21
244.766038
 31
0.0
 11
117.696945
 21
244.862041
 31
0.0
 11
118.436218
 21
245.071251
 31
0.0
 11
119.153646
 21
245.664859
 31
0.0
 11
119.787549
 21
246.591832
 31
0.0
 11
120.293102
 21
247.421262
 31
0.0
 11
120.735717
 21
247.932929
 31
0.0
 11
121.019573
 21
248.016060
 31
0.0
 11
121.127272
 21
246.925395
 31
0.0
 11
120.506375
 21
245.276239
 31
0.0
 11
119.447499
 21
243.840501
 31
0.0
 11
117.729382
 21
239.560990
 31
0.0
 11
117.420647
 21
233.267210
 31
0.0
 11
118.686665
 21
228.330417
 31
0.0
 11
119.418045
 21
227.523503
 31
0.0
 11
120.345408
 21
227.092720
 31
0.0
 11
121.625408
 21
226.965297
 31
0.0
 11
124.724600
 21
226.601140
 31
0.0
 11
127.626782
 21
225.563886
 31
0.0
 11
130.100225
 21
223.936358
 31
0.0
 11
131.623004
 21
222.129194
 31
0.0
 11
133.313713
 21
218.758205
 31
0.0
 11
135.770758
 21
212.630271
 31
0.0
 11
138.955518
 21
204.514942
 31
0.0
 11
140.748195
 21
201.059804
 31
0.0
 11
142.727513
 21
199.222085
 31
0.0
 11
149.216334
 21
194.938177
 31
0.0
 11
155.866635
 21
192.023372
 31
0.0
 11
162.077905
 21
190.740870
 31
0.0
 11
164.664889
 21
190.669684
 31
0.0
 11
166.397292
 21
190.957104
 31
0.0
 11
167.968162
 21
191.718109
 31
0.0
 11
171.916505
 21
196.248356
 31
0.0
 11
172.637284
 21
201.686334
 31
0.0
 11
169.815942
 21
205.658840
 31
0.0
 11
168.346371
 21
206.097762
 31
0.0
 11
167.238655
 21
205.528527
 31
0.0
 11
166.253439
 21
203.828138
 31
0.0
 11
165.768410
 21
202.868876
 31
0.0
 11
165.418294
 21
202.596266
 31
0.0
 11
165.138377
 21
202.959921
 31
0.0
 11
165.127497
 21
204.625481
 31
0.0
 11
166.039144
 21
206.322163
 31
0.0
 11
167.548797
 21
207.445992
 31
0.0
 11
170.862720
 21
207.226329
 31
0.0
 11
173.510325
 21
204.649335
 31
0.0
 11
174.589395
 21
200.593165
 31
0.0
 11
172.650513
 21
193.458594
 31
0.0
 11
167.442467
 21
189.344232
 31
0.0
 11
159.844887
 21
188.944994
 31
0.0
 11
155.938518
 21
189.974294
 31
0.0
 11
152.064453
 21
191.461035
 31
0.0
 11
148.557440
 21
193.276749
 31
0.0
 11
146.307449
 21
194.399442
 31
0.0
 11
146.958021
 21
193.387901
 31
0.0
 11
150.376303
 21
190.448693
 31
0.0
 11
154.555045
 21
186.813296
 31
0.0
 11
158.132797
 21
182.780179
 31
0.0
 11
162.725379
 21
176.527871
 31
0.0
 11
166.201972
 21
172.022597
 31
0.0
 11
168.897313
 21
169.553186
 31
0.0
 11
171.159322
 21
168.800883
 31
0.0
 11
172.190833
 21
169.081089
 31
0.0
 11
173.674401
 21
169.815681
 31
0.0
 11
175.288843
 21
170.845625
 31
0.0
 11
177.221313
 21
172.059701
 31
0.0
 11
179.018202
 21
172.797282
 31
0.0
 11
180.896923
 21
173.147610
 31
0.0
 11
183.850856
 21
173.056861
 31
0.0
 11
186.591438
 21
172.479507
 31
0.0
 11
187.798366
 21
171.693697
 31
0.0
 11
187.188583
 21
171.502771
 31
0.0
 11
185.589962
 21
171.363751
 31
0.0
 11
183.348596
 21
171.306731
 31
0.0
 11
180.177094
 21
171.192042
 31
0.0
 11
178.063368
 21
170.618083
 31
0.0
 11
175.624970
 21
169.209456
 31
0.0
 11
173.788099
 21
168.158534
 31
0.0
 11
172.119557
 21
167.408977
 31
0.0
 11
170.980574
 21
167.123063
 31
0.0
 11
168.648838
 21
167.953005
 31
0.0
 11
165.838121
 21
170.329233
 31
0.0
 11
162.749972
 21
174.081351
 31
0.0
 11
157.779560
 21
180.505955
 31
0.0
 11
152.863598
 21
185.993078
 31
0.0
 11
148.440592
 21
190.053266
 31
0.0
 11
143.292430
 21
194.236199
 31
0.0
 11
140.683350
 21
196.934101
 31
0.0
 11
138.845499
 21
199.975003
 31
0.0
 11
137.406774
 21
203.060930
 31
0.0
 11
135.576213
 21
207.517062
 31
0.0
 11
133.750123
 21
212.378670
 31
0.0
 11
130.343874
 21
220.548393
 31
0.0
 11
126.985552
 21
224.352247
 31
0.0
 11
122.353276
 21
225.287477
 31
0.0
 11
119.958238
 21
225.466154
 31
0.0
 11
118.439121
 21
226.210124
 31
0.0
 11
117.159032
 21
227.831293
 31
0.0
 11
116.455707
 21
229.299355
 31
0.0
 11
116.053994
 21
231.124114
 31
0.0
 11
115.896796
 21
233.564939
 31
0.0
  0
LWPOLYLINE
  5
138
100
AcDbEntity
  8
Layer_1
 62
7
100
AcDbPolyline
 90
3
 70
1
 10
115.896796
 20
233.564939
 30
0.0
 10
115.823314
 20
237.425025
 30
0.0
 10
112.480621
 20
235.485439
 30
0.0
  0
SPLINE
  5
139
100
AcDbEntity
  8
Layer_1
 62
7
100
AcDbSpline
 70
0
 71
3
 72
16
 73
12
 74
10
 40
0.000000
 40
0.000000
 40
0.000000
 40
0.000000
 40
2.672412
 40
4.108890
 40
5.661523
 40
8.483845
 40
10.681753
 40
13.027036
 40
14.686995
 40
15.250215
 40
16.278019
 40
16.278019
 40
16.278019
 40
16.278019
 10
112.480621
 20
235.485439
 30
0.0
 10
111.700808
 20
235.068337
 30
0.0
 10
110.501829
 20
234.427033
 30
0.0
 10
109.097392
 20
232.991283
 30
0.0
 10
109.170600
 20
230.955805
 30
0.0
 10
109.054415
 20
228.772965
 30
0.0
 10
107.857003
 20
226.518669
 30
0.0
 10
106.054651
 20
225.334707
 30
0.0
 10
104.506691
 20
225.087642
 30
0.0
 10
103.809615
 20
223.999908
 30
0.0
 10
104.399259
 20
223.686893
 30
0.0
 10
104.780170
 20
223.484684
 30
0.0
 11
112.480621
 21
235.485439
 31
0.0
 11
110.217198
 21
234.064628
 31
0.0
 11
109.306150
 21
232.954015
 31
0.0
 11
109.137924
 21
231.410523
 31
0.0
 11
108.813478
 21
228.606911
 31
0.0
 11
107.744875
 21
226.686264
 31
0.0
 11
105.789222
 21
225.391747
 31
0.0
 11
104.289281
 21
224.680664
 31
0.0
 11
104.025873
 21
224.182835
 31
0.0
 11
104.780170
 21
223.484684
 31
0.0
  0
LWPOLYLINE
  5
13a
100
AcDbEntity
  8
Layer_1
 62
7
100
AcDbPolyline
 90
3
 70
1
 10
104.780170
 20
223.484684
 30
0.0
 10
105.980024
 20
222.540933
 30
0.0
 10
104.708136
 20
222.516041
 30
0.0
  0
SPLINE
  5
13b
100
AcDbEntity
  8
Layer_1
 62
7
100
AcDbSpline
 70
0
 71
3
 72
37
 73
33
 74
31
 40
0.000000
 40
0.000000
 40
0.000000
 40
0.000000
 40
0.922441
 40
2.189563
 40
3.569651
 40
6.695844
 40
8.668430
 40
10.618820
 40
13.464610
 40
16.167488
 40
18.884798
 40
24.305402
 40
33.740661
 40
43.613561
 40
48.988380
 40
53.609442
 40
58.002832
 40
62.879993
 40
68.939206
 40
79.115400
 40
84.617014
 40
88.919097
 40
91.103489
 40
92.293420
 40
93.945617
 40
95.719715
 40
98.287168
 40
101.857166
 40
106.601218
 40
110.492355
 40
113.141981
 40
114.004947
 40
114.004947
 40
114.004947
 40
114.004947
 10
104.708136
 20
222.516041
 30
0.0
 10
104.404125
 20
222.571401
 30
0.0
 10
103.682507
 20
222.702809
 30
0.0
 10
102.624724
 20
223.285026
 30
0.0
 10
101.069256
 20
224.416461
 30
0.0
 10
99.485360
 20
225.880238
 30
0.0
 10
97.215920
 20
226.844583
 30
0.0
 10
94.945574
 20
226.275521
 30
0.0
 10
92.668540
 20
225.265389
 30
0.0
 10
90.431450
 20
223.600334
 30
0.0
 10
88.138005
 20
220.760997
 30
0.0
 10
85.936631
 20
215.279393
 30
0.0
 10
82.540324
 20
207.792601
 30
0.0
 10
79.584969
 20
200.104447
 30
0.0
 10
77.078072
 20
193.973664
 30
0.0
 10
74.693797
 20
189.777599
 30
0.0
 10
71.678926
 20
186.258582
 30
0.0
 10
68.328259
 20
182.357141
 30
0.0
 10
65.556043
 20
175.806399
 30
0.0
 10
63.209110
 20
168.992198
 30
0.0
 10
61.035878
 20
162.657255
 30
0.0
 10
59.467359
 20
159.047309
 30
0.0
 10
58.577571
 20
156.533408
 30
0.0
 10
57.180790
 20
155.542848
 30
0.0
 10
55.880523
 20
154.733164
 30
0.0
 10
54.051811
 20
153.914406
 30
0.0
 10
51.762525
 20
152.588688
 30
0.0
 10
48.970240
 20
150.254565
 30
0.0
 10
46.053736
 20
147.410505
 30
0.0
 10
43.298433
 20
144.880230
 30
0.0
 10
41.558783
 20
143.064931
 30
0.0
 10
40.498703
 20
142.557695
 30
0.0
 10
40.238265
 20
142.433078
 30
0.0
 11
104.708136
 21
222.516041
 31
0.0
 11
103.809023
 21
222.722184
 31
0.0
 11
102.674518
 21
223.286539
 31
0.0
 11
101.550236
 21
224.086932
 31
0.0
 11
99.054840
 21
225.970037
 31
0.0
 11
97.195413
 21
226.628540
 31
0.0
 11
95.271105
 21
226.310643
 31
0.0
 11
92.673317
 21
225.148738
 31
0.0
 11
90.514989
 21
223.521727
 31
0.0
 11
88.788198
 21
221.423641
 31
0.0
 11
86.415663
 21
216.549830
 31
0.0
 11
82.681624
 21
207.884896
 31
0.0
 11
79.005232
 21
198.722021
 31
0.0
 11
76.868738
 21
193.790077
 31
0.0
 11
74.534477
 21
189.801915
 31
0.0
 11
71.780702
 21
186.378671
 31
0.0
 11
68.776428
 21
182.536662
 31
0.0
 11
66.149402
 21
177.076551
 31
0.0
 11
62.699104
 21
167.503132
 31
0.0
 11
60.837269
 21
162.326132
 31
0.0
 11
59.232874
 21
158.334411
 31
0.0
 11
58.233262
 21
156.392159
 31
0.0
 11
57.307356
 21
155.644739
 31
0.0
 11
55.896192
 21
154.785456
 31
0.0
 11
54.305279
 21
154.000331
 31
0.0
 11
52.087798
 21
152.706271
 31
0.0
 11
49.298572
 21
150.478019
 31
0.0
 11
45.836363
 21
147.234697
 31
0.0
 11
43.016580
 21
144.553322
 31
0.0
 11
41.005412
 21
142.828295
 31
0.0
 11
40.238265
 21
142.433078
 31
0.0
  0
LWPOLYLINE
  5
13c
100
AcDbEntity
  8
Layer_1
 62
7
100
AcDbPolyline
 90
2
 70
1
 10
40.238265
 20
142.433078
 30
0.0
 10
40.238265
 20
142.433081
 30
0.0
  0
SPLINE
  5
13d
100
AcDbEntity
  8
Layer_1
 62
7
100
AcDbSpline
 70
0
 71
3
 72
22
 73
18
 74
16
 40
0.000000
 40
0.000000
 40
0.000000
 40
0.000000
 40
2.559455
 40
4.998379
 40
7.784313
 40
9.882356
 40
11.389797
 40
12.018680
 40
13.521983
 40
16.555603
 40
19.688027
 40
23.401358
 40
27.153507
 40
28.893592
 40
29.425936
 40
30.378015
 40
33.344965
 40
33.344965
 40
33.344965
 40
33.344965
 10
192.678758
 20
167.413383
 30
0.0
 10
191.878330
 20
167.710987
 30
0.0
 10
190.315166
 20
168.292182
 30
0.0
 10
187.738136
 20
168.751572
 30
0.0
 10
185.320014
 20
168.777622
 30
0.0
 10
183.121907
 20
168.873661
 30
0.0
 10
181.858271
 20
168.899582
 30
0.0
 10
180.370943
 20
169.456290
 30
0.0
 10
183.276486
 20
170.339709
 30
0.0
 10
185.112769
 20
170.365256
 30
0.0
 10
188.643187
 20
170.432938
 30
0.0
 10
192.134677
 20
169.258787
 30
0.0
 10
194.391099
 20
168.125834
 30
0.0
 10
197.054040
 20
166.973482
 30
0.0
 10
196.287900
 20
165.864893
 30
0.0
 10
194.703243
 20
166.726680
 30
0.0
 10
193.551044
 20
167.117504
 30
0.0
 10
192.678758
 20
167.413383
 30
0.0
 11
192.678758
 21
167.413383
 31
0.0
 11
190.253462
 21
168.231150
 31
0.0
 11
187.853972
 21
168.667956
 31
0.0
 11
185.071089
 21
168.798295
 31
0.0
 11
182.974328
 21
168.871664
 31
0.0
 11
181.478844
 21
169.061148
 31
0.0
 11
180.908401
 21
169.325890
 31
0.0
 11
182.254844
 21
169.994480
 31
0.0
 11
185.265110
 21
170.370180
 31
0.0
 11
188.395607
 21
170.260342
 31
0.0
 11
191.966119
 21
169.240403
 31
0.0
 11
195.389008
 21
167.703376
 31
0.0
 11
196.682329
 21
166.539239
 31
0.0
 11
196.365026
 21
166.111794
 31
0.0
 11
195.434861
 21
166.314888
 31
0.0
 11
192.678758
 21
167.413383
 31
0.0
  0
LWPOLYLINE
  5
13e
100
AcDbEntity
  8
Layer_1
 62
7
100
AcDbPolyline
 90
2
 70
1
 10
192.678758
 20
167.413383
 30
0.0
 10
192.678758
 20
167.413383
 30
0.0
  0
SPLINE
  5
13f
100
AcDbEntity
  8
Layer_1
 62
7
100
AcDbSpline
 70
0
 71
3
 72
25
 73
21
 74
19
 40
0.000000
 40
0.000000
 40
0.000000
 40
0.000000
 40
0.911026
 40
2.102490
 40
3.362218
 40
6.754215
 40
10.872128
 40
13.123947
 40
14.036275
 40
16.108321
 40
19.362721
 40
23.151156
 40
25.686755
 40
29.457623
 40
32.112176
 40
32.811758
 40
34.376008
 40
36.752976
 40
39.296550
 40
41.487605
 40
41.487605
 40
41.487605
 40
41.487605
 10
103.538449
 20
195.483366
 30
0.0
 10
103.253116
 20
195.592088
 30
0.0
 10
102.594618
 20
195.842999
 30
0.0
 10
101.722921
 20
196.575111
 30
0.0
 10
100.389473
 20
197.984641
 30
0.0
 10
99.200098
 20
200.933740
 30
0.0
 10
98.609488
 20
203.313856
 30
0.0
 10
97.182639
 20
206.987255
 30
0.0
 10
99.374973
 20
206.490814
 30
0.0
 10
100.012344
 20
204.332122
 30
0.0
 10
101.239298
 20
201.675951
 30
0.0
 10
101.952618
 20
198.328929
 30
0.0
 10
105.098905
 20
196.480536
 30
0.0
 10
108.281901
 20
197.098912
 30
0.0
 10
110.289563
 20
197.923507
 30
0.0
 10
112.381079
 20
197.365450
 30
0.0
 10
109.842495
 20
196.336552
 30
0.0
 10
108.343380
 20
195.777812
 30
0.0
 10
105.818052
 20
195.311113
 30
0.0
 10
104.259639
 20
195.428871
 30
0.0
 10
103.538449
 20
195.483366
 30
0.0
 11
103.538449
 21
195.483366
 31
0.0
 11
102.703743
 21
195.848378
 31
0.0
 11
101.758605
 21
196.573845
 31
0.0
 11
100.907652
 21
197.502711
 31
0.0
 11
99.413641
 21
200.547965
 31
0.0
 11
98.136029
 21
204.462670
 31
0.0
 11
97.905149
 21
206.702622
 31
0.0
 11
98.801133
 21
206.530706
 31
0.0
 11
99.917706
 21
204.785242
 31
0.0
 11
101.076974
 21
201.744319
 31
0.0
 11
102.584237
 21
198.268632
 31
0.0
 11
104.758290
 21
196.963734
 31
0.0
 11
108.515926
 21
197.279349
 31
0.0
 11
111.141837
 21
197.668246
 31
0.0
 11
111.803192
 21
197.440157
 31
0.0
 11
110.483150
 21
196.600889
 31
0.0
 11
108.239598
 21
195.815748
 31
0.0
 11
105.728330
 21
195.411641
 31
0.0
 11
103.538449
 21
195.483366
 31
0.0
  0
LWPOLYLINE
  5
140
100
AcDbEntity
  8
Layer_1
 62
7
100
AcDbPolyline
 90
2
 70
1
 10
103.538449
 20
195.483366
 30
0.0
 10
103.538449
 20
195.483366
 30
0.0
  0
SPLINE
  5
141
100
AcDbEntity
  8
Layer_1
 62
7
100
AcDbSpline
 70
0
 71
3
 72
28
 73
24
 74
22
 40
0.000000
 40
0.000000
 40
0.000000
 40
0.000000
 40
0.511526
 40
1.043237
 40
1.549448
 40
2.046595
 40
2.377757
 40
3.305932
 40
5.164407
 40
7.529001
 40
9.836482
 40
10.827442
 40
11.375210
 40
12.383975
 40
12.938074
 40
13.296702
 40
13.564389
 40
14.319665
 40
15.652323
 40
17.119573
 40
17.639631
 40
18.179720
 40
18.693433
 40
18.693433
 40
18.693433
 40
18.693433
 10
104.752247
 20
237.311851
 30
0.0
 10
104.667146
 20
237.461284
 30
0.0
 10
104.493586
 20
237.766047
 30
0.0
 10
104.032145
 20
238.059696
 30
0.0
 10
103.582773
 20
238.188718
 30
0.0
 10
102.945621
 20
238.098570
 30
0.0
 10
103.142162
 20
238.821983
 30
0.0
 10
103.884753
 20
239.479929
 30
0.0
 10
105.448076
 20
240.328688
 30
0.0
 10
107.705973
 20
240.506792
 30
0.0
 10
109.426681
 20
240.264290
 30
0.0
 10
110.894384
 20
239.719475
 30
0.0
 10
110.687156
 20
238.676833
 30
0.0
 10
109.787725
 20
238.729975
 30
0.0
 10
109.217461
 20
238.685725
 30
0.0
 10
108.759953
 20
238.504192
 30
0.0
 10
108.901078
 20
237.996961
 30
0.0
 10
108.528460
 20
237.227928
 30
0.0
 10
107.395424
 20
236.746889
 30
0.0
 10
106.316022
 20
236.382234
 30
0.0
 10
105.474904
 20
236.558991
 30
0.0
 10
105.018918
 20
236.856078
 30
0.0
 10
104.839642
 20
237.162483
 30
0.0
 10
104.752247
 20
237.311851
 30
0.0
 11
104.752247
 21
237.311851
 31
0.0
 11
104.463976
 21
237.734413
 31
0.0
 11
104.025932
 21
238.035800
 31
0.0
 11
103.532948
 21
238.150763
 31
0.0
 11
103.042222
 21
238.230405
 31
0.0
 11
103.086357
 21
238.558613
 31
0.0
 11
103.683367
 21
239.269308
 31
0.0
 11
105.329039
 21
240.132842
 31
0.0
 11
107.675582
 21
240.424464
 31
0.0
 11
109.952209
 21
240.048382
 31
0.0
 11
110.768059
 21
239.485897
 31
0.0
 11
110.658190
 21
238.949260
 31
0.0
 11
109.678202
 21
238.710034
 31
0.0
 11
109.128905
 21
238.637238
 31
0.0
 11
108.825272
 21
238.446395
 31
0.0
 11
108.833037
 21
238.178821
 31
0.0
 11
108.575937
 21
237.468651
 31
0.0
 11
107.434243
 21
236.781255
 31
0.0
 11
105.999751
 21
236.472943
 31
0.0
 11
105.492559
 21
236.587905
 31
0.0
 11
105.044382
 21
236.889290
 31
0.0
 11
104.752247
 21
237.311851
 31
0.0
  0
LWPOLYLINE
  5
142
100
AcDbEntity
  8
Layer_1
 62
7
100
AcDbPolyline
 90
2
 70
1
 10
104.752247
 20
237.311851
 30
0.0
 10
104.752247
 20
237.311851
 30
0.0
  0
SPLINE
  5
143
100
AcDbEntity
  8
Layer_1
 62
7
100
AcDbSpline
 70
0
 71
3
 72
16
 73
12
 74
10
 40
0.000000
 40
0.000000
 40
0.000000
 40
0.000000
 40
0.502726
 40
0.790576
 40
1.692136
 40
2.480475
 40
2.965553
 40
3.254257
 40
3.915162
 40
4.539682
 40
5.563675
 40
5.563675
 40
5.563675
 40
5.563675
 10
107.415432
 20
238.150763
 30
0.0
 10
107.626218
 20
238.259895
 30
0.0
 10
107.957696
 20
238.431515
 30
0.0
 10
107.334836
 20
238.804098
 30
0.0
 10
106.696303
 20
238.680743
 30
0.0
 10
106.012594
 20
238.670751
 30
0.0
 10
105.397512
 20
238.545923
 30
0.0
 10
105.370256
 20
237.996501
 30
0.0
 10
105.852061
 20
237.603954
 30
0.0
 10
106.656396
 20
237.659705
 30
0.0
 10
107.124601
 20
237.962610
 30
0.0
 10
107.415432
 20
238.150763
 30
0.0
 11
107.415432
 21
238.150763
 31
0.0
 11
107.796080
 21
238.479153
 31
0.0
 11
107.563888
 21
238.649285
 31
0.0
 11
106.663840
 21
238.701471
 31
0.0
 11
105.878514
 21
238.632601
 31
0.0
 11
105.434149
 21
238.438077
 31
0.0
 11
105.405860
 21
238.150763
 31
0.0
 11
105.877540
 21
237.687822
 31
0.0
 11
106.502060
 21
237.687822
 31
0.0
 11
107.415432
 21
238.150763
 31
0.0
  0
LWPOLYLINE
  5
144
100
AcDbEntity
  8
Layer_1
 62
7
100
AcDbPolyline
 90
2
 70
1
 10
107.415432
 20
238.150763
 30
0.0
 10
107.415432
 20
238.150763
 30
0.0
  0
SPLINE
  5
145
100
AcDbEntity
  8
Layer_1
 62
7
100
AcDbSpline
 70
0
 71
3
 72
19
 73
15
 74
13
 40
0.000000
 40
0.000000
 40
0.000000
 40
0.000000
 40
0.672733
 40
1.291590
 40
1.762623
 40
4.191772
 40
6.736158
 40
7.924251
 40
8.915369
 40
10.463598
 40
13.022295
 40
15.431589
 40
16.269274
 40
17.011875
 40
17.011875
 40
17.011875
 40
17.011875
 10
108.019190
 20
249.390090
 30
0.0
 10
108.141872
 20
249.577653
 30
0.0
 10
108.377413
 20
249.937758
 30
0.0
 10
108.810476
 20
250.355209
 30
0.0
 10
109.909128
 20
250.798241
 30
0.0
 10
111.883948
 20
250.658822
 30
0.0
 10
113.520437
 20
250.582946
 30
0.0
 10
115.838303
 20
250.739140
 30
0.0
 10
114.847511
 20
249.226916
 30
0.0
 10
113.251447
 20
248.933059
 30
0.0
 10
110.968718
 20
248.623418
 30
0.0
 10
109.362104
 20
248.423162
 30
0.0
 10
107.548396
 20
248.525048
 30
0.0
 10
107.868682
 20
249.113546
 30
0.0
 10
108.019190
 20
249.390090
 30
0.0
 11
108.019190
 21
249.390090
 31
0.0
 11
108.409427
 21
249.938072
 31
0.0
 11
108.870167
 21
250.351235
 31
0.0
 11
109.301664
 21
250.540132
 31
0.0
 11
111.726923
 21
250.677543
 31
0.0
 11
114.271101
 21
250.644956
 31
0.0
 11
115.444936
 21
250.461445
 31
0.0
 11
114.977313
 21
249.587579
 31
0.0
 11
113.546062
 21
248.997211
 31
0.0
 11
111.013350
 21
248.633484
 31
0.0
 11
108.609191
 21
248.476271
 31
0.0
 11
107.797034
 21
248.681498
 31
0.0
 11
108.019190
 21
249.390090
 31
0.0
  0
LWPOLYLINE
  5
146
100
AcDbEntity
  8
Layer_1
 62
7
100
AcDbPolyline
 90
2
 70
1
 10
108.019190
 20
249.390090
 30
0.0
 10
108.019190
 20
249.390090
 30
0.0
  0
ENDSEC
  0
SECTION
  2
OBJECTS
  0
DICTIONARY
  5
C
330
0
100
AcDbDictionary
  3
ACAD_GROUP
350
D
  3
ACAD_MLINESTYLE
350
17
  0
DICTIONARY
  5
D
330
C
100
AcDbDictionary
  0
DICTIONARY
  5
1A
330
C
100
AcDbDictionary
  0
DICTIONARY
  5
17
330
C
100
AcDbDictionary
  3
STANDARD
350
18
  0
DICTIONARY
  5
19
330
C
100
AcDbDictionary
  0
ENDSEC
  0
EOF
