<?xml version="1.0" encoding="UTF-8" standalone="no"?>
<!-- Created with Inkscape (http://www.inkscape.org/) -->

<svg
   xmlns:dc="http://purl.org/dc/elements/1.1/"
   xmlns:cc="http://creativecommons.org/ns#"
   xmlns:rdf="http://www.w3.org/1999/02/22-rdf-syntax-ns#"
   xmlns:svg="http://www.w3.org/2000/svg"
   xmlns="http://www.w3.org/2000/svg"
   xmlns:sodipodi="http://sodipodi.sourceforge.net/DTD/sodipodi-0.dtd"
   xmlns:inkscape="http://www.inkscape.org/namespaces/inkscape"
   width="210mm"
   height="297mm"
   viewBox="0 0 744.09448819 1052.3622047"
   id="svg3364"
   version="1.1"
   inkscape:version="0.91 r13725"
   sodipodi:docname="mermaid.svg">
  <defs
     id="defs3366" />
  <sodipodi:namedview
     id="base"
     pagecolor="#ffffff"
     bordercolor="#666666"
     borderopacity="1.0"
     inkscape:pageopacity="0.0"
     inkscape:pageshadow="2"
     inkscape:zoom="0.9991453"
     inkscape:cx="355.71429"
     inkscape:cy="765.68007"
     inkscape:document-units="px"
     inkscape:current-layer="layer1"
     showgrid="false"
     inkscape:window-width="1440"
     inkscape:window-height="837"
     inkscape:window-x="-8"
     inkscape:window-y="-8"
     inkscape:window-maximized="1" />
  <metadata
     id="metadata3369">
    <rdf:RDF>
      <cc:Work
         rdf:about="">
        <dc:format>image/svg+xml</dc:format>
        <dc:type
           rdf:resource="http://purl.org/dc/dcmitype/StillImage" />
        <dc:title></dc:title>
      </cc:Work>
    </rdf:RDF>
  </metadata>
  <g
     inkscape:label="Layer 1"
     inkscape:groupmode="layer"
     id="layer1">
    <path
       style="fill:none;fill-opacity:1;stroke:#000000;stroke-opacity:1"
       d="m 693.78181,522.87274 c 0,-280.96587 0.23024,-395.90647 0.51161,-255.42353 0.28141,140.48294 0.28141,370.36411 0,510.84705 -0.28137,140.48294 -0.51161,25.54236 -0.51161,-255.42352 z m -495.293,488.40706 C 173.2767,1004.6661 152.90332,991.24605 119.367,959.16248 82.050173,923.46217 71.274451,917.14537 48.34363,917.52826 c -16.096578,0.26879 -16.193143,0.15097 -12.166763,-14.8474 5.198595,-19.36479 17.192877,-27.66655 39.870498,-27.59605 14.415946,0.0448 28.990775,4.62305 32.298975,10.14577 0.98424,1.6431 3.19595,0.27428 6.84652,-4.23732 4.79876,-5.93061 6.7492,-6.76576 17.71195,-7.58392 13.91577,-1.03853 26.40771,2.83399 35.99723,11.15917 4.66341,4.04859 6.56375,4.61027 9.71359,2.871 5.56767,-3.07432 21.27069,-2.67637 27.59779,0.69934 2.94991,1.57389 7.07242,4.80993 9.16114,7.19121 l 3.79768,4.32959 2.94498,-6.27372 c 4.08639,-8.70538 12.80536,-12.96544 23.45394,-11.45957 8.46972,1.19777 8.51545,1.17012 6.61127,-3.99724 -4.6163,-12.5272 -0.40536,-26.56817 9.84065,-32.8128 4.63899,-2.8273 6.0901,-5.45763 7.12707,-12.9187 0.71616,-5.15274 2.83564,-13.51476 4.71,-18.58228 3.34385,-9.04057 3.31933,-9.41548 -1.30624,-19.95688 -9.05662,-20.63951 -7.94356,-40.59287 3.22118,-57.7445 l 5.67837,-8.72328 -3.8111,-14.62906 c -7.36584,-28.27408 -2.71437,-64.62806 10.94486,-85.54043 9.5028,-14.54885 27.86689,-20.69825 38.61534,-12.93075 4.12765,2.98288 4.2238,3.59807 1.58218,10.12109 -1.54692,3.81982 -3.94907,13.92346 -5.33811,22.4525 -5.08769,31.23974 3.70157,67.78402 29.1704,121.28573 20.47028,43.00139 24.49455,55.46413 25.99689,80.50956 1.26794,21.13764 -0.71393,34.89237 -7.6651,53.19781 -4.408,11.60822 -20.29651,38.82653 -24.1379,41.35019 -4.58508,3.01227 1.11219,3.93905 24.78995,4.03271 19.93754,0.0789 26.99867,-0.73267 37.75772,-4.3394 46.67935,-15.6482 79.07767,-57.85975 95.90906,-124.95933 6.72797,-26.82149 2.42671,-57.71172 -12.60197,-90.50352 -6.82014,-14.88119 -25.18052,-43.25587 -34.19845,-52.85129 -19.79605,-21.06376 -39.23879,-49.74231 -50.49548,-74.48209 -12.95179,-28.46529 -17.43713,-49.73651 -17.97024,-85.22159 -0.24528,-16.32869 -0.53071,-32.61296 -0.63428,-36.1873 -0.13168,-4.54415 -5.44976,-14.7053 -17.68143,-33.78348 -34.48955,-53.79463 -55.81706,-96.80548 -55.97757,-112.88912 -0.0371,-3.71828 -1.71717,-2.56008 -9.82965,6.77633 -14.3872,16.55787 -15.47773,19.25687 -11.13915,27.56884 1.97258,3.77915 10.65697,15.01578 19.29862,24.97028 26.68537,30.73936 34.88308,54.9647 25.16234,74.358 -5.33594,10.64544 -15.17241,17.47181 -22.45764,15.58528 -2.68727,-0.69585 -8.02789,-4.11144 -11.86804,-7.59019 -6.13525,-5.55782 -6.9821,-7.49764 -6.9821,-15.99337 0,-11.3787 5.73584,-18.57215 14.80888,-18.57215 l 5.62294,0 -6.74308,4.67296 c -7.51018,5.20464 -9.68505,13.33596 -5.64839,21.11797 2.99694,5.77758 12.08086,9.85159 17.79457,7.98056 5.90035,-1.93215 11.77388,-16.21661 11.82672,-28.76266 0.0614,-14.53865 -6.59728,-27.00524 -26.20867,-49.06978 -9.0278,-10.15709 -17.90023,-20.7528 -19.71654,-23.54606 l -3.30235,-5.07864 -6.90054,15.35613 c -3.79531,8.44586 -8.46185,20.88431 -10.37009,27.64101 -6.94892,24.60455 -10.03129,30.96217 -29.91055,61.69285 -11.12897,17.20388 -21.72289,35.69855 -23.54205,41.09927 -1.81913,5.40071 -4.72236,12.58355 -6.45159,15.9619 -1.72924,3.37836 -4.50277,8.90655 -6.16342,12.28489 -1.66066,3.37837 -6.16612,10.14323 -10.01214,15.03302 -6.54218,8.31766 -7.16567,8.64751 -9.67557,5.11871 -1.47555,-2.07451 -2.27713,-5.38425 -1.78132,-7.35495 0.49583,-1.97071 0.73722,-3.58308 0.53644,-3.58308 -1.76304,0 -25.48016,13.74388 -30.51901,17.68552 -3.54727,2.77485 -6.44957,4.17237 -6.44957,3.10559 0,-2.86584 12.90272,-14.04271 21.38838,-18.52745 4.06265,-2.14714 10.85825,-6.75964 15.10133,-10.24998 4.24309,-3.49035 8.93143,-6.34607 10.41856,-6.34607 3.34029,0 3.55339,6.49443 0.32246,9.82791 -1.82226,1.88011 -1.82851,2.45699 -0.0266,2.45699 1.2951,0 3.68249,-3.27863 5.3053,-7.28588 1.62281,-4.00721 4.76036,-9.65967 6.97233,-12.56101 2.21197,-2.90134 4.02176,-7.36077 4.02176,-9.90982 0,-6.27592 7.90697,-21.29837 28.44627,-54.04518 14.18072,-22.60902 18.3359,-31.16101 23.37819,-48.11586 9.56917,-32.17656 32.81986,-76.27444 48.49978,-91.98602 7.75657,-7.77222 12.32653,-9.16997 16.3635,-5.00484 3.39615,3.50397 2.94383,6.39376 -0.77062,4.92313 -2.69626,-1.0675 -2.95366,0.0102 -1.78013,7.459 3.93891,24.999 16.70004,51.76884 46.34086,97.21221 10.51494,16.12079 20.79492,32.11172 22.84444,35.53541 3.1709,5.29692 3.95794,12.53965 5.27956,48.58497 1.3875,37.84147 2.11532,44.10734 6.82285,58.73995 10.37406,32.246 22.59103,53.05272 54.8112,93.349 33.52374,41.92662 47.72362,66.85549 54.43345,95.56179 4.94441,21.15341 3.24878,54.7993 -3.89375,77.26201 -19.67642,61.88102 -55.47555,102.87897 -102.82515,117.75762 -11.12543,3.49592 -42.75677,2.84097 -56.34648,-1.1667 -17.06509,-5.03259 -37.4072,-15.62632 -54.28663,-28.27121 -8.18598,-6.1324 -15.33013,-10.67873 -15.87587,-10.10292 -0.54574,0.57578 4.36586,6.09551 10.91467,12.26603 37.39433,35.23432 75.18188,51.86319 117.67841,51.78584 61.77951,-0.11252 115.5551,-40.87379 144.99942,-109.90797 7.90511,-18.53408 10.11611,-25.14159 15.28183,-45.66932 8.75415,-34.78767 10.65478,-61.55623 6.68724,-94.18424 -12.05673,-99.1512 -39.87454,-186.07725 -75.29545,-235.28573 -12.65868,-17.58605 -21.40194,-26.08677 -35.13402,-34.15933 -24.81412,-14.5873 -32.98546,-31.75559 -35.55557,-74.70348 -1.28519,-21.47659 -1.3474,-21.68965 -6.9719,-23.88005 -8.31357,-3.23765 -6.92168,-5.86793 2.60898,-4.93019 6.32807,0.62262 8.90524,-0.0612 10.91466,-2.8966 4.36398,-6.15755 3.25287,-19.86298 -2.2463,-27.70787 -7.36881,-10.51208 -11.31038,-18.21828 -9.31827,-18.21828 3.37969,0 18.03231,18.19795 19.27352,23.9369 0.68417,3.16339 1.67783,7.39717 2.20813,9.4084 0.5303,2.01122 5.74089,9.46602 11.57909,16.56623 5.83818,7.1002 15.64543,22.96061 21.79389,35.24538 6.14846,12.28478 12.68734,24.17869 14.53089,26.43092 7.7703,9.49286 39.73432,37.01323 53.72698,46.25776 8.3121,5.49161 21.36404,14.47573 29.00431,19.96471 15.29492,10.98835 23.8615,14.65312 34.25224,14.65312 l 6.86942,0 -4.55209,-3.80308 -4.55211,-3.80308 9.78957,-7.40732 c 6.55982,-4.9635 11.98033,-7.42407 16.42986,-7.45808 7.82896,-0.0598 27.51474,5.52536 29.16088,8.27347 1.57888,2.63575 -3.9835,2.3471 -17.36012,-0.90094 -10.36031,-2.51563 -12.05277,-2.40981 -19.84485,1.24068 l -8.5186,3.99087 8.91263,3.44975 c 5.07668,1.96499 9.19635,4.96966 9.57181,6.98122 0.59015,3.16166 -1.51149,3.53149 -20.0688,3.53149 l -20.72798,0 -14.64213,-9.85483 c -8.05318,-5.42016 -21.33979,-13.86295 -29.5258,-18.76179 -39.53975,-23.66213 -60.37374,-45.15189 -76.3876,-78.79204 -5.91881,-12.43359 -14.91861,-28.01959 -19.99954,-34.63553 l -9.23804,-12.02901 -4.60921,5.88656 c -6.18764,7.90238 -7.46993,17.27163 -5.02504,36.71608 3.98236,31.67213 8.02288,39.45463 27.37569,52.72879 57.42776,39.38985 96.83551,126.48221 116.90848,258.37137 4.94051,32.46165 4.9471,88.75798 0.0144,110.56409 -20.4251,90.26674 -61.41512,145.79941 -123.44105,167.23611 -12.11914,4.18839 -17.51915,4.74952 -45.50279,4.72714 -32.62768,-0.0265 -44.55581,-1.86759 -71.32784,-11.01266 l -11.7933,-4.02845 -11.13495,10.60445 c -12.46705,11.87302 -30.78948,22.07702 -48.62682,27.08062 -16.5031,4.6295 -56.35898,5.777 -70.62876,2.0335 z m 55.44518,-7.1629 c 13.14968,-1.9615 34.72276,-8.24973 33.30844,-9.70893 -0.44971,-0.46388 -6.18022,0.59003 -12.73443,2.3424 -31.85776,8.51713 -64.55564,-0.49969 -95.68449,-26.38654 -7.09453,-5.89981 -22.71281,-21.69932 -34.7073,-35.10999 -29.73885,-33.25014 -40.01061,-43.01738 -51.511306,-48.9813 -11.455076,-5.94027 -16.855353,-6.27892 -29.460614,-1.84753 -9.712705,3.41452 -21.261728,14.77411 -21.234733,20.88645 0.01236,2.7993 2.03761,3.58756 9.981545,3.88507 21.076882,0.78929 38.597782,11.27081 73.351308,43.88092 23.17566,21.7463 37.87544,33.5959 48.61988,39.1928 22.35259,11.64385 52.01352,16.03225 80.0717,11.84665 z m 29.71699,-17.48506 c 10.12684,-3.72849 28.82865,-13.30171 27.83424,-14.24799 -0.3814,-0.36295 -7.26137,-0.0262 -15.2888,0.74842 -50.19293,4.84313 -94.46343,-16.70101 -116.77357,-56.82758 -8.35649,-15.02982 -16.39995,-24.78155 -25.20335,-30.55595 -14.70671,-9.64655 -36.91503,-6.11555 -36.91503,5.86929 0,4.47502 55.94936,63.08962 72.43372,75.88424 16.17002,12.55063 29.91605,20.57595 38.49372,22.47359 10.69747,2.36641 45.63463,0.25839 55.41907,-3.34402 z m 11.26491,-21.50274 c -0.67457,-1.12611 -2.39333,-2.04749 -3.81946,-2.04749 -1.42614,0 -9.03564,-3.32544 -16.90998,-7.38988 -11.01677,-5.6864 -20.19515,-13.20871 -39.81738,-32.633 -14.02519,-13.88372 -28.1976,-26.68221 -31.49422,-28.44107 -7.76734,-4.14416 -18.86613,-4.10579 -22.23062,0.0767 -2.23675,2.78071 -1.76036,4.99686 3.15738,14.68779 14.57872,28.72894 46.7488,52.16243 77.37802,56.36406 13.07737,1.7939 34.94095,1.39388 33.73626,-0.61725 z m 16.89851,-7.78546 c -19.54615,-13.77791 -40.258,-36.36973 -51.72214,-56.41684 -9.13641,-15.97663 -31.65661,-15.46481 -31.65661,0.71946 0,18.66419 56.18559,59.0135 82.35612,59.14351 l 5.95345,0.0297 -4.93082,-3.47572 z m 19.84276,-23.87373 c -4.11281,-11.16094 -13.02942,-21.83977 -29.04388,-34.78395 -17.23079,-13.92736 -26.83077,-26.52092 -30.90173,-40.53785 -2.62093,-9.02423 -4.09065,-9.39121 -10.62209,-2.65243 -14.60848,15.07222 4.37202,42.29281 48.82309,70.0189 11.39824,7.10958 21.37172,12.94243 22.16333,12.96188 0.79158,0.0206 0.60314,-2.23349 -0.41872,-5.00655 z m 8.92817,-15.16857 c -1.44371,-12.20504 -8.36428,-32.07388 -16.49487,-47.35648 -5.15998,-9.69887 -23.99724,-38.24298 -30.19157,-45.74926 -2.00342,-2.42775 -5.42713,-6.71748 -7.60822,-9.53277 l -3.96561,-5.11872 -2.37957,6.14245 c -1.30876,3.37836 -2.8255,12.66827 -3.37056,20.6443 -1.32166,19.3405 2.99834,29.3715 19.47392,45.21844 24.04307,23.1256 37.06657,37.4943 39.5175,43.59919 3.83197,9.54488 6.56989,5.26414 5.01898,-7.84715 z m 13.08932,-9.75941 c 6.60058,-24.55948 4.24082,-52.0062 -6.5268,-75.91327 -6.93271,-15.39252 -15.90889,-29.01909 -35.02342,-53.16826 -9.74273,-12.30893 -20.41181,-26.85177 -23.70905,-32.31746 l -5.99502,-9.93759 -3.9286,8.00461 c -5.83852,11.89615 -6.94801,19.97559 -4.44874,32.39664 2.31201,11.49046 12.28845,29.28308 23.63443,42.15119 25.71457,29.1644 47.84281,75.48228 47.84281,100.14262 0,10.52035 3.63507,5.45696 8.15439,-11.35848 z m 14.75193,-18.14596 c 4.65413,-12.81684 5.2586,-48.20984 1.08405,-63.47198 -1.54009,-5.63059 -7.47157,-20.37246 -13.18108,-32.75973 -37.0221,-80.32265 -46.01399,-118.55023 -37.56539,-159.70293 1.61826,-7.88238 2.94228,-14.5623 2.94228,-14.84425 0,-0.28195 -2.99351,-0.51263 -6.65224,-0.51263 -22.8019,0 -37.83855,36.45325 -32.748,79.3909 3.64422,30.73839 5.91844,35.27487 41.28895,82.36025 14.09204,18.75941 27.50203,42.82893 33.4472,60.03421 4.30043,12.44534 5.0996,18.37133 5.21256,38.6517 0.0734,13.17403 0.65562,23.30908 1.29384,22.52233 0.63818,-0.78675 2.83321,-6.0373 4.87783,-11.66787 z M 131.19587,568.21743 c 0,-3.20801 14.88362,-22.75984 26.32256,-34.57866 10.59022,-10.94187 8.41452,-11.12311 -5.5702,-0.46404 -11.25352,8.5774 -13.69406,8.33938 -6.82841,-0.66596 6.00892,-7.88162 15.67924,-13.21121 26.75799,-14.74711 5.45734,-0.75658 11.42037,-1.79966 13.25119,-2.31801 5.57066,-1.57713 11.17317,-13.99729 18.6227,-41.28452 8.25572,-30.24012 18.8061,-54.54292 29.96176,-69.01667 10.33747,-13.41223 17.01161,-25.36614 24.61162,-44.08117 10.22421,-25.17718 10.20492,-24.97708 4.51079,-46.76926 -4.15736,-15.91085 -5.33056,-25.8356 -6.08178,-51.44966 -0.8187,-27.9143 -0.40987,-33.83175 3.39515,-49.13959 5.70891,-22.96732 13.34711,-39.58624 24.94825,-54.28145 11.09161,-14.04981 17.46817,-20.25744 25.69428,-25.0136 l 5.95345,-3.44215 -8.75301,-1.98887 c -13.53291,-3.07499 -35.52104,0.99991 -52.72084,9.77037 -17.33762,8.84074 -35.37957,27.5516 -43.96845,45.59863 -4.98257,10.46939 -5.68885,14.24132 -5.68885,30.38081 0,18.36606 0.041,18.51638 12.35735,45.19616 19.39096,42.00511 20.38486,53.79546 5.52102,65.49259 -9.78943,7.70378 -21.34502,6.94556 -29.98373,-1.96739 -8.36761,-8.63325 -9.15126,-18.59141 -2.12613,-27.01789 3.69613,-4.43343 5.68224,-5.26813 9.92242,-4.17013 2.91572,0.75502 5.3013,2.38404 5.3013,3.62004 0,1.24577 -1.78433,1.76587 -4.00388,1.16701 -7.85982,-2.12063 -12.49433,8.13126 -7.78237,17.21515 4.89058,9.42822 22.91169,9.94917 27.65776,0.79957 5.8078,-11.19646 3.01997,-23.4366 -13.14185,-57.69992 -23.02778,-48.81925 -4.88543,-100.67391 43.4774,-124.26754 18.20454,-8.88102 31.70862,-12.06695 51.14769,-12.06695 l 15.46413,0 -1.83612,-4.98258 c -2.92645,-7.94152 -2.1305,-29.710098 1.48796,-40.694091 2.24073,-6.801934 6.67101,-13.466738 13.59424,-20.450868 25.88853,-26.116291 68.82357,-25.300856 99.37113,1.887308 9.72352,8.654207 21.23337,30.512326 24.74503,46.992771 2.16115,10.14243 3.95405,13.21752 12.12623,20.79827 18.91961,17.55037 44.45844,20.48019 58.68311,6.73213 4.83944,-4.67727 5.89895,-13.5882 2.08371,-17.52457 -3.31119,-3.41628 -7.54105,-3.07175 -7.54105,0.61426 0,1.68918 -0.95233,3.07122 -2.11628,3.07122 -3.31441,0 -1.2505,-10.59618 2.54091,-13.04511 2.62885,-1.69803 4.65698,-1.23313 8.93017,2.047 4.46157,3.42471 5.64682,6.11216 6.13997,13.92171 0.55198,8.74155 -0.0447,10.31588 -6.16853,16.27473 -15.04302,14.63778 -36.46593,15.12217 -57.58743,1.30208 -5.18469,-3.39242 -9.78607,-6.16802 -10.22527,-6.16802 -2.95835,0 7.91839,48.83617 14.07744,63.20722 6.27202,14.6346 20.28876,34.59247 29.82626,42.46833 23.85316,19.69745 57.96121,24.24473 79.63636,10.61712 11.99681,-7.54266 18.09882,-26.90302 14.35058,-45.53142 -5.98225,-29.73099 -30.66731,-45.59203 -41.992,-26.98137 -2.70728,4.44902 -3.60936,8.7102 -2.97676,14.06151 1.04721,8.85872 -1.01059,10.02398 -4.34958,2.46303 -3.55339,-8.04636 -2.7628,-14.38189 2.61799,-20.97958 20.14379,-24.69949 53.57535,-0.91565 56.17335,39.96275 0.82513,12.98289 0.3041,16.11288 -4.26029,25.59355 -13.43008,27.89546 -55.2488,38.26184 -87.29476,21.6394 -17.69571,-9.17888 -36.26545,-32.66635 -48.08135,-60.81452 -6.337,-15.09613 -9.07294,-25.8366 -15.58917,-61.19802 -8.38895,-45.524098 -25.15553,-75.124774 -49.49682,-87.384565 -15.18779,-7.649515 -26.09776,-8.528022 -42.41265,-3.415209 -30.73428,9.631615 -49.99032,40.279728 -41.36579,65.838284 1.70602,5.05578 3.11486,12.14353 3.13077,15.75058 0.0241,5.4863 -1.09842,7.11017 -6.86781,9.93485 -11.67065,5.71389 -31.57031,29.45449 -40.54758,48.37388 -10.71419,22.57988 -14.2615,37.12032 -15.52247,63.62682 -1.03668,21.79231 0.14858,32.65343 6.72317,61.60549 l 3.18273,14.01576 3.70954,-10.94454 c 6.44947,-19.02844 15.13926,-35.30506 23.95234,-44.86457 13.14599,-14.25941 23.07173,-17.9901 34.88681,-13.11256 4.36376,1.80147 11.8033,2.98209 16.56597,2.62897 7.1905,-0.53314 9.08567,-1.59386 11.26403,-6.3045 3.28745,-7.10895 1.40017,-13.78757 -3.89615,-13.78757 -2.43246,0 -10.23608,-6.66057 -19.7906,-16.89174 l -15.7746,-16.89173 1.02465,-10.12988 c 0.78037,-7.71474 0.22674,-11.03958 -2.32217,-13.94551 -2.21516,-2.52541 -2.63112,-4.29262 -1.23012,-5.22624 1.1642,-0.77585 2.57395,-7.44114 3.13277,-14.81178 0.55885,-7.37063 2.69615,-16.58431 4.74957,-20.47483 2.05343,-3.89053 4.26692,-9.37709 4.91887,-12.19239 1.16127,-5.01466 1.24904,-4.97145 4.31713,2.12698 4.86777,11.2622 12.47074,17.81374 23.50635,20.25559 14.4368,3.19442 14.82751,2.86433 5.39533,-4.55823 -10.7935,-8.49382 -19.45631,-21.66325 -20.8074,-31.63187 l -1.04237,-7.69104 5.93679,10.33438 c 10.91824,19.00575 25.51569,29.55624 57.61784,41.64401 38.66593,14.55928 59.04471,40.79766 52.19852,67.20738 -3.03922,11.72407 -5.29638,14.71489 -13.90813,18.42887 -11.51424,4.96572 -22.92472,-0.72402 -27.73603,-13.83037 -2.87112,-7.82126 1.93489,-18.33889 8.37994,-18.33889 2.71695,0 5.49182,0.92138 6.16639,2.04749 0.69028,1.15236 -0.90086,2.04749 -3.63954,2.04749 -8.58577,0 -9.64615,9.06348 -2.13752,18.27024 14.74527,18.08004 35.16876,-7.47404 24.97536,-31.24943 -10.55708,-24.62369 -37.98701,-39.75514 -78.73286,-43.43223 -19.7761,-1.78467 -29.50382,-5.64948 -34.4317,-13.67964 l -3.82878,-6.23907 -2.4153,4.65632 c -1.32843,2.56097 -2.84693,9.83055 -3.37449,16.15463 l -0.95918,11.49829 8.61333,3.87195 c 6.65919,2.9935 7.71287,4.05675 4.64435,4.68655 -13.41399,2.75316 -12.89914,2.27652 -12.89914,11.94233 0,8.43582 1.10924,10.46046 14.00071,25.55455 7.7004,9.01606 14.98961,16.39286 16.19828,16.39286 2.68776,0 20.72196,-11.48307 26.85495,-17.09959 2.45581,-2.24897 4.4651,-6.2608 4.4651,-8.91512 0,-2.65434 1.36613,-5.36695 3.03586,-6.02802 1.91597,-0.75857 2.5987,-2.62309 1.85075,-5.05444 -0.8961,-2.913 -0.19701,-3.8525 2.86663,-3.8525 2.52184,0 5.25022,-2.39117 7.22576,-6.33272 1.74573,-3.48301 3.66192,-5.82933 4.25825,-5.21406 1.96618,2.02861 -1.35168,11.36304 -5.43356,15.2866 -8.18343,7.86606 -9.91735,45.3065 -2.62967,56.78199 2.36967,3.73138 4.94323,4.99765 10.15718,4.99765 10.78524,0 21.75051,4.15112 29.29155,11.08886 5.6624,5.20941 9.09303,12.45454 19.59911,41.39127 15.23207,41.95357 15.06214,41.60664 24.04465,49.08698 21.45643,17.8682 46.86338,29.66338 66.88085,31.04947 11.21671,0.77672 14.4098,0.21558 20.35852,-3.57765 18.86199,-12.02742 22.62165,-42.07198 6.38649,-51.0366 -5.98039,-3.30219 -8.84383,-1.74359 -12.3131,6.70216 -1.98411,4.83021 -2.93327,5.61303 -3.85398,3.17851 -2.00577,-5.30356 2.45375,-14.09471 8.33114,-16.42338 11.56597,-4.5825 24.35496,8.60251 24.33446,25.088 -0.0383,30.79989 -21.5859,48.83052 -50.96153,42.64363 -13.17175,-2.77413 -27.91152,-8.76576 -39.01285,-15.85843 -12.94233,-8.2689 -10.15805,-3.68343 6.28654,10.35341 17.34321,14.80386 23.19344,21.78923 42.68218,50.96375 13.76713,20.60926 21.68009,28.28827 29.15027,28.28827 2.41395,0 8.83673,-3.36859 14.27289,-7.48575 7.16397,-5.42581 12.4979,-7.74492 19.38322,-8.42749 9.05728,-0.89792 23.85351,2.40376 23.85351,5.32274 0,0.75726 -6.9209,1.39474 -15.37976,1.41667 -14.3824,0.0372 -16.11358,0.53515 -26.69523,7.67806 -6.22351,4.201 -13.4471,7.63822 -16.05243,7.63822 -6.99925,0 -17.52665,-9.42708 -28.44747,-25.4741 -16.76814,-24.63903 -35.52743,-46.81775 -49.45758,-58.47271 -24.21827,-20.26271 -26.10745,-22.33191 -33.16357,-36.3232 -3.83891,-7.61206 -11.76395,-28.04634 -17.61118,-45.40947 -13.37879,-39.72791 -19.65587,-47.25877 -39.39097,-47.25877 -10.52547,0 -13.20781,-1.39144 -17.95288,-9.31284 -3.01791,-5.03812 -4.17614,-10.61071 -4.36267,-20.99072 l -0.25396,-14.13165 -11.5534,7.10077 c -10.86245,6.67613 -11.55337,7.56829 -11.55337,14.91814 0,12.19362 -3.11719,18.1281 -11.57412,22.03458 -7.5733,3.4983 -7.60132,3.55439 -3.48759,6.9817 l 4.14706,3.45505 -4.39603,0.0912 c -2.41785,0.0503 -7.32945,-2.5378 -10.91468,-5.751 -10.53134,-9.43847 -14.13202,-10.78914 -21.70259,-8.14092 -9.74731,3.40961 -17.17522,9.34054 -22.40689,17.89117 -4.21232,6.88454 -22.84081,52.67221 -33.81292,83.10997 -7.29806,20.24562 -14.47183,33.22799 -24.97018,45.18866 -12.41874,14.14854 -16.65761,23.48047 -31.38876,69.10279 -6.4798,20.0679 -13.42569,38.37254 -15.43531,40.67696 -2.00963,2.30452 -8.11898,6.24485 -13.57629,8.75642 -6.79289,3.1262 -16.02505,10.9383 -29.27118,24.7688 -10.64179,11.11127 -19.34872,19.02164 -19.34872,17.57858 z m 526.88078,-91.45218 c -8.8986,-3.78206 -15.54192,-5.06302 -26.29442,-5.0701 -7.91315,-0.006 -14.38753,-0.8744 -14.38753,-1.93152 0,-2.74873 16.62872,-4.947 25.87807,-3.42101 10.3125,1.70139 30.13494,11.12961 28.64144,13.62285 -1.43516,2.39585 0.24146,2.78358 -13.83756,-3.20022 z M 349.98058,374.00186 c -2.4584,-0.48483 -6.55019,-3.81156 -9.09282,-7.39277 -4.5811,-6.45231 -12.34514,-31.65057 -10.37757,-33.6806 2.51062,-2.59033 7.08717,4.98751 10.96279,18.15219 5.11349,17.36951 8.93083,19.79641 25.71128,16.34612 12.45159,-2.5602 14.80536,-1.70037 6.79933,2.48383 -6.61304,3.45618 -17.66822,5.3405 -24.00301,4.09123 z m 4.19526,-153.13289 c -0.62825,-1.68916 -2.52468,-3.07123 -4.21426,-3.07123 -2.59969,0 -2.51977,-0.62956 0.5199,-4.09496 3.58869,-4.09135 14.80715,-5.56811 21.66701,-2.85216 4.48367,1.77514 3.87974,4.89965 -0.94704,4.89965 -2.24735,0 -3.56186,0.87513 -2.92116,1.94475 1.32192,2.20677 -5.01045,6.24517 -9.79268,6.24517 -1.74322,0 -3.68352,-1.38204 -4.31177,-3.07122 z m 9.20478,-3.07123 c 2.31133,-1.5411 1.73065,-1.99178 -2.59773,-2.01611 -3.217,-0.0183 -5.05577,0.83451 -4.34796,2.01611 1.52283,2.54222 3.13292,2.54222 6.94569,0 z m 2.08678,-41.14686 c 1.11202,-2.14377 3.10668,-4.03838 4.43261,-4.21026 6.46115,-0.83753 21.25983,-0.63676 21.23302,0.28808 -0.10963,3.78751 -4.5008,5.70597 -15.31691,6.69211 -11.70325,1.06701 -12.26149,0.91759 -10.34872,-2.76993 z"
       id="path3394"
       inkscape:connector-curvature="0" />
  </g>
</svg>
