<?xml version="1.0" encoding="UTF-8" standalone="no"?>
<!-- Created with Inkscape (http://www.inkscape.org/) -->

<svg
   xmlns:dc="http://purl.org/dc/elements/1.1/"
   xmlns:cc="http://creativecommons.org/ns#"
   xmlns:rdf="http://www.w3.org/1999/02/22-rdf-syntax-ns#"
   xmlns:svg="http://www.w3.org/2000/svg"
   xmlns="http://www.w3.org/2000/svg"
   xmlns:sodipodi="http://sodipodi.sourceforge.net/DTD/sodipodi-0.dtd"
   xmlns:inkscape="http://www.inkscape.org/namespaces/inkscape"
   width="210mm"
   height="297mm"
   viewBox="0 0 744.09448819 1052.3622047"
   id="svg2"
   version="1.1"
   inkscape:version="0.91 r13725"
   sodipodi:docname="mermaid.svg">
  <defs
     id="defs4" />
  <sodipodi:namedview
     id="base"
     pagecolor="#ffffff"
     bordercolor="#666666"
     borderopacity="1.0"
     inkscape:pageopacity="0.0"
     inkscape:pageshadow="2"
     inkscape:zoom="1"
     inkscape:cx="399.9204"
     inkscape:cy="753.71916"
     inkscape:document-units="px"
     inkscape:current-layer="layer1"
     showgrid="false"
     inkscape:window-width="1440"
     inkscape:window-height="837"
     inkscape:window-x="-8"
     inkscape:window-y="-8"
     inkscape:window-maximized="1" />
  <metadata
     id="metadata7">
    <rdf:RDF>
      <cc:Work
         rdf:about="">
        <dc:format>image/svg+xml</dc:format>
        <dc:type
           rdf:resource="http://purl.org/dc/dcmitype/StillImage" />
        <dc:title></dc:title>
      </cc:Work>
    </rdf:RDF>
  </metadata>
  <g
     inkscape:label="Layer 1"
     inkscape:groupmode="layer"
     id="layer1">
    <path
       style="fill:#000000"
       d="M 211.56338,976.50041 C 185.71662,970.09908 164.8304,957.11048 130.44989,926.05808 92.193731,891.50517 81.146751,885.3914 57.638721,885.76199 c -16.50175,0.26014 -16.60075,0.14609 -12.47302,-14.37021 5.32944,-18.7424 17.62565,-26.77734 40.87411,-26.70911 14.778839,0.0434 29.720529,4.47446 33.112009,9.81968 1.00903,1.59029 3.27642,0.26546 7.01887,-4.10112 4.91955,-5.74001 6.91909,-6.54831 18.15779,-7.34017 14.26608,-1.00515 27.07246,2.7429 36.90336,10.80051 4.7808,3.91847 6.72898,4.46209 9.9581,2.77873 5.70782,-2.97551 21.80613,-2.59037 28.29249,0.67686 3.02416,1.5233 7.25045,4.65534 9.39175,6.96009 l 3.89327,4.19043 3.0191,-6.07209 c 4.18927,-8.42558 13.12772,-12.54873 24.04433,-11.09125 8.68292,1.15926 8.7298,1.13251 6.77769,-3.86877 -4.73249,-12.12457 -0.41555,-25.71428 10.08838,-31.75819 4.75574,-2.73644 6.24338,-5.28222 7.30646,-12.50351 0.73419,-4.98711 2.90703,-13.08037 4.82856,-17.98502 3.42803,-8.75002 3.40288,-9.11288 -1.33911,-19.31547 -9.28461,-19.97615 -8.14353,-39.2882 3.30226,-55.88857 l 5.8213,-8.44291 -3.90704,-14.15891 c -7.55124,-27.36533 -2.78268,-62.55089 11.22038,-82.79114 9.74201,-14.08124 28.56834,-20.03301 39.58737,-12.51514 4.23153,2.88701 4.33012,3.48242 1.622,9.79579 -1.58587,3.69705 -4.04847,13.47595 -5.47248,21.73086 -5.21575,30.23571 3.79474,65.60545 29.90468,117.3876 20.98556,41.61931 25.11114,53.6815 26.65129,77.92198 1.29985,20.45826 -0.73191,33.77092 -7.85804,51.488 -4.51897,11.23514 -20.80742,37.57866 -24.74551,40.02121 -4.70051,2.91545 1.14018,3.81245 25.41397,3.90309 20.43939,0.0763 27.67827,-0.70912 38.70814,-4.19992 47.85438,-15.14528 81.06824,-56.00014 98.32331,-120.94312 6.89732,-25.95945 2.48779,-55.85687 -12.9192,-87.59473 -6.99181,-14.4029 -25.81436,-41.86561 -35.05929,-51.15264 -20.29437,-20.38678 -40.22651,-48.14359 -51.76656,-72.08823 -13.27781,-27.5504 -17.87607,-48.13798 -18.42258,-82.48255 -0.25147,-15.80387 -0.54409,-31.56478 -0.65027,-35.02424 -0.13488,-4.39809 -5.58693,-14.23266 -18.1265,-32.69766 C 353.76236,376.07649 331.898,334.448 331.73346,318.88129 c -0.038,-3.59876 -1.7604,-2.47779 -10.07709,6.55856 -14.74935,16.02568 -15.86734,18.63793 -11.41954,26.68276 2.02223,3.65768 10.92522,14.53316 19.7844,24.16772 27.3571,29.75141 35.76116,53.19813 25.79573,71.96814 -5.47026,10.30329 -15.55432,16.91026 -23.02295,15.08436 -2.75491,-0.67349 -8.22995,-3.97931 -12.16678,-7.34623 -6.28969,-5.37921 -7.15784,-7.25667 -7.15784,-15.47936 0,-11.01299 5.88022,-17.97523 15.18165,-17.97523 l 5.76446,0 -6.9128,4.52278 c -7.69923,5.03734 -9.92885,12.90733 -5.79058,20.43923 3.07237,5.5919 12.38495,9.53496 18.24248,7.72406 6.04888,-1.87005 12.07027,-15.69539 12.12445,-27.83822 0.0629,-14.07139 -6.76335,-26.13728 -26.86841,-47.49268 -9.25505,-9.83062 -18.35082,-20.0858 -20.21284,-22.78928 l -3.38549,-4.91541 -7.07423,14.86257 c -3.89084,8.17442 -8.67485,20.2131 -10.63112,26.75264 -7.12385,23.81375 -10.28381,29.96703 -30.66347,59.71002 -11.40911,16.65096 -22.26971,34.5512 -24.13464,39.77833 -1.86494,5.22713 -4.84124,12.17913 -6.61401,15.4489 -1.77276,3.26976 -4.61612,8.62029 -6.31857,11.89006 -1.70244,3.26976 -6.32132,9.8172 -10.26416,14.54984 -6.70686,8.05033 -7.34604,8.36957 -9.91913,4.95419 -1.51268,-2.00783 -2.33444,-5.21119 -1.82614,-7.11855 0.50829,-1.90737 0.75576,-3.46794 0.54993,-3.46794 -1.80741,0 -26.12156,13.30216 -31.28724,17.11711 -3.63656,2.68567 -6.61193,4.03828 -6.61193,3.00579 0,-2.77374 13.22753,-13.59137 21.92679,-17.93198 4.16492,-2.07814 11.13158,-6.54238 15.48147,-9.92055 4.34988,-3.37816 9.15625,-6.14211 10.6808,-6.14211 3.42438,0 3.64284,6.2857 0.33059,9.51205 -1.86814,1.81968 -1.87454,2.37801 -0.0273,2.37801 1.32772,0 3.7752,-3.17325 5.43886,-7.05169 1.66366,-3.87842 4.88018,-9.34922 7.14784,-12.15731 2.26765,-2.80808 4.123,-7.12419 4.123,-9.59132 0,-6.07419 8.106,-20.61383 29.16232,-52.30816 14.53767,-21.88237 18.79744,-30.15949 23.96666,-46.5694 9.81005,-31.14241 33.646,-73.82297 49.72063,-89.02958 7.95183,-7.52243 12.63681,-8.87524 16.77539,-4.84399 3.48166,3.39136 3.01795,6.18826 -0.79001,4.7649 -2.76413,-1.03319 -3.028,0.01 -1.82494,7.21927 4.03806,24.19554 17.12042,50.10499 47.50736,94.08779 10.77962,15.60267 21.31838,31.07965 23.41949,34.39331 3.2507,5.12667 4.05756,12.13662 5.41246,47.02344 1.42242,36.62523 2.16855,42.68972 6.99458,56.85203 10.63521,31.20962 23.1597,51.3476 56.19091,90.34876 34.36761,40.57907 48.92494,64.70674 55.80366,92.49042 5.06887,20.47351 3.33056,53.03803 -3.99175,74.77879 -20.17173,59.89215 -56.872,99.57242 -105.41349,113.97286 -11.40547,3.38358 -43.83306,2.74968 -57.76483,-1.12919 -17.49465,-4.87085 -38.34883,-15.12408 -55.65313,-27.36258 -8.39206,-5.9353 -15.71604,-10.33549 -16.27551,-9.77821 -0.55947,0.55729 4.47576,5.89961 11.18941,11.87181 38.33562,34.10188 77.07437,50.19629 120.64063,50.12142 63.33462,-0.10879 118.46386,-39.56009 148.64936,-106.37549 8.1041,-17.9384 10.37075,-24.33355 15.6665,-44.20152 8.97452,-33.66958 10.92298,-59.5778 6.85557,-91.15713 -12.36021,-95.96446 -40.87826,-180.0967 -77.1908,-227.7236 -12.97732,-17.02084 -21.94067,-25.24835 -36.01841,-33.06147 -25.43875,-14.11845 -33.81577,-30.73495 -36.45057,-72.30248 -1.31755,-20.78634 -1.38133,-20.99256 -7.14741,-23.11255 -8.52284,-3.13359 -7.0959,-5.67933 2.67465,-4.77172 6.48738,0.6026 9.1294,-0.0593 11.18941,-2.8035 4.47384,-5.95966 3.33476,-19.22458 -2.30284,-26.81736 -7.5543,-10.1742 -11.59508,-17.63272 -9.55283,-17.63272 3.46477,0 18.48622,17.61306 19.75868,23.16756 0.70139,3.06171 1.72005,7.15943 2.26372,9.10601 0.54364,1.94658 5.88538,9.16178 11.87054,16.03378 5.98515,6.872 16.03927,22.22266 22.34249,34.11261 6.30322,11.88994 13.00672,23.40158 14.89667,25.58142 7.96588,9.18775 40.73453,35.8236 55.0794,44.77103 8.52132,5.3151 21.90183,14.01046 29.73442,19.32303 15.67992,10.63519 24.46213,14.18217 35.11443,14.18217 l 7.04233,0 -4.66668,-3.68085 -4.66667,-3.68084 10.03598,-7.16925 c 6.72494,-4.80398 12.28191,-7.18546 16.84343,-7.21838 8.02604,-0.0579 28.20735,5.34777 29.89494,8.00756 1.61862,2.55103 -4.08377,2.27166 -17.79713,-0.872 -10.62109,-2.43476 -12.35617,-2.33235 -20.34439,1.20082 l -8.73303,3.86261 9.13699,3.33886 c 5.20448,1.90184 9.42783,4.80995 9.81275,6.75685 0.605,3.06004 -1.54953,3.41797 -20.57398,3.41797 l -21.24975,0 -15.0107,-9.53808 c -8.25589,-5.24596 -21.87695,-13.4174 -30.26901,-18.15878 -40.53507,-22.90162 -61.89348,-43.70071 -78.31045,-76.25966 -6.06779,-12.03397 -15.29413,-27.11902 -20.50297,-33.52234 l -9.47058,-11.64239 -4.72524,5.69736 c -6.34338,7.6484 -7.65796,16.71654 -5.15153,35.53602 4.08261,30.65418 8.22483,38.18656 28.0648,51.03408 58.87334,38.12386 99.27306,122.41705 119.85131,250.06727 5.06487,31.41834 5.07163,85.90529 0.0142,107.01054 -20.93924,87.36555 -62.96108,141.1134 -126.54834,161.86112 -12.42419,4.05386 -17.96012,4.59682 -46.64817,4.57525 -33.449,-0.0252 -45.67738,-1.8076 -73.12332,-10.65874 l -12.09016,-3.89899 -11.41524,10.26362 c -12.78087,11.49147 -31.56452,21.36745 -49.85087,26.21031 -16.91851,4.48063 -57.77764,5.59125 -72.40664,1.96816 z m 56.84085,-6.93266 c 13.48068,-1.89846 35.5968,-7.98467 34.14687,-9.39697 -0.46102,-0.44907 -6.33577,0.5711 -13.05497,2.26708 -32.65968,8.24348 -66.18065,-0.48367 -98.09307,-25.53844 -7.27312,-5.71021 -23.28455,-21.00191 -35.58096,-33.98156 -30.48745,-32.18148 -41.01776,-41.63479 -52.80796,-47.40704 -11.743429,-5.74934 -17.279629,-6.0771 -30.202199,-1.78814 -9.95719,3.30478 -21.79692,14.29926 -21.76925,20.21516 0.0127,2.70933 2.0889,3.47226 10.2328,3.76019 21.60743,0.76394 39.569369,10.90858 75.197729,42.47059 23.75903,21.04736 38.82884,32.51612 49.84375,37.93315 22.91524,11.26954 53.3228,15.51689 82.08726,11.46598 z m 30.46503,-16.92318 c 10.38176,-3.60865 29.55433,-12.8742 28.53487,-13.79007 -0.39098,-0.35127 -7.44413,-0.0254 -15.67364,0.72436 -51.45639,4.68748 -96.84128,-16.16424 -119.713,-55.00112 -8.56684,-14.54675 -16.81279,-23.98506 -25.83777,-29.57387 -15.07691,-9.33651 -37.84426,-5.91901 -37.84426,5.68064 0,4.33119 57.35771,61.06192 74.25702,73.44531 16.57706,12.14725 30.66911,19.91457 39.4627,21.75119 10.96674,2.2905 46.78334,0.2502 56.81408,-3.23644 z m 11.54847,-20.81165 c -0.69155,-1.08992 -2.45358,-1.98167 -3.9156,-1.98167 -1.46203,0 -9.26309,-3.21856 -17.33564,-7.15237 -11.29409,-5.50365 -20.70351,-12.78419 -40.81967,-31.58418 -14.37825,-13.43749 -28.9074,-25.82464 -32.28701,-27.52698 -7.96285,-4.01095 -19.34102,-3.97381 -22.79019,0.0743 -2.29307,2.69133 -1.80468,4.83626 3.23684,14.21571 14.9457,27.80558 47.92557,50.48591 79.32581,54.55251 13.40654,1.73625 35.82048,1.34909 34.58546,-0.59742 z m 17.32387,-7.53522 c -20.03816,-13.3351 -41.27137,-35.2008 -53.02408,-54.6036 -9.36639,-15.46314 -32.45349,-14.96776 -32.45349,0.69634 0,18.06431 57.5999,57.1168 84.42921,57.24262 l 6.10331,0.0287 -5.05495,-3.36399 z m 20.34226,-23.10643 c -4.21634,-10.80222 -13.3574,-21.13784 -29.77497,-33.666 -17.66454,-13.47972 -27.50618,-25.66854 -31.67961,-39.23496 -2.6869,-8.73418 -4.19361,-9.08937 -10.88948,-2.56716 -14.97619,14.58778 4.4821,40.93352 50.05208,67.76847 11.68516,6.88108 21.9097,12.52646 22.72122,12.54528 0.81152,0.0198 0.61835,-2.16171 -0.42924,-4.84563 z m 9.15291,-14.68106 c -1.48005,-11.81277 -8.57483,-31.04302 -16.91009,-45.83442 -5.28986,-9.38716 -24.6013,-37.01385 -30.95156,-44.27888 -2.05385,-2.34971 -5.56372,-6.50158 -7.79973,-9.22639 l -4.06544,-4.95419 -2.43946,5.94503 c -1.34169,3.26977 -2.89663,12.26111 -3.45539,19.98077 -1.35494,18.7189 3.07379,28.42751 19.96411,43.76511 24.64828,22.38235 37.99961,36.28924 40.51223,42.19793 3.92844,9.2381 6.73527,5.09495 5.14533,-7.59496 z m 13.4188,-9.44574 c 6.76674,-23.77013 4.34757,-50.33471 -6.69109,-73.4734 -7.10721,-14.89781 -16.30936,-28.08642 -35.90504,-51.45942 -9.98797,-11.91331 -20.92562,-25.98874 -24.30586,-31.27877 l -6.14592,-9.61821 -4.0275,7.74735 c -5.98548,11.5138 -7.12289,19.33357 -4.56072,31.35542 2.37022,11.12114 12.59777,28.3419 24.22935,40.79644 26.36187,28.22704 49.04713,73.05627 49.04713,96.924 0,10.18223 3.72658,5.28159 8.35965,-10.99341 z m 15.12326,-17.56275 c 4.77129,-12.4049 5.39098,-46.66036 1.11135,-61.43198 -1.57886,-5.44961 -7.65966,-19.71768 -13.51288,-31.70682 -37.95402,-77.74106 -47.17227,-114.74002 -38.51099,-154.57005 1.65898,-7.62904 3.01634,-14.09426 3.01634,-14.36716 0,-0.27288 -3.06885,-0.49615 -6.81968,-0.49615 -23.37589,0 -38.79103,35.28163 -33.57235,76.83928 3.73596,29.75043 6.06743,34.14111 42.32829,79.71318 14.44677,18.15646 28.19431,41.45238 34.28914,58.10468 4.40867,12.04535 5.22796,17.78087 5.34378,37.40944 0.0753,12.7506 0.67212,22.5599 1.32639,21.79845 0.65426,-0.76146 2.90453,-5.84326 5.00061,-11.29287 z M 142.57653,547.67806 c 0,-3.10489 15.25826,-22.02834 26.98516,-33.46729 10.85678,-10.5902 8.62632,-10.76562 -5.71042,-0.44913 -11.53681,8.30172 -14.03877,8.07135 -7.00031,-0.64456 6.16019,-7.62831 16.07393,-12.78659 27.43157,-14.27313 5.5947,-0.73227 11.70783,-1.74183 13.58473,-2.24351 5.71088,-1.52645 11.45442,-13.54742 19.09149,-39.95762 8.46352,-29.26821 19.2795,-52.7899 30.71595,-66.79848 10.59768,-12.98115 17.43984,-24.55087 25.23115,-42.66439 10.48157,-24.36798 10.4618,-24.17431 4.62434,-45.26609 -4.262,-15.39947 -5.46474,-25.00523 -6.23488,-49.79605 -0.83931,-27.01713 -0.42017,-32.74439 3.48062,-47.56024 5.85261,-22.22914 13.68308,-38.31394 25.57625,-52.53685 11.3708,-13.59824 17.90788,-19.60635 26.34106,-24.20964 l 6.10331,-3.33152 -8.97334,-1.92495 c -13.87357,-2.97615 -36.41519,0.96778 -54.04793,9.45635 -17.77406,8.55659 -36.27016,26.66609 -45.07523,44.13307 -5.10799,10.13291 -5.83206,13.7836 -5.83206,29.40438 0,17.77578 0.0421,17.92125 12.66842,43.74355 19.87906,40.65505 20.89798,52.06646 5.65998,63.38764 -10.03583,7.45617 -21.88232,6.72232 -30.73848,-1.90416 -8.57825,-8.35578 -9.38162,-17.99388 -2.17965,-26.14953 3.78917,-4.29092 5.82528,-5.09881 10.17219,-4.0361 2.98912,0.73076 5.43475,2.30742 5.43475,3.5037 0,1.20573 -1.82925,1.7091 -4.10466,1.1295 -8.05768,-2.05248 -12.80886,7.86991 -7.97827,16.66186 5.01368,9.12518 23.48843,9.6294 28.35396,0.77386 5.954,-10.83662 3.09598,-22.68334 -13.47266,-55.84543 -23.60744,-47.25019 -5.0084,-97.43823 44.57181,-120.27356 18.66278,-8.59558 32.50679,-11.67911 52.4352,-11.67911 l 15.85338,0 -1.88232,-4.82246 c -3.00013,-7.68627 -2.18413,-28.7552 1.5254,-39.386182 2.29715,-6.583304 6.83895,-13.03391 13.93643,-19.793565 26.54021,-25.276915 70.55603,-24.487675 101.87253,1.82666 9.96828,8.376056 21.76786,29.531637 25.3679,45.482407 2.21555,9.81646 4.05358,12.79271 12.43148,20.12982 19.39585,16.98629 45.57755,19.82194 60.16029,6.51576 4.96124,-4.52695 6.04743,-13.15148 2.13616,-16.96132 -3.39454,-3.30651 -7.73087,-2.97304 -7.73087,0.5945 0,1.63488 -0.97631,2.97252 -2.16956,2.97252 -3.39784,0 -1.28199,-10.25562 2.60487,-12.62585 2.69502,-1.64344 4.77422,-1.19349 9.15497,1.98121 4.57387,3.31465 5.78896,5.91571 6.29452,13.47426 0.56588,8.46061 -0.0458,9.98434 -6.32381,15.75167 -15.42168,14.16731 -37.38385,14.63613 -59.03701,1.26023 -5.3152,-3.28338 -10.03241,-5.96979 -10.48267,-5.96979 -3.03282,0 8.11771,47.26657 14.4318,61.17574 6.42988,14.16424 20.79947,33.48066 30.57704,41.10339 24.45359,19.06437 59.42022,23.46551 81.64097,10.27589 12.29881,-7.30024 18.55443,-26.03836 14.71182,-44.06803 -6.13282,-28.77543 -31.43926,-44.12671 -43.04903,-26.1142 -2.77542,4.30604 -3.70019,8.43025 -3.05168,13.60958 1.07358,8.574 -1.03603,9.7018 -4.45908,2.38385 -3.64283,-7.78774 -2.83232,-13.91965 2.68389,-20.30528 20.65086,-23.90564 54.92397,-0.88622 57.58735,38.67834 0.8459,12.56562 0.31176,15.59501 -4.36753,24.77096 -13.76814,26.9989 -56.63953,37.03211 -89.49215,20.94391 -18.14113,-8.88386 -37.17831,-31.61644 -49.29166,-58.85993 -6.4965,-14.61093 -9.30132,-25.0062 -15.98158,-59.2311 -8.60012,-44.06096 -25.78875,-72.710263 -50.74276,-84.576016 -15.57009,-7.403651 -26.75468,-8.253923 -43.48025,-3.305444 -31.50795,9.322049 -51.24869,38.98513 -42.40706,63.72224 1.74896,4.89328 3.19327,11.75324 3.20957,15.24436 0.0248,5.30996 -1.12606,6.88164 -7.04069,9.61553 -11.96441,5.53024 -32.36499,28.50782 -41.56824,46.81913 -10.98389,21.85417 -14.62049,35.92728 -15.9132,61.58185 -1.06279,21.09189 0.15238,31.60394 6.8924,59.62548 l 3.26285,13.56529 3.80292,-10.59278 c 6.61182,-18.41687 15.52034,-34.17035 24.55527,-43.42262 13.47689,-13.80111 23.65248,-17.41188 35.76498,-12.69111 4.47361,1.74356 12.10041,2.88623 16.98297,2.54447 7.3715,-0.516 9.31437,-1.54263 11.54757,-6.10188 3.37019,-6.88046 1.43542,-13.34443 -3.99421,-13.34443 -2.49369,0 -10.49376,-6.44649 -20.28879,-16.34883 l -16.17167,-16.34883 1.05044,-9.8043 c 0.8,-7.4668 0.23244,-10.68477 -2.38064,-13.4973 -2.27092,-2.44425 -2.69734,-4.15466 -1.26108,-5.05828 1.1935,-0.7509 2.63874,-7.20197 3.21164,-14.33572 0.5729,-7.13374 2.76401,-16.05129 4.86913,-19.81677 2.10511,-3.76547 4.37432,-9.0757 5.04268,-11.80051 1.19051,-4.85351 1.28047,-4.81167 4.4258,2.0586 4.99029,10.90024 12.78465,17.24121 24.09807,19.60458 14.80019,3.09176 15.20075,2.77227 5.53113,-4.41173 -11.06519,-8.22082 -19.94607,-20.96698 -21.33116,-30.61522 l -1.0686,-7.44384 6.0862,10.00222 c 11.19308,18.39491 26.15798,28.60631 59.06822,40.30557 39.63923,14.09134 60.53098,39.48642 53.51245,65.04734 -3.11572,11.34724 -5.42969,14.24193 -14.25822,17.83656 -11.80408,4.80612 -23.50177,-0.70076 -28.43419,-13.38587 -2.9434,-7.56987 1.98358,-17.74947 8.59089,-17.74947 2.78533,0 5.63004,0.89176 6.32159,1.98168 0.70766,1.11532 -0.92354,1.98168 -3.73114,1.98168 -8.8019,0 -9.88896,8.77219 -2.19134,17.68303 15.11645,17.49896 36.05404,-7.23381 25.60405,-30.24506 -10.82283,-23.83228 -38.94323,-38.4774 -80.71473,-42.03631 -20.2739,-1.72732 -30.24649,-5.46791 -35.29843,-13.23997 l -3.92514,-6.03855 -2.4761,4.50667 c -1.36187,2.47866 -2.91861,9.51459 -3.45944,15.6354 l -0.98333,11.12874 8.83016,3.7475 c 6.8268,2.89729 7.90701,3.92637 4.76126,4.53593 -13.75165,2.66466 -13.22385,2.20334 -13.22385,11.55851 0,8.16469 1.13717,10.12424 14.35314,24.73321 7.89424,8.72628 15.36693,15.86599 16.60601,15.86599 2.75542,0 21.24359,-11.114 27.53096,-16.54999 2.51762,-2.17671 4.57749,-6.05958 4.57749,-8.6286 0,-2.56902 1.40052,-5.19445 3.11228,-5.83427 1.96419,-0.73419 2.66412,-2.5388 1.89734,-4.892 -0.91865,-2.81937 -0.20198,-3.72868 2.93879,-3.72868 2.58532,0 5.38237,-2.3143 7.40765,-6.12918 1.78966,-3.37106 3.75409,-5.64197 4.36544,-5.04648 2.01568,1.96341 -1.38572,10.99783 -5.57034,14.79529 -8.38943,7.61323 -10.167,43.85033 -2.69587,54.95699 2.42932,3.61147 5.06766,4.83704 10.41287,4.83704 11.05672,0 22.29799,4.01769 30.02888,10.73246 5.80493,5.04198 9.32192,12.05424 20.09244,40.06094 15.6155,40.60517 15.44129,40.2694 24.64992,47.50932 21.99653,17.29391 48.04302,28.70999 68.56438,30.05155 11.49906,0.75175 14.77253,0.20865 20.87099,-3.46266 19.33679,-11.64087 23.19107,-40.71979 6.54725,-49.39629 -6.13093,-3.19607 -9.06644,-1.68755 -12.62304,6.48674 -2.03406,4.67498 -3.00711,5.43263 -3.95101,3.07636 -2.05624,-5.1331 2.51553,-13.64171 8.54086,-15.89553 11.85712,-4.43523 24.96804,8.32602 24.947,24.28167 -0.0393,29.80998 -22.12926,47.2611 -52.24432,41.27305 -13.50333,-2.68497 -28.61412,-8.48401 -39.99489,-15.34874 -13.26812,-8.00314 -10.41374,-3.56503 6.44479,10.02067 17.77976,14.32805 23.77726,21.08892 43.75657,49.32575 14.11367,19.94689 22.22584,27.37909 29.88405,27.37909 2.47472,0 9.05918,-3.26032 14.63216,-7.24515 7.34432,-5.25143 12.8125,-7.49599 19.87115,-8.15664 9.28526,-0.86907 24.45393,2.32651 24.45393,5.15166 0,0.73293 -7.0951,1.34992 -15.7669,1.37114 -14.74443,0.0361 -16.51917,0.51796 -27.36718,7.43129 -6.38017,4.06599 -13.7856,7.39273 -16.45652,7.39273 -7.17542,0 -17.96783,-9.1241 -29.16355,-24.65535 -17.19024,-23.84714 -36.42173,-45.31304 -50.70253,-56.5934 -24.8279,-19.61146 -26.76463,-21.61415 -33.99836,-35.15576 -3.93556,-7.36741 -12.06009,-27.14492 -18.05448,-43.95 -13.71558,-38.45105 -20.15067,-45.73987 -40.38253,-45.73987 -10.79042,0 -13.54029,-1.34673 -18.4048,-9.01352 -3.09389,-4.87619 -4.28125,-10.26968 -4.47249,-20.31607 l -0.26037,-13.67747 -11.84419,6.87255 c -11.13589,6.46158 -11.8442,7.32505 -11.8442,14.43868 0,11.80171 -3.19568,17.54544 -11.86548,21.32637 -7.76392,3.38587 -7.79265,3.44017 -3.57538,6.75731 l 4.25145,3.344 -4.50669,0.0882 c -2.4787,0.0485 -7.51394,-2.45623 -11.18941,-5.56615 -10.79645,-9.13514 -14.48775,-10.44239 -22.24889,-7.87929 -9.99268,3.30003 -17.60756,9.04035 -22.97093,17.31615 -4.31834,6.66327 -23.41576,50.97933 -34.66405,80.43881 -7.48179,19.59492 -14.83612,32.16004 -25.59873,43.73628 -12.73136,13.6938 -17.07693,22.72581 -32.17889,66.88183 -6.6429,19.42291 -13.76363,37.13924 -15.82385,39.36959 -2.06022,2.23044 -8.32334,6.04414 -13.91805,8.47498 -6.96386,3.02572 -16.42843,10.58675 -30.00797,23.97272 -10.90968,10.75416 -19.83578,18.41029 -19.83578,17.01361 z m 540.14348,-88.51288 c -9.1226,-3.66052 -15.93315,-4.90031 -26.95631,-4.90717 -8.11232,-0.006 -14.74968,-0.84629 -14.74968,-1.86943 0,-2.66038 17.04729,-4.78799 26.52947,-3.31105 10.57208,1.6467 30.8935,10.7719 29.3624,13.18501 -1.47129,2.31884 0.24753,2.69411 -14.18588,-3.09736 z M 366.86852,359.70461 c -2.5203,-0.46925 -6.71507,-3.68905 -9.32172,-7.15516 -4.69642,-6.24494 -12.65587,-30.63332 -10.63879,-32.59811 2.57383,-2.50708 7.26557,4.82721 11.23875,17.56879 5.2422,16.81124 9.15564,19.16014 26.35849,15.82076 12.76503,-2.47793 15.17803,-1.64573 6.97048,2.40399 -6.77951,3.34509 -18.11296,5.16885 -24.60721,3.95973 z m 4.30086,-148.21117 c -0.64408,-1.63488 -2.58823,-2.97252 -4.32035,-2.97252 -2.66511,0 -2.58319,-0.60933 0.53298,-3.96335 3.67904,-3.95986 15.17989,-5.38915 22.21243,-2.7605 4.59653,1.71811 3.97739,4.74218 -0.97089,4.74218 -2.30392,0 -3.65152,0.84701 -2.99468,1.88225 1.35518,2.13586 -5.13659,6.04445 -10.0392,6.04445 -1.78709,0 -3.77622,-1.33763 -4.42029,-2.97251 z m 9.43648,-2.97252 c 2.36951,-1.49158 1.77422,-1.92776 -2.66312,-1.95133 -3.29799,-0.0174 -5.18304,0.80771 -4.45741,1.95133 1.56117,2.46051 3.21179,2.46051 7.12053,0 z m 2.1393,-39.82439 c 1.14002,-2.07487 3.18489,-3.9086 4.5442,-4.07495 6.62379,-0.8106 21.79498,-0.61628 21.7675,0.27881 -0.11251,3.6658 -4.61409,5.5226 -15.70247,6.47703 -11.99784,1.03272 -12.57015,0.88811 -10.60923,-2.68089 z"
       id="path4147"
       inkscape:connector-curvature="0" />
  </g>
</svg>
