 0
SECTION
 2
ENTITIES
  0
POLYLINE
 8
Layer0
 66
     1
10
0.0
 20
 0.0
 30
0.0
70
    64
71
24
72
   1
  0
VERTEX
  8
Layer0
10
124.48831043398025
20
93.71235367516768
30
0.0
 70
     192
  0
VERTEX
  8
Layer0
10
124.48831043397988
20
92.41825844900258
30
0.0
 70
     192
  0
VERTEX
  8
Layer0
10
124.40312499965923
20
93.06530606208496
30
0.0
 70
     192
  0
VERTEX
  8
Layer0
10
124.73806149036788
20
91.8153060614556
30
0.0
 70
     192
  0
VERTEX
  8
Layer0
10
124.7380614903693
20
94.31530606271548
30
0.0
 70
     192
  0
VERTEX
  8
Layer0
10
125.13535804706385
20
91.29753910822843
30
0.0
 70
     192
  0
VERTEX
  8
Layer0
10
125.13535804706241
20
94.83307301594309
30
0.0
 70
     192
  0
VERTEX
  8
Layer0
10
125.65312500028864
20
95.230369572638
30
0.0
 70
     192
  0
VERTEX
  8
Layer0
10
125.65312500029134
20
90.90024255153317
30
0.0
 70
     192
  0
VERTEX
  8
Layer0
10
126.25607738783312
20
95.480120629026
30
0.0
 70
     192
  0
VERTEX
  8
Layer0
10
126.25607738783656
20
90.65049149514661
30
0.0
 70
     192
  0
VERTEX
  8
Layer0
10
126.90312500091639
20
95.5653060633461
30
0.0
 70
     192
  0
VERTEX
  8
Layer0
10
126.90312500092072
20
90.56530606082633
30
0.0
 70
     192
  0
VERTEX
  8
Layer0
10
127.55017261399894
20
95.4801206290247
30
0.0
 70
     192
  0
VERTEX
  8
Layer0
10
127.55017261400128
20
90.65049149514549
30
0.0
 70
     192
  0
VERTEX
  8
Layer0
10
128.15312500154852
20
95.2303695726361
30
0.0
 70
     192
  0
VERTEX
  8
Layer0
10
128.15312500155122
20
90.90024255153182
30
0.0
 70
     192
  0
VERTEX
  8
Layer0
10
128.67089195477726
20
94.83307301594192
30
0.0
 70
     192
  0
VERTEX
  8
Layer0
10
128.6708919547787
20
91.29753910822745
30
0.0
 70
     192
  0
VERTEX
  8
Layer0
10
129.06818851147395
20
94.31530606271467
30
0.0
 70
     192
  0
VERTEX
  8
Layer0
10
129.06818851147247
20
91.81530606145478
30
0.0
 70
     192
  0
VERTEX
  8
Layer0
10
129.31793956785944
20
92.41825844900285
30
0.0
 70
     192
  0
VERTEX
  8
Layer0
10
129.31793956785907
20
93.71235367516795
30
0.0
 70
     192
  0
VERTEX
  8
Layer0
10
129.40312500217934
20
93.06530606208469
30
0.0
 70
     192
  0
VERTEX
  8
Layer0
10
0.0
 20
 0.0
 30
0.0
 70
     128
 71
-1
 72
2
 73
3
  0
VERTEX
  8
Layer0
10
0.0
 20
 0.0
 30
0.0
 70
     128
 71
-2
 72
-1
 73
4
  0
VERTEX
  8
Layer0
10
0.0
 20
 0.0
 30
0.0
 70
     128
 71
-4
 72
1
 73
-5
  0
VERTEX
  8
Layer0
10
0.0
 20
 0.0
 30
0.0
 70
     128
 71
-4
 72
-5
 73
6
  0
VERTEX
  8
Layer0
10
0.0
 20
 0.0
 30
0.0
 70
     128
 71
-6
 72
5
 73
-7
  0
VERTEX
  8
Layer0
10
0.0
 20
 0.0
 30
0.0
 70
     128
 71
-6
 72
7
 73
-8
  0
VERTEX
  8
Layer0
10
0.0
 20
 0.0
 30
0.0
 70
     128
 71
-6
 72
-8
 73
9
  0
VERTEX
  8
Layer0
10
0.0
 20
 0.0
 30
0.0
 70
     128
 71
-9
 72
8
 73
-10
  0
VERTEX
  8
Layer0
10
0.0
 20
 0.0
 30
0.0
 70
     128
 71
-9
 72
-10
 73
11
  0
VERTEX
  8
Layer0
10
0.0
 20
 0.0
 30
0.0
 70
     128
 71
-11
 72
10
 73
-12
  0
VERTEX
  8
Layer0
10
0.0
 20
 0.0
 30
0.0
 70
     128
 71
-11
 72
-12
 73
13
  0
VERTEX
  8
Layer0
10
0.0
 20
 0.0
 30
0.0
 70
     128
 71
-13
 72
12
 73
-14
  0
VERTEX
  8
Layer0
10
0.0
 20
 0.0
 30
0.0
 70
     128
 71
-13
 72
-14
 73
15
  0
VERTEX
  8
Layer0
10
0.0
 20
 0.0
 30
0.0
 70
     128
 71
-15
 72
14
 73
-16
  0
VERTEX
  8
Layer0
10
0.0
 20
 0.0
 30
0.0
 70
     128
 71
-15
 72
-16
 73
17
  0
VERTEX
  8
Layer0
10
0.0
 20
 0.0
 30
0.0
 70
     128
 71
-17
 72
16
 73
-18
  0
VERTEX
  8
Layer0
10
0.0
 20
 0.0
 30
0.0
 70
     128
 71
-17
 72
-18
 73
19
  0
VERTEX
  8
Layer0
10
0.0
 20
 0.0
 30
0.0
 70
     128
 71
-19
 72
18
 73
-20
  0
VERTEX
  8
Layer0
10
0.0
 20
 0.0
 30
0.0
 70
     128
 71
-19
 72
-20
 73
21
  0
VERTEX
  8
Layer0
10
0.0
 20
 0.0
 30
0.0
 70
     128
 71
-21
 72
-20
 73
22
  0
VERTEX
  8
Layer0
10
0.0
 20
 0.0
 30
0.0
 70
     128
 71
-22
 72
20
 73
-23
  0
VERTEX
  8
Layer0
10
0.0
 20
 0.0
 30
0.0
 70
     128
 71
-22
 72
23
 73
24
  0
SEQEND
  0
POLYLINE
 8
Layer0
 66
     1
10
0.0
 20
 0.0
 30
0.0
70
    64
71
26
72
   1
  0
VERTEX
  8
Layer0
10
43.954629932737845
20
111.86342816431352
30
0.0
 70
     192
  0
VERTEX
  8
Layer0
10
43.86806697129493
20
102.20605095533915
30
0.0
 70
     192
  0
VERTEX
  8
Layer0
10
43.86806697129437
20
111.20602717602867
30
0.0
 70
     192
  0
VERTEX
  8
Layer0
10
43.95462993273911
20
101.54864996705412
30
0.0
 70
     192
  0
VERTEX
  8
Layer0
10
44.20837523344795
20
112.47602367607678
30
0.0
 70
     192
  0
VERTEX
  8
Layer0
10
44.20837523344687
20
100.93605445529067
30
0.0
 70
     192
  0
VERTEX
  8
Layer0
10
44.61203092102306
20
100.40999650504098
30
0.0
 70
     192
  0
VERTEX
  8
Layer0
10
44.612030921025045
20
113.00208162632666
30
0.0
 70
     192
  0
VERTEX
  8
Layer0
10
45.138063471342846
20
100.00634081746567
30
0.0
 70
     192
  0
VERTEX
  8
Layer0
10
45.13806347134465
20
113.40571191397206
30
0.0
 70
     192
  0
VERTEX
  8
Layer0
10
45.75065898310574
20
99.75259551675595
30
0.0
 70
     192
  0
VERTEX
  8
Layer0
10
45.7506589831054
20
113.65948261461169
30
0.0
 70
     192
  0
VERTEX
  8
Layer0
10
46.40805997139062
20
113.74602017612453
30
0.0
 70
     192
  0
VERTEX
  8
Layer0
10
46.408059971390955
20
99.66605795524242
30
0.0
 70
     192
  0
VERTEX
  8
Layer0
10
47.06546095967584
20
113.65948261461169
30
0.0
 70
     192
  0
VERTEX
  8
Layer0
10
47.06546095967617
20
99.75259551675595
30
0.0
 70
     192
  0
VERTEX
  8
Layer0
10
47.678056471440875
20
113.40571191397201
30
0.0
 70
     192
  0
VERTEX
  8
Layer0
10
47.67805647143907
20
100.00634081746563
30
0.0
 70
     192
  0
VERTEX
  8
Layer0
10
48.204114421688764
20
100.40999650504054
30
0.0
 70
     192
  0
VERTEX
  8
Layer0
10
48.20411442169075
20
113.00208162632656
30
0.0
 70
     192
  0
VERTEX
  8
Layer0
10
48.607770109263555
20
100.93605445529094
30
0.0
 70
     192
  0
VERTEX
  8
Layer0
10
48.60777010926464
20
112.4760236760767
30
0.0
 70
     192
  0
VERTEX
  8
Layer0
10
48.86151540997525
20
101.54864996705385
30
0.0
 70
     192
  0
VERTEX
  8
Layer0
10
48.86151540997398
20
111.86342816431325
30
0.0
 70
     192
  0
VERTEX
  8
Layer0
10
48.948052971487186
20
111.20602717602861
30
0.0
 70
     192
  0
VERTEX
  8
Layer0
10
48.94805297148775
20
102.20605095533892
30
0.0
 70
     192
  0
VERTEX
  8
Layer0
10
0.0
 20
 0.0
 30
0.0
 70
     128
 71
-1
 72
2
 73
3
  0
VERTEX
  8
Layer0
10
0.0
 20
 0.0
 30
0.0
 70
     128
 71
-2
 72
-1
 73
4
  0
VERTEX
  8
Layer0
10
0.0
 20
 0.0
 30
0.0
 70
     128
 71
-4
 72
1
 73
-5
  0
VERTEX
  8
Layer0
10
0.0
 20
 0.0
 30
0.0
 70
     128
 71
-4
 72
-5
 73
6
  0
VERTEX
  8
Layer0
10
0.0
 20
 0.0
 30
0.0
 70
     128
 71
-6
 72
-5
 73
7
  0
VERTEX
  8
Layer0
10
0.0
 20
 0.0
 30
0.0
 70
     128
 71
-7
 72
5
 73
-8
  0
VERTEX
  8
Layer0
10
0.0
 20
 0.0
 30
0.0
 70
     128
 71
-7
 72
-8
 73
9
  0
VERTEX
  8
Layer0
10
0.0
 20
 0.0
 30
0.0
 70
     128
 71
-9
 72
8
 73
-10
  0
VERTEX
  8
Layer0
10
0.0
 20
 0.0
 30
0.0
 70
     128
 71
-9
 72
-10
 73
11
  0
VERTEX
  8
Layer0
10
0.0
 20
 0.0
 30
0.0
 70
     128
 71
-11
 72
10
 73
-12
  0
VERTEX
  8
Layer0
10
0.0
 20
 0.0
 30
0.0
 70
     128
 71
-11
 72
12
 73
-13
  0
VERTEX
  8
Layer0
10
0.0
 20
 0.0
 30
0.0
 70
     128
 71
-11
 72
-13
 73
14
  0
VERTEX
  8
Layer0
10
0.0
 20
 0.0
 30
0.0
 70
     128
 71
-14
 72
13
 73
-15
  0
VERTEX
  8
Layer0
10
0.0
 20
 0.0
 30
0.0
 70
     128
 71
-14
 72
-15
 73
16
  0
VERTEX
  8
Layer0
10
0.0
 20
 0.0
 30
0.0
 70
     128
 71
-16
 72
15
 73
-17
  0
VERTEX
  8
Layer0
10
0.0
 20
 0.0
 30
0.0
 70
     128
 71
-16
 72
-17
 73
18
  0
VERTEX
  8
Layer0
10
0.0
 20
 0.0
 30
0.0
 70
     128
 71
-18
 72
-17
 73
19
  0
VERTEX
  8
Layer0
10
0.0
 20
 0.0
 30
0.0
 70
     128
 71
-19
 72
17
 73
-20
  0
VERTEX
  8
Layer0
10
0.0
 20
 0.0
 30
0.0
 70
     128
 71
-19
 72
-20
 73
21
  0
VERTEX
  8
Layer0
10
0.0
 20
 0.0
 30
0.0
 70
     128
 71
-21
 72
20
 73
-22
  0
VERTEX
  8
Layer0
10
0.0
 20
 0.0
 30
0.0
 70
     128
 71
-21
 72
-22
 73
23
  0
VERTEX
  8
Layer0
10
0.0
 20
 0.0
 30
0.0
 70
     128
 71
-23
 72
22
 73
-24
  0
VERTEX
  8
Layer0
10
0.0
 20
 0.0
 30
0.0
 70
     128
 71
-23
 72
24
 73
-25
  0
VERTEX
  8
Layer0
10
0.0
 20
 0.0
 30
0.0
 70
     128
 71
-23
 72
25
 73
26
  0
SEQEND
  0
POLYLINE
 8
Layer0
 66
     1
10
0.0
 20
 0.0
 30
0.0
70
    64
71
26
72
   1
  0
VERTEX
  8
Layer0
10
91.19849973453178
20
159.1072979661047
30
0.0
 70
     192
  0
VERTEX
  8
Layer0
10
91.11193677308631
20
149.4499207571301
30
0.0
 70
     192
  0
VERTEX
  8
Layer0
10
91.11193677308505
20
158.44989697781966
30
0.0
 70
     192
  0
VERTEX
  8
Layer0
10
91.19849973452837
20
148.79251976884524
30
0.0
 70
     192
  0
VERTEX
  8
Layer0
10
91.45224503523882
20
148.17992425708198
30
0.0
 70
     192
  0
VERTEX
  8
Layer0
10
91.45224503523897
20
159.71989347786777
30
0.0
 70
     192
  0
VERTEX
  8
Layer0
10
91.85590072281609
20
147.6538663068321
30
0.0
 70
     192
  0
VERTEX
  8
Layer0
10
91.85590072281448
20
160.24595142811782
30
0.0
 70
     192
  0
VERTEX
  8
Layer0
10
92.38193327313496
20
160.64958171576296
30
0.0
 70
     192
  0
VERTEX
  8
Layer0
10
92.38193327313407
20
147.2502106192568
30
0.0
 70
     192
  0
VERTEX
  8
Layer0
10
92.99452878489696
20
146.99646531854708
30
0.0
 70
     192
  0
VERTEX
  8
Layer0
10
92.99452878489787
20
160.90335241640278
30
0.0
 70
     192
  0
VERTEX
  8
Layer0
10
93.6519297731822
20
146.90992775703359
30
0.0
 70
     192
  0
VERTEX
  8
Layer0
10
93.6519297731831
20
160.98988997791602
30
0.0
 70
     192
  0
VERTEX
  8
Layer0
10
94.3093307614667
20
146.9964653185467
30
0.0
 70
     192
  0
VERTEX
  8
Layer0
10
94.30933076146758
20
160.90335241640247
30
0.0
 70
     192
  0
VERTEX
  8
Layer0
10
94.9219262732303
20
147.25021061925653
30
0.0
 70
     192
  0
VERTEX
  8
Layer0
10
94.9219262732312
20
160.64958171576274
30
0.0
 70
     192
  0
VERTEX
  8
Layer0
10
95.44798422348254
20
147.65386630683184
30
0.0
 70
     192
  0
VERTEX
  8
Layer0
10
95.44798422348092
20
160.2459514281175
30
0.0
 70
     192
  0
VERTEX
  8
Layer0
10
95.85163991105568
20
159.71989347786746
30
0.0
 70
     192
  0
VERTEX
  8
Layer0
10
95.8516399110555
20
148.17992425708172
30
0.0
 70
     192
  0
VERTEX
  8
Layer0
10
96.1053852117645
20
148.79251976884507
30
0.0
 70
     192
  0
VERTEX
  8
Layer0
10
96.10538521176794
20
159.1072979661045
30
0.0
 70
     192
  0
VERTEX
  8
Layer0
10
96.19192277327876
20
149.44992075712992
30
0.0
 70
     192
  0
VERTEX
  8
Layer0
10
96.19192277327753
20
158.4498969778195
30
0.0
 70
     192
  0
VERTEX
  8
Layer0
10
0.0
 20
 0.0
 30
0.0
 70
     128
 71
-1
 72
2
 73
3
  0
VERTEX
  8
Layer0
10
0.0
 20
 0.0
 30
0.0
 70
     128
 71
-2
 72
-1
 73
4
  0
VERTEX
  8
Layer0
10
0.0
 20
 0.0
 30
0.0
 70
     128
 71
-4
 72
-1
 73
5
  0
VERTEX
  8
Layer0
10
0.0
 20
 0.0
 30
0.0
 70
     128
 71
-5
 72
1
 73
-6
  0
VERTEX
  8
Layer0
10
0.0
 20
 0.0
 30
0.0
 70
     128
 71
-5
 72
-6
 73
7
  0
VERTEX
  8
Layer0
10
0.0
 20
 0.0
 30
0.0
 70
     128
 71
-7
 72
6
 73
-8
  0
VERTEX
  8
Layer0
10
0.0
 20
 0.0
 30
0.0
 70
     128
 71
-7
 72
8
 73
-9
  0
VERTEX
  8
Layer0
10
0.0
 20
 0.0
 30
0.0
 70
     128
 71
-7
 72
-9
 73
10
  0
VERTEX
  8
Layer0
10
0.0
 20
 0.0
 30
0.0
 70
     128
 71
-10
 72
-9
 73
11
  0
VERTEX
  8
Layer0
10
0.0
 20
 0.0
 30
0.0
 70
     128
 71
-11
 72
9
 73
-12
  0
VERTEX
  8
Layer0
10
0.0
 20
 0.0
 30
0.0
 70
     128
 71
-11
 72
-12
 73
13
  0
VERTEX
  8
Layer0
10
0.0
 20
 0.0
 30
0.0
 70
     128
 71
-13
 72
12
 73
-14
  0
VERTEX
  8
Layer0
10
0.0
 20
 0.0
 30
0.0
 70
     128
 71
-13
 72
-14
 73
15
  0
VERTEX
  8
Layer0
10
0.0
 20
 0.0
 30
0.0
 70
     128
 71
-15
 72
14
 73
-16
  0
VERTEX
  8
Layer0
10
0.0
 20
 0.0
 30
0.0
 70
     128
 71
-15
 72
-16
 73
17
  0
VERTEX
  8
Layer0
10
0.0
 20
 0.0
 30
0.0
 70
     128
 71
-17
 72
16
 73
-18
  0
VERTEX
  8
Layer0
10
0.0
 20
 0.0
 30
0.0
 70
     128
 71
-17
 72
-18
 73
19
  0
VERTEX
  8
Layer0
10
0.0
 20
 0.0
 30
0.0
 70
     128
 71
-19
 72
18
 73
-20
  0
VERTEX
  8
Layer0
10
0.0
 20
 0.0
 30
0.0
 70
     128
 71
-19
 72
20
 73
-21
  0
VERTEX
  8
Layer0
10
0.0
 20
 0.0
 30
0.0
 70
     128
 71
-19
 72
-21
 73
22
  0
VERTEX
  8
Layer0
10
0.0
 20
 0.0
 30
0.0
 70
     128
 71
-22
 72
-21
 73
23
  0
VERTEX
  8
Layer0
10
0.0
 20
 0.0
 30
0.0
 70
     128
 71
-23
 72
21
 73
-24
  0
VERTEX
  8
Layer0
10
0.0
 20
 0.0
 30
0.0
 70
     128
 71
-23
 72
-24
 73
25
  0
VERTEX
  8
Layer0
10
0.0
 20
 0.0
 30
0.0
 70
     128
 71
-25
 72
24
 73
26
  0
SEQEND
  0
POLYLINE
 8
Layer0
 66
     1
10
0.0
 20
 0.0
 30
0.0
70
    64
71
24
72
   1
  0
VERTEX
  8
Layer0
10
33.60988209883979
20
139.34215247406658
30
0.0
 70
     192
  0
VERTEX
  8
Layer0
10
33.60988209883979
20
137.93653938782737
30
0.0
 70
     192
  0
VERTEX
  8
Layer0
10
33.51735586211732
20
138.63934593094697
30
0.0
 70
     192
  0
VERTEX
  8
Layer0
10
33.88115529888146
20
139.99706391271587
30
0.0
 70
     192
  0
VERTEX
  8
Layer0
10
33.88115529888146
20
137.28162794917858
30
0.0
 70
     192
  0
VERTEX
  8
Layer0
10
34.31268864195938
20
140.5594491146421
30
0.0
 70
     192
  0
VERTEX
  8
Layer0
10
34.31268864195938
20
136.71924274725237
30
0.0
 70
     192
  0
VERTEX
  8
Layer0
10
34.87507384388579
20
140.99098245771984
30
0.0
 70
     192
  0
VERTEX
  8
Layer0
10
34.875073843887954
20
136.2877094041739
30
0.0
 70
     192
  0
VERTEX
  8
Layer0
10
35.52998528253483
20
141.26225565776153
30
0.0
 70
     192
  0
VERTEX
  8
Layer0
10
35.529985282537
20
136.01643620413225
30
0.0
 70
     192
  0
VERTEX
  8
Layer0
10
36.23279182565445
20
141.3547818944841
30
0.0
 70
     192
  0
VERTEX
  8
Layer0
10
36.23279182565658
20
135.92390996740986
30
0.0
 70
     192
  0
VERTEX
  8
Layer0
10
36.935598368773874
20
141.2622556577616
30
0.0
 70
     192
  0
VERTEX
  8
Layer0
10
36.93559836877599
20
136.01643620413233
30
0.0
 70
     192
  0
VERTEX
  8
Layer0
10
37.59050980742292
20
140.99098245771995
30
0.0
 70
     192
  0
VERTEX
  8
Layer0
10
37.590509807425065
20
136.287709404174
30
0.0
 70
     192
  0
VERTEX
  8
Layer0
10
38.15289500934932
20
140.55944911464184
30
0.0
 70
     192
  0
VERTEX
  8
Layer0
10
38.15289500934932
20
136.7192427472521
30
0.0
 70
     192
  0
VERTEX
  8
Layer0
10
38.58442835242742
20
139.99706391271562
30
0.0
 70
     192
  0
VERTEX
  8
Layer0
10
38.58442835242738
20
137.28162794917833
30
0.0
 70
     192
  0
VERTEX
  8
Layer0
10
38.8557015524691
20
137.93653938782745
30
0.0
 70
     192
  0
VERTEX
  8
Layer0
10
38.8557015524691
20
139.34215247406667
30
0.0
 70
     192
  0
VERTEX
  8
Layer0
10
38.94822778919152
20
138.63934593094706
30
0.0
 70
     192
  0
VERTEX
  8
Layer0
10
0.0
 20
 0.0
 30
0.0
 70
     128
 71
-1
 72
2
 73
3
  0
VERTEX
  8
Layer0
10
0.0
 20
 0.0
 30
0.0
 70
     128
 71
-2
 72
1
 73
-4
  0
VERTEX
  8
Layer0
10
0.0
 20
 0.0
 30
0.0
 70
     128
 71
-2
 72
-4
 73
5
  0
VERTEX
  8
Layer0
10
0.0
 20
 0.0
 30
0.0
 70
     128
 71
-5
 72
4
 73
-6
  0
VERTEX
  8
Layer0
10
0.0
 20
 0.0
 30
0.0
 70
     128
 71
-5
 72
-6
 73
7
  0
VERTEX
  8
Layer0
10
0.0
 20
 0.0
 30
0.0
 70
     128
 71
-7
 72
6
 73
-8
  0
VERTEX
  8
Layer0
10
0.0
 20
 0.0
 30
0.0
 70
     128
 71
-7
 72
-8
 73
9
  0
VERTEX
  8
Layer0
10
0.0
 20
 0.0
 30
0.0
 70
     128
 71
-9
 72
8
 73
-10
  0
VERTEX
  8
Layer0
10
0.0
 20
 0.0
 30
0.0
 70
     128
 71
-9
 72
-10
 73
11
  0
VERTEX
  8
Layer0
10
0.0
 20
 0.0
 30
0.0
 70
     128
 71
-11
 72
10
 73
-12
  0
VERTEX
  8
Layer0
10
0.0
 20
 0.0
 30
0.0
 70
     128
 71
-11
 72
-12
 73
13
  0
VERTEX
  8
Layer0
10
0.0
 20
 0.0
 30
0.0
 70
     128
 71
-13
 72
12
 73
-14
  0
VERTEX
  8
Layer0
10
0.0
 20
 0.0
 30
0.0
 70
     128
 71
-13
 72
-14
 73
15
  0
VERTEX
  8
Layer0
10
0.0
 20
 0.0
 30
0.0
 70
     128
 71
-15
 72
14
 73
-16
  0
VERTEX
  8
Layer0
10
0.0
 20
 0.0
 30
0.0
 70
     128
 71
-15
 72
-16
 73
17
  0
VERTEX
  8
Layer0
10
0.0
 20
 0.0
 30
0.0
 70
     128
 71
-17
 72
16
 73
-18
  0
VERTEX
  8
Layer0
10
0.0
 20
 0.0
 30
0.0
 70
     128
 71
-17
 72
-18
 73
19
  0
VERTEX
  8
Layer0
10
0.0
 20
 0.0
 30
0.0
 70
     128
 71
-19
 72
18
 73
-20
  0
VERTEX
  8
Layer0
10
0.0
 20
 0.0
 30
0.0
 70
     128
 71
-19
 72
-20
 73
21
  0
VERTEX
  8
Layer0
10
0.0
 20
 0.0
 30
0.0
 70
     128
 71
-21
 72
-20
 73
22
  0
VERTEX
  8
Layer0
10
0.0
 20
 0.0
 30
0.0
 70
     128
 71
-22
 72
20
 73
-23
  0
VERTEX
  8
Layer0
10
0.0
 20
 0.0
 30
0.0
 70
     128
 71
-22
 72
23
 73
24
  0
SEQEND
  0
POLYLINE
 8
Layer0
 66
     1
10
0.0
 20
 0.0
 30
0.0
70
    64
71
26
72
   1
  0
VERTEX
  8
Layer0
10
57.96592931811604
20
138.55540185023446
30
0.0
 70
     192
  0
VERTEX
  8
Layer0
10
57.54000244349437
20
125.32016348810873
30
0.0
 70
     192
  0
VERTEX
  8
Layer0
10
57.54000214669024
20
135.32016378613747
30
0.0
 70
     192
  0
VERTEX
  8
Layer0
10
57.96592961492198
20
122.08492542401099
30
0.0
 70
     192
  0
VERTEX
  8
Layer0
10
59.214684599543865
20
141.57016378674714
30
0.0
 70
     192
  0
VERTEX
  8
Layer0
10
59.21468489635179
20
119.07016348749842
30
0.0
 70
     192
  0
VERTEX
  8
Layer0
10
61.20116738221419
20
144.1589985518324
30
0.0
 70
     192
  0
VERTEX
  8
Layer0
10
61.20116767902032
20
116.48132872241489
30
0.0
 70
     192
  0
VERTEX
  8
Layer0
10
63.7900021472961
20
146.1454813345003
30
0.0
 70
     192
  0
VERTEX
  8
Layer0
10
63.79000244410583
20
114.49484593974772
30
0.0
 70
     192
  0
VERTEX
  8
Layer0
10
66.80476408380999
20
147.39423661593057
30
0.0
 70
     192
  0
VERTEX
  8
Layer0
10
66.80476438061935
20
113.24609065831818
30
0.0
 70
     192
  0
VERTEX
  8
Layer0
10
70.04000214790668
20
147.82016378735972
30
0.0
 70
     192
  0
VERTEX
  8
Layer0
10
70.04000244471425
20
112.82016348689119
30
0.0
 70
     192
  0
VERTEX
  8
Layer0
10
73.27524021200483
20
147.39423661593173
30
0.0
 70
     192
  0
VERTEX
  8
Layer0
10
73.27524050881347
20
113.24609065831949
30
0.0
 70
     192
  0
VERTEX
  8
Layer0
10
76.29000214851618
20
146.1454813345029
30
0.0
 70
     192
  0
VERTEX
  8
Layer0
10
76.29000244532519
20
114.49484593975016
30
0.0
 70
     192
  0
VERTEX
  8
Layer0
10
78.87883691360278
20
144.15899855183585
30
0.0
 70
     192
  0
VERTEX
  8
Layer0
10
78.87883721040927
20
116.48132872241786
30
0.0
 70
     192
  0
VERTEX
  8
Layer0
10
80.86531969626715
20
141.57016378675166
30
0.0
 70
     192
  0
VERTEX
  8
Layer0
10
80.86531999307526
20
119.07016348750298
30
0.0
 70
     192
  0
VERTEX
  8
Layer0
10
82.11407497770021
20
138.55540185023924
30
0.0
 70
     192
  0
VERTEX
  8
Layer0
10
82.11407527450615
20
122.08492542401574
30
0.0
 70
     192
  0
VERTEX
  8
Layer0
10
82.54000214912912
20
135.32016378614207
30
0.0
 70
     192
  0
VERTEX
  8
Layer0
10
82.54000244593271
20
125.32016348811351
30
0.0
 70
     192
  0
VERTEX
  8
Layer0
10
0.0
 20
 0.0
 30
0.0
 70
     128
 71
-1
 72
2
 73
3
  0
VERTEX
  8
Layer0
10
0.0
 20
 0.0
 30
0.0
 70
     128
 71
-2
 72
-1
 73
4
  0
VERTEX
  8
Layer0
10
0.0
 20
 0.0
 30
0.0
 70
     128
 71
-4
 72
1
 73
-5
  0
VERTEX
  8
Layer0
10
0.0
 20
 0.0
 30
0.0
 70
     128
 71
-4
 72
-5
 73
6
  0
VERTEX
  8
Layer0
10
0.0
 20
 0.0
 30
0.0
 70
     128
 71
-6
 72
5
 73
-7
  0
VERTEX
  8
Layer0
10
0.0
 20
 0.0
 30
0.0
 70
     128
 71
-6
 72
-7
 73
8
  0
VERTEX
  8
Layer0
10
0.0
 20
 0.0
 30
0.0
 70
     128
 71
-8
 72
7
 73
-9
  0
VERTEX
  8
Layer0
10
0.0
 20
 0.0
 30
0.0
 70
     128
 71
-8
 72
-9
 73
10
  0
VERTEX
  8
Layer0
10
0.0
 20
 0.0
 30
0.0
 70
     128
 71
-10
 72
9
 73
-11
  0
VERTEX
  8
Layer0
10
0.0
 20
 0.0
 30
0.0
 70
     128
 71
-10
 72
-11
 73
12
  0
VERTEX
  8
Layer0
10
0.0
 20
 0.0
 30
0.0
 70
     128
 71
-12
 72
11
 73
-13
  0
VERTEX
  8
Layer0
10
0.0
 20
 0.0
 30
0.0
 70
     128
 71
-12
 72
-13
 73
14
  0
VERTEX
  8
Layer0
10
0.0
 20
 0.0
 30
0.0
 70
     128
 71
-14
 72
13
 73
-15
  0
VERTEX
  8
Layer0
10
0.0
 20
 0.0
 30
0.0
 70
     128
 71
-14
 72
-15
 73
16
  0
VERTEX
  8
Layer0
10
0.0
 20
 0.0
 30
0.0
 70
     128
 71
-16
 72
15
 73
-17
  0
VERTEX
  8
Layer0
10
0.0
 20
 0.0
 30
0.0
 70
     128
 71
-16
 72
-17
 73
18
  0
VERTEX
  8
Layer0
10
0.0
 20
 0.0
 30
0.0
 70
     128
 71
-18
 72
17
 73
-19
  0
VERTEX
  8
Layer0
10
0.0
 20
 0.0
 30
0.0
 70
     128
 71
-18
 72
-19
 73
20
  0
VERTEX
  8
Layer0
10
0.0
 20
 0.0
 30
0.0
 70
     128
 71
-20
 72
19
 73
-21
  0
VERTEX
  8
Layer0
10
0.0
 20
 0.0
 30
0.0
 70
     128
 71
-20
 72
-21
 73
22
  0
VERTEX
  8
Layer0
10
0.0
 20
 0.0
 30
0.0
 70
     128
 71
-22
 72
21
 73
-23
  0
VERTEX
  8
Layer0
10
0.0
 20
 0.0
 30
0.0
 70
     128
 71
-22
 72
-23
 73
24
  0
VERTEX
  8
Layer0
10
0.0
 20
 0.0
 30
0.0
 70
     128
 71
-24
 72
23
 73
-25
  0
VERTEX
  8
Layer0
10
0.0
 20
 0.0
 30
0.0
 70
     128
 71
-24
 72
25
 73
26
  0
SEQEND
  0
POLYLINE
 8
Layer0
 66
     1
10
0.0
 20
 0.0
 30
0.0
70
    64
71
606
72
   1
  0
VERTEX
  8
Layer0
10
4.582626882123894
20
106.53569241144017
30
0.0
 70
     192
  0
VERTEX
  8
Layer0
10
10.722060431817328
20
93.71235367517025
30
0.0
 70
     192
  0
VERTEX
  8
Layer0
10
10.636874997496681
20
93.06530606208753
30
0.0
 70
     192
  0
VERTEX
  8
Layer0
10
10.971811488206775
20
94.31530606271927
30
0.0
 70
     192
  0
VERTEX
  8
Layer0
10
24.127487995777535
20
118.1504266392663
30
0.0
 70
     192
  0
VERTEX
  8
Layer0
10
11.369108044899876
20
94.83307301594373
30
0.0
 70
     192
  0
VERTEX
  8
Layer0
10
11.886874998126084
20
95.23036957264156
30
0.0
 70
     192
  0
VERTEX
  8
Layer0
10
12.489827385670592
20
95.48012062902835
30
0.0
 70
     192
  0
VERTEX
  8
Layer0
10
13.136874998753141
20
95.56530606334944
30
0.0
 70
     192
  0
VERTEX
  8
Layer0
10
13.78392261183569
20
95.4801206290292
30
0.0
 70
     192
  0
VERTEX
  8
Layer0
10
14.386874999385974
20
95.23036957264188
30
0.0
 70
     192
  0
VERTEX
  8
Layer0
10
14.904641952613986
20
94.83307301594692
30
0.0
 70
     192
  0
VERTEX
  8
Layer0
10
15.301938509311418
20
94.31530606271805
30
0.0
 70
     192
  0
VERTEX
  8
Layer0
10
15.551689565696535
20
93.71235367517093
30
0.0
 70
     192
  0
VERTEX
  8
Layer0
10
15.63687500001718
20
93.06530606208892
30
0.0
 70
     192
  0
VERTEX
  8
Layer0
10
15.651685968555388
20
16.718616611394193
30
0.0
 70
     192
  0
VERTEX
  8
Layer0
10
16.218787073363277
20
15.979556062647903
30
0.0
 70
     192
  0
VERTEX
  8
Layer0
10
16.575281731111748
20
15.11890182500086
30
0.0
 70
     192
  0
VERTEX
  8
Layer0
10
16.69687542001338
20
14.195306062450094
30
0.0
 70
     192
  0
VERTEX
  8
Layer0
10
34.08741492343622
20
163.38642385500881
30
0.0
 70
     192
  0
VERTEX
  8
Layer0
10
33.51735586211732
20
138.63934593094697
30
0.0
 70
     192
  0
VERTEX
  8
Layer0
10
33.08083525499961
20
162.42536426732858
30
0.0
 70
     192
  0
VERTEX
  8
Layer0
10
33.60988209883979
20
139.34215247406658
30
0.0
 70
     192
  0
VERTEX
  8
Layer0
10
33.88115529888146
20
139.99706391271587
30
0.0
 70
     192
  0
VERTEX
  8
Layer0
10
34.31268864195938
20
140.5594491146421
30
0.0
 70
     192
  0
VERTEX
  8
Layer0
10
35.18631007944104
20
164.24039551501264
30
0.0
 70
     192
  0
VERTEX
  8
Layer0
10
34.87507384388579
20
140.99098245771984
30
0.0
 70
     192
  0
VERTEX
  8
Layer0
10
35.52998528253483
20
141.26225565776153
30
0.0
 70
     192
  0
VERTEX
  8
Layer0
10
36.36617910165375
20
164.97846546454497
30
0.0
 70
     192
  0
VERTEX
  8
Layer0
10
36.23279182565445
20
141.3547818944841
30
0.0
 70
     192
  0
VERTEX
  8
Layer0
10
36.935598368773874
20
141.2622556577616
30
0.0
 70
     192
  0
VERTEX
  8
Layer0
10
37.61484464300846
20
165.59301613439578
30
0.0
 70
     192
  0
VERTEX
  8
Layer0
10
37.59050980742292
20
140.99098245771995
30
0.0
 70
     192
  0
VERTEX
  8
Layer0
10
38.15289500934932
20
140.55944911464184
30
0.0
 70
     192
  0
VERTEX
  8
Layer0
10
38.91941931229365
20
166.07770478934958
30
0.0
 70
     192
  0
VERTEX
  8
Layer0
10
38.58442835242742
20
139.99706391271562
30
0.0
 70
     192
  0
VERTEX
  8
Layer0
10
38.8557015524691
20
139.34215247406667
30
0.0
 70
     192
  0
VERTEX
  8
Layer0
10
38.94822778919152
20
138.63934593094706
30
0.0
 70
     192
  0
VERTEX
  8
Layer0
10
40.2664386840317
20
166.427528991119
30
0.0
 70
     192
  0
VERTEX
  8
Layer0
10
45.5726929721538
20
172.02468209064432
30
0.0
 70
     192
  0
VERTEX
  8
Layer0
10
45.629189158005474
20
171.1051683413772
30
0.0
 70
     192
  0
VERTEX
  8
Layer0
10
45.51999999982996
20
171.22074268828538
30
0.0
 70
     192
  0
VERTEX
  8
Layer0
10
45.72987029776084
20
172.81486586693475
30
0.0
 70
     192
  0
VERTEX
  8
Layer0
10
45.71377978611962
20
170.9705424613921
30
0.0
 70
     192
  0
VERTEX
  8
Layer0
10
45.770532611856105
20
170.82202034621255
30
0.0
 70
     192
  0
VERTEX
  8
Layer0
10
45.98884262903145
20
173.57777375366408
30
0.0
 70
     192
  0
VERTEX
  8
Layer0
10
45.79727437014862
20
170.66528942938368
30
0.0
 70
     192
  0
VERTEX
  8
Layer0
10
44.0199999998296
20
166.70957117954615
30
0.0
 70
     192
  0
VERTEX
  8
Layer0
10
43.868066971293466
20
158.4498969778197
30
0.0
 70
     192
  0
VERTEX
  8
Layer0
10
43.031906975364784
20
166.70957117954615
30
0.0
 70
     192
  0
VERTEX
  8
Layer0
10
43.95462993274055
20
159.10729796610474
30
0.0
 70
     192
  0
VERTEX
  8
Layer0
10
44.20837523344811
20
159.71989347786763
30
0.0
 70
     192
  0
VERTEX
  8
Layer0
10
45.04671594117098
20
169.79736564764585
30
0.0
 70
     192
  0
VERTEX
  8
Layer0
10
44.6120309210236
20
160.24595142811802
30
0.0
 70
     192
  0
VERTEX
  8
Layer0
10
45.138063471343386
20
160.64958171576313
30
0.0
 70
     192
  0
VERTEX
  8
Layer0
10
45.20337165532934
20
169.82454448404687
30
0.0
 70
     192
  0
VERTEX
  8
Layer0
10
45.750658983106305
20
160.90335241640295
30
0.0
 70
     192
  0
VERTEX
  8
Layer0
10
45.35173488749009
20
169.88171137367095
30
0.0
 70
     192
  0
VERTEX
  8
Layer0
10
45.48612428829754
20
169.9666771954885
30
0.0
 70
     192
  0
VERTEX
  8
Layer0
10
45.60139361548994
20
170.07618830969906
30
0.0
 70
     192
  0
VERTEX
  8
Layer0
10
45.693128801586134
20
170.2060511510293
30
0.0
 70
     192
  0
VERTEX
  8
Layer0
10
45.75781698404923
20
170.3512928150797
30
0.0
 70
     192
  0
VERTEX
  8
Layer0
10
46.40805997139152
20
160.98988997791602
30
0.0
 70
     192
  0
VERTEX
  8
Layer0
10
45.79298102512449
20
170.50635148830293
30
0.0
 70
     192
  0
VERTEX
  8
Layer0
10
46.34517887757738
20
174.3003521853722
30
0.0
 70
     192
  0
VERTEX
  8
Layer0
10
46.79278203139057
20
174.97023764475625
30
0.0
 70
     192
  0
VERTEX
  8
Layer0
10
47.06546095967674
20
160.90335241640287
30
0.0
 70
     192
  0
VERTEX
  8
Layer0
10
47.32399347641021
20
175.5759682058789
30
0.0
 70
     192
  0
VERTEX
  8
Layer0
10
47.67805647143961
20
160.64958171576328
30
0.0
 70
     192
  0
VERTEX
  8
Layer0
10
47.929724037533084
20
176.10717965089842
30
0.0
 70
     192
  0
VERTEX
  8
Layer0
10
48.204114421689304
20
160.24595142811742
30
0.0
 70
     192
  0
VERTEX
  8
Layer0
10
48.59960949691655
20
176.55478280471152
30
0.0
 70
     192
  0
VERTEX
  8
Layer0
10
48.6077701092648
20
159.7198934778677
30
0.0
 70
     192
  0
VERTEX
  8
Layer0
10
49.32218792862478
20
176.91111905325727
30
0.0
 70
     192
  0
VERTEX
  8
Layer0
10
48.86151540997669
20
159.10729796610428
30
0.0
 70
     192
  0
VERTEX
  8
Layer0
10
48.948052971486646
20
158.4498969778196
30
0.0
 70
     192
  0
VERTEX
  8
Layer0
10
48.94805297148721
20
149.4499207571301
30
0.0
 70
     192
  0
VERTEX
  8
Layer0
10
48.94805297148775
20
102.20605095533892
30
0.0
 70
     192
  0
VERTEX
  8
Layer0
10
43.86806697129475
20
149.4499207571302
30
0.0
 70
     192
  0
VERTEX
  8
Layer0
10
43.86806697129437
20
111.20602717602867
30
0.0
 70
     192
  0
VERTEX
  8
Layer0
10
43.954629932737845
20
111.86342816431352
30
0.0
 70
     192
  0
VERTEX
  8
Layer0
10
43.95462993273712
20
148.79251976884532
30
0.0
 70
     192
  0
VERTEX
  8
Layer0
10
44.20837523344795
20
148.17992425708206
30
0.0
 70
     192
  0
VERTEX
  8
Layer0
10
44.20837523344795
20
112.47602367607678
30
0.0
 70
     192
  0
VERTEX
  8
Layer0
10
44.61203092102523
20
147.6538663068323
30
0.0
 70
     192
  0
VERTEX
  8
Layer0
10
44.612030921025045
20
113.00208162632666
30
0.0
 70
     192
  0
VERTEX
  8
Layer0
10
45.13806347134465
20
113.40571191397206
30
0.0
 70
     192
  0
VERTEX
  8
Layer0
10
45.138063471345006
20
147.25021061925688
30
0.0
 70
     192
  0
VERTEX
  8
Layer0
10
45.7506589831054
20
113.65948261461169
30
0.0
 70
     192
  0
VERTEX
  8
Layer0
10
45.75065898310538
20
146.99646531854717
30
0.0
 70
     192
  0
VERTEX
  8
Layer0
10
46.4080599713906
20
146.90992775703359
30
0.0
 70
     192
  0
VERTEX
  8
Layer0
10
46.40805997139062
20
113.74602017612453
30
0.0
 70
     192
  0
VERTEX
  8
Layer0
10
47.06546095967582
20
146.99646531854717
30
0.0
 70
     192
  0
VERTEX
  8
Layer0
10
47.06546095967584
20
113.65948261461169
30
0.0
 70
     192
  0
VERTEX
  8
Layer0
10
47.67805647144124
20
147.2502106192568
30
0.0
 70
     192
  0
VERTEX
  8
Layer0
10
47.678056471440875
20
113.40571191397201
30
0.0
 70
     192
  0
VERTEX
  8
Layer0
10
48.20411442169075
20
113.00208162632656
30
0.0
 70
     192
  0
VERTEX
  8
Layer0
10
48.20411442169093
20
147.6538663068321
30
0.0
 70
     192
  0
VERTEX
  8
Layer0
10
48.60777010926464
20
112.4760236760767
30
0.0
 70
     192
  0
VERTEX
  8
Layer0
10
48.60777010926464
20
148.17992425708198
30
0.0
 70
     192
  0
VERTEX
  8
Layer0
10
48.86151540997326
20
148.79251976884487
30
0.0
 70
     192
  0
VERTEX
  8
Layer0
10
48.86151540997398
20
111.86342816431325
30
0.0
 70
     192
  0
VERTEX
  8
Layer0
10
48.948052971487186
20
111.20602717602861
30
0.0
 70
     192
  0
VERTEX
  8
Layer0
10
2.1294832480845356
20
102.56028845219595
30
0.0
 70
     192
  0
VERTEX
  8
Layer0
10
0.009347380356616952
20
87.86368945243468
30
0.0
 70
     192
  0
VERTEX
  8
Layer0
10
0.009218897811130944
20
88.00938706522021
30
0.0
 70
     192
  0
VERTEX
  8
Layer0
10
0.0674869141585404
20
87.10110906647517
30
0.0
 70
     192
  0
VERTEX
  8
Layer0
10
0.16421073085731022
20
86.34245660735859
30
0.0
 70
     192
  0
VERTEX
  8
Layer0
10
0.2992700916191026
20
85.58968305607546
30
0.0
 70
     192
  0
VERTEX
  8
Layer0
10
0.4723176723931118
20
84.84472427518276
30
0.0
 70
     192
  0
VERTEX
  8
Layer0
10
0.6829084571018682
20
84.10949603046073
30
0.0
 70
     192
  0
VERTEX
  8
Layer0
10
0.9305008820661157
20
83.3858890642556
30
0.0
 70
     192
  0
VERTEX
  8
Layer0
10
1.2144582287082002
20
82.67576423316667
30
0.0
 70
     192
  0
VERTEX
  8
Layer0
10
1.5340502609632167
20
81.98094772259735
30
0.0
 70
     192
  0
VERTEX
  8
Layer0
10
1.888455103186102
20
81.3032263504615
30
0.0
 70
     192
  0
VERTEX
  8
Layer0
10
2.69797042868003
20
80.00599199844288
30
0.0
 70
     192
  0
VERTEX
  8
Layer0
10
2.3189815626648866
20
103.41205561493247
30
0.0
 70
     192
  0
VERTEX
  8
Layer0
10
2.4605549533674957
20
103.8250611390581
30
0.0
 70
     192
  0
VERTEX
  8
Layer0
10
2.6323621699055777
20
104.22643237402491
30
0.0
 70
     192
  0
VERTEX
  8
Layer0
10
2.8334573264909935
20
104.61395956779488
30
0.0
 70
     192
  0
VERTEX
  8
Layer0
10
11.990213295264779
20
66.67165829561439
30
0.0
 70
     192
  0
VERTEX
  8
Layer0
10
3.0627332923845114
20
104.98550918679196
30
0.0
 70
     192
  0
VERTEX
  8
Layer0
10
3.3189277872112184
20
105.33903566208589
30
0.0
 70
     192
  0
VERTEX
  8
Layer0
10
3.600630330454153
20
105.67259265128472
30
0.0
 70
     192
  0
VERTEX
  8
Layer0
10
3.90629000686378
20
105.98434375413892
30
0.0
 70
     192
  0
VERTEX
  8
Layer0
10
4.234224005032426
20
106.27257262284994
30
0.0
 70
     192
  0
VERTEX
  8
Layer0
10
10.722060431816606
20
92.41825844900552
30
0.0
 70
     192
  0
VERTEX
  8
Layer0
10
10.971811488205333
20
91.81530606145938
30
0.0
 70
     192
  0
VERTEX
  8
Layer0
10
11.36910804490132
20
91.29753910822926
30
0.0
 70
     192
  0
VERTEX
  8
Layer0
10
11.886874998128791
20
90.90024255153692
30
0.0
 70
     192
  0
VERTEX
  8
Layer0
10
12.489827385676186
20
90.65049149514878
30
0.0
 70
     192
  0
VERTEX
  8
Layer0
10
11.998534880659072
20
41.12434534546627
30
0.0
 70
     192
  0
VERTEX
  8
Layer0
10
12.204779657062483
20
17.642212373948027
30
0.0
 70
     192
  0
VERTEX
  8
Layer0
10
13.128375419614333
20
17.763806062851103
30
0.0
 70
     192
  0
VERTEX
  8
Layer0
10
13.13687499875657
20
90.5653060608293
30
0.0
 70
     192
  0
VERTEX
  8
Layer0
10
14.051971182166183
20
17.642212373949473
30
0.0
 70
     192
  0
VERTEX
  8
Layer0
10
13.783922611840563
20
90.65049149514964
30
0.0
 70
     192
  0
VERTEX
  8
Layer0
10
14.38687499938868
20
90.90024255153723
30
0.0
 70
     192
  0
VERTEX
  8
Layer0
10
14.912625419814669
20
17.285717716201745
30
0.0
 70
     192
  0
VERTEX
  8
Layer0
10
14.904641952616151
20
91.29753910823246
30
0.0
 70
     192
  0
VERTEX
  8
Layer0
10
15.301938509309974
20
91.81530606145817
30
0.0
 70
     192
  0
VERTEX
  8
Layer0
10
15.551689565696535
20
92.41825844900583
30
0.0
 70
     192
  0
VERTEX
  8
Layer0
10
0.014702959196277732
20
21.134965992412422
30
0.0
 70
     192
  0
VERTEX
  8
Layer0
10
0.028769076439698435
20
2.923851913107997
30
0.0
 70
     192
  0
VERTEX
  8
Layer0
10
0.0
20
3.3627831993846717
30
0.0
 70
     192
  0
VERTEX
  8
Layer0
10
0.0640056458615831
20
21.729464940700208
30
0.0
 70
     192
  0
VERTEX
  8
Layer0
10
0.11458405888550657
20
2.492430862833769
30
0.0
 70
     192
  0
VERTEX
  8
Layer0
10
0.14605372436842146
20
22.32033537255523
30
0.0
 70
     192
  0
VERTEX
  8
Layer0
10
0.25597662919889785
20
2.0759017823455967
30
0.0
 70
     192
  0
VERTEX
  8
Layer0
10
0.2605969355032286
20
22.90577504255574
30
0.0
 70
     192
  0
VERTEX
  8
Layer0
10
0.4505275212969934
20
1.681391599694637
30
0.0
 70
     192
  0
VERTEX
  8
Layer0
10
0.4072859049050109
20
23.48399826993705
30
0.0
 70
     192
  0
VERTEX
  8
Layer0
10
0.5856732087242719
20
24.053241385190617
30
0.0
 70
     192
  0
VERTEX
  8
Layer0
10
0.6949079154761136
20
1.3156504934815707
30
0.0
 70
     192
  0
VERTEX
  8
Layer0
10
0.7952147383299546
20
24.61176810952679
30
0.0
 70
     192
  0
VERTEX
  8
Layer0
10
0.9849363954356875
20
0.9849363954416883
30
0.0
 70
     192
  0
VERTEX
  8
Layer0
10
1.0352713599264034
20
25.157874850791856
30
0.0
 70
     192
  0
VERTEX
  8
Layer0
10
1.3156504934758857
20
0.6949079154803548
30
0.0
 70
     192
  0
VERTEX
  8
Layer0
10
1.3051108640065705
20
25.689895899684696
30
0.0
 70
     192
  0
VERTEX
  8
Layer0
10
1.930757980236899
20
26.705237850381163
30
0.0
 70
     192
  0
VERTEX
  8
Layer0
10
1.68139159968444
20
0.4505275213017761
30
0.0
 70
     192
  0
VERTEX
  8
Layer0
10
2.0759017823355803
20
0.25597662920422193
30
0.0
 70
     192
  0
VERTEX
  8
Layer0
10
2.2846572727453744
20
27.18546180354219
30
0.0
 70
     192
  0
VERTEX
  8
Layer0
10
2.492430862824113
20
0.1145840588920489
30
0.0
 70
     192
  0
VERTEX
  8
Layer0
10
2.9238519130981615
20
0.02876907644430062
30
0.0
 70
     192
  0
VERTEX
  8
Layer0
10
3.362783199373933
20
4.0607517348689726e-12
30
0.0
 70
     192
  0
VERTEX
  8
Layer0
10
9.55987541921348
20
14.195306062450275
30
0.0
 70
     192
  0
VERTEX
  8
Layer0
10
9.68146910811403
20
15.118901825001378
30
0.0
 70
     192
  0
VERTEX
  8
Layer0
10
10.037963765861416
20
15.979556062650948
30
0.0
 70
     192
  0
VERTEX
  8
Layer0
10
10.605064870661005
20
16.718616611397827
30
0.0
 70
     192
  0
VERTEX
  8
Layer0
10
11.344125419414718
20
17.285717716199198
30
0.0
 70
     192
  0
VERTEX
  8
Layer0
10
50.08509581535413
20
177.17009138452806
30
0.0
 70
     192
  0
VERTEX
  8
Layer0
10
49.444949721842804
20
169.18724993484454
30
0.0
 70
     192
  0
VERTEX
  8
Layer0
10
49.53747595856545
20
169.89005647796412
30
0.0
 70
     192
  0
VERTEX
  8
Layer0
10
49.80874915860965
20
170.5449679166132
30
0.0
 70
     192
  0
VERTEX
  8
Layer0
10
50.24028250168543
20
171.10735311853955
30
0.0
 70
     192
  0
VERTEX
  8
Layer0
10
50.875279591644556
20
177.32726871013497
30
0.0
 70
     192
  0
VERTEX
  8
Layer0
10
50.80266770361181
20
171.53888646161755
30
0.0
 70
     192
  0
VERTEX
  8
Layer0
10
51.457579142260876
20
171.81015966165887
30
0.0
 70
     192
  0
VERTEX
  8
Layer0
10
51.6792189940035
20
177.37996168245917
30
0.0
 70
     192
  0
VERTEX
  8
Layer0
10
52.160385685380454
20
171.90268589838132
30
0.0
 70
     192
  0
VERTEX
  8
Layer0
10
63.51999999982947
20
177.37996168245905
30
0.0
 70
     192
  0
VERTEX
  8
Layer0
10
52.86319222849987
20
171.81015966165887
30
0.0
 70
     192
  0
VERTEX
  8
Layer0
10
53.51810366714892
20
171.53888646161718
30
0.0
 70
     192
  0
VERTEX
  8
Layer0
10
54.080488869075346
20
171.10735311853912
30
0.0
 70
     192
  0
VERTEX
  8
Layer0
10
54.51202221215559
20
170.5449679166129
30
0.0
 70
     192
  0
VERTEX
  8
Layer0
10
54.78329541219474
20
169.89005647796387
30
0.0
 70
     192
  0
VERTEX
  8
Layer0
10
54.875821648917025
20
169.18724993484426
30
0.0
 70
     192
  0
VERTEX
  8
Layer0
10
59.05589838469197
20
171.18724993484471
30
0.0
 70
     192
  0
VERTEX
  8
Layer0
10
58.65629669467644
20
170.22252611525462
30
0.0
 70
     192
  0
VERTEX
  8
Layer0
10
58.51999999982989
20
169.1872499348445
30
0.0
 70
     192
  0
VERTEX
  8
Layer0
10
57.54000214669024
20
135.32016378613747
30
0.0
 70
     192
  0
VERTEX
  8
Layer0
10
57.96592931811604
20
138.55540185023446
30
0.0
 70
     192
  0
VERTEX
  8
Layer0
10
59.69157287508351
20
172.01567705959073
30
0.0
 70
     192
  0
VERTEX
  8
Layer0
10
60.519999999829615
20
172.65135154998228
30
0.0
 70
     192
  0
VERTEX
  8
Layer0
10
61.48472381941957
20
173.05095324000087
30
0.0
 70
     192
  0
VERTEX
  8
Layer0
10
62.51999999982971
20
173.1872499348445
30
0.0
 70
     192
  0
VERTEX
  8
Layer0
10
65.17364414020847
20
173.187249920658
30
0.0
 70
     192
  0
VERTEX
  8
Layer0
10
66.5199999998297
20
174.53360580865152
30
0.0
 70
     192
  0
VERTEX
  8
Layer0
10
65.3708133947228
20
173.0359566367957
30
0.0
 70
     192
  0
VERTEX
  8
Layer0
10
65.600421852901
20
172.9408497043432
30
0.0
 70
     192
  0
VERTEX
  8
Layer0
10
65.84682207797265
20
172.9084105034883
30
0.0
 70
     192
  0
VERTEX
  8
Layer0
10
66.093222302019
20
172.9408497121319
30
0.0
 70
     192
  0
VERTEX
  8
Layer0
10
66.3228307571908
20
173.0359566518426
30
0.0
 70
     192
  0
VERTEX
  8
Layer0
10
66.5199999998297
20
173.18724993484417
30
0.0
 70
     192
  0
VERTEX
  8
Layer0
10
66.67129328784674
20
174.3364365573255
30
0.0
 70
     192
  0
VERTEX
  8
Layer0
10
66.6712932928624
20
173.3844191948575
30
0.0
 70
     192
  0
VERTEX
  8
Layer0
10
66.76640022513813
20
174.1068281011515
30
0.0
 70
     192
  0
VERTEX
  8
Layer0
10
66.7664002277345
20
173.61402765203349
30
0.0
 70
     192
  0
VERTEX
  8
Layer0
10
66.79883943118558
20
173.8604278767633
30
0.0
 70
     192
  0
VERTEX
  8
Layer0
10
115.8908994670074
20
118.15072753721131
30
0.0
 70
     192
  0
VERTEX
  8
Layer0
10
124.40312499965923
20
93.06530606208496
30
0.0
 70
     192
  0
VERTEX
  8
Layer0
10
123.3431245796538
20
14.195306062445468
30
0.0
 70
     192
  0
VERTEX
  8
Layer0
10
124.48831043398025
20
93.71235367516768
30
0.0
 70
     192
  0
VERTEX
  8
Layer0
10
124.7380614903693
20
94.31530606271548
30
0.0
 70
     192
  0
VERTEX
  8
Layer0
10
125.13535804706241
20
94.83307301594309
30
0.0
 70
     192
  0
VERTEX
  8
Layer0
10
135.4355820146853
20
106.53569241143975
30
0.0
 70
     192
  0
VERTEX
  8
Layer0
10
123.4647182685533
20
15.118901824997408
30
0.0
 70
     192
  0
VERTEX
  8
Layer0
10
123.8212129263014
20
15.979556062646436
30
0.0
 70
     192
  0
VERTEX
  8
Layer0
10
124.38831403110169
20
16.718616611393315
30
0.0
 70
     192
  0
VERTEX
  8
Layer0
10
125.65312500028864
20
95.230369572638
30
0.0
 70
     192
  0
VERTEX
  8
Layer0
10
126.25607738783312
20
95.480120629026
30
0.0
 70
     192
  0
VERTEX
  8
Layer0
10
126.90312500091639
20
95.5653060633461
30
0.0
 70
     192
  0
VERTEX
  8
Layer0
10
127.55017261399894
20
95.4801206290247
30
0.0
 70
     192
  0
VERTEX
  8
Layer0
10
128.15312500154852
20
95.2303695726361
30
0.0
 70
     192
  0
VERTEX
  8
Layer0
10
128.67089195477726
20
94.83307301594192
30
0.0
 70
     192
  0
VERTEX
  8
Layer0
10
129.06818851147395
20
94.31530606271467
30
0.0
 70
     192
  0
VERTEX
  8
Layer0
10
129.31793956785907
20
93.71235367516795
30
0.0
 70
     192
  0
VERTEX
  8
Layer0
10
129.40312500217934
20
93.06530606208469
30
0.0
 70
     192
  0
VERTEX
  8
Layer0
10
125.12737457985254
20
17.285717716197414
30
0.0
 70
     192
  0
VERTEX
  8
Layer0
10
124.48831043397988
20
92.41825844900258
30
0.0
 70
     192
  0
VERTEX
  8
Layer0
10
124.73806149036788
20
91.8153060614556
30
0.0
 70
     192
  0
VERTEX
  8
Layer0
10
125.13535804706385
20
91.29753910822843
30
0.0
 70
     192
  0
VERTEX
  8
Layer0
10
125.98802881750245
20
17.642212373946247
30
0.0
 70
     192
  0
VERTEX
  8
Layer0
10
125.65312500029134
20
90.90024255153317
30
0.0
 70
     192
  0
VERTEX
  8
Layer0
10
126.25607738783656
20
90.65049149514661
30
0.0
 70
     192
  0
VERTEX
  8
Layer0
10
126.9116245800543
20
17.763806062847156
30
0.0
 70
     192
  0
VERTEX
  8
Layer0
10
126.90312500092072
20
90.56530606082633
30
0.0
 70
     192
  0
VERTEX
  8
Layer0
10
127.55017261400128
20
90.65049149514549
30
0.0
 70
     192
  0
VERTEX
  8
Layer0
10
127.83522034260615
20
17.64221237394282
30
0.0
 70
     192
  0
VERTEX
  8
Layer0
10
128.15312500155122
20
90.90024255153182
30
0.0
 70
     192
  0
VERTEX
  8
Layer0
10
128.0493542090227
20
66.67165829561401
30
0.0
 70
     192
  0
VERTEX
  8
Layer0
10
137.3415970756092
20
80.00599199844278
30
0.0
 70
     192
  0
VERTEX
  8
Layer0
10
128.6708919547787
20
91.29753910822745
30
0.0
 70
     192
  0
VERTEX
  8
Layer0
10
129.06818851147247
20
91.81530606145478
30
0.0
 70
     192
  0
VERTEX
  8
Layer0
10
129.31793956785944
20
92.41825844900285
30
0.0
 70
     192
  0
VERTEX
  8
Layer0
10
135.78398489177678
20
106.27257262284957
30
0.0
 70
     192
  0
VERTEX
  8
Layer0
10
136.11191888994537
20
105.98434375413838
30
0.0
 70
     192
  0
VERTEX
  8
Layer0
10
136.41757856635505
20
105.67259265128477
30
0.0
 70
     192
  0
VERTEX
  8
Layer0
10
136.699281109598
20
105.33903566208494
30
0.0
 70
     192
  0
VERTEX
  8
Layer0
10
136.9554756044247
20
104.9855091867915
30
0.0
 70
     192
  0
VERTEX
  8
Layer0
10
137.18475157031818
20
104.61395956779425
30
0.0
 70
     192
  0
VERTEX
  8
Layer0
10
137.38584672690362
20
104.22643237402428
30
0.0
 70
     192
  0
VERTEX
  8
Layer0
10
138.15111240110284
20
81.3032263504615
30
0.0
 70
     192
  0
VERTEX
  8
Layer0
10
137.55765394344172
20
103.82506113905765
30
0.0
 70
     192
  0
VERTEX
  8
Layer0
10
137.69922733414433
20
103.41205561493189
30
0.0
 70
     192
  0
VERTEX
  8
Layer0
10
137.8887256487247
20
102.5602884521959
30
0.0
 70
     192
  0
VERTEX
  8
Layer0
10
140.03022012393086
20
87.8636894524345
30
0.0
 70
     192
  0
VERTEX
  8
Layer0
10
138.50551724332553
20
81.98094772259726
30
0.0
 70
     192
  0
VERTEX
  8
Layer0
10
138.8251092755809
20
82.67576423316667
30
0.0
 70
     192
  0
VERTEX
  8
Layer0
10
139.10906662222246
20
83.38588906425564
30
0.0
 70
     192
  0
VERTEX
  8
Layer0
10
139.35665904718633
20
84.10949603046073
30
0.0
 70
     192
  0
VERTEX
  8
Layer0
10
139.56724983189508
20
84.84472427518253
30
0.0
 70
     192
  0
VERTEX
  8
Layer0
10
139.74029741266767
20
85.58968305607523
30
0.0
 70
     192
  0
VERTEX
  8
Layer0
10
139.87535677342944
20
86.34245660735859
30
0.0
 70
     192
  0
VERTEX
  8
Layer0
10
139.9720805901282
20
87.10110906647517
30
0.0
 70
     192
  0
VERTEX
  8
Layer0
10
128.056824461687
20
41.12434534546611
30
0.0
 70
     192
  0
VERTEX
  8
Layer0
10
128.69587458025245
20
17.285717716197777
30
0.0
 70
     192
  0
VERTEX
  8
Layer0
10
137.77070206960033
20
27.185461803542438
30
0.0
 70
     192
  0
VERTEX
  8
Layer0
10
129.4349351289961
20
16.71861661139327
30
0.0
 70
     192
  0
VERTEX
  8
Layer0
10
130.00203623380358
20
15.979556062646099
30
0.0
 70
     192
  0
VERTEX
  8
Layer0
10
130.35853089155137
20
15.118901824998153
30
0.0
 70
     192
  0
VERTEX
  8
Layer0
10
130.48012458045372
20
14.195306062447026
30
0.0
 70
     192
  0
VERTEX
  8
Layer0
10
136.67721680029757
20
0.0
30
0.0
 70
     192
  0
VERTEX
  8
Layer0
10
137.11614808657333
20
0.02876907644023987
30
0.0
 70
     192
  0
VERTEX
  8
Layer0
10
137.54756913684884
20
0.11458405888803326
30
0.0
 70
     192
  0
VERTEX
  8
Layer0
10
137.9640982173359
20
0.255976629198018
30
0.0
 70
     192
  0
VERTEX
  8
Layer0
10
138.12460136210885
20
26.705237850381344
30
0.0
 70
     192
  0
VERTEX
  8
Layer0
10
138.3586083999871
20
0.45052752129712875
30
0.0
 70
     192
  0
VERTEX
  8
Layer0
10
138.75024847833913
20
25.689895899685055
30
0.0
 70
     192
  0
VERTEX
  8
Layer0
10
138.7243495061971
20
0.6949079154765648
30
0.0
 70
     192
  0
VERTEX
  8
Layer0
10
139.05506360423874
20
0.9849363954381238
30
0.0
 70
     192
  0
VERTEX
  8
Layer0
10
139.0200879824197
20
25.15787485079222
30
0.0
 70
     192
  0
VERTEX
  8
Layer0
10
139.26014460401612
20
24.61176810952699
30
0.0
 70
     192
  0
VERTEX
  8
Layer0
10
139.3450920841981
20
1.3156504934788635
30
0.0
 70
     192
  0
VERTEX
  8
Layer0
10
139.4696861336224
20
24.05324138519082
30
0.0
 70
     192
  0
VERTEX
  8
Layer0
10
139.58947247837864
20
1.681391599690486
30
0.0
 70
     192
  0
VERTEX
  8
Layer0
10
139.648073437442
20
23.483998269937253
30
0.0
 70
     192
  0
VERTEX
  8
Layer0
10
139.78402337047535
20
2.0759017823424837
30
0.0
 70
     192
  0
VERTEX
  8
Layer0
10
139.79476240684392
20
22.9057750425561
30
0.0
 70
     192
  0
VERTEX
  8
Layer0
10
139.92541594078514
20
2.492430862829934
30
0.0
 70
     192
  0
VERTEX
  8
Layer0
10
139.90930561797876
20
22.320335372555387
30
0.0
 70
     192
  0
VERTEX
  8
Layer0
10
139.99135369648738
20
21.729464940700385
30
0.0
 70
     192
  0
VERTEX
  8
Layer0
10
140.01123092323235
20
2.9238519131038463
30
0.0
 70
     192
  0
VERTEX
  8
Layer0
10
140.04065638315018
20
21.134965992412603
30
0.0
 70
     192
  0
VERTEX
  8
Layer0
10
140.0399999996735
20
3.3627831993796184
30
0.0
 70
     192
  0
VERTEX
  8
Layer0
10
13.128375419611444
20
10.626806062050482
30
0.0
 70
     192
  0
VERTEX
  8
Layer0
10
12.204779657060318
20
10.748399750949407
30
0.0
 70
     192
  0
VERTEX
  8
Layer0
10
11.344125419409664
20
11.104894408696072
30
0.0
 70
     192
  0
VERTEX
  8
Layer0
10
10.605064870661547
20
11.671995513502903
30
0.0
 70
     192
  0
VERTEX
  8
Layer0
10
10.037963765861777
20
12.411056062250276
30
0.0
 70
     192
  0
VERTEX
  8
Layer0
10
9.68146910811475
20
13.27171029989768
30
0.0
 70
     192
  0
VERTEX
  8
Layer0
10
14.051971182164017
20
10.74839975095085
30
0.0
 70
     192
  0
VERTEX
  8
Layer0
10
14.912625419809615
20
11.104894408698621
30
0.0
 70
     192
  0
VERTEX
  8
Layer0
10
15.651685968555569
20
11.671995513499812
30
0.0
 70
     192
  0
VERTEX
  8
Layer0
10
16.21878707336436
20
12.411056062247209
30
0.0
 70
     192
  0
VERTEX
  8
Layer0
10
16.575281731112472
20
13.271710299897162
30
0.0
 70
     192
  0
VERTEX
  8
Layer0
10
46.21414211045076
20
25.588706288358562
30
0.0
 70
     192
  0
VERTEX
  8
Layer0
10
44.199076928008225
20
26.272728746426473
30
0.0
 70
     192
  0
VERTEX
  8
Layer0
10
42.29053375438677
20
27.213918082880657
30
0.0
 70
     192
  0
VERTEX
  8
Layer0
10
40.521168292434645
20
28.396170287229307
30
0.0
 70
     192
  0
VERTEX
  8
Layer0
10
38.92125487576852
20
29.799256696472053
30
0.0
 70
     192
  0
VERTEX
  8
Layer0
10
37.51816846652579
20
31.39917011313845
30
0.0
 70
     192
  0
VERTEX
  8
Layer0
10
36.33591626217897
20
33.1685355750899
30
0.0
 70
     192
  0
VERTEX
  8
Layer0
10
35.39472692572256
20
35.07707874871111
30
0.0
 70
     192
  0
VERTEX
  8
Layer0
10
34.710704467654956
20
37.092143931153736
30
0.0
 70
     192
  0
VERTEX
  8
Layer0
10
34.29555270187855
20
39.179252798465974
30
0.0
 70
     192
  0
VERTEX
  8
Layer0
10
34.16999999983579
20
41.094816863147024
30
0.0
 70
     192
  0
VERTEX
  8
Layer0
10
30.147191321133644
20
157.68724993484435
30
0.0
 70
     192
  0
VERTEX
  8
Layer0
10
30.168982423985145
20
157.72298480879823
30
0.0
 70
     192
  0
VERTEX
  8
Layer0
10
30.713481266935055
20
159.00374988093705
30
0.0
 70
     192
  0
VERTEX
  8
Layer0
10
31.385117734772138
20
160.22266030219433
30
0.0
 70
     192
  0
VERTEX
  8
Layer0
10
32.17695991369222
20
161.36713578190734
30
0.0
 70
     192
  0
VERTEX
  8
Layer0
10
33.60988209883979
20
137.93653938782737
30
0.0
 70
     192
  0
VERTEX
  8
Layer0
10
33.88115529888146
20
137.28162794917858
30
0.0
 70
     192
  0
VERTEX
  8
Layer0
10
34.16999999983507
20
66.70118677793353
30
0.0
 70
     192
  0
VERTEX
  8
Layer0
10
48.30125097776178
20
25.173554522583125
30
0.0
 70
     192
  0
VERTEX
  8
Layer0
10
50.216815042441795
20
25.04800182053962
30
0.0
 70
     192
  0
VERTEX
  8
Layer0
10
89.82318495723031
20
25.04800182054025
30
0.0
 70
     192
  0
VERTEX
  8
Layer0
10
91.73874902191105
20
25.173554522583867
30
0.0
 70
     192
  0
VERTEX
  8
Layer0
10
93.82585788922148
20
25.588706288359756
30
0.0
 70
     192
  0
VERTEX
  8
Layer0
10
95.84092307166347
20
26.27272874642724
30
0.0
 70
     192
  0
VERTEX
  8
Layer0
10
97.74946624528492
20
27.213918082881673
30
0.0
 70
     192
  0
VERTEX
  8
Layer0
10
99.51883170723636
20
28.396170287230095
30
0.0
 70
     192
  0
VERTEX
  8
Layer0
10
101.11874512390321
20
29.799256696473044
30
0.0
 70
     192
  0
VERTEX
  8
Layer0
10
102.52183153314661
20
31.399170113139984
30
0.0
 70
     192
  0
VERTEX
  8
Layer0
10
124.3883140311037
20
11.671995513498391
30
0.0
 70
     192
  0
VERTEX
  8
Layer0
10
103.70408373749616
20
33.168535575091525
30
0.0
 70
     192
  0
VERTEX
  8
Layer0
10
104.64527307394899
20
35.07707874871247
30
0.0
 70
     192
  0
VERTEX
  8
Layer0
10
123.8212129263025
20
12.411056062245583
30
0.0
 70
     192
  0
VERTEX
  8
Layer0
10
105.32929553201656
20
37.09214393115543
30
0.0
 70
     192
  0
VERTEX
  8
Layer0
10
105.74444729779188
20
39.17925279846477
30
0.0
 70
     192
  0
VERTEX
  8
Layer0
10
105.86999999983611
20
41.09481686314494
30
0.0
 70
     192
  0
VERTEX
  8
Layer0
10
123.46471826855472
20
13.271710299893709
30
0.0
 70
     192
  0
VERTEX
  8
Layer0
10
106.19884899693876
20
137.28162794918327
30
0.0
 70
     192
  0
VERTEX
  8
Layer0
10
106.47012219698007
20
137.9365393878326
30
0.0
 70
     192
  0
VERTEX
  8
Layer0
10
106.56264843370253
20
138.6393459309513
30
0.0
 70
     192
  0
VERTEX
  8
Layer0
10
106.95916474466146
20
162.42536426732843
30
0.0
 70
     192
  0
VERTEX
  8
Layer0
10
107.86304008596919
20
161.36713578190722
30
0.0
 70
     192
  0
VERTEX
  8
Layer0
10
108.65488226488891
20
160.22266030219427
30
0.0
 70
     192
  0
VERTEX
  8
Layer0
10
109.3265187327307
20
159.00374988093685
30
0.0
 70
     192
  0
VERTEX
  8
Layer0
10
109.87101757567412
20
157.7229848087981
30
0.0
 70
     192
  0
VERTEX
  8
Layer0
10
125.12737457984927
20
11.104894408695012
30
0.0
 70
     192
  0
VERTEX
  8
Layer0
10
125.98802881750031
20
10.748399750947804
30
0.0
 70
     192
  0
VERTEX
  8
Layer0
10
126.91162458005213
20
10.626806062046533
30
0.0
 70
     192
  0
VERTEX
  8
Layer0
10
127.835220342604
20
10.748399750944014
30
0.0
 70
     192
  0
VERTEX
  8
Layer0
10
128.69587458024924
20
11.10489440869447
30
0.0
 70
     192
  0
VERTEX
  8
Layer0
10
129.43493512899803
20
11.671995513498166
30
0.0
 70
     192
  0
VERTEX
  8
Layer0
10
130.0020362338058
20
12.411056062246148
30
0.0
 70
     192
  0
VERTEX
  8
Layer0
10
130.35853089155245
20
13.271710299894455
30
0.0
 70
     192
  0
VERTEX
  8
Layer0
10
73.27359977452112
20
174.106828101152
30
0.0
 70
     192
  0
VERTEX
  8
Layer0
10
73.27359977192494
20
173.614027652034
30
0.0
 70
     192
  0
VERTEX
  8
Layer0
10
73.24116056847389
20
173.86042787676382
30
0.0
 70
     192
  0
VERTEX
  8
Layer0
10
73.36870670679703
20
173.384419194858
30
0.0
 70
     192
  0
VERTEX
  8
Layer0
10
73.36870671181251
20
174.33643655732598
30
0.0
 70
     192
  0
VERTEX
  8
Layer0
10
73.51999999982974
20
173.18724993484452
30
0.0
 70
     192
  0
VERTEX
  8
Layer0
10
73.51999999982974
20
174.53360580865186
30
0.0
 70
     192
  0
VERTEX
  8
Layer0
10
76.5199999998296
20
177.37996168245914
30
0.0
 70
     192
  0
VERTEX
  8
Layer0
10
73.71716924246844
20
173.035956651843
30
0.0
 70
     192
  0
VERTEX
  8
Layer0
10
73.94677769764024
20
172.94084971213232
30
0.0
 70
     192
  0
VERTEX
  8
Layer0
10
74.1931779216866
20
172.9084105034887
30
0.0
 70
     192
  0
VERTEX
  8
Layer0
10
74.43957814675844
20
172.9408497043436
30
0.0
 70
     192
  0
VERTEX
  8
Layer0
10
74.66918660493663
20
173.03595663679621
30
0.0
 70
     192
  0
VERTEX
  8
Layer0
10
74.86635585945079
20
173.18724992065847
30
0.0
 70
     192
  0
VERTEX
  8
Layer0
10
77.51999999982972
20
173.18724993484443
30
0.0
 70
     192
  0
VERTEX
  8
Layer0
10
88.36078100565557
20
177.37996168245886
30
0.0
 70
     192
  0
VERTEX
  8
Layer0
10
78.55527618023986
20
173.05095324000078
30
0.0
 70
     192
  0
VERTEX
  8
Layer0
10
79.5199999998298
20
172.65135154998222
30
0.0
 70
     192
  0
VERTEX
  8
Layer0
10
80.3484271245761
20
172.0156770595908
30
0.0
 70
     192
  0
VERTEX
  8
Layer0
10
80.98410161496764
20
171.18724993484457
30
0.0
 70
     192
  0
VERTEX
  8
Layer0
10
81.38370330498641
20
170.22252611525462
30
0.0
 70
     192
  0
VERTEX
  8
Layer0
10
81.51999999983008
20
169.1872499348445
30
0.0
 70
     192
  0
VERTEX
  8
Layer0
10
85.52797778750961
20
170.54496791661296
30
0.0
 70
     192
  0
VERTEX
  8
Layer0
10
85.25670458746559
20
169.8900564779639
30
0.0
 70
     192
  0
VERTEX
  8
Layer0
10
85.16417835074276
20
169.18724993484432
30
0.0
 70
     192
  0
VERTEX
  8
Layer0
10
82.11407497770021
20
138.55540185023924
30
0.0
 70
     192
  0
VERTEX
  8
Layer0
10
82.54000214912912
20
135.32016378614207
30
0.0
 70
     192
  0
VERTEX
  8
Layer0
10
82.54000244593271
20
125.32016348811351
30
0.0
 70
     192
  0
VERTEX
  8
Layer0
10
85.95951113058557
20
171.10735311853918
30
0.0
 70
     192
  0
VERTEX
  8
Layer0
10
86.52189633251194
20
171.53888646161718
30
0.0
 70
     192
  0
VERTEX
  8
Layer0
10
87.17680777116102
20
171.81015966165887
30
0.0
 70
     192
  0
VERTEX
  8
Layer0
10
87.87961431428042
20
171.90268589838132
30
0.0
 70
     192
  0
VERTEX
  8
Layer0
10
88.58242085740004
20
171.81015966165882
30
0.0
 70
     192
  0
VERTEX
  8
Layer0
10
89.1647204080145
20
177.32726871013466
30
0.0
 70
     192
  0
VERTEX
  8
Layer0
10
89.23733229604906
20
171.5388864616175
30
0.0
 70
     192
  0
VERTEX
  8
Layer0
10
89.95490418430494
20
177.17009138452772
30
0.0
 70
     192
  0
VERTEX
  8
Layer0
10
89.79971749797548
20
171.1073531185394
30
0.0
 70
     192
  0
VERTEX
  8
Layer0
10
90.23125084105556
20
170.54496791661333
30
0.0
 70
     192
  0
VERTEX
  8
Layer0
10
90.71781207103429
20
176.91111905325693
30
0.0
 70
     192
  0
VERTEX
  8
Layer0
10
90.50252404109487
20
169.89005647796427
30
0.0
 70
     192
  0
VERTEX
  8
Layer0
10
90.59505027781698
20
169.18724993484466
30
0.0
 70
     192
  0
VERTEX
  8
Layer0
10
94.31012970189859
20
172.81486586693433
30
0.0
 70
     192
  0
VERTEX
  8
Layer0
10
94.24272562951586
20
170.66528942938336
30
0.0
 70
     192
  0
VERTEX
  8
Layer0
10
94.05115737062798
20
173.57777375366368
30
0.0
 70
     192
  0
VERTEX
  8
Layer0
10
94.26946738780404
20
170.82202034621224
30
0.0
 70
     192
  0
VERTEX
  8
Layer0
10
94.32622021354057
20
170.9705424613918
30
0.0
 70
     192
  0
VERTEX
  8
Layer0
10
94.46730702750564
20
172.0246820906439
30
0.0
 70
     192
  0
VERTEX
  8
Layer0
10
94.41081084165472
20
171.1051683413769
30
0.0
 70
     192
  0
VERTEX
  8
Layer0
10
94.51999999982985
20
171.22074268828496
30
0.0
 70
     192
  0
VERTEX
  8
Layer0
10
91.11193677308631
20
149.4499207571301
30
0.0
 70
     192
  0
VERTEX
  8
Layer0
10
91.11193677308594
20
111.20602717602857
30
0.0
 70
     192
  0
VERTEX
  8
Layer0
10
91.11193677308505
20
158.44989697781966
30
0.0
 70
     192
  0
VERTEX
  8
Layer0
10
91.19849973452942
20
111.86342816431343
30
0.0
 70
     192
  0
VERTEX
  8
Layer0
10
91.19849973452837
20
148.79251976884524
30
0.0
 70
     192
  0
VERTEX
  8
Layer0
10
91.45224503523882
20
148.17992425708198
30
0.0
 70
     192
  0
VERTEX
  8
Layer0
10
91.45224503523828
20
112.4760236760767
30
0.0
 70
     192
  0
VERTEX
  8
Layer0
10
91.85590072281339
20
113.0020816263266
30
0.0
 70
     192
  0
VERTEX
  8
Layer0
10
91.85590072281609
20
147.6538663068321
30
0.0
 70
     192
  0
VERTEX
  8
Layer0
10
92.38193327313641
20
113.40571191397196
30
0.0
 70
     192
  0
VERTEX
  8
Layer0
10
92.38193327313407
20
147.2502106192568
30
0.0
 70
     192
  0
VERTEX
  8
Layer0
10
92.99452878489696
20
146.99646531854708
30
0.0
 70
     192
  0
VERTEX
  8
Layer0
10
92.99452878489714
20
113.65948261461159
30
0.0
 70
     192
  0
VERTEX
  8
Layer0
10
93.6519297731822
20
146.90992775703359
30
0.0
 70
     192
  0
VERTEX
  8
Layer0
10
93.6519297731822
20
113.74602017612449
30
0.0
 70
     192
  0
VERTEX
  8
Layer0
10
94.3093307614667
20
146.9964653185467
30
0.0
 70
     192
  0
VERTEX
  8
Layer0
10
94.30933076146685
20
113.65948261461124
30
0.0
 70
     192
  0
VERTEX
  8
Layer0
10
94.9219262732303
20
147.25021061925653
30
0.0
 70
     192
  0
VERTEX
  8
Layer0
10
94.92192627323264
20
113.40571191397174
30
0.0
 70
     192
  0
VERTEX
  8
Layer0
10
95.44798422348254
20
147.65386630683184
30
0.0
 70
     192
  0
VERTEX
  8
Layer0
10
95.4479842234798
20
113.00208162632629
30
0.0
 70
     192
  0
VERTEX
  8
Layer0
10
95.85163991105496
20
112.47602367607642
30
0.0
 70
     192
  0
VERTEX
  8
Layer0
10
95.8516399110555
20
148.17992425708172
30
0.0
 70
     192
  0
VERTEX
  8
Layer0
10
96.10538521176522
20
111.86342816431316
30
0.0
 70
     192
  0
VERTEX
  8
Layer0
10
96.1053852117645
20
148.79251976884507
30
0.0
 70
     192
  0
VERTEX
  8
Layer0
10
96.19192277327876
20
149.44992075712992
30
0.0
 70
     192
  0
VERTEX
  8
Layer0
10
96.19192277327843
20
111.20602717602834
30
0.0
 70
     192
  0
VERTEX
  8
Layer0
10
96.19192277327859
20
102.20605095533884
30
0.0
 70
     192
  0
VERTEX
  8
Layer0
10
91.44039050274252
20
176.5547828047112
30
0.0
 70
     192
  0
VERTEX
  8
Layer0
10
91.19849973453178
20
159.1072979661047
30
0.0
 70
     192
  0
VERTEX
  8
Layer0
10
91.45224503523897
20
159.71989347786777
30
0.0
 70
     192
  0
VERTEX
  8
Layer0
10
92.1102759621271
20
176.10717965089788
30
0.0
 70
     192
  0
VERTEX
  8
Layer0
10
91.85590072281448
20
160.24595142811782
30
0.0
 70
     192
  0
VERTEX
  8
Layer0
10
92.38193327313496
20
160.64958171576296
30
0.0
 70
     192
  0
VERTEX
  8
Layer0
10
92.71600652324922
20
175.5759682058783
30
0.0
 70
     192
  0
VERTEX
  8
Layer0
10
92.99452878489787
20
160.90335241640278
30
0.0
 70
     192
  0
VERTEX
  8
Layer0
10
93.24721796826886
20
174.97023764475594
30
0.0
 70
     192
  0
VERTEX
  8
Layer0
10
93.6519297731831
20
160.98988997791602
30
0.0
 70
     192
  0
VERTEX
  8
Layer0
10
93.69482112208205
20
174.3003521853719
30
0.0
 70
     192
  0
VERTEX
  8
Layer0
10
94.30933076146758
20
160.90335241640247
30
0.0
 70
     192
  0
VERTEX
  8
Layer0
10
94.24701897454001
20
170.5063514883026
30
0.0
 70
     192
  0
VERTEX
  8
Layer0
10
94.2821830156153
20
170.35129281507938
30
0.0
 70
     192
  0
VERTEX
  8
Layer0
10
94.34687119807582
20
170.206051151029
30
0.0
 70
     192
  0
VERTEX
  8
Layer0
10
94.9219262732312
20
160.64958171576274
30
0.0
 70
     192
  0
VERTEX
  8
Layer0
10
94.43860638417219
20
170.07618830969875
30
0.0
 70
     192
  0
VERTEX
  8
Layer0
10
94.55387571136207
20
169.9666771954882
30
0.0
 70
     192
  0
VERTEX
  8
Layer0
10
94.68826511216955
20
169.88171137367064
30
0.0
 70
     192
  0
VERTEX
  8
Layer0
10
94.83662834433028
20
169.82454448404656
30
0.0
 70
     192
  0
VERTEX
  8
Layer0
10
94.99328405848829
20
169.79736564764548
30
0.0
 70
     192
  0
VERTEX
  8
Layer0
10
95.44798422348092
20
160.2459514281175
30
0.0
 70
     192
  0
VERTEX
  8
Layer0
10
96.0199999998297
20
166.709571179546
30
0.0
 70
     192
  0
VERTEX
  8
Layer0
10
95.85163991105568
20
159.71989347786746
30
0.0
 70
     192
  0
VERTEX
  8
Layer0
10
96.10538521176794
20
159.1072979661045
30
0.0
 70
     192
  0
VERTEX
  8
Layer0
10
97.00809302429487
20
166.70957117954592
30
0.0
 70
     192
  0
VERTEX
  8
Layer0
10
96.19192277327753
20
158.4498969778195
30
0.0
 70
     192
  0
VERTEX
  8
Layer0
10
34.31268864195938
20
136.71924274725237
30
0.0
 70
     192
  0
VERTEX
  8
Layer0
10
34.29555270187819
20
68.61675084261391
30
0.0
 70
     192
  0
VERTEX
  8
Layer0
10
34.71070446765424
20
70.70385970992524
30
0.0
 70
     192
  0
VERTEX
  8
Layer0
10
34.875073843887954
20
136.2877094041739
30
0.0
 70
     192
  0
VERTEX
  8
Layer0
10
35.39472692572256
20
72.71892489236822
30
0.0
 70
     192
  0
VERTEX
  8
Layer0
10
35.529985282537
20
136.01643620413225
30
0.0
 70
     192
  0
VERTEX
  8
Layer0
10
36.335916262176625
20
74.62746806598815
30
0.0
 70
     192
  0
VERTEX
  8
Layer0
10
36.23279182565658
20
135.92390996740986
30
0.0
 70
     192
  0
VERTEX
  8
Layer0
10
36.93559836877599
20
136.01643620413233
30
0.0
 70
     192
  0
VERTEX
  8
Layer0
10
37.51816846652439
20
76.39683352793976
30
0.0
 70
     192
  0
VERTEX
  8
Layer0
10
37.590509807425065
20
136.287709404174
30
0.0
 70
     192
  0
VERTEX
  8
Layer0
10
38.921254875768334
20
77.99674694460681
30
0.0
 70
     192
  0
VERTEX
  8
Layer0
10
38.15289500934932
20
136.7192427472521
30
0.0
 70
     192
  0
VERTEX
  8
Layer0
10
38.58442835242738
20
137.28162794917833
30
0.0
 70
     192
  0
VERTEX
  8
Layer0
10
38.8557015524691
20
137.93653938782745
30
0.0
 70
     192
  0
VERTEX
  8
Layer0
10
40.52116829243428
20
79.3998333538496
30
0.0
 70
     192
  0
VERTEX
  8
Layer0
10
41.64200026388923
20
166.63887822816653
30
0.0
 70
     192
  0
VERTEX
  8
Layer0
10
42.290533754385734
20
80.58208555819809
30
0.0
 70
     192
  0
VERTEX
  8
Layer0
10
43.86806697129493
20
102.20605095533915
30
0.0
 70
     192
  0
VERTEX
  8
Layer0
10
44.19907692800787
20
81.52327489465318
30
0.0
 70
     192
  0
VERTEX
  8
Layer0
10
43.95462993273911
20
101.54864996705412
30
0.0
 70
     192
  0
VERTEX
  8
Layer0
10
44.20837523344687
20
100.93605445529067
30
0.0
 70
     192
  0
VERTEX
  8
Layer0
10
46.2141421104506
20
82.20729735272042
30
0.0
 70
     192
  0
VERTEX
  8
Layer0
10
44.61203092102306
20
100.40999650504098
30
0.0
 70
     192
  0
VERTEX
  8
Layer0
10
45.138063471342846
20
100.00634081746567
30
0.0
 70
     192
  0
VERTEX
  8
Layer0
10
45.75065898310574
20
99.75259551675595
30
0.0
 70
     192
  0
VERTEX
  8
Layer0
10
46.408059971390955
20
99.66605795524242
30
0.0
 70
     192
  0
VERTEX
  8
Layer0
10
48.301250977760134
20
82.62244911849596
30
0.0
 70
     192
  0
VERTEX
  8
Layer0
10
47.06546095967617
20
99.75259551675595
30
0.0
 70
     192
  0
VERTEX
  8
Layer0
10
47.67805647143907
20
100.00634081746563
30
0.0
 70
     192
  0
VERTEX
  8
Layer0
10
48.204114421688764
20
100.40999650504054
30
0.0
 70
     192
  0
VERTEX
  8
Layer0
10
48.607770109263555
20
100.93605445529094
30
0.0
 70
     192
  0
VERTEX
  8
Layer0
10
50.216815042443216
20
82.74800182053971
30
0.0
 70
     192
  0
VERTEX
  8
Layer0
10
48.86151540997525
20
101.54864996705385
30
0.0
 70
     192
  0
VERTEX
  8
Layer0
10
49.53747595856527
20
168.48444339172494
30
0.0
 70
     192
  0
VERTEX
  8
Layer0
10
49.80874915860694
20
167.8295319530759
30
0.0
 70
     192
  0
VERTEX
  8
Layer0
10
50.24028250168487
20
167.2671467511498
30
0.0
 70
     192
  0
VERTEX
  8
Layer0
10
57.96592961492198
20
122.08492542401099
30
0.0
 70
     192
  0
VERTEX
  8
Layer0
10
59.21468489635179
20
119.07016348749842
30
0.0
 70
     192
  0
VERTEX
  8
Layer0
10
61.20116767902032
20
116.48132872241489
30
0.0
 70
     192
  0
VERTEX
  8
Layer0
10
89.82318495723028
20
82.74800182054052
30
0.0
 70
     192
  0
VERTEX
  8
Layer0
10
50.80266770361129
20
166.8356134080716
30
0.0
 70
     192
  0
VERTEX
  8
Layer0
10
51.457579142260315
20
166.56434020802956
30
0.0
 70
     192
  0
VERTEX
  8
Layer0
10
57.54000244349437
20
125.32016348810873
30
0.0
 70
     192
  0
VERTEX
  8
Layer0
10
52.160385685379914
20
166.4718139713071
30
0.0
 70
     192
  0
VERTEX
  8
Layer0
10
52.86319222849935
20
166.56434020802956
30
0.0
 70
     192
  0
VERTEX
  8
Layer0
10
53.5181036671484
20
166.83561340807125
30
0.0
 70
     192
  0
VERTEX
  8
Layer0
10
54.08048886907478
20
167.2671467511494
30
0.0
 70
     192
  0
VERTEX
  8
Layer0
10
54.512022212152885
20
167.82953195307562
30
0.0
 70
     192
  0
VERTEX
  8
Layer0
10
54.783295412194555
20
168.48444339172465
30
0.0
 70
     192
  0
VERTEX
  8
Layer0
10
63.79000244410583
20
114.49484593974772
30
0.0
 70
     192
  0
VERTEX
  8
Layer0
10
66.80476438061935
20
113.24609065831818
30
0.0
 70
     192
  0
VERTEX
  8
Layer0
10
70.04000244471425
20
112.82016348689119
30
0.0
 70
     192
  0
VERTEX
  8
Layer0
10
73.27524050881347
20
113.24609065831949
30
0.0
 70
     192
  0
VERTEX
  8
Layer0
10
76.29000244532519
20
114.49484593975016
30
0.0
 70
     192
  0
VERTEX
  8
Layer0
10
78.87883721040927
20
116.48132872241786
30
0.0
 70
     192
  0
VERTEX
  8
Layer0
10
80.86531999307526
20
119.07016348750298
30
0.0
 70
     192
  0
VERTEX
  8
Layer0
10
82.11407527450615
20
122.08492542401574
30
0.0
 70
     192
  0
VERTEX
  8
Layer0
10
85.25670458746522
20
168.4844433917247
30
0.0
 70
     192
  0
VERTEX
  8
Layer0
10
85.5279777875069
20
167.82953195307567
30
0.0
 70
     192
  0
VERTEX
  8
Layer0
10
85.95951113058501
20
167.26714675114945
30
0.0
 70
     192
  0
VERTEX
  8
Layer0
10
86.52189633251143
20
166.83561340807125
30
0.0
 70
     192
  0
VERTEX
  8
Layer0
10
87.17680777116045
20
166.56434020802956
30
0.0
 70
     192
  0
VERTEX
  8
Layer0
10
87.87961431427988
20
166.4718139713071
30
0.0
 70
     192
  0
VERTEX
  8
Layer0
10
88.58242085739947
20
166.56434020802953
30
0.0
 70
     192
  0
VERTEX
  8
Layer0
10
89.23733229604854
20
166.83561340807157
30
0.0
 70
     192
  0
VERTEX
  8
Layer0
10
89.79971749797492
20
167.26714675114968
30
0.0
 70
     192
  0
VERTEX
  8
Layer0
10
90.23125084105284
20
167.829531953076
30
0.0
 70
     192
  0
VERTEX
  8
Layer0
10
91.11193677308613
20
102.20605095533907
30
0.0
 70
     192
  0
VERTEX
  8
Layer0
10
91.7387490219103
20
82.62244911849677
30
0.0
 70
     192
  0
VERTEX
  8
Layer0
10
90.50252404109452
20
168.48444339172508
30
0.0
 70
     192
  0
VERTEX
  8
Layer0
10
91.19849973452834
20
101.54864996705385
30
0.0
 70
     192
  0
VERTEX
  8
Layer0
10
91.45224503523882
20
100.93605445529094
30
0.0
 70
     192
  0
VERTEX
  8
Layer0
10
91.85590072281393
20
100.40999650504058
30
0.0
 70
     192
  0
VERTEX
  8
Layer0
10
93.82585788922057
20
82.2072973527215
30
0.0
 70
     192
  0
VERTEX
  8
Layer0
10
92.38193327313442
20
100.00634081746558
30
0.0
 70
     192
  0
VERTEX
  8
Layer0
10
92.99452878489733
20
99.75259551675603
30
0.0
 70
     192
  0
VERTEX
  8
Layer0
10
93.65192977318256
20
99.66605795524252
30
0.0
 70
     192
  0
VERTEX
  8
Layer0
10
94.30933076146705
20
99.75259551675568
30
0.0
 70
     192
  0
VERTEX
  8
Layer0
10
95.84092307166293
20
81.52327489465404
30
0.0
 70
     192
  0
VERTEX
  8
Layer0
10
94.92192627323065
20
100.00634081746536
30
0.0
 70
     192
  0
VERTEX
  8
Layer0
10
95.44798422348036
20
100.40999650504062
30
0.0
 70
     192
  0
VERTEX
  8
Layer0
10
95.8516399110555
20
100.93605445529067
30
0.0
 70
     192
  0
VERTEX
  8
Layer0
10
97.74946624528472
20
80.58208555819927
30
0.0
 70
     192
  0
VERTEX
  8
Layer0
10
96.10538521176449
20
101.54864996705375
30
0.0
 70
     192
  0
VERTEX
  8
Layer0
10
98.39799973577112
20
166.6388782281665
30
0.0
 70
     192
  0
VERTEX
  8
Layer0
10
99.51883170723637
20
79.39983335385078
30
0.0
 70
     192
  0
VERTEX
  8
Layer0
10
99.77356131562865
20
166.42752899111895
30
0.0
 70
     192
  0
VERTEX
  8
Layer0
10
101.11874512390268
20
77.99674694460816
30
0.0
 70
     192
  0
VERTEX
  8
Layer0
10
101.12058068736668
20
166.07770478934953
30
0.0
 70
     192
  0
VERTEX
  8
Layer0
10
101.13177650662868
20
138.63934593095192
30
0.0
 70
     192
  0
VERTEX
  8
Layer0
10
102.52183153314589
20
76.39683352794152
30
0.0
 70
     192
  0
VERTEX
  8
Layer0
10
101.22430274335079
20
137.93653938783197
30
0.0
 70
     192
  0
VERTEX
  8
Layer0
10
101.49557594339245
20
137.2816279491831
30
0.0
 70
     192
  0
VERTEX
  8
Layer0
10
101.92710928647058
20
136.71924274725717
30
0.0
 70
     192
  0
VERTEX
  8
Layer0
10
102.48949448839876
20
136.28770940417868
30
0.0
 70
     192
  0
VERTEX
  8
Layer0
10
103.1444059270482
20
136.01643620413702
30
0.0
 70
     192
  0
VERTEX
  8
Layer0
10
103.70408373749399
20
74.62746806598997
30
0.0
 70
     192
  0
VERTEX
  8
Layer0
10
103.84721247016762
20
135.92390996741509
30
0.0
 70
     192
  0
VERTEX
  8
Layer0
10
104.64527307394933
20
72.7189248923671
30
0.0
 70
     192
  0
VERTEX
  8
Layer0
10
104.55001901328703
20
136.01643620413702
30
0.0
 70
     192
  0
VERTEX
  8
Layer0
10
105.20493045193624
20
136.28770940417914
30
0.0
 70
     192
  0
VERTEX
  8
Layer0
10
105.32929553201566
20
70.70385970992493
30
0.0
 70
     192
  0
VERTEX
  8
Layer0
10
105.76731565386049
20
136.7192427472576
30
0.0
 70
     192
  0
VERTEX
  8
Layer0
10
105.74444729779171
20
68.61675084261603
30
0.0
 70
     192
  0
VERTEX
  8
Layer0
10
105.8699999998352
20
66.70118677793606
30
0.0
 70
     192
  0
VERTEX
  8
Layer0
10
102.42515535665191
20
165.59301613439618
30
0.0
 70
     192
  0
VERTEX
  8
Layer0
10
101.22430274335079
20
139.34215247407116
30
0.0
 70
     192
  0
VERTEX
  8
Layer0
10
101.49557594339245
20
139.99706391272002
30
0.0
 70
     192
  0
VERTEX
  8
Layer0
10
101.92710928647023
20
140.5594491146469
30
0.0
 70
     192
  0
VERTEX
  8
Layer0
10
102.48949448839734
20
140.99098245772518
30
0.0
 70
     192
  0
VERTEX
  8
Layer0
10
103.67382089800697
20
164.97846546454534
30
0.0
 70
     192
  0
VERTEX
  8
Layer0
10
103.14440592704513
20
141.26225565776647
30
0.0
 70
     192
  0
VERTEX
  8
Layer0
10
103.84721247016506
20
141.35478189448932
30
0.0
 70
     192
  0
VERTEX
  8
Layer0
10
104.85368992022038
20
164.2403955150132
30
0.0
 70
     192
  0
VERTEX
  8
Layer0
10
104.55001901328468
20
141.26225565776667
30
0.0
 70
     192
  0
VERTEX
  8
Layer0
10
105.20493045193392
20
140.9909824577249
30
0.0
 70
     192
  0
VERTEX
  8
Layer0
10
105.9525850762252
20
163.3864238550088
30
0.0
 70
     192
  0
VERTEX
  8
Layer0
10
105.76731565385977
20
140.5594491146466
30
0.0
 70
     192
  0
VERTEX
  8
Layer0
10
106.19884899693858
20
139.9970639127206
30
0.0
 70
     192
  0
VERTEX
  8
Layer0
10
106.47012219698026
20
139.3421524740709
30
0.0
 70
     192
  0
VERTEX
  8
Layer0
10
59.214684599543865
20
141.57016378674714
30
0.0
 70
     192
  0
VERTEX
  8
Layer0
10
58.656296694673756
20
168.15197375443435
30
0.0
 70
     192
  0
VERTEX
  8
Layer0
10
59.05589838469215
20
167.18724993484454
30
0.0
 70
     192
  0
VERTEX
  8
Layer0
10
59.691572875083686
20
166.35882281009833
30
0.0
 70
     192
  0
VERTEX
  8
Layer0
10
61.20116738221419
20
144.1589985518324
30
0.0
 70
     192
  0
VERTEX
  8
Layer0
10
60.51999999982998
20
165.7231483197068
30
0.0
 70
     192
  0
VERTEX
  8
Layer0
10
61.48472381941995
20
165.3235466296882
30
0.0
 70
     192
  0
VERTEX
  8
Layer0
10
63.7900021472961
20
146.1454813345003
30
0.0
 70
     192
  0
VERTEX
  8
Layer0
10
62.519999999829906
20
165.1872499348445
30
0.0
 70
     192
  0
VERTEX
  8
Layer0
10
77.5199999998301
20
165.18724993484446
30
0.0
 70
     192
  0
VERTEX
  8
Layer0
10
66.80476408380999
20
147.39423661593057
30
0.0
 70
     192
  0
VERTEX
  8
Layer0
10
70.04000214790668
20
147.82016378735972
30
0.0
 70
     192
  0
VERTEX
  8
Layer0
10
73.27524021200483
20
147.39423661593173
30
0.0
 70
     192
  0
VERTEX
  8
Layer0
10
76.29000214851618
20
146.1454813345029
30
0.0
 70
     192
  0
VERTEX
  8
Layer0
10
78.87883691360278
20
144.15899855183585
30
0.0
 70
     192
  0
VERTEX
  8
Layer0
10
78.55527618024006
20
165.3235466296881
30
0.0
 70
     192
  0
VERTEX
  8
Layer0
10
79.51999999982999
20
165.72314831970675
30
0.0
 70
     192
  0
VERTEX
  8
Layer0
10
80.86531969626715
20
141.57016378675166
30
0.0
 70
     192
  0
VERTEX
  8
Layer0
10
80.34842712457628
20
166.3588228100984
30
0.0
 70
     192
  0
VERTEX
  8
Layer0
10
80.98410161496781
20
167.1872499348444
30
0.0
 70
     192
  0
VERTEX
  8
Layer0
10
81.38370330498626
20
168.15197375443435
30
0.0
 70
     192
  0
VERTEX
  8
Layer0
10
0.0
 20
 0.0
 30
0.0
 70
     128
 71
-1
 72
2
 73
-3
  0
VERTEX
  8
Layer0
10
0.0
 20
 0.0
 30
0.0
 70
     128
 71
-2
 72
-1
 73
4
  0
VERTEX
  8
Layer0
10
0.0
 20
 0.0
 30
0.0
 70
     128
 71
-4
 72
1
 73
-5
  0
VERTEX
  8
Layer0
10
0.0
 20
 0.0
 30
0.0
 70
     128
 71
-4
 72
-5
 73
6
  0
VERTEX
  8
Layer0
10
0.0
 20
 0.0
 30
0.0
 70
     128
 71
-6
 72
-5
 73
7
  0
VERTEX
  8
Layer0
10
0.0
 20
 0.0
 30
0.0
 70
     128
 71
-7
 72
-5
 73
8
  0
VERTEX
  8
Layer0
10
0.0
 20
 0.0
 30
0.0
 70
     128
 71
-8
 72
-5
 73
9
  0
VERTEX
  8
Layer0
10
0.0
 20
 0.0
 30
0.0
 70
     128
 71
-9
 72
-5
 73
10
  0
VERTEX
  8
Layer0
10
0.0
 20
 0.0
 30
0.0
 70
     128
 71
-10
 72
-5
 73
11
  0
VERTEX
  8
Layer0
10
0.0
 20
 0.0
 30
0.0
 70
     128
 71
-11
 72
-5
 73
12
  0
VERTEX
  8
Layer0
10
0.0
 20
 0.0
 30
0.0
 70
     128
 71
-12
 72
-5
 73
13
  0
VERTEX
  8
Layer0
10
0.0
 20
 0.0
 30
0.0
 70
     128
 71
-13
 72
-5
 73
14
  0
VERTEX
  8
Layer0
10
0.0
 20
 0.0
 30
0.0
 70
     128
 71
-14
 72
-5
 73
15
  0
VERTEX
  8
Layer0
10
0.0
 20
 0.0
 30
0.0
 70
     128
 71
-15
 72
-5
 73
-16
  0
VERTEX
  8
Layer0
10
0.0
 20
 0.0
 30
0.0
 70
     128
 71
-16
 72
-5
 73
17
  0
VERTEX
  8
Layer0
10
0.0
 20
 0.0
 30
0.0
 70
     128
 71
-17
 72
-5
 73
18
  0
VERTEX
  8
Layer0
10
0.0
 20
 0.0
 30
0.0
 70
     128
 71
-18
 72
-5
 73
19
  0
VERTEX
  8
Layer0
10
0.0
 20
 0.0
 30
0.0
 70
     128
 71
-20
 72
-21
 73
22
  0
VERTEX
  8
Layer0
10
0.0
 20
 0.0
 30
0.0
 70
     128
 71
-21
 72
-20
 73
23
  0
VERTEX
  8
Layer0
10
0.0
 20
 0.0
 30
0.0
 70
     128
 71
-23
 72
-20
 73
24
  0
VERTEX
  8
Layer0
10
0.0
 20
 0.0
 30
0.0
 70
     128
 71
-24
 72
-20
 73
25
  0
VERTEX
  8
Layer0
10
0.0
 20
 0.0
 30
0.0
 70
     128
 71
-25
 72
20
 73
-26
  0
VERTEX
  8
Layer0
10
0.0
 20
 0.0
 30
0.0
 70
     128
 71
-25
 72
-26
 73
27
  0
VERTEX
  8
Layer0
10
0.0
 20
 0.0
 30
0.0
 70
     128
 71
-27
 72
-26
 73
28
  0
VERTEX
  8
Layer0
10
0.0
 20
 0.0
 30
0.0
 70
     128
 71
-28
 72
26
 73
-29
  0
VERTEX
  8
Layer0
10
0.0
 20
 0.0
 30
0.0
 70
     128
 71
-28
 72
-29
 73
30
  0
VERTEX
  8
Layer0
10
0.0
 20
 0.0
 30
0.0
 70
     128
 71
-30
 72
-29
 73
31
  0
VERTEX
  8
Layer0
10
0.0
 20
 0.0
 30
0.0
 70
     128
 71
-31
 72
29
 73
-32
  0
VERTEX
  8
Layer0
10
0.0
 20
 0.0
 30
0.0
 70
     128
 71
-31
 72
-32
 73
33
  0
VERTEX
  8
Layer0
10
0.0
 20
 0.0
 30
0.0
 70
     128
 71
-33
 72
-32
 73
34
  0
VERTEX
  8
Layer0
10
0.0
 20
 0.0
 30
0.0
 70
     128
 71
-34
 72
32
 73
-35
  0
VERTEX
  8
Layer0
10
0.0
 20
 0.0
 30
0.0
 70
     128
 71
-34
 72
-35
 73
36
  0
VERTEX
  8
Layer0
10
0.0
 20
 0.0
 30
0.0
 70
     128
 71
-36
 72
-35
 73
37
  0
VERTEX
  8
Layer0
10
0.0
 20
 0.0
 30
0.0
 70
     128
 71
-37
 72
-35
 73
38
  0
VERTEX
  8
Layer0
10
0.0
 20
 0.0
 30
0.0
 70
     128
 71
-38
 72
35
 73
-39
  0
VERTEX
  8
Layer0
10
0.0
 20
 0.0
 30
0.0
 70
     128
 71
-40
 72
41
 73
42
  0
VERTEX
  8
Layer0
10
0.0
 20
 0.0
 30
0.0
 70
     128
 71
-41
 72
40
 73
-43
  0
VERTEX
  8
Layer0
10
0.0
 20
 0.0
 30
0.0
 70
     128
 71
-41
 72
-43
 73
44
  0
VERTEX
  8
Layer0
10
0.0
 20
 0.0
 30
0.0
 70
     128
 71
-44
 72
-43
 73
45
  0
VERTEX
  8
Layer0
10
0.0
 20
 0.0
 30
0.0
 70
     128
 71
-45
 72
43
 73
-46
  0
VERTEX
  8
Layer0
10
0.0
 20
 0.0
 30
0.0
 70
     128
 71
-45
 72
-46
 73
47
  0
VERTEX
  8
Layer0
10
0.0
 20
 0.0
 30
0.0
 70
     128
 71
-48
 72
-49
 73
50
  0
VERTEX
  8
Layer0
10
0.0
 20
 0.0
 30
0.0
 70
     128
 71
-49
 72
-48
 73
51
  0
VERTEX
  8
Layer0
10
0.0
 20
 0.0
 30
0.0
 70
     128
 71
-51
 72
-48
 73
52
  0
VERTEX
  8
Layer0
10
0.0
 20
 0.0
 30
0.0
 70
     128
 71
-52
 72
48
 73
-53
  0
VERTEX
  8
Layer0
10
0.0
 20
 0.0
 30
0.0
 70
     128
 71
-52
 72
-53
 73
54
  0
VERTEX
  8
Layer0
10
0.0
 20
 0.0
 30
0.0
 70
     128
 71
-54
 72
-53
 73
55
  0
VERTEX
  8
Layer0
10
0.0
 20
 0.0
 30
0.0
 70
     128
 71
-55
 72
53
 73
-56
  0
VERTEX
  8
Layer0
10
0.0
 20
 0.0
 30
0.0
 70
     128
 71
-55
 72
-56
 73
57
  0
VERTEX
  8
Layer0
10
0.0
 20
 0.0
 30
0.0
 70
     128
 71
-57
 72
56
 73
-58
  0
VERTEX
  8
Layer0
10
0.0
 20
 0.0
 30
0.0
 70
     128
 71
-57
 72
58
 73
-59
  0
VERTEX
  8
Layer0
10
0.0
 20
 0.0
 30
0.0
 70
     128
 71
-57
 72
59
 73
-60
  0
VERTEX
  8
Layer0
10
0.0
 20
 0.0
 30
0.0
 70
     128
 71
-57
 72
60
 73
-61
  0
VERTEX
  8
Layer0
10
0.0
 20
 0.0
 30
0.0
 70
     128
 71
-57
 72
61
 73
-62
  0
VERTEX
  8
Layer0
10
0.0
 20
 0.0
 30
0.0
 70
     128
 71
-57
 72
-62
 73
63
  0
VERTEX
  8
Layer0
10
0.0
 20
 0.0
 30
0.0
 70
     128
 71
-63
 72
62
 73
-64
  0
VERTEX
  8
Layer0
10
0.0
 20
 0.0
 30
0.0
 70
     128
 71
-63
 72
64
 73
-47
  0
VERTEX
  8
Layer0
10
0.0
 20
 0.0
 30
0.0
 70
     128
 71
-63
 72
-47
 73
-46
  0
VERTEX
  8
Layer0
10
0.0
 20
 0.0
 30
0.0
 70
     128
 71
-63
 72
46
 73
-65
  0
VERTEX
  8
Layer0
10
0.0
 20
 0.0
 30
0.0
 70
     128
 71
-63
 72
65
 73
-66
  0
VERTEX
  8
Layer0
10
0.0
 20
 0.0
 30
0.0
 70
     128
 71
-63
 72
-66
 73
67
  0
VERTEX
  8
Layer0
10
0.0
 20
 0.0
 30
0.0
 70
     128
 71
-67
 72
66
 73
-68
  0
VERTEX
  8
Layer0
10
0.0
 20
 0.0
 30
0.0
 70
     128
 71
-67
 72
-68
 73
69
  0
VERTEX
  8
Layer0
10
0.0
 20
 0.0
 30
0.0
 70
     128
 71
-69
 72
68
 73
-70
  0
VERTEX
  8
Layer0
10
0.0
 20
 0.0
 30
0.0
 70
     128
 71
-69
 72
-70
 73
71
  0
VERTEX
  8
Layer0
10
0.0
 20
 0.0
 30
0.0
 70
     128
 71
-71
 72
70
 73
-72
  0
VERTEX
  8
Layer0
10
0.0
 20
 0.0
 30
0.0
 70
     128
 71
-71
 72
-72
 73
73
  0
VERTEX
  8
Layer0
10
0.0
 20
 0.0
 30
0.0
 70
     128
 71
-73
 72
72
 73
-74
  0
VERTEX
  8
Layer0
10
0.0
 20
 0.0
 30
0.0
 70
     128
 71
-73
 72
-74
 73
75
  0
VERTEX
  8
Layer0
10
0.0
 20
 0.0
 30
0.0
 70
     128
 71
-75
 72
-74
 73
76
  0
VERTEX
  8
Layer0
10
0.0
 20
 0.0
 30
0.0
 70
     128
 71
-76
 72
-74
 73
77
  0
VERTEX
  8
Layer0
10
0.0
 20
 0.0
 30
0.0
 70
     128
 71
-77
 72
-74
 73
-78
  0
VERTEX
  8
Layer0
10
0.0
 20
 0.0
 30
0.0
 70
     128
 71
-79
 72
-80
 73
49
  0
VERTEX
  8
Layer0
10
0.0
 20
 0.0
 30
0.0
 70
     128
 71
-80
 72
-79
 73
81
  0
VERTEX
  8
Layer0
10
0.0
 20
 0.0
 30
0.0
 70
     128
 71
-81
 72
79
 73
-82
  0
VERTEX
  8
Layer0
10
0.0
 20
 0.0
 30
0.0
 70
     128
 71
-81
 72
82
 73
-83
  0
VERTEX
  8
Layer0
10
0.0
 20
 0.0
 30
0.0
 70
     128
 71
-81
 72
-83
 73
84
  0
VERTEX
  8
Layer0
10
0.0
 20
 0.0
 30
0.0
 70
     128
 71
-84
 72
83
 73
-85
  0
VERTEX
  8
Layer0
10
0.0
 20
 0.0
 30
0.0
 70
     128
 71
-84
 72
-85
 73
86
  0
VERTEX
  8
Layer0
10
0.0
 20
 0.0
 30
0.0
 70
     128
 71
-86
 72
-85
 73
87
  0
VERTEX
  8
Layer0
10
0.0
 20
 0.0
 30
0.0
 70
     128
 71
-87
 72
85
 73
-88
  0
VERTEX
  8
Layer0
10
0.0
 20
 0.0
 30
0.0
 70
     128
 71
-87
 72
-88
 73
89
  0
VERTEX
  8
Layer0
10
0.0
 20
 0.0
 30
0.0
 70
     128
 71
-89
 72
88
 73
-90
  0
VERTEX
  8
Layer0
10
0.0
 20
 0.0
 30
0.0
 70
     128
 71
-89
 72
90
 73
-91
  0
VERTEX
  8
Layer0
10
0.0
 20
 0.0
 30
0.0
 70
     128
 71
-89
 72
-91
 73
92
  0
VERTEX
  8
Layer0
10
0.0
 20
 0.0
 30
0.0
 70
     128
 71
-92
 72
91
 73
-93
  0
VERTEX
  8
Layer0
10
0.0
 20
 0.0
 30
0.0
 70
     128
 71
-92
 72
-93
 73
94
  0
VERTEX
  8
Layer0
10
0.0
 20
 0.0
 30
0.0
 70
     128
 71
-94
 72
93
 73
-95
  0
VERTEX
  8
Layer0
10
0.0
 20
 0.0
 30
0.0
 70
     128
 71
-94
 72
-95
 73
96
  0
VERTEX
  8
Layer0
10
0.0
 20
 0.0
 30
0.0
 70
     128
 71
-96
 72
-95
 73
97
  0
VERTEX
  8
Layer0
10
0.0
 20
 0.0
 30
0.0
 70
     128
 71
-97
 72
95
 73
-98
  0
VERTEX
  8
Layer0
10
0.0
 20
 0.0
 30
0.0
 70
     128
 71
-97
 72
-98
 73
99
  0
VERTEX
  8
Layer0
10
0.0
 20
 0.0
 30
0.0
 70
     128
 71
-99
 72
98
 73
-100
  0
VERTEX
  8
Layer0
10
0.0
 20
 0.0
 30
0.0
 70
     128
 71
-99
 72
100
 73
-101
  0
VERTEX
  8
Layer0
10
0.0
 20
 0.0
 30
0.0
 70
     128
 71
-99
 72
-101
 73
102
  0
VERTEX
  8
Layer0
10
0.0
 20
 0.0
 30
0.0
 70
     128
 71
-102
 72
101
 73
-77
  0
VERTEX
  8
Layer0
10
0.0
 20
 0.0
 30
0.0
 70
     128
 71
-102
 72
-77
 73
103
  0
VERTEX
  8
Layer0
10
0.0
 20
 0.0
 30
0.0
 70
     128
 71
-103
 72
-77
 73
78
  0
VERTEX
  8
Layer0
10
0.0
 20
 0.0
 30
0.0
 70
     128
 71
-104
 72
105
 73
106
  0
VERTEX
  8
Layer0
10
0.0
 20
 0.0
 30
0.0
 70
     128
 71
-105
 72
-104
 73
107
  0
VERTEX
  8
Layer0
10
0.0
 20
 0.0
 30
0.0
 70
     128
 71
-107
 72
-104
 73
108
  0
VERTEX
  8
Layer0
10
0.0
 20
 0.0
 30
0.0
 70
     128
 71
-108
 72
-104
 73
109
  0
VERTEX
  8
Layer0
10
0.0
 20
 0.0
 30
0.0
 70
     128
 71
-109
 72
-104
 73
110
  0
VERTEX
  8
Layer0
10
0.0
 20
 0.0
 30
0.0
 70
     128
 71
-110
 72
-104
 73
111
  0
VERTEX
  8
Layer0
10
0.0
 20
 0.0
 30
0.0
 70
     128
 71
-111
 72
-104
 73
112
  0
VERTEX
  8
Layer0
10
0.0
 20
 0.0
 30
0.0
 70
     128
 71
-112
 72
-104
 73
113
  0
VERTEX
  8
Layer0
10
0.0
 20
 0.0
 30
0.0
 70
     128
 71
-113
 72
-104
 73
114
  0
VERTEX
  8
Layer0
10
0.0
 20
 0.0
 30
0.0
 70
     128
 71
-114
 72
-104
 73
115
  0
VERTEX
  8
Layer0
10
0.0
 20
 0.0
 30
0.0
 70
     128
 71
-115
 72
-104
 73
116
  0
VERTEX
  8
Layer0
10
0.0
 20
 0.0
 30
0.0
 70
     128
 71
-116
 72
104
 73
-117
  0
VERTEX
  8
Layer0
10
0.0
 20
 0.0
 30
0.0
 70
     128
 71
-116
 72
117
 73
-118
  0
VERTEX
  8
Layer0
10
0.0
 20
 0.0
 30
0.0
 70
     128
 71
-116
 72
118
 73
-119
  0
VERTEX
  8
Layer0
10
0.0
 20
 0.0
 30
0.0
 70
     128
 71
-116
 72
119
 73
-120
  0
VERTEX
  8
Layer0
10
0.0
 20
 0.0
 30
0.0
 70
     128
 71
-116
 72
-120
 73
121
  0
VERTEX
  8
Layer0
10
0.0
 20
 0.0
 30
0.0
 70
     128
 71
-121
 72
120
 73
-122
  0
VERTEX
  8
Layer0
10
0.0
 20
 0.0
 30
0.0
 70
     128
 71
-121
 72
122
 73
-123
  0
VERTEX
  8
Layer0
10
0.0
 20
 0.0
 30
0.0
 70
     128
 71
-121
 72
123
 73
-124
  0
VERTEX
  8
Layer0
10
0.0
 20
 0.0
 30
0.0
 70
     128
 71
-121
 72
124
 73
-125
  0
VERTEX
  8
Layer0
10
0.0
 20
 0.0
 30
0.0
 70
     128
 71
-121
 72
125
 73
-126
  0
VERTEX
  8
Layer0
10
0.0
 20
 0.0
 30
0.0
 70
     128
 71
-121
 72
126
 73
-1
  0
VERTEX
  8
Layer0
10
0.0
 20
 0.0
 30
0.0
 70
     128
 71
-121
 72
-1
 73
-3
  0
VERTEX
  8
Layer0
10
0.0
 20
 0.0
 30
0.0
 70
     128
 71
-121
 72
3
 73
-127
  0
VERTEX
  8
Layer0
10
0.0
 20
 0.0
 30
0.0
 70
     128
 71
-121
 72
127
 73
-128
  0
VERTEX
  8
Layer0
10
0.0
 20
 0.0
 30
0.0
 70
     128
 71
-121
 72
128
 73
-129
  0
VERTEX
  8
Layer0
10
0.0
 20
 0.0
 30
0.0
 70
     128
 71
-121
 72
129
 73
-130
  0
VERTEX
  8
Layer0
10
0.0
 20
 0.0
 30
0.0
 70
     128
 71
-121
 72
130
 73
-131
  0
VERTEX
  8
Layer0
10
0.0
 20
 0.0
 30
0.0
 70
     128
 71
-121
 72
-131
 73
132
  0
VERTEX
  8
Layer0
10
0.0
 20
 0.0
 30
0.0
 70
     128
 71
-132
 72
-131
 73
-133
  0
VERTEX
  8
Layer0
10
0.0
 20
 0.0
 30
0.0
 70
     128
 71
-133
 72
-131
 73
134
  0
VERTEX
  8
Layer0
10
0.0
 20
 0.0
 30
0.0
 70
     128
 71
-134
 72
131
 73
-135
  0
VERTEX
  8
Layer0
10
0.0
 20
 0.0
 30
0.0
 70
     128
 71
-134
 72
-135
 73
136
  0
VERTEX
  8
Layer0
10
0.0
 20
 0.0
 30
0.0
 70
     128
 71
-136
 72
135
 73
-137
  0
VERTEX
  8
Layer0
10
0.0
 20
 0.0
 30
0.0
 70
     128
 71
-136
 72
137
 73
-138
  0
VERTEX
  8
Layer0
10
0.0
 20
 0.0
 30
0.0
 70
     128
 71
-136
 72
-138
 73
139
  0
VERTEX
  8
Layer0
10
0.0
 20
 0.0
 30
0.0
 70
     128
 71
-139
 72
138
 73
-140
  0
VERTEX
  8
Layer0
10
0.0
 20
 0.0
 30
0.0
 70
     128
 71
-139
 72
140
 73
-141
  0
VERTEX
  8
Layer0
10
0.0
 20
 0.0
 30
0.0
 70
     128
 71
-139
 72
-141
 73
16
  0
VERTEX
  8
Layer0
10
0.0
 20
 0.0
 30
0.0
 70
     128
 71
-16
 72
141
 73
-142
  0
VERTEX
  8
Layer0
10
0.0
 20
 0.0
 30
0.0
 70
     128
 71
-16
 72
142
 73
-15
  0
VERTEX
  8
Layer0
10
0.0
 20
 0.0
 30
0.0
 70
     128
 71
-143
 72
144
 73
145
  0
VERTEX
  8
Layer0
10
0.0
 20
 0.0
 30
0.0
 70
     128
 71
-144
 72
143
 73
-146
  0
VERTEX
  8
Layer0
10
0.0
 20
 0.0
 30
0.0
 70
     128
 71
-144
 72
-146
 73
147
  0
VERTEX
  8
Layer0
10
0.0
 20
 0.0
 30
0.0
 70
     128
 71
-147
 72
146
 73
-148
  0
VERTEX
  8
Layer0
10
0.0
 20
 0.0
 30
0.0
 70
     128
 71
-147
 72
-148
 73
149
  0
VERTEX
  8
Layer0
10
0.0
 20
 0.0
 30
0.0
 70
     128
 71
-149
 72
148
 73
-150
  0
VERTEX
  8
Layer0
10
0.0
 20
 0.0
 30
0.0
 70
     128
 71
-149
 72
-150
 73
151
  0
VERTEX
  8
Layer0
10
0.0
 20
 0.0
 30
0.0
 70
     128
 71
-151
 72
150
 73
-152
  0
VERTEX
  8
Layer0
10
0.0
 20
 0.0
 30
0.0
 70
     128
 71
-151
 72
152
 73
-153
  0
VERTEX
  8
Layer0
10
0.0
 20
 0.0
 30
0.0
 70
     128
 71
-151
 72
-153
 73
154
  0
VERTEX
  8
Layer0
10
0.0
 20
 0.0
 30
0.0
 70
     128
 71
-154
 72
153
 73
-155
  0
VERTEX
  8
Layer0
10
0.0
 20
 0.0
 30
0.0
 70
     128
 71
-154
 72
-155
 73
156
  0
VERTEX
  8
Layer0
10
0.0
 20
 0.0
 30
0.0
 70
     128
 71
-156
 72
155
 73
-157
  0
VERTEX
  8
Layer0
10
0.0
 20
 0.0
 30
0.0
 70
     128
 71
-156
 72
-157
 73
158
  0
VERTEX
  8
Layer0
10
0.0
 20
 0.0
 30
0.0
 70
     128
 71
-158
 72
157
 73
-159
  0
VERTEX
  8
Layer0
10
0.0
 20
 0.0
 30
0.0
 70
     128
 71
-158
 72
159
 73
-160
  0
VERTEX
  8
Layer0
10
0.0
 20
 0.0
 30
0.0
 70
     128
 71
-158
 72
-160
 73
161
  0
VERTEX
  8
Layer0
10
0.0
 20
 0.0
 30
0.0
 70
     128
 71
-161
 72
-160
 73
162
  0
VERTEX
  8
Layer0
10
0.0
 20
 0.0
 30
0.0
 70
     128
 71
-162
 72
160
 73
-163
  0
VERTEX
  8
Layer0
10
0.0
 20
 0.0
 30
0.0
 70
     128
 71
-162
 72
-163
 73
164
  0
VERTEX
  8
Layer0
10
0.0
 20
 0.0
 30
0.0
 70
     128
 71
-164
 72
163
 73
-132
  0
VERTEX
  8
Layer0
10
0.0
 20
 0.0
 30
0.0
 70
     128
 71
-164
 72
-132
 73
165
  0
VERTEX
  8
Layer0
10
0.0
 20
 0.0
 30
0.0
 70
     128
 71
-165
 72
-132
 73
166
  0
VERTEX
  8
Layer0
10
0.0
 20
 0.0
 30
0.0
 70
     128
 71
-166
 72
-132
 73
-167
  0
VERTEX
  8
Layer0
10
0.0
 20
 0.0
 30
0.0
 70
     128
 71
-167
 72
-132
 73
168
  0
VERTEX
  8
Layer0
10
0.0
 20
 0.0
 30
0.0
 70
     128
 71
-168
 72
-132
 73
169
  0
VERTEX
  8
Layer0
10
0.0
 20
 0.0
 30
0.0
 70
     128
 71
-169
 72
-132
 73
170
  0
VERTEX
  8
Layer0
10
0.0
 20
 0.0
 30
0.0
 70
     128
 71
-170
 72
-132
 73
171
  0
VERTEX
  8
Layer0
10
0.0
 20
 0.0
 30
0.0
 70
     128
 71
-171
 72
-132
 73
133
  0
VERTEX
  8
Layer0
10
0.0
 20
 0.0
 30
0.0
 70
     128
 71
-172
 72
-173
 73
74
  0
VERTEX
  8
Layer0
10
0.0
 20
 0.0
 30
0.0
 70
     128
 71
-173
 72
-172
 73
174
  0
VERTEX
  8
Layer0
10
0.0
 20
 0.0
 30
0.0
 70
     128
 71
-174
 72
-172
 73
175
  0
VERTEX
  8
Layer0
10
0.0
 20
 0.0
 30
0.0
 70
     128
 71
-175
 72
-172
 73
176
  0
VERTEX
  8
Layer0
10
0.0
 20
 0.0
 30
0.0
 70
     128
 71
-176
 72
172
 73
-177
  0
VERTEX
  8
Layer0
10
0.0
 20
 0.0
 30
0.0
 70
     128
 71
-176
 72
-177
 73
178
  0
VERTEX
  8
Layer0
10
0.0
 20
 0.0
 30
0.0
 70
     128
 71
-178
 72
-177
 73
179
  0
VERTEX
  8
Layer0
10
0.0
 20
 0.0
 30
0.0
 70
     128
 71
-179
 72
177
 73
-180
  0
VERTEX
  8
Layer0
10
0.0
 20
 0.0
 30
0.0
 70
     128
 71
-179
 72
-180
 73
181
  0
VERTEX
  8
Layer0
10
0.0
 20
 0.0
 30
0.0
 70
     128
 71
-181
 72
180
 73
-182
  0
VERTEX
  8
Layer0
10
0.0
 20
 0.0
 30
0.0
 70
     128
 71
-181
 72
-182
 73
183
  0
VERTEX
  8
Layer0
10
0.0
 20
 0.0
 30
0.0
 70
     128
 71
-183
 72
-182
 73
184
  0
VERTEX
  8
Layer0
10
0.0
 20
 0.0
 30
0.0
 70
     128
 71
-184
 72
-182
 73
185
  0
VERTEX
  8
Layer0
10
0.0
 20
 0.0
 30
0.0
 70
     128
 71
-185
 72
-182
 73
186
  0
VERTEX
  8
Layer0
10
0.0
 20
 0.0
 30
0.0
 70
     128
 71
-186
 72
-182
 73
187
  0
VERTEX
  8
Layer0
10
0.0
 20
 0.0
 30
0.0
 70
     128
 71
-187
 72
-182
 73
188
  0
VERTEX
  8
Layer0
10
0.0
 20
 0.0
 30
0.0
 70
     128
 71
-188
 72
-182
 73
-189
  0
VERTEX
  8
Layer0
10
0.0
 20
 0.0
 30
0.0
 70
     128
 71
-188
 72
189
 73
-190
  0
VERTEX
  8
Layer0
10
0.0
 20
 0.0
 30
0.0
 70
     128
 71
-188
 72
190
 73
-191
  0
VERTEX
  8
Layer0
10
0.0
 20
 0.0
 30
0.0
 70
     128
 71
-188
 72
-191
 73
-192
  0
VERTEX
  8
Layer0
10
0.0
 20
 0.0
 30
0.0
 70
     128
 71
-192
 72
-191
 73
193
  0
VERTEX
  8
Layer0
10
0.0
 20
 0.0
 30
0.0
 70
     128
 71
-189
 72
-182
 73
194
  0
VERTEX
  8
Layer0
10
0.0
 20
 0.0
 30
0.0
 70
     128
 71
-194
 72
-182
 73
195
  0
VERTEX
  8
Layer0
10
0.0
 20
 0.0
 30
0.0
 70
     128
 71
-195
 72
-182
 73
196
  0
VERTEX
  8
Layer0
10
0.0
 20
 0.0
 30
0.0
 70
     128
 71
-196
 72
-182
 73
197
  0
VERTEX
  8
Layer0
10
0.0
 20
 0.0
 30
0.0
 70
     128
 71
-197
 72
-182
 73
198
  0
VERTEX
  8
Layer0
10
0.0
 20
 0.0
 30
0.0
 70
     128
 71
-198
 72
182
 73
-199
  0
VERTEX
  8
Layer0
10
0.0
 20
 0.0
 30
0.0
 70
     128
 71
-198
 72
-199
 73
200
  0
VERTEX
  8
Layer0
10
0.0
 20
 0.0
 30
0.0
 70
     128
 71
-200
 72
-199
 73
201
  0
VERTEX
  8
Layer0
10
0.0
 20
 0.0
 30
0.0
 70
     128
 71
-201
 72
-199
 73
202
  0
VERTEX
  8
Layer0
10
0.0
 20
 0.0
 30
0.0
 70
     128
 71
-202
 72
-199
 73
203
  0
VERTEX
  8
Layer0
10
0.0
 20
 0.0
 30
0.0
 70
     128
 71
-203
 72
-199
 73
204
  0
VERTEX
  8
Layer0
10
0.0
 20
 0.0
 30
0.0
 70
     128
 71
-204
 72
-199
 73
205
  0
VERTEX
  8
Layer0
10
0.0
 20
 0.0
 30
0.0
 70
     128
 71
-205
 72
199
 73
-206
  0
VERTEX
  8
Layer0
10
0.0
 20
 0.0
 30
0.0
 70
     128
 71
-205
 72
-206
 73
207
  0
VERTEX
  8
Layer0
10
0.0
 20
 0.0
 30
0.0
 70
     128
 71
-207
 72
206
 73
-208
  0
VERTEX
  8
Layer0
10
0.0
 20
 0.0
 30
0.0
 70
     128
 71
-207
 72
-208
 73
209
  0
VERTEX
  8
Layer0
10
0.0
 20
 0.0
 30
0.0
 70
     128
 71
-209
 72
208
 73
210
  0
VERTEX
  8
Layer0
10
0.0
 20
 0.0
 30
0.0
 70
     128
 71
-211
 72
-212
 73
-213
  0
VERTEX
  8
Layer0
10
0.0
 20
 0.0
 30
0.0
 70
     128
 71
-212
 72
-211
 73
214
  0
VERTEX
  8
Layer0
10
0.0
 20
 0.0
 30
0.0
 70
     128
 71
-214
 72
-211
 73
215
  0
VERTEX
  8
Layer0
10
0.0
 20
 0.0
 30
0.0
 70
     128
 71
-215
 72
-211
 73
216
  0
VERTEX
  8
Layer0
10
0.0
 20
 0.0
 30
0.0
 70
     128
 71
-216
 72
211
 73
-217
  0
VERTEX
  8
Layer0
10
0.0
 20
 0.0
 30
0.0
 70
     128
 71
-213
 72
-212
 73
218
  0
VERTEX
  8
Layer0
10
0.0
 20
 0.0
 30
0.0
 70
     128
 71
-218
 72
-212
 73
219
  0
VERTEX
  8
Layer0
10
0.0
 20
 0.0
 30
0.0
 70
     128
 71
-219
 72
-212
 73
220
  0
VERTEX
  8
Layer0
10
0.0
 20
 0.0
 30
0.0
 70
     128
 71
-216
 72
-217
 73
221
  0
VERTEX
  8
Layer0
10
0.0
 20
 0.0
 30
0.0
 70
     128
 71
-221
 72
-217
 73
222
  0
VERTEX
  8
Layer0
10
0.0
 20
 0.0
 30
0.0
 70
     128
 71
-222
 72
-217
 73
223
  0
VERTEX
  8
Layer0
10
0.0
 20
 0.0
 30
0.0
 70
     128
 71
-223
 72
-217
 73
224
  0
VERTEX
  8
Layer0
10
0.0
 20
 0.0
 30
0.0
 70
     128
 71
-224
 72
-217
 73
225
  0
VERTEX
  8
Layer0
10
0.0
 20
 0.0
 30
0.0
 70
     128
 71
-225
 72
-217
 73
226
  0
VERTEX
  8
Layer0
10
0.0
 20
 0.0
 30
0.0
 70
     128
 71
-226
 72
-217
 73
227
  0
VERTEX
  8
Layer0
10
0.0
 20
 0.0
 30
0.0
 70
     128
 71
-227
 72
-217
 73
228
  0
VERTEX
  8
Layer0
10
0.0
 20
 0.0
 30
0.0
 70
     128
 71
-228
 72
-217
 73
229
  0
VERTEX
  8
Layer0
10
0.0
 20
 0.0
 30
0.0
 70
     128
 71
-212
 72
230
 73
-220
  0
VERTEX
  8
Layer0
10
0.0
 20
 0.0
 30
0.0
 70
     128
 71
-230
 72
212
 73
-231
  0
VERTEX
  8
Layer0
10
0.0
 20
 0.0
 30
0.0
 70
     128
 71
-230
 72
231
 73
-232
  0
VERTEX
  8
Layer0
10
0.0
 20
 0.0
 30
0.0
 70
     128
 71
-230
 72
232
 73
-233
  0
VERTEX
  8
Layer0
10
0.0
 20
 0.0
 30
0.0
 70
     128
 71
-230
 72
-233
 73
234
  0
VERTEX
  8
Layer0
10
0.0
 20
 0.0
 30
0.0
 70
     128
 71
-234
 72
233
 73
-235
  0
VERTEX
  8
Layer0
10
0.0
 20
 0.0
 30
0.0
 70
     128
 71
-234
 72
235
 73
-236
  0
VERTEX
  8
Layer0
10
0.0
 20
 0.0
 30
0.0
 70
     128
 71
-234
 72
-236
 73
237
  0
VERTEX
  8
Layer0
10
0.0
 20
 0.0
 30
0.0
 70
     128
 71
-237
 72
236
 73
-238
  0
VERTEX
  8
Layer0
10
0.0
 20
 0.0
 30
0.0
 70
     128
 71
-237
 72
238
 73
-239
  0
VERTEX
  8
Layer0
10
0.0
 20
 0.0
 30
0.0
 70
     128
 71
-237
 72
-239
 73
240
  0
VERTEX
  8
Layer0
10
0.0
 20
 0.0
 30
0.0
 70
     128
 71
-240
 72
239
 73
-241
  0
VERTEX
  8
Layer0
10
0.0
 20
 0.0
 30
0.0
 70
     128
 71
-240
 72
-241
 73
-242
  0
VERTEX
  8
Layer0
10
0.0
 20
 0.0
 30
0.0
 70
     128
 71
-242
 72
-241
 73
243
  0
VERTEX
  8
Layer0
10
0.0
 20
 0.0
 30
0.0
 70
     128
 71
-243
 72
241
 73
-244
  0
VERTEX
  8
Layer0
10
0.0
 20
 0.0
 30
0.0
 70
     128
 71
-243
 72
244
 73
-245
  0
VERTEX
  8
Layer0
10
0.0
 20
 0.0
 30
0.0
 70
     128
 71
-243
 72
245
 73
-246
  0
VERTEX
  8
Layer0
10
0.0
 20
 0.0
 30
0.0
 70
     128
 71
-243
 72
246
 73
-229
  0
VERTEX
  8
Layer0
10
0.0
 20
 0.0
 30
0.0
 70
     128
 71
-243
 72
-229
 73
-217
  0
VERTEX
  8
Layer0
10
0.0
 20
 0.0
 30
0.0
 70
     128
 71
-243
 72
217
 73
-247
  0
VERTEX
  8
Layer0
10
0.0
 20
 0.0
 30
0.0
 70
     128
 71
-243
 72
247
 73
-248
  0
VERTEX
  8
Layer0
10
0.0
 20
 0.0
 30
0.0
 70
     128
 71
-243
 72
248
 73
-249
  0
VERTEX
  8
Layer0
10
0.0
 20
 0.0
 30
0.0
 70
     128
 71
-243
 72
249
 73
-250
  0
VERTEX
  8
Layer0
10
0.0
 20
 0.0
 30
0.0
 70
     128
 71
-243
 72
250
 73
-251
  0
VERTEX
  8
Layer0
10
0.0
 20
 0.0
 30
0.0
 70
     128
 71
-243
 72
251
 73
-252
  0
VERTEX
  8
Layer0
10
0.0
 20
 0.0
 30
0.0
 70
     128
 71
-243
 72
252
 73
-253
  0
VERTEX
  8
Layer0
10
0.0
 20
 0.0
 30
0.0
 70
     128
 71
-243
 72
-253
 73
254
  0
VERTEX
  8
Layer0
10
0.0
 20
 0.0
 30
0.0
 70
     128
 71
-254
 72
253
 73
-255
  0
VERTEX
  8
Layer0
10
0.0
 20
 0.0
 30
0.0
 70
     128
 71
-254
 72
255
 73
-256
  0
VERTEX
  8
Layer0
10
0.0
 20
 0.0
 30
0.0
 70
     128
 71
-254
 72
256
 73
-257
  0
VERTEX
  8
Layer0
10
0.0
 20
 0.0
 30
0.0
 70
     128
 71
-254
 72
257
 73
-258
  0
VERTEX
  8
Layer0
10
0.0
 20
 0.0
 30
0.0
 70
     128
 71
-254
 72
-258
 73
259
  0
VERTEX
  8
Layer0
10
0.0
 20
 0.0
 30
0.0
 70
     128
 71
-259
 72
-258
 73
260
  0
VERTEX
  8
Layer0
10
0.0
 20
 0.0
 30
0.0
 70
     128
 71
-260
 72
-258
 73
261
  0
VERTEX
  8
Layer0
10
0.0
 20
 0.0
 30
0.0
 70
     128
 71
-261
 72
-258
 73
262
  0
VERTEX
  8
Layer0
10
0.0
 20
 0.0
 30
0.0
 70
     128
 71
-262
 72
-258
 73
263
  0
VERTEX
  8
Layer0
10
0.0
 20
 0.0
 30
0.0
 70
     128
 71
-263
 72
-258
 73
264
  0
VERTEX
  8
Layer0
10
0.0
 20
 0.0
 30
0.0
 70
     128
 71
-264
 72
-258
 73
265
  0
VERTEX
  8
Layer0
10
0.0
 20
 0.0
 30
0.0
 70
     128
 71
-265
 72
258
 73
266
  0
VERTEX
  8
Layer0
10
0.0
 20
 0.0
 30
0.0
 70
     128
 71
-240
 72
-267
 73
268
  0
VERTEX
  8
Layer0
10
0.0
 20
 0.0
 30
0.0
 70
     128
 71
-267
 72
-240
 73
242
  0
VERTEX
  8
Layer0
10
0.0
 20
 0.0
 30
0.0
 70
     128
 71
-268
 72
267
 73
-269
  0
VERTEX
  8
Layer0
10
0.0
 20
 0.0
 30
0.0
 70
     128
 71
-268
 72
-269
 73
270
  0
VERTEX
  8
Layer0
10
0.0
 20
 0.0
 30
0.0
 70
     128
 71
-270
 72
-269
 73
271
  0
VERTEX
  8
Layer0
10
0.0
 20
 0.0
 30
0.0
 70
     128
 71
-271
 72
-269
 73
272
  0
VERTEX
  8
Layer0
10
0.0
 20
 0.0
 30
0.0
 70
     128
 71
-272
 72
-269
 73
273
  0
VERTEX
  8
Layer0
10
0.0
 20
 0.0
 30
0.0
 70
     128
 71
-273
 72
-269
 73
-274
  0
VERTEX
  8
Layer0
10
0.0
 20
 0.0
 30
0.0
 70
     128
 71
-274
 72
-269
 73
275
  0
VERTEX
  8
Layer0
10
0.0
 20
 0.0
 30
0.0
 70
     128
 71
-275
 72
-269
 73
276
  0
VERTEX
  8
Layer0
10
0.0
 20
 0.0
 30
0.0
 70
     128
 71
-276
 72
-269
 73
277
  0
VERTEX
  8
Layer0
10
0.0
 20
 0.0
 30
0.0
 70
     128
 71
-277
 72
269
 73
-278
  0
VERTEX
  8
Layer0
10
0.0
 20
 0.0
 30
0.0
 70
     128
 71
-277
 72
-278
 73
279
  0
VERTEX
  8
Layer0
10
0.0
 20
 0.0
 30
0.0
 70
     128
 71
-279
 72
278
 73
-280
  0
VERTEX
  8
Layer0
10
0.0
 20
 0.0
 30
0.0
 70
     128
 71
-279
 72
-280
 73
281
  0
VERTEX
  8
Layer0
10
0.0
 20
 0.0
 30
0.0
 70
     128
 71
-281
 72
-280
 73
282
  0
VERTEX
  8
Layer0
10
0.0
 20
 0.0
 30
0.0
 70
     128
 71
-282
 72
280
 73
-283
  0
VERTEX
  8
Layer0
10
0.0
 20
 0.0
 30
0.0
 70
     128
 71
-282
 72
283
 73
-284
  0
VERTEX
  8
Layer0
10
0.0
 20
 0.0
 30
0.0
 70
     128
 71
-282
 72
-284
 73
285
  0
VERTEX
  8
Layer0
10
0.0
 20
 0.0
 30
0.0
 70
     128
 71
-285
 72
284
 73
-286
  0
VERTEX
  8
Layer0
10
0.0
 20
 0.0
 30
0.0
 70
     128
 71
-285
 72
-286
 73
287
  0
VERTEX
  8
Layer0
10
0.0
 20
 0.0
 30
0.0
 70
     128
 71
-287
 72
286
 73
-288
  0
VERTEX
  8
Layer0
10
0.0
 20
 0.0
 30
0.0
 70
     128
 71
-287
 72
-288
 73
289
  0
VERTEX
  8
Layer0
10
0.0
 20
 0.0
 30
0.0
 70
     128
 71
-289
 72
288
 73
-290
  0
VERTEX
  8
Layer0
10
0.0
 20
 0.0
 30
0.0
 70
     128
 71
-289
 72
-290
 73
291
  0
VERTEX
  8
Layer0
10
0.0
 20
 0.0
 30
0.0
 70
     128
 71
-291
 72
290
 73
-292
  0
VERTEX
  8
Layer0
10
0.0
 20
 0.0
 30
0.0
 70
     128
 71
-291
 72
292
 73
-293
  0
VERTEX
  8
Layer0
10
0.0
 20
 0.0
 30
0.0
 70
     128
 71
-291
 72
-293
 73
294
  0
VERTEX
  8
Layer0
10
0.0
 20
 0.0
 30
0.0
 70
     128
 71
-294
 72
293
 73
-295
  0
VERTEX
  8
Layer0
10
0.0
 20
 0.0
 30
0.0
 70
     128
 71
-294
 72
295
 73
296
  0
VERTEX
  8
Layer0
10
0.0
 20
 0.0
 30
0.0
 70
     128
 71
-166
 72
-297
 73
274
  0
VERTEX
  8
Layer0
10
0.0
 20
 0.0
 30
0.0
 70
     128
 71
-297
 72
-166
 73
298
  0
VERTEX
  8
Layer0
10
0.0
 20
 0.0
 30
0.0
 70
     128
 71
-298
 72
-166
 73
299
  0
VERTEX
  8
Layer0
10
0.0
 20
 0.0
 30
0.0
 70
     128
 71
-299
 72
-166
 73
300
  0
VERTEX
  8
Layer0
10
0.0
 20
 0.0
 30
0.0
 70
     128
 71
-300
 72
-166
 73
301
  0
VERTEX
  8
Layer0
10
0.0
 20
 0.0
 30
0.0
 70
     128
 71
-301
 72
-166
 73
302
  0
VERTEX
  8
Layer0
10
0.0
 20
 0.0
 30
0.0
 70
     128
 71
-302
 72
-166
 73
167
  0
VERTEX
  8
Layer0
10
0.0
 20
 0.0
 30
0.0
 70
     128
 71
-274
 72
297
 73
-303
  0
VERTEX
  8
Layer0
10
0.0
 20
 0.0
 30
0.0
 70
     128
 71
-274
 72
303
 73
-304
  0
VERTEX
  8
Layer0
10
0.0
 20
 0.0
 30
0.0
 70
     128
 71
-274
 72
304
 73
-305
  0
VERTEX
  8
Layer0
10
0.0
 20
 0.0
 30
0.0
 70
     128
 71
-274
 72
305
 73
-306
  0
VERTEX
  8
Layer0
10
0.0
 20
 0.0
 30
0.0
 70
     128
 71
-274
 72
306
 73
-307
  0
VERTEX
  8
Layer0
10
0.0
 20
 0.0
 30
0.0
 70
     128
 71
-274
 72
307
 73
-19
  0
VERTEX
  8
Layer0
10
0.0
 20
 0.0
 30
0.0
 70
     128
 71
-274
 72
-19
 73
-308
  0
VERTEX
  8
Layer0
10
0.0
 20
 0.0
 30
0.0
 70
     128
 71
-308
 72
-19
 73
309
  0
VERTEX
  8
Layer0
10
0.0
 20
 0.0
 30
0.0
 70
     128
 71
-309
 72
-19
 73
310
  0
VERTEX
  8
Layer0
10
0.0
 20
 0.0
 30
0.0
 70
     128
 71
-310
 72
-19
 73
311
  0
VERTEX
  8
Layer0
10
0.0
 20
 0.0
 30
0.0
 70
     128
 71
-311
 72
-19
 73
312
  0
VERTEX
  8
Layer0
10
0.0
 20
 0.0
 30
0.0
 70
     128
 71
-312
 72
-19
 73
313
  0
VERTEX
  8
Layer0
10
0.0
 20
 0.0
 30
0.0
 70
     128
 71
-313
 72
-19
 73
314
  0
VERTEX
  8
Layer0
10
0.0
 20
 0.0
 30
0.0
 70
     128
 71
-314
 72
-19
 73
315
  0
VERTEX
  8
Layer0
10
0.0
 20
 0.0
 30
0.0
 70
     128
 71
-315
 72
-19
 73
316
  0
VERTEX
  8
Layer0
10
0.0
 20
 0.0
 30
0.0
 70
     128
 71
-316
 72
-19
 73
317
  0
VERTEX
  8
Layer0
10
0.0
 20
 0.0
 30
0.0
 70
     128
 71
-317
 72
-19
 73
-5
  0
VERTEX
  8
Layer0
10
0.0
 20
 0.0
 30
0.0
 70
     128
 71
-317
 72
-5
 73
318
  0
VERTEX
  8
Layer0
10
0.0
 20
 0.0
 30
0.0
 70
     128
 71
-318
 72
5
 73
-319
  0
VERTEX
  8
Layer0
10
0.0
 20
 0.0
 30
0.0
 70
     128
 71
-318
 72
319
 73
-320
  0
VERTEX
  8
Layer0
10
0.0
 20
 0.0
 30
0.0
 70
     128
 71
-318
 72
320
 73
-321
  0
VERTEX
  8
Layer0
10
0.0
 20
 0.0
 30
0.0
 70
     128
 71
-318
 72
321
 73
-322
  0
VERTEX
  8
Layer0
10
0.0
 20
 0.0
 30
0.0
 70
     128
 71
-318
 72
322
 73
-323
  0
VERTEX
  8
Layer0
10
0.0
 20
 0.0
 30
0.0
 70
     128
 71
-318
 72
323
 73
-22
  0
VERTEX
  8
Layer0
10
0.0
 20
 0.0
 30
0.0
 70
     128
 71
-318
 72
-22
 73
-21
  0
VERTEX
  8
Layer0
10
0.0
 20
 0.0
 30
0.0
 70
     128
 71
-318
 72
21
 73
-324
  0
VERTEX
  8
Layer0
10
0.0
 20
 0.0
 30
0.0
 70
     128
 71
-318
 72
324
 73
-325
  0
VERTEX
  8
Layer0
10
0.0
 20
 0.0
 30
0.0
 70
     128
 71
-318
 72
-325
 73
326
  0
VERTEX
  8
Layer0
10
0.0
 20
 0.0
 30
0.0
 70
     128
 71
-274
 72
308
 73
-327
  0
VERTEX
  8
Layer0
10
0.0
 20
 0.0
 30
0.0
 70
     128
 71
-274
 72
327
 73
-328
  0
VERTEX
  8
Layer0
10
0.0
 20
 0.0
 30
0.0
 70
     128
 71
-274
 72
328
 73
-329
  0
VERTEX
  8
Layer0
10
0.0
 20
 0.0
 30
0.0
 70
     128
 71
-274
 72
329
 73
-330
  0
VERTEX
  8
Layer0
10
0.0
 20
 0.0
 30
0.0
 70
     128
 71
-274
 72
330
 73
-331
  0
VERTEX
  8
Layer0
10
0.0
 20
 0.0
 30
0.0
 70
     128
 71
-274
 72
331
 73
-332
  0
VERTEX
  8
Layer0
10
0.0
 20
 0.0
 30
0.0
 70
     128
 71
-274
 72
332
 73
-333
  0
VERTEX
  8
Layer0
10
0.0
 20
 0.0
 30
0.0
 70
     128
 71
-274
 72
333
 73
-334
  0
VERTEX
  8
Layer0
10
0.0
 20
 0.0
 30
0.0
 70
     128
 71
-274
 72
334
 73
-335
  0
VERTEX
  8
Layer0
10
0.0
 20
 0.0
 30
0.0
 70
     128
 71
-274
 72
335
 73
-336
  0
VERTEX
  8
Layer0
10
0.0
 20
 0.0
 30
0.0
 70
     128
 71
-274
 72
-336
 73
-337
  0
VERTEX
  8
Layer0
10
0.0
 20
 0.0
 30
0.0
 70
     128
 71
-337
 72
336
 73
-338
  0
VERTEX
  8
Layer0
10
0.0
 20
 0.0
 30
0.0
 70
     128
 71
-337
 72
338
 73
-339
  0
VERTEX
  8
Layer0
10
0.0
 20
 0.0
 30
0.0
 70
     128
 71
-337
 72
-339
 73
340
  0
VERTEX
  8
Layer0
10
0.0
 20
 0.0
 30
0.0
 70
     128
 71
-340
 72
339
 73
-341
  0
VERTEX
  8
Layer0
10
0.0
 20
 0.0
 30
0.0
 70
     128
 71
-340
 72
341
 73
-342
  0
VERTEX
  8
Layer0
10
0.0
 20
 0.0
 30
0.0
 70
     128
 71
-340
 72
342
 73
-343
  0
VERTEX
  8
Layer0
10
0.0
 20
 0.0
 30
0.0
 70
     128
 71
-340
 72
-343
 73
344
  0
VERTEX
  8
Layer0
10
0.0
 20
 0.0
 30
0.0
 70
     128
 71
-344
 72
-343
 73
-345
  0
VERTEX
  8
Layer0
10
0.0
 20
 0.0
 30
0.0
 70
     128
 71
-344
 72
345
 73
-346
  0
VERTEX
  8
Layer0
10
0.0
 20
 0.0
 30
0.0
 70
     128
 71
-344
 72
346
 73
-347
  0
VERTEX
  8
Layer0
10
0.0
 20
 0.0
 30
0.0
 70
     128
 71
-344
 72
-347
 73
213
  0
VERTEX
  8
Layer0
10
0.0
 20
 0.0
 30
0.0
 70
     128
 71
-213
 72
-347
 73
-348
  0
VERTEX
  8
Layer0
10
0.0
 20
 0.0
 30
0.0
 70
     128
 71
-213
 72
348
 73
-349
  0
VERTEX
  8
Layer0
10
0.0
 20
 0.0
 30
0.0
 70
     128
 71
-213
 72
349
 73
-350
  0
VERTEX
  8
Layer0
10
0.0
 20
 0.0
 30
0.0
 70
     128
 71
-213
 72
350
 73
-351
  0
VERTEX
  8
Layer0
10
0.0
 20
 0.0
 30
0.0
 70
     128
 71
-213
 72
351
 73
-352
  0
VERTEX
  8
Layer0
10
0.0
 20
 0.0
 30
0.0
 70
     128
 71
-213
 72
352
 73
-211
  0
VERTEX
  8
Layer0
10
0.0
 20
 0.0
 30
0.0
 70
     128
 71
-274
 72
337
 73
-353
  0
VERTEX
  8
Layer0
10
0.0
 20
 0.0
 30
0.0
 70
     128
 71
-274
 72
353
 73
-354
  0
VERTEX
  8
Layer0
10
0.0
 20
 0.0
 30
0.0
 70
     128
 71
-274
 72
354
 73
-355
  0
VERTEX
  8
Layer0
10
0.0
 20
 0.0
 30
0.0
 70
     128
 71
-274
 72
355
 73
-356
  0
VERTEX
  8
Layer0
10
0.0
 20
 0.0
 30
0.0
 70
     128
 71
-274
 72
356
 73
-357
  0
VERTEX
  8
Layer0
10
0.0
 20
 0.0
 30
0.0
 70
     128
 71
-274
 72
357
 73
-358
  0
VERTEX
  8
Layer0
10
0.0
 20
 0.0
 30
0.0
 70
     128
 71
-274
 72
358
 73
-359
  0
VERTEX
  8
Layer0
10
0.0
 20
 0.0
 30
0.0
 70
     128
 71
-274
 72
359
 73
-360
  0
VERTEX
  8
Layer0
10
0.0
 20
 0.0
 30
0.0
 70
     128
 71
-274
 72
360
 73
-273
  0
VERTEX
  8
Layer0
10
0.0
 20
 0.0
 30
0.0
 70
     128
 71
-361
 72
362
 73
363
  0
VERTEX
  8
Layer0
10
0.0
 20
 0.0
 30
0.0
 70
     128
 71
-362
 72
-361
 73
364
  0
VERTEX
  8
Layer0
10
0.0
 20
 0.0
 30
0.0
 70
     128
 71
-364
 72
361
 73
-365
  0
VERTEX
  8
Layer0
10
0.0
 20
 0.0
 30
0.0
 70
     128
 71
-364
 72
-365
 73
366
  0
VERTEX
  8
Layer0
10
0.0
 20
 0.0
 30
0.0
 70
     128
 71
-366
 72
365
 73
-367
  0
VERTEX
  8
Layer0
10
0.0
 20
 0.0
 30
0.0
 70
     128
 71
-366
 72
367
 73
-368
  0
VERTEX
  8
Layer0
10
0.0
 20
 0.0
 30
0.0
 70
     128
 71
-366
 72
-368
 73
369
  0
VERTEX
  8
Layer0
10
0.0
 20
 0.0
 30
0.0
 70
     128
 71
-369
 72
-368
 73
370
  0
VERTEX
  8
Layer0
10
0.0
 20
 0.0
 30
0.0
 70
     128
 71
-370
 72
-368
 73
371
  0
VERTEX
  8
Layer0
10
0.0
 20
 0.0
 30
0.0
 70
     128
 71
-371
 72
-368
 73
372
  0
VERTEX
  8
Layer0
10
0.0
 20
 0.0
 30
0.0
 70
     128
 71
-372
 72
-368
 73
373
  0
VERTEX
  8
Layer0
10
0.0
 20
 0.0
 30
0.0
 70
     128
 71
-373
 72
-368
 73
374
  0
VERTEX
  8
Layer0
10
0.0
 20
 0.0
 30
0.0
 70
     128
 71
-374
 72
-368
 73
375
  0
VERTEX
  8
Layer0
10
0.0
 20
 0.0
 30
0.0
 70
     128
 71
-375
 72
368
 73
-376
  0
VERTEX
  8
Layer0
10
0.0
 20
 0.0
 30
0.0
 70
     128
 71
-375
 72
-376
 73
377
  0
VERTEX
  8
Layer0
10
0.0
 20
 0.0
 30
0.0
 70
     128
 71
-377
 72
-376
 73
378
  0
VERTEX
  8
Layer0
10
0.0
 20
 0.0
 30
0.0
 70
     128
 71
-378
 72
-376
 73
379
  0
VERTEX
  8
Layer0
10
0.0
 20
 0.0
 30
0.0
 70
     128
 71
-379
 72
-376
 73
380
  0
VERTEX
  8
Layer0
10
0.0
 20
 0.0
 30
0.0
 70
     128
 71
-380
 72
-376
 73
381
  0
VERTEX
  8
Layer0
10
0.0
 20
 0.0
 30
0.0
 70
     128
 71
-381
 72
-376
 73
382
  0
VERTEX
  8
Layer0
10
0.0
 20
 0.0
 30
0.0
 70
     128
 71
-382
 72
-376
 73
-383
  0
VERTEX
  8
Layer0
10
0.0
 20
 0.0
 30
0.0
 70
     128
 71
-382
 72
383
 73
-384
  0
VERTEX
  8
Layer0
10
0.0
 20
 0.0
 30
0.0
 70
     128
 71
-382
 72
384
 73
-385
  0
VERTEX
  8
Layer0
10
0.0
 20
 0.0
 30
0.0
 70
     128
 71
-382
 72
-385
 73
-386
  0
VERTEX
  8
Layer0
10
0.0
 20
 0.0
 30
0.0
 70
     128
 71
-386
 72
-385
 73
387
  0
VERTEX
  8
Layer0
10
0.0
 20
 0.0
 30
0.0
 70
     128
 71
-387
 72
-385
 73
388
  0
VERTEX
  8
Layer0
10
0.0
 20
 0.0
 30
0.0
 70
     128
 71
-383
 72
-376
 73
389
  0
VERTEX
  8
Layer0
10
0.0
 20
 0.0
 30
0.0
 70
     128
 71
-389
 72
-376
 73
390
  0
VERTEX
  8
Layer0
10
0.0
 20
 0.0
 30
0.0
 70
     128
 71
-390
 72
-376
 73
391
  0
VERTEX
  8
Layer0
10
0.0
 20
 0.0
 30
0.0
 70
     128
 71
-391
 72
-376
 73
392
  0
VERTEX
  8
Layer0
10
0.0
 20
 0.0
 30
0.0
 70
     128
 71
-392
 72
-376
 73
393
  0
VERTEX
  8
Layer0
10
0.0
 20
 0.0
 30
0.0
 70
     128
 71
-393
 72
376
 73
-394
  0
VERTEX
  8
Layer0
10
0.0
 20
 0.0
 30
0.0
 70
     128
 71
-393
 72
-394
 73
395
  0
VERTEX
  8
Layer0
10
0.0
 20
 0.0
 30
0.0
 70
     128
 71
-395
 72
394
 73
-396
  0
VERTEX
  8
Layer0
10
0.0
 20
 0.0
 30
0.0
 70
     128
 71
-395
 72
-396
 73
397
  0
VERTEX
  8
Layer0
10
0.0
 20
 0.0
 30
0.0
 70
     128
 71
-397
 72
-396
 73
398
  0
VERTEX
  8
Layer0
10
0.0
 20
 0.0
 30
0.0
 70
     128
 71
-398
 72
396
 73
-399
  0
VERTEX
  8
Layer0
10
0.0
 20
 0.0
 30
0.0
 70
     128
 71
-398
 72
-399
 73
400
  0
VERTEX
  8
Layer0
10
0.0
 20
 0.0
 30
0.0
 70
     128
 71
-400
 72
-399
 73
401
  0
VERTEX
  8
Layer0
10
0.0
 20
 0.0
 30
0.0
 70
     128
 71
-402
 72
-403
 73
404
  0
VERTEX
  8
Layer0
10
0.0
 20
 0.0
 30
0.0
 70
     128
 71
-403
 72
-402
 73
405
  0
VERTEX
  8
Layer0
10
0.0
 20
 0.0
 30
0.0
 70
     128
 71
-405
 72
-402
 73
406
  0
VERTEX
  8
Layer0
10
0.0
 20
 0.0
 30
0.0
 70
     128
 71
-406
 72
402
 73
-407
  0
VERTEX
  8
Layer0
10
0.0
 20
 0.0
 30
0.0
 70
     128
 71
-406
 72
-407
 73
408
  0
VERTEX
  8
Layer0
10
0.0
 20
 0.0
 30
0.0
 70
     128
 71
-408
 72
407
 73
409
  0
VERTEX
  8
Layer0
10
0.0
 20
 0.0
 30
0.0
 70
     128
 71
-410
 72
-411
 73
412
  0
VERTEX
  8
Layer0
10
0.0
 20
 0.0
 30
0.0
 70
     128
 71
-411
 72
-410
 73
413
  0
VERTEX
  8
Layer0
10
0.0
 20
 0.0
 30
0.0
 70
     128
 71
-413
 72
410
 73
-414
  0
VERTEX
  8
Layer0
10
0.0
 20
 0.0
 30
0.0
 70
     128
 71
-413
 72
414
 73
-415
  0
VERTEX
  8
Layer0
10
0.0
 20
 0.0
 30
0.0
 70
     128
 71
-413
 72
-415
 73
416
  0
VERTEX
  8
Layer0
10
0.0
 20
 0.0
 30
0.0
 70
     128
 71
-416
 72
-415
 73
417
  0
VERTEX
  8
Layer0
10
0.0
 20
 0.0
 30
0.0
 70
     128
 71
-417
 72
415
 73
-418
  0
VERTEX
  8
Layer0
10
0.0
 20
 0.0
 30
0.0
 70
     128
 71
-417
 72
-418
 73
419
  0
VERTEX
  8
Layer0
10
0.0
 20
 0.0
 30
0.0
 70
     128
 71
-419
 72
418
 73
-420
  0
VERTEX
  8
Layer0
10
0.0
 20
 0.0
 30
0.0
 70
     128
 71
-419
 72
420
 73
-421
  0
VERTEX
  8
Layer0
10
0.0
 20
 0.0
 30
0.0
 70
     128
 71
-419
 72
-421
 73
422
  0
VERTEX
  8
Layer0
10
0.0
 20
 0.0
 30
0.0
 70
     128
 71
-422
 72
421
 73
-423
  0
VERTEX
  8
Layer0
10
0.0
 20
 0.0
 30
0.0
 70
     128
 71
-422
 72
-423
 73
424
  0
VERTEX
  8
Layer0
10
0.0
 20
 0.0
 30
0.0
 70
     128
 71
-424
 72
423
 73
-425
  0
VERTEX
  8
Layer0
10
0.0
 20
 0.0
 30
0.0
 70
     128
 71
-424
 72
-425
 73
426
  0
VERTEX
  8
Layer0
10
0.0
 20
 0.0
 30
0.0
 70
     128
 71
-426
 72
425
 73
-427
  0
VERTEX
  8
Layer0
10
0.0
 20
 0.0
 30
0.0
 70
     128
 71
-426
 72
-427
 73
428
  0
VERTEX
  8
Layer0
10
0.0
 20
 0.0
 30
0.0
 70
     128
 71
-428
 72
427
 73
-429
  0
VERTEX
  8
Layer0
10
0.0
 20
 0.0
 30
0.0
 70
     128
 71
-428
 72
-429
 73
430
  0
VERTEX
  8
Layer0
10
0.0
 20
 0.0
 30
0.0
 70
     128
 71
-430
 72
-429
 73
431
  0
VERTEX
  8
Layer0
10
0.0
 20
 0.0
 30
0.0
 70
     128
 71
-431
 72
429
 73
-432
  0
VERTEX
  8
Layer0
10
0.0
 20
 0.0
 30
0.0
 70
     128
 71
-431
 72
-432
 73
433
  0
VERTEX
  8
Layer0
10
0.0
 20
 0.0
 30
0.0
 70
     128
 71
-433
 72
432
 73
-434
  0
VERTEX
  8
Layer0
10
0.0
 20
 0.0
 30
0.0
 70
     128
 71
-433
 72
434
 73
-435
  0
VERTEX
  8
Layer0
10
0.0
 20
 0.0
 30
0.0
 70
     128
 71
-433
 72
-435
 73
436
  0
VERTEX
  8
Layer0
10
0.0
 20
 0.0
 30
0.0
 70
     128
 71
-436
 72
-435
 73
437
  0
VERTEX
  8
Layer0
10
0.0
 20
 0.0
 30
0.0
 70
     128
 71
-438
 72
-412
 73
399
  0
VERTEX
  8
Layer0
10
0.0
 20
 0.0
 30
0.0
 70
     128
 71
-412
 72
-438
 73
439
  0
VERTEX
  8
Layer0
10
0.0
 20
 0.0
 30
0.0
 70
     128
 71
-439
 72
-438
 73
440
  0
VERTEX
  8
Layer0
10
0.0
 20
 0.0
 30
0.0
 70
     128
 71
-440
 72
438
 73
-441
  0
VERTEX
  8
Layer0
10
0.0
 20
 0.0
 30
0.0
 70
     128
 71
-440
 72
-441
 73
442
  0
VERTEX
  8
Layer0
10
0.0
 20
 0.0
 30
0.0
 70
     128
 71
-442
 72
-441
 73
443
  0
VERTEX
  8
Layer0
10
0.0
 20
 0.0
 30
0.0
 70
     128
 71
-443
 72
441
 73
-444
  0
VERTEX
  8
Layer0
10
0.0
 20
 0.0
 30
0.0
 70
     128
 71
-443
 72
-444
 73
445
  0
VERTEX
  8
Layer0
10
0.0
 20
 0.0
 30
0.0
 70
     128
 71
-445
 72
444
 73
-446
  0
VERTEX
  8
Layer0
10
0.0
 20
 0.0
 30
0.0
 70
     128
 71
-445
 72
-446
 73
447
  0
VERTEX
  8
Layer0
10
0.0
 20
 0.0
 30
0.0
 70
     128
 71
-447
 72
446
 73
-448
  0
VERTEX
  8
Layer0
10
0.0
 20
 0.0
 30
0.0
 70
     128
 71
-447
 72
-448
 73
449
  0
VERTEX
  8
Layer0
10
0.0
 20
 0.0
 30
0.0
 70
     128
 71
-449
 72
448
 73
-404
  0
VERTEX
  8
Layer0
10
0.0
 20
 0.0
 30
0.0
 70
     128
 71
-449
 72
-404
 73
-403
  0
VERTEX
  8
Layer0
10
0.0
 20
 0.0
 30
0.0
 70
     128
 71
-449
 72
403
 73
-450
  0
VERTEX
  8
Layer0
10
0.0
 20
 0.0
 30
0.0
 70
     128
 71
-449
 72
450
 73
-451
  0
VERTEX
  8
Layer0
10
0.0
 20
 0.0
 30
0.0
 70
     128
 71
-449
 72
451
 73
-452
  0
VERTEX
  8
Layer0
10
0.0
 20
 0.0
 30
0.0
 70
     128
 71
-449
 72
-452
 73
453
  0
VERTEX
  8
Layer0
10
0.0
 20
 0.0
 30
0.0
 70
     128
 71
-453
 72
452
 73
-454
  0
VERTEX
  8
Layer0
10
0.0
 20
 0.0
 30
0.0
 70
     128
 71
-453
 72
454
 73
-455
  0
VERTEX
  8
Layer0
10
0.0
 20
 0.0
 30
0.0
 70
     128
 71
-453
 72
455
 73
-456
  0
VERTEX
  8
Layer0
10
0.0
 20
 0.0
 30
0.0
 70
     128
 71
-453
 72
456
 73
-457
  0
VERTEX
  8
Layer0
10
0.0
 20
 0.0
 30
0.0
 70
     128
 71
-453
 72
457
 73
-458
  0
VERTEX
  8
Layer0
10
0.0
 20
 0.0
 30
0.0
 70
     128
 71
-453
 72
-458
 73
459
  0
VERTEX
  8
Layer0
10
0.0
 20
 0.0
 30
0.0
 70
     128
 71
-459
 72
458
 73
-460
  0
VERTEX
  8
Layer0
10
0.0
 20
 0.0
 30
0.0
 70
     128
 71
-459
 72
-460
 73
461
  0
VERTEX
  8
Layer0
10
0.0
 20
 0.0
 30
0.0
 70
     128
 71
-461
 72
-460
 73
462
  0
VERTEX
  8
Layer0
10
0.0
 20
 0.0
 30
0.0
 70
     128
 71
-462
 72
460
 73
-463
  0
VERTEX
  8
Layer0
10
0.0
 20
 0.0
 30
0.0
 70
     128
 71
-462
 72
-463
 73
464
  0
VERTEX
  8
Layer0
10
0.0
 20
 0.0
 30
0.0
 70
     128
 71
-464
 72
-463
 73
435
  0
VERTEX
  8
Layer0
10
0.0
 20
 0.0
 30
0.0
 70
     128
 71
-465
 72
-326
 73
325
  0
VERTEX
  8
Layer0
10
0.0
 20
 0.0
 30
0.0
 70
     128
 71
-326
 72
-465
 73
466
  0
VERTEX
  8
Layer0
10
0.0
 20
 0.0
 30
0.0
 70
     128
 71
-466
 72
-465
 73
467
  0
VERTEX
  8
Layer0
10
0.0
 20
 0.0
 30
0.0
 70
     128
 71
-467
 72
465
 73
-468
  0
VERTEX
  8
Layer0
10
0.0
 20
 0.0
 30
0.0
 70
     128
 71
-467
 72
-468
 73
469
  0
VERTEX
  8
Layer0
10
0.0
 20
 0.0
 30
0.0
 70
     128
 71
-469
 72
468
 73
-470
  0
VERTEX
  8
Layer0
10
0.0
 20
 0.0
 30
0.0
 70
     128
 71
-469
 72
-470
 73
471
  0
VERTEX
  8
Layer0
10
0.0
 20
 0.0
 30
0.0
 70
     128
 71
-471
 72
470
 73
-472
  0
VERTEX
  8
Layer0
10
0.0
 20
 0.0
 30
0.0
 70
     128
 71
-471
 72
472
 73
-473
  0
VERTEX
  8
Layer0
10
0.0
 20
 0.0
 30
0.0
 70
     128
 71
-471
 72
-473
 73
474
  0
VERTEX
  8
Layer0
10
0.0
 20
 0.0
 30
0.0
 70
     128
 71
-474
 72
473
 73
-475
  0
VERTEX
  8
Layer0
10
0.0
 20
 0.0
 30
0.0
 70
     128
 71
-474
 72
-475
 73
476
  0
VERTEX
  8
Layer0
10
0.0
 20
 0.0
 30
0.0
 70
     128
 71
-476
 72
475
 73
-477
  0
VERTEX
  8
Layer0
10
0.0
 20
 0.0
 30
0.0
 70
     128
 71
-476
 72
477
 73
-478
  0
VERTEX
  8
Layer0
10
0.0
 20
 0.0
 30
0.0
 70
     128
 71
-476
 72
478
 73
-479
  0
VERTEX
  8
Layer0
10
0.0
 20
 0.0
 30
0.0
 70
     128
 71
-476
 72
479
 73
-38
  0
VERTEX
  8
Layer0
10
0.0
 20
 0.0
 30
0.0
 70
     128
 71
-476
 72
-38
 73
480
  0
VERTEX
  8
Layer0
10
0.0
 20
 0.0
 30
0.0
 70
     128
 71
-480
 72
-38
 73
-39
  0
VERTEX
  8
Layer0
10
0.0
 20
 0.0
 30
0.0
 70
     128
 71
-480
 72
39
 73
-481
  0
VERTEX
  8
Layer0
10
0.0
 20
 0.0
 30
0.0
 70
     128
 71
-480
 72
-481
 73
482
  0
VERTEX
  8
Layer0
10
0.0
 20
 0.0
 30
0.0
 70
     128
 71
-482
 72
481
 73
-50
  0
VERTEX
  8
Layer0
10
0.0
 20
 0.0
 30
0.0
 70
     128
 71
-482
 72
-50
 73
-483
  0
VERTEX
  8
Layer0
10
0.0
 20
 0.0
 30
0.0
 70
     128
 71
-482
 72
-483
 73
484
  0
VERTEX
  8
Layer0
10
0.0
 20
 0.0
 30
0.0
 70
     128
 71
-483
 72
-50
 73
80
  0
VERTEX
  8
Layer0
10
0.0
 20
 0.0
 30
0.0
 70
     128
 71
-80
 72
-50
 73
-49
  0
VERTEX
  8
Layer0
10
0.0
 20
 0.0
 30
0.0
 70
     128
 71
-484
 72
483
 73
-485
  0
VERTEX
  8
Layer0
10
0.0
 20
 0.0
 30
0.0
 70
     128
 71
-484
 72
485
 73
-486
  0
VERTEX
  8
Layer0
10
0.0
 20
 0.0
 30
0.0
 70
     128
 71
-484
 72
-486
 73
487
  0
VERTEX
  8
Layer0
10
0.0
 20
 0.0
 30
0.0
 70
     128
 71
-487
 72
486
 73
-488
  0
VERTEX
  8
Layer0
10
0.0
 20
 0.0
 30
0.0
 70
     128
 71
-487
 72
488
 73
-489
  0
VERTEX
  8
Layer0
10
0.0
 20
 0.0
 30
0.0
 70
     128
 71
-487
 72
489
 73
-490
  0
VERTEX
  8
Layer0
10
0.0
 20
 0.0
 30
0.0
 70
     128
 71
-487
 72
490
 73
-491
  0
VERTEX
  8
Layer0
10
0.0
 20
 0.0
 30
0.0
 70
     128
 71
-487
 72
-491
 73
492
  0
VERTEX
  8
Layer0
10
0.0
 20
 0.0
 30
0.0
 70
     128
 71
-492
 72
491
 73
-493
  0
VERTEX
  8
Layer0
10
0.0
 20
 0.0
 30
0.0
 70
     128
 71
-492
 72
493
 73
-494
  0
VERTEX
  8
Layer0
10
0.0
 20
 0.0
 30
0.0
 70
     128
 71
-492
 72
494
 73
-495
  0
VERTEX
  8
Layer0
10
0.0
 20
 0.0
 30
0.0
 70
     128
 71
-492
 72
495
 73
-496
  0
VERTEX
  8
Layer0
10
0.0
 20
 0.0
 30
0.0
 70
     128
 71
-492
 72
-496
 73
497
  0
VERTEX
  8
Layer0
10
0.0
 20
 0.0
 30
0.0
 70
     128
 71
-497
 72
496
 73
-498
  0
VERTEX
  8
Layer0
10
0.0
 20
 0.0
 30
0.0
 70
     128
 71
-497
 72
498
 73
-78
  0
VERTEX
  8
Layer0
10
0.0
 20
 0.0
 30
0.0
 70
     128
 71
-497
 72
-78
 73
-74
  0
VERTEX
  8
Layer0
10
0.0
 20
 0.0
 30
0.0
 70
     128
 71
-497
 72
-74
 73
-173
  0
VERTEX
  8
Layer0
10
0.0
 20
 0.0
 30
0.0
 70
     128
 71
-497
 72
173
 73
-499
  0
VERTEX
  8
Layer0
10
0.0
 20
 0.0
 30
0.0
 70
     128
 71
-497
 72
499
 73
-500
  0
VERTEX
  8
Layer0
10
0.0
 20
 0.0
 30
0.0
 70
     128
 71
-497
 72
500
 73
-501
  0
VERTEX
  8
Layer0
10
0.0
 20
 0.0
 30
0.0
 70
     128
 71
-497
 72
-501
 73
-502
  0
VERTEX
  8
Layer0
10
0.0
 20
 0.0
 30
0.0
 70
     128
 71
-497
 72
502
 73
-503
  0
VERTEX
  8
Layer0
10
0.0
 20
 0.0
 30
0.0
 70
     128
 71
-497
 72
503
 73
-504
  0
VERTEX
  8
Layer0
10
0.0
 20
 0.0
 30
0.0
 70
     128
 71
-497
 72
-504
 73
505
  0
VERTEX
  8
Layer0
10
0.0
 20
 0.0
 30
0.0
 70
     128
 71
-502
 72
501
 73
-506
  0
VERTEX
  8
Layer0
10
0.0
 20
 0.0
 30
0.0
 70
     128
 71
-502
 72
506
 73
-507
  0
VERTEX
  8
Layer0
10
0.0
 20
 0.0
 30
0.0
 70
     128
 71
-502
 72
-507
 73
508
  0
VERTEX
  8
Layer0
10
0.0
 20
 0.0
 30
0.0
 70
     128
 71
-508
 72
507
 73
-509
  0
VERTEX
  8
Layer0
10
0.0
 20
 0.0
 30
0.0
 70
     128
 71
-508
 72
509
 73
-510
  0
VERTEX
  8
Layer0
10
0.0
 20
 0.0
 30
0.0
 70
     128
 71
-508
 72
510
 73
-511
  0
VERTEX
  8
Layer0
10
0.0
 20
 0.0
 30
0.0
 70
     128
 71
-508
 72
511
 73
-512
  0
VERTEX
  8
Layer0
10
0.0
 20
 0.0
 30
0.0
 70
     128
 71
-508
 72
512
 73
-513
  0
VERTEX
  8
Layer0
10
0.0
 20
 0.0
 30
0.0
 70
     128
 71
-508
 72
513
 73
-514
  0
VERTEX
  8
Layer0
10
0.0
 20
 0.0
 30
0.0
 70
     128
 71
-508
 72
514
 73
-188
  0
VERTEX
  8
Layer0
10
0.0
 20
 0.0
 30
0.0
 70
     128
 71
-508
 72
-188
 73
192
  0
VERTEX
  8
Layer0
10
0.0
 20
 0.0
 30
0.0
 70
     128
 71
-505
 72
504
 73
-515
  0
VERTEX
  8
Layer0
10
0.0
 20
 0.0
 30
0.0
 70
     128
 71
-505
 72
515
 73
-516
  0
VERTEX
  8
Layer0
10
0.0
 20
 0.0
 30
0.0
 70
     128
 71
-505
 72
516
 73
-517
  0
VERTEX
  8
Layer0
10
0.0
 20
 0.0
 30
0.0
 70
     128
 71
-505
 72
517
 73
-518
  0
VERTEX
  8
Layer0
10
0.0
 20
 0.0
 30
0.0
 70
     128
 71
-505
 72
518
 73
-519
  0
VERTEX
  8
Layer0
10
0.0
 20
 0.0
 30
0.0
 70
     128
 71
-505
 72
519
 73
-520
  0
VERTEX
  8
Layer0
10
0.0
 20
 0.0
 30
0.0
 70
     128
 71
-505
 72
520
 73
-521
  0
VERTEX
  8
Layer0
10
0.0
 20
 0.0
 30
0.0
 70
     128
 71
-505
 72
521
 73
-522
  0
VERTEX
  8
Layer0
10
0.0
 20
 0.0
 30
0.0
 70
     128
 71
-505
 72
522
 73
-388
  0
VERTEX
  8
Layer0
10
0.0
 20
 0.0
 30
0.0
 70
     128
 71
-505
 72
-388
 73
-385
  0
VERTEX
  8
Layer0
10
0.0
 20
 0.0
 30
0.0
 70
     128
 71
-505
 72
385
 73
-523
  0
VERTEX
  8
Layer0
10
0.0
 20
 0.0
 30
0.0
 70
     128
 71
-505
 72
523
 73
-524
  0
VERTEX
  8
Layer0
10
0.0
 20
 0.0
 30
0.0
 70
     128
 71
-505
 72
524
 73
-525
  0
VERTEX
  8
Layer0
10
0.0
 20
 0.0
 30
0.0
 70
     128
 71
-505
 72
525
 73
-526
  0
VERTEX
  8
Layer0
10
0.0
 20
 0.0
 30
0.0
 70
     128
 71
-505
 72
526
 73
-527
  0
VERTEX
  8
Layer0
10
0.0
 20
 0.0
 30
0.0
 70
     128
 71
-505
 72
527
 73
-528
  0
VERTEX
  8
Layer0
10
0.0
 20
 0.0
 30
0.0
 70
     128
 71
-505
 72
528
 73
-529
  0
VERTEX
  8
Layer0
10
0.0
 20
 0.0
 30
0.0
 70
     128
 71
-505
 72
529
 73
-530
  0
VERTEX
  8
Layer0
10
0.0
 20
 0.0
 30
0.0
 70
     128
 71
-505
 72
530
 73
-531
  0
VERTEX
  8
Layer0
10
0.0
 20
 0.0
 30
0.0
 70
     128
 71
-505
 72
531
 73
-532
  0
VERTEX
  8
Layer0
10
0.0
 20
 0.0
 30
0.0
 70
     128
 71
-505
 72
-532
 73
-533
  0
VERTEX
  8
Layer0
10
0.0
 20
 0.0
 30
0.0
 70
     128
 71
-505
 72
-533
 73
534
  0
VERTEX
  8
Layer0
10
0.0
 20
 0.0
 30
0.0
 70
     128
 71
-533
 72
532
 73
-535
  0
VERTEX
  8
Layer0
10
0.0
 20
 0.0
 30
0.0
 70
     128
 71
-533
 72
535
 73
-401
  0
VERTEX
  8
Layer0
10
0.0
 20
 0.0
 30
0.0
 70
     128
 71
-533
 72
-401
 73
-399
  0
VERTEX
  8
Layer0
10
0.0
 20
 0.0
 30
0.0
 70
     128
 71
-533
 72
-399
 73
411
  0
VERTEX
  8
Layer0
10
0.0
 20
 0.0
 30
0.0
 70
     128
 71
-411
 72
-399
 73
-412
  0
VERTEX
  8
Layer0
10
0.0
 20
 0.0
 30
0.0
 70
     128
 71
-534
 72
533
 73
-536
  0
VERTEX
  8
Layer0
10
0.0
 20
 0.0
 30
0.0
 70
     128
 71
-534
 72
536
 73
-537
  0
VERTEX
  8
Layer0
10
0.0
 20
 0.0
 30
0.0
 70
     128
 71
-534
 72
537
 73
-538
  0
VERTEX
  8
Layer0
10
0.0
 20
 0.0
 30
0.0
 70
     128
 71
-534
 72
-538
 73
539
  0
VERTEX
  8
Layer0
10
0.0
 20
 0.0
 30
0.0
 70
     128
 71
-539
 72
538
 73
-540
  0
VERTEX
  8
Layer0
10
0.0
 20
 0.0
 30
0.0
 70
     128
 71
-539
 72
540
 73
-541
  0
VERTEX
  8
Layer0
10
0.0
 20
 0.0
 30
0.0
 70
     128
 71
-539
 72
541
 73
-542
  0
VERTEX
  8
Layer0
10
0.0
 20
 0.0
 30
0.0
 70
     128
 71
-539
 72
542
 73
-543
  0
VERTEX
  8
Layer0
10
0.0
 20
 0.0
 30
0.0
 70
     128
 71
-539
 72
-543
 73
544
  0
VERTEX
  8
Layer0
10
0.0
 20
 0.0
 30
0.0
 70
     128
 71
-544
 72
543
 73
-545
  0
VERTEX
  8
Layer0
10
0.0
 20
 0.0
 30
0.0
 70
     128
 71
-544
 72
545
 73
-546
  0
VERTEX
  8
Layer0
10
0.0
 20
 0.0
 30
0.0
 70
     128
 71
-544
 72
546
 73
-547
  0
VERTEX
  8
Layer0
10
0.0
 20
 0.0
 30
0.0
 70
     128
 71
-544
 72
-547
 73
548
  0
VERTEX
  8
Layer0
10
0.0
 20
 0.0
 30
0.0
 70
     128
 71
-548
 72
547
 73
-549
  0
VERTEX
  8
Layer0
10
0.0
 20
 0.0
 30
0.0
 70
     128
 71
-548
 72
549
 73
-437
  0
VERTEX
  8
Layer0
10
0.0
 20
 0.0
 30
0.0
 70
     128
 71
-548
 72
-437
 73
-435
  0
VERTEX
  8
Layer0
10
0.0
 20
 0.0
 30
0.0
 70
     128
 71
-548
 72
-435
 73
-463
  0
VERTEX
  8
Layer0
10
0.0
 20
 0.0
 30
0.0
 70
     128
 71
-548
 72
463
 73
-550
  0
VERTEX
  8
Layer0
10
0.0
 20
 0.0
 30
0.0
 70
     128
 71
-548
 72
-550
 73
551
  0
VERTEX
  8
Layer0
10
0.0
 20
 0.0
 30
0.0
 70
     128
 71
-551
 72
550
 73
-552
  0
VERTEX
  8
Layer0
10
0.0
 20
 0.0
 30
0.0
 70
     128
 71
-551
 72
-552
 73
553
  0
VERTEX
  8
Layer0
10
0.0
 20
 0.0
 30
0.0
 70
     128
 71
-553
 72
552
 73
-554
  0
VERTEX
  8
Layer0
10
0.0
 20
 0.0
 30
0.0
 70
     128
 71
-553
 72
-554
 73
-555
  0
VERTEX
  8
Layer0
10
0.0
 20
 0.0
 30
0.0
 70
     128
 71
-553
 72
-555
 73
556
  0
VERTEX
  8
Layer0
10
0.0
 20
 0.0
 30
0.0
 70
     128
 71
-556
 72
555
 73
-557
  0
VERTEX
  8
Layer0
10
0.0
 20
 0.0
 30
0.0
 70
     128
 71
-556
 72
557
 73
-558
  0
VERTEX
  8
Layer0
10
0.0
 20
 0.0
 30
0.0
 70
     128
 71
-556
 72
558
 73
-559
  0
VERTEX
  8
Layer0
10
0.0
 20
 0.0
 30
0.0
 70
     128
 71
-556
 72
559
 73
-560
  0
VERTEX
  8
Layer0
10
0.0
 20
 0.0
 30
0.0
 70
     128
 71
-556
 72
560
 73
-561
  0
VERTEX
  8
Layer0
10
0.0
 20
 0.0
 30
0.0
 70
     128
 71
-556
 72
-561
 73
562
  0
VERTEX
  8
Layer0
10
0.0
 20
 0.0
 30
0.0
 70
     128
 71
-562
 72
561
 73
-563
  0
VERTEX
  8
Layer0
10
0.0
 20
 0.0
 30
0.0
 70
     128
 71
-562
 72
-563
 73
564
  0
VERTEX
  8
Layer0
10
0.0
 20
 0.0
 30
0.0
 70
     128
 71
-564
 72
563
 73
-565
  0
VERTEX
  8
Layer0
10
0.0
 20
 0.0
 30
0.0
 70
     128
 71
-564
 72
565
 73
-566
  0
VERTEX
  8
Layer0
10
0.0
 20
 0.0
 30
0.0
 70
     128
 71
-564
 72
-566
 73
567
  0
VERTEX
  8
Layer0
10
0.0
 20
 0.0
 30
0.0
 70
     128
 71
-567
 72
566
 73
-568
  0
VERTEX
  8
Layer0
10
0.0
 20
 0.0
 30
0.0
 70
     128
 71
-567
 72
-568
 73
569
  0
VERTEX
  8
Layer0
10
0.0
 20
 0.0
 30
0.0
 70
     128
 71
-569
 72
-568
 73
570
  0
VERTEX
  8
Layer0
10
0.0
 20
 0.0
 30
0.0
 70
     128
 71
-570
 72
568
 73
-345
  0
VERTEX
  8
Layer0
10
0.0
 20
 0.0
 30
0.0
 70
     128
 71
-570
 72
-345
 73
343
  0
VERTEX
  8
Layer0
10
0.0
 20
 0.0
 30
0.0
 70
     128
 71
-571
 72
-555
 73
554
  0
VERTEX
  8
Layer0
10
0.0
 20
 0.0
 30
0.0
 70
     128
 71
-555
 72
-571
 73
572
  0
VERTEX
  8
Layer0
10
0.0
 20
 0.0
 30
0.0
 70
     128
 71
-572
 72
-571
 73
573
  0
VERTEX
  8
Layer0
10
0.0
 20
 0.0
 30
0.0
 70
     128
 71
-573
 72
-571
 73
574
  0
VERTEX
  8
Layer0
10
0.0
 20
 0.0
 30
0.0
 70
     128
 71
-574
 72
-571
 73
575
  0
VERTEX
  8
Layer0
10
0.0
 20
 0.0
 30
0.0
 70
     128
 71
-575
 72
571
 73
-576
  0
VERTEX
  8
Layer0
10
0.0
 20
 0.0
 30
0.0
 70
     128
 71
-575
 72
-576
 73
577
  0
VERTEX
  8
Layer0
10
0.0
 20
 0.0
 30
0.0
 70
     128
 71
-577
 72
-576
 73
578
  0
VERTEX
  8
Layer0
10
0.0
 20
 0.0
 30
0.0
 70
     128
 71
-578
 72
576
 73
-579
  0
VERTEX
  8
Layer0
10
0.0
 20
 0.0
 30
0.0
 70
     128
 71
-578
 72
-579
 73
580
  0
VERTEX
  8
Layer0
10
0.0
 20
 0.0
 30
0.0
 70
     128
 71
-580
 72
-579
 73
581
  0
VERTEX
  8
Layer0
10
0.0
 20
 0.0
 30
0.0
 70
     128
 71
-581
 72
579
 73
-582
  0
VERTEX
  8
Layer0
10
0.0
 20
 0.0
 30
0.0
 70
     128
 71
-581
 72
-582
 73
583
  0
VERTEX
  8
Layer0
10
0.0
 20
 0.0
 30
0.0
 70
     128
 71
-583
 72
-582
 73
584
  0
VERTEX
  8
Layer0
10
0.0
 20
 0.0
 30
0.0
 70
     128
 71
-584
 72
582
 73
-348
  0
VERTEX
  8
Layer0
10
0.0
 20
 0.0
 30
0.0
 70
     128
 71
-584
 72
-348
 73
585
  0
VERTEX
  8
Layer0
10
0.0
 20
 0.0
 30
0.0
 70
     128
 71
-585
 72
-348
 73
347
  0
VERTEX
  8
Layer0
10
0.0
 20
 0.0
 30
0.0
 70
     128
 71
-191
 72
586
 73
-193
  0
VERTEX
  8
Layer0
10
0.0
 20
 0.0
 30
0.0
 70
     128
 71
-586
 72
191
 73
-587
  0
VERTEX
  8
Layer0
10
0.0
 20
 0.0
 30
0.0
 70
     128
 71
-586
 72
587
 73
-588
  0
VERTEX
  8
Layer0
10
0.0
 20
 0.0
 30
0.0
 70
     128
 71
-586
 72
588
 73
-589
  0
VERTEX
  8
Layer0
10
0.0
 20
 0.0
 30
0.0
 70
     128
 71
-586
 72
-589
 73
590
  0
VERTEX
  8
Layer0
10
0.0
 20
 0.0
 30
0.0
 70
     128
 71
-590
 72
589
 73
-591
  0
VERTEX
  8
Layer0
10
0.0
 20
 0.0
 30
0.0
 70
     128
 71
-590
 72
591
 73
-592
  0
VERTEX
  8
Layer0
10
0.0
 20
 0.0
 30
0.0
 70
     128
 71
-590
 72
-592
 73
593
  0
VERTEX
  8
Layer0
10
0.0
 20
 0.0
 30
0.0
 70
     128
 71
-593
 72
592
 73
-594
  0
VERTEX
  8
Layer0
10
0.0
 20
 0.0
 30
0.0
 70
     128
 71
-593
 72
594
 73
-595
  0
VERTEX
  8
Layer0
10
0.0
 20
 0.0
 30
0.0
 70
     128
 71
-593
 72
-595
 73
596
  0
VERTEX
  8
Layer0
10
0.0
 20
 0.0
 30
0.0
 70
     128
 71
-596
 72
-595
 73
597
  0
VERTEX
  8
Layer0
10
0.0
 20
 0.0
 30
0.0
 70
     128
 71
-597
 72
-595
 73
598
  0
VERTEX
  8
Layer0
10
0.0
 20
 0.0
 30
0.0
 70
     128
 71
-598
 72
-595
 73
599
  0
VERTEX
  8
Layer0
10
0.0
 20
 0.0
 30
0.0
 70
     128
 71
-599
 72
-595
 73
600
  0
VERTEX
  8
Layer0
10
0.0
 20
 0.0
 30
0.0
 70
     128
 71
-600
 72
595
 73
-601
  0
VERTEX
  8
Layer0
10
0.0
 20
 0.0
 30
0.0
 70
     128
 71
-600
 72
601
 73
-602
  0
VERTEX
  8
Layer0
10
0.0
 20
 0.0
 30
0.0
 70
     128
 71
-600
 72
-602
 73
603
  0
VERTEX
  8
Layer0
10
0.0
 20
 0.0
 30
0.0
 70
     128
 71
-603
 72
602
 73
-604
  0
VERTEX
  8
Layer0
10
0.0
 20
 0.0
 30
0.0
 70
     128
 71
-603
 72
604
 73
-605
  0
VERTEX
  8
Layer0
10
0.0
 20
 0.0
 30
0.0
 70
     128
 71
-603
 72
-605
 73
386
  0
VERTEX
  8
Layer0
10
0.0
 20
 0.0
 30
0.0
 70
     128
 71
-386
 72
605
 73
-606
  0
VERTEX
  8
Layer0
10
0.0
 20
 0.0
 30
0.0
 70
     128
 71
-386
 72
606
 73
-382
  0
SEQEND
  0
POLYLINE
 8
Layer0
 66
     1
10
0.0
 20
 0.0
 30
0.0
70
    64
71
24
72
   1
  0
VERTEX
  8
Layer0
10
49.53747595856545
20
169.89005647796412
30
0.0
 70
     192
  0
VERTEX
  8
Layer0
10
49.53747595856527
20
168.48444339172494
30
0.0
 70
     192
  0
VERTEX
  8
Layer0
10
49.444949721842804
20
169.18724993484454
30
0.0
 70
     192
  0
VERTEX
  8
Layer0
10
49.80874915860694
20
167.8295319530759
30
0.0
 70
     192
  0
VERTEX
  8
Layer0
10
49.80874915860965
20
170.5449679166132
30
0.0
 70
     192
  0
VERTEX
  8
Layer0
10
50.24028250168487
20
167.2671467511498
30
0.0
 70
     192
  0
VERTEX
  8
Layer0
10
50.24028250168543
20
171.10735311853955
30
0.0
 70
     192
  0
VERTEX
  8
Layer0
10
50.80266770361129
20
166.8356134080716
30
0.0
 70
     192
  0
VERTEX
  8
Layer0
10
50.80266770361181
20
171.53888646161755
30
0.0
 70
     192
  0
VERTEX
  8
Layer0
10
51.457579142260315
20
166.56434020802956
30
0.0
 70
     192
  0
VERTEX
  8
Layer0
10
51.457579142260876
20
171.81015966165887
30
0.0
 70
     192
  0
VERTEX
  8
Layer0
10
52.160385685379914
20
166.4718139713071
30
0.0
 70
     192
  0
VERTEX
  8
Layer0
10
52.160385685380454
20
171.90268589838132
30
0.0
 70
     192
  0
VERTEX
  8
Layer0
10
52.86319222849935
20
166.56434020802956
30
0.0
 70
     192
  0
VERTEX
  8
Layer0
10
52.86319222849987
20
171.81015966165887
30
0.0
 70
     192
  0
VERTEX
  8
Layer0
10
53.5181036671484
20
166.83561340807125
30
0.0
 70
     192
  0
VERTEX
  8
Layer0
10
53.51810366714892
20
171.53888646161718
30
0.0
 70
     192
  0
VERTEX
  8
Layer0
10
54.08048886907478
20
167.2671467511494
30
0.0
 70
     192
  0
VERTEX
  8
Layer0
10
54.080488869075346
20
171.10735311853912
30
0.0
 70
     192
  0
VERTEX
  8
Layer0
10
54.512022212152885
20
167.82953195307562
30
0.0
 70
     192
  0
VERTEX
  8
Layer0
10
54.51202221215559
20
170.5449679166129
30
0.0
 70
     192
  0
VERTEX
  8
Layer0
10
54.783295412194555
20
168.48444339172465
30
0.0
 70
     192
  0
VERTEX
  8
Layer0
10
54.78329541219474
20
169.89005647796387
30
0.0
 70
     192
  0
VERTEX
  8
Layer0
10
54.875821648917025
20
169.18724993484426
30
0.0
 70
     192
  0
VERTEX
  8
Layer0
10
0.0
 20
 0.0
 30
0.0
 70
     128
 71
-1
 72
2
 73
3
  0
VERTEX
  8
Layer0
10
0.0
 20
 0.0
 30
0.0
 70
     128
 71
-2
 72
-1
 73
4
  0
VERTEX
  8
Layer0
10
0.0
 20
 0.0
 30
0.0
 70
     128
 71
-4
 72
1
 73
-5
  0
VERTEX
  8
Layer0
10
0.0
 20
 0.0
 30
0.0
 70
     128
 71
-4
 72
-5
 73
6
  0
VERTEX
  8
Layer0
10
0.0
 20
 0.0
 30
0.0
 70
     128
 71
-6
 72
5
 73
-7
  0
VERTEX
  8
Layer0
10
0.0
 20
 0.0
 30
0.0
 70
     128
 71
-6
 72
-7
 73
8
  0
VERTEX
  8
Layer0
10
0.0
 20
 0.0
 30
0.0
 70
     128
 71
-8
 72
7
 73
-9
  0
VERTEX
  8
Layer0
10
0.0
 20
 0.0
 30
0.0
 70
     128
 71
-8
 72
-9
 73
10
  0
VERTEX
  8
Layer0
10
0.0
 20
 0.0
 30
0.0
 70
     128
 71
-10
 72
9
 73
-11
  0
VERTEX
  8
Layer0
10
0.0
 20
 0.0
 30
0.0
 70
     128
 71
-10
 72
-11
 73
12
  0
VERTEX
  8
Layer0
10
0.0
 20
 0.0
 30
0.0
 70
     128
 71
-12
 72
11
 73
-13
  0
VERTEX
  8
Layer0
10
0.0
 20
 0.0
 30
0.0
 70
     128
 71
-12
 72
-13
 73
14
  0
VERTEX
  8
Layer0
10
0.0
 20
 0.0
 30
0.0
 70
     128
 71
-14
 72
13
 73
-15
  0
VERTEX
  8
Layer0
10
0.0
 20
 0.0
 30
0.0
 70
     128
 71
-14
 72
-15
 73
16
  0
VERTEX
  8
Layer0
10
0.0
 20
 0.0
 30
0.0
 70
     128
 71
-16
 72
15
 73
-17
  0
VERTEX
  8
Layer0
10
0.0
 20
 0.0
 30
0.0
 70
     128
 71
-16
 72
-17
 73
18
  0
VERTEX
  8
Layer0
10
0.0
 20
 0.0
 30
0.0
 70
     128
 71
-18
 72
17
 73
-19
  0
VERTEX
  8
Layer0
10
0.0
 20
 0.0
 30
0.0
 70
     128
 71
-18
 72
-19
 73
20
  0
VERTEX
  8
Layer0
10
0.0
 20
 0.0
 30
0.0
 70
     128
 71
-20
 72
19
 73
-21
  0
VERTEX
  8
Layer0
10
0.0
 20
 0.0
 30
0.0
 70
     128
 71
-20
 72
-21
 73
22
  0
VERTEX
  8
Layer0
10
0.0
 20
 0.0
 30
0.0
 70
     128
 71
-22
 72
21
 73
-23
  0
VERTEX
  8
Layer0
10
0.0
 20
 0.0
 30
0.0
 70
     128
 71
-22
 72
23
 73
24
  0
SEQEND
  0
POLYLINE
 8
Layer0
 66
     1
10
0.0
 20
 0.0
 30
0.0
70
    64
71
52
72
   1
  0
VERTEX
  8
Layer0
10
34.29555270187819
20
68.61675084261391
30
0.0
 70
     192
  0
VERTEX
  8
Layer0
10
34.16999999983579
20
41.094816863147024
30
0.0
 70
     192
  0
VERTEX
  8
Layer0
10
34.16999999983507
20
66.70118677793353
30
0.0
 70
     192
  0
VERTEX
  8
Layer0
10
34.29555270187855
20
39.179252798465974
30
0.0
 70
     192
  0
VERTEX
  8
Layer0
10
34.71070446765424
20
70.70385970992524
30
0.0
 70
     192
  0
VERTEX
  8
Layer0
10
34.710704467654956
20
37.092143931153736
30
0.0
 70
     192
  0
VERTEX
  8
Layer0
10
35.39472692572256
20
72.71892489236822
30
0.0
 70
     192
  0
VERTEX
  8
Layer0
10
35.39472692572256
20
35.07707874871111
30
0.0
 70
     192
  0
VERTEX
  8
Layer0
10
36.335916262176625
20
74.62746806598815
30
0.0
 70
     192
  0
VERTEX
  8
Layer0
10
36.33591626217897
20
33.1685355750899
30
0.0
 70
     192
  0
VERTEX
  8
Layer0
10
37.51816846652439
20
76.39683352793976
30
0.0
 70
     192
  0
VERTEX
  8
Layer0
10
37.51816846652579
20
31.39917011313845
30
0.0
 70
     192
  0
VERTEX
  8
Layer0
10
38.921254875768334
20
77.99674694460681
30
0.0
 70
     192
  0
VERTEX
  8
Layer0
10
38.92125487576852
20
29.799256696472053
30
0.0
 70
     192
  0
VERTEX
  8
Layer0
10
40.52116829243428
20
79.3998333538496
30
0.0
 70
     192
  0
VERTEX
  8
Layer0
10
40.521168292434645
20
28.396170287229307
30
0.0
 70
     192
  0
VERTEX
  8
Layer0
10
42.290533754385734
20
80.58208555819809
30
0.0
 70
     192
  0
VERTEX
  8
Layer0
10
42.29053375438677
20
27.213918082880657
30
0.0
 70
     192
  0
VERTEX
  8
Layer0
10
44.19907692800787
20
81.52327489465318
30
0.0
 70
     192
  0
VERTEX
  8
Layer0
10
44.199076928008225
20
26.272728746426473
30
0.0
 70
     192
  0
VERTEX
  8
Layer0
10
46.2141421104506
20
82.20729735272042
30
0.0
 70
     192
  0
VERTEX
  8
Layer0
10
46.21414211045076
20
25.588706288358562
30
0.0
 70
     192
  0
VERTEX
  8
Layer0
10
48.301250977760134
20
82.62244911849596
30
0.0
 70
     192
  0
VERTEX
  8
Layer0
10
48.30125097776178
20
25.173554522583125
30
0.0
 70
     192
  0
VERTEX
  8
Layer0
10
50.216815042443216
20
82.74800182053971
30
0.0
 70
     192
  0
VERTEX
  8
Layer0
10
50.216815042441795
20
25.04800182053962
30
0.0
 70
     192
  0
VERTEX
  8
Layer0
10
89.82318495723031
20
25.04800182054025
30
0.0
 70
     192
  0
VERTEX
  8
Layer0
10
89.82318495723028
20
82.74800182054052
30
0.0
 70
     192
  0
VERTEX
  8
Layer0
10
91.7387490219103
20
82.62244911849677
30
0.0
 70
     192
  0
VERTEX
  8
Layer0
10
91.73874902191105
20
25.173554522583867
30
0.0
 70
     192
  0
VERTEX
  8
Layer0
10
93.82585788922057
20
82.2072973527215
30
0.0
 70
     192
  0
VERTEX
  8
Layer0
10
93.82585788922148
20
25.588706288359756
30
0.0
 70
     192
  0
VERTEX
  8
Layer0
10
95.84092307166293
20
81.52327489465404
30
0.0
 70
     192
  0
VERTEX
  8
Layer0
10
95.84092307166347
20
26.27272874642724
30
0.0
 70
     192
  0
VERTEX
  8
Layer0
10
97.74946624528472
20
80.58208555819927
30
0.0
 70
     192
  0
VERTEX
  8
Layer0
10
97.74946624528492
20
27.213918082881673
30
0.0
 70
     192
  0
VERTEX
  8
Layer0
10
99.51883170723637
20
79.39983335385078
30
0.0
 70
     192
  0
VERTEX
  8
Layer0
10
99.51883170723636
20
28.396170287230095
30
0.0
 70
     192
  0
VERTEX
  8
Layer0
10
101.11874512390321
20
29.799256696473044
30
0.0
 70
     192
  0
VERTEX
  8
Layer0
10
101.11874512390268
20
77.99674694460816
30
0.0
 70
     192
  0
VERTEX
  8
Layer0
10
102.52183153314589
20
76.39683352794152
30
0.0
 70
     192
  0
VERTEX
  8
Layer0
10
102.52183153314661
20
31.399170113139984
30
0.0
 70
     192
  0
VERTEX
  8
Layer0
10
103.70408373749399
20
74.62746806598997
30
0.0
 70
     192
  0
VERTEX
  8
Layer0
10
103.70408373749616
20
33.168535575091525
30
0.0
 70
     192
  0
VERTEX
  8
Layer0
10
104.64527307394933
20
72.7189248923671
30
0.0
 70
     192
  0
VERTEX
  8
Layer0
10
104.64527307394899
20
35.07707874871247
30
0.0
 70
     192
  0
VERTEX
  8
Layer0
10
105.32929553201656
20
37.09214393115543
30
0.0
 70
     192
  0
VERTEX
  8
Layer0
10
105.32929553201566
20
70.70385970992493
30
0.0
 70
     192
  0
VERTEX
  8
Layer0
10
105.74444729779171
20
68.61675084261603
30
0.0
 70
     192
  0
VERTEX
  8
Layer0
10
105.74444729779188
20
39.17925279846477
30
0.0
 70
     192
  0
VERTEX
  8
Layer0
10
105.8699999998352
20
66.70118677793606
30
0.0
 70
     192
  0
VERTEX
  8
Layer0
10
105.86999999983611
20
41.09481686314494
30
0.0
 70
     192
  0
VERTEX
  8
Layer0
10
0.0
 20
 0.0
 30
0.0
 70
     128
 71
-1
 72
2
 73
3
  0
VERTEX
  8
Layer0
10
0.0
 20
 0.0
 30
0.0
 70
     128
 71
-2
 72
-1
 73
4
  0
VERTEX
  8
Layer0
10
0.0
 20
 0.0
 30
0.0
 70
     128
 71
-4
 72
1
 73
-5
  0
VERTEX
  8
Layer0
10
0.0
 20
 0.0
 30
0.0
 70
     128
 71
-4
 72
-5
 73
6
  0
VERTEX
  8
Layer0
10
0.0
 20
 0.0
 30
0.0
 70
     128
 71
-6
 72
5
 73
-7
  0
VERTEX
  8
Layer0
10
0.0
 20
 0.0
 30
0.0
 70
     128
 71
-6
 72
-7
 73
8
  0
VERTEX
  8
Layer0
10
0.0
 20
 0.0
 30
0.0
 70
     128
 71
-8
 72
7
 73
-9
  0
VERTEX
  8
Layer0
10
0.0
 20
 0.0
 30
0.0
 70
     128
 71
-8
 72
-9
 73
10
  0
VERTEX
  8
Layer0
10
0.0
 20
 0.0
 30
0.0
 70
     128
 71
-10
 72
9
 73
-11
  0
VERTEX
  8
Layer0
10
0.0
 20
 0.0
 30
0.0
 70
     128
 71
-10
 72
-11
 73
12
  0
VERTEX
  8
Layer0
10
0.0
 20
 0.0
 30
0.0
 70
     128
 71
-12
 72
11
 73
-13
  0
VERTEX
  8
Layer0
10
0.0
 20
 0.0
 30
0.0
 70
     128
 71
-12
 72
-13
 73
14
  0
VERTEX
  8
Layer0
10
0.0
 20
 0.0
 30
0.0
 70
     128
 71
-14
 72
13
 73
-15
  0
VERTEX
  8
Layer0
10
0.0
 20
 0.0
 30
0.0
 70
     128
 71
-14
 72
-15
 73
16
  0
VERTEX
  8
Layer0
10
0.0
 20
 0.0
 30
0.0
 70
     128
 71
-16
 72
15
 73
-17
  0
VERTEX
  8
Layer0
10
0.0
 20
 0.0
 30
0.0
 70
     128
 71
-16
 72
-17
 73
18
  0
VERTEX
  8
Layer0
10
0.0
 20
 0.0
 30
0.0
 70
     128
 71
-18
 72
17
 73
-19
  0
VERTEX
  8
Layer0
10
0.0
 20
 0.0
 30
0.0
 70
     128
 71
-18
 72
-19
 73
20
  0
VERTEX
  8
Layer0
10
0.0
 20
 0.0
 30
0.0
 70
     128
 71
-20
 72
19
 73
-21
  0
VERTEX
  8
Layer0
10
0.0
 20
 0.0
 30
0.0
 70
     128
 71
-20
 72
-21
 73
22
  0
VERTEX
  8
Layer0
10
0.0
 20
 0.0
 30
0.0
 70
     128
 71
-22
 72
21
 73
-23
  0
VERTEX
  8
Layer0
10
0.0
 20
 0.0
 30
0.0
 70
     128
 71
-22
 72
-23
 73
24
  0
VERTEX
  8
Layer0
10
0.0
 20
 0.0
 30
0.0
 70
     128
 71
-24
 72
23
 73
-25
  0
VERTEX
  8
Layer0
10
0.0
 20
 0.0
 30
0.0
 70
     128
 71
-24
 72
-25
 73
26
  0
VERTEX
  8
Layer0
10
0.0
 20
 0.0
 30
0.0
 70
     128
 71
-26
 72
-25
 73
27
  0
VERTEX
  8
Layer0
10
0.0
 20
 0.0
 30
0.0
 70
     128
 71
-27
 72
25
 73
-28
  0
VERTEX
  8
Layer0
10
0.0
 20
 0.0
 30
0.0
 70
     128
 71
-27
 72
28
 73
-29
  0
VERTEX
  8
Layer0
10
0.0
 20
 0.0
 30
0.0
 70
     128
 71
-27
 72
-29
 73
30
  0
VERTEX
  8
Layer0
10
0.0
 20
 0.0
 30
0.0
 70
     128
 71
-30
 72
29
 73
-31
  0
VERTEX
  8
Layer0
10
0.0
 20
 0.0
 30
0.0
 70
     128
 71
-30
 72
-31
 73
32
  0
VERTEX
  8
Layer0
10
0.0
 20
 0.0
 30
0.0
 70
     128
 71
-32
 72
31
 73
-33
  0
VERTEX
  8
Layer0
10
0.0
 20
 0.0
 30
0.0
 70
     128
 71
-32
 72
-33
 73
34
  0
VERTEX
  8
Layer0
10
0.0
 20
 0.0
 30
0.0
 70
     128
 71
-34
 72
33
 73
-35
  0
VERTEX
  8
Layer0
10
0.0
 20
 0.0
 30
0.0
 70
     128
 71
-34
 72
-35
 73
36
  0
VERTEX
  8
Layer0
10
0.0
 20
 0.0
 30
0.0
 70
     128
 71
-36
 72
35
 73
-37
  0
VERTEX
  8
Layer0
10
0.0
 20
 0.0
 30
0.0
 70
     128
 71
-36
 72
-37
 73
38
  0
VERTEX
  8
Layer0
10
0.0
 20
 0.0
 30
0.0
 70
     128
 71
-38
 72
-37
 73
39
  0
VERTEX
  8
Layer0
10
0.0
 20
 0.0
 30
0.0
 70
     128
 71
-39
 72
37
 73
-40
  0
VERTEX
  8
Layer0
10
0.0
 20
 0.0
 30
0.0
 70
     128
 71
-39
 72
40
 73
-41
  0
VERTEX
  8
Layer0
10
0.0
 20
 0.0
 30
0.0
 70
     128
 71
-39
 72
-41
 73
42
  0
VERTEX
  8
Layer0
10
0.0
 20
 0.0
 30
0.0
 70
     128
 71
-42
 72
41
 73
-43
  0
VERTEX
  8
Layer0
10
0.0
 20
 0.0
 30
0.0
 70
     128
 71
-42
 72
-43
 73
44
  0
VERTEX
  8
Layer0
10
0.0
 20
 0.0
 30
0.0
 70
     128
 71
-44
 72
43
 73
-45
  0
VERTEX
  8
Layer0
10
0.0
 20
 0.0
 30
0.0
 70
     128
 71
-44
 72
-45
 73
46
  0
VERTEX
  8
Layer0
10
0.0
 20
 0.0
 30
0.0
 70
     128
 71
-46
 72
-45
 73
47
  0
VERTEX
  8
Layer0
10
0.0
 20
 0.0
 30
0.0
 70
     128
 71
-47
 72
45
 73
-48
  0
VERTEX
  8
Layer0
10
0.0
 20
 0.0
 30
0.0
 70
     128
 71
-47
 72
48
 73
-49
  0
VERTEX
  8
Layer0
10
0.0
 20
 0.0
 30
0.0
 70
     128
 71
-47
 72
-49
 73
50
  0
VERTEX
  8
Layer0
10
0.0
 20
 0.0
 30
0.0
 70
     128
 71
-50
 72
49
 73
-51
  0
VERTEX
  8
Layer0
10
0.0
 20
 0.0
 30
0.0
 70
     128
 71
-50
 72
51
 73
52
  0
SEQEND
  0
POLYLINE
 8
Layer0
 66
     1
10
0.0
 20
 0.0
 30
0.0
70
    64
71
24
72
   1
  0
VERTEX
  8
Layer0
10
85.25670458746559
20
169.8900564779639
30
0.0
 70
     192
  0
VERTEX
  8
Layer0
10
85.25670458746522
20
168.4844433917247
30
0.0
 70
     192
  0
VERTEX
  8
Layer0
10
85.16417835074276
20
169.18724993484432
30
0.0
 70
     192
  0
VERTEX
  8
Layer0
10
85.5279777875069
20
167.82953195307567
30
0.0
 70
     192
  0
VERTEX
  8
Layer0
10
85.52797778750961
20
170.54496791661296
30
0.0
 70
     192
  0
VERTEX
  8
Layer0
10
85.95951113058501
20
167.26714675114945
30
0.0
 70
     192
  0
VERTEX
  8
Layer0
10
85.95951113058557
20
171.10735311853918
30
0.0
 70
     192
  0
VERTEX
  8
Layer0
10
86.52189633251143
20
166.83561340807125
30
0.0
 70
     192
  0
VERTEX
  8
Layer0
10
86.52189633251194
20
171.53888646161718
30
0.0
 70
     192
  0
VERTEX
  8
Layer0
10
87.17680777116045
20
166.56434020802956
30
0.0
 70
     192
  0
VERTEX
  8
Layer0
10
87.17680777116102
20
171.81015966165887
30
0.0
 70
     192
  0
VERTEX
  8
Layer0
10
87.87961431427988
20
166.4718139713071
30
0.0
 70
     192
  0
VERTEX
  8
Layer0
10
87.87961431428042
20
171.90268589838132
30
0.0
 70
     192
  0
VERTEX
  8
Layer0
10
88.58242085739947
20
166.56434020802953
30
0.0
 70
     192
  0
VERTEX
  8
Layer0
10
88.58242085740004
20
171.81015966165882
30
0.0
 70
     192
  0
VERTEX
  8
Layer0
10
89.23733229604854
20
166.83561340807157
30
0.0
 70
     192
  0
VERTEX
  8
Layer0
10
89.23733229604906
20
171.5388864616175
30
0.0
 70
     192
  0
VERTEX
  8
Layer0
10
89.79971749797492
20
167.26714675114968
30
0.0
 70
     192
  0
VERTEX
  8
Layer0
10
89.79971749797548
20
171.1073531185394
30
0.0
 70
     192
  0
VERTEX
  8
Layer0
10
90.23125084105284
20
167.829531953076
30
0.0
 70
     192
  0
VERTEX
  8
Layer0
10
90.23125084105556
20
170.54496791661333
30
0.0
 70
     192
  0
VERTEX
  8
Layer0
10
90.50252404109452
20
168.48444339172508
30
0.0
 70
     192
  0
VERTEX
  8
Layer0
10
90.50252404109487
20
169.89005647796427
30
0.0
 70
     192
  0
VERTEX
  8
Layer0
10
90.59505027781698
20
169.18724993484466
30
0.0
 70
     192
  0
VERTEX
  8
Layer0
10
0.0
 20
 0.0
 30
0.0
 70
     128
 71
-1
 72
2
 73
3
  0
VERTEX
  8
Layer0
10
0.0
 20
 0.0
 30
0.0
 70
     128
 71
-2
 72
-1
 73
4
  0
VERTEX
  8
Layer0
10
0.0
 20
 0.0
 30
0.0
 70
     128
 71
-4
 72
1
 73
-5
  0
VERTEX
  8
Layer0
10
0.0
 20
 0.0
 30
0.0
 70
     128
 71
-4
 72
-5
 73
6
  0
VERTEX
  8
Layer0
10
0.0
 20
 0.0
 30
0.0
 70
     128
 71
-6
 72
5
 73
-7
  0
VERTEX
  8
Layer0
10
0.0
 20
 0.0
 30
0.0
 70
     128
 71
-6
 72
-7
 73
8
  0
VERTEX
  8
Layer0
10
0.0
 20
 0.0
 30
0.0
 70
     128
 71
-8
 72
7
 73
-9
  0
VERTEX
  8
Layer0
10
0.0
 20
 0.0
 30
0.0
 70
     128
 71
-8
 72
-9
 73
10
  0
VERTEX
  8
Layer0
10
0.0
 20
 0.0
 30
0.0
 70
     128
 71
-10
 72
9
 73
-11
  0
VERTEX
  8
Layer0
10
0.0
 20
 0.0
 30
0.0
 70
     128
 71
-10
 72
-11
 73
12
  0
VERTEX
  8
Layer0
10
0.0
 20
 0.0
 30
0.0
 70
     128
 71
-12
 72
11
 73
-13
  0
VERTEX
  8
Layer0
10
0.0
 20
 0.0
 30
0.0
 70
     128
 71
-12
 72
-13
 73
14
  0
VERTEX
  8
Layer0
10
0.0
 20
 0.0
 30
0.0
 70
     128
 71
-14
 72
13
 73
-15
  0
VERTEX
  8
Layer0
10
0.0
 20
 0.0
 30
0.0
 70
     128
 71
-14
 72
-15
 73
16
  0
VERTEX
  8
Layer0
10
0.0
 20
 0.0
 30
0.0
 70
     128
 71
-16
 72
15
 73
-17
  0
VERTEX
  8
Layer0
10
0.0
 20
 0.0
 30
0.0
 70
     128
 71
-16
 72
-17
 73
18
  0
VERTEX
  8
Layer0
10
0.0
 20
 0.0
 30
0.0
 70
     128
 71
-18
 72
17
 73
-19
  0
VERTEX
  8
Layer0
10
0.0
 20
 0.0
 30
0.0
 70
     128
 71
-18
 72
-19
 73
20
  0
VERTEX
  8
Layer0
10
0.0
 20
 0.0
 30
0.0
 70
     128
 71
-20
 72
19
 73
-21
  0
VERTEX
  8
Layer0
10
0.0
 20
 0.0
 30
0.0
 70
     128
 71
-20
 72
-21
 73
22
  0
VERTEX
  8
Layer0
10
0.0
 20
 0.0
 30
0.0
 70
     128
 71
-22
 72
21
 73
-23
  0
VERTEX
  8
Layer0
10
0.0
 20
 0.0
 30
0.0
 70
     128
 71
-22
 72
23
 73
24
  0
SEQEND
  0
POLYLINE
 8
Layer0
 66
     1
10
0.0
 20
 0.0
 30
0.0
70
    64
71
26
72
   1
  0
VERTEX
  8
Layer0
10
91.19849973452942
20
111.86342816431343
30
0.0
 70
     192
  0
VERTEX
  8
Layer0
10
91.11193677308613
20
102.20605095533907
30
0.0
 70
     192
  0
VERTEX
  8
Layer0
10
91.11193677308594
20
111.20602717602857
30
0.0
 70
     192
  0
VERTEX
  8
Layer0
10
91.19849973452834
20
101.54864996705385
30
0.0
 70
     192
  0
VERTEX
  8
Layer0
10
91.45224503523882
20
100.93605445529094
30
0.0
 70
     192
  0
VERTEX
  8
Layer0
10
91.45224503523828
20
112.4760236760767
30
0.0
 70
     192
  0
VERTEX
  8
Layer0
10
91.85590072281339
20
113.0020816263266
30
0.0
 70
     192
  0
VERTEX
  8
Layer0
10
91.85590072281393
20
100.40999650504058
30
0.0
 70
     192
  0
VERTEX
  8
Layer0
10
92.38193327313641
20
113.40571191397196
30
0.0
 70
     192
  0
VERTEX
  8
Layer0
10
92.38193327313442
20
100.00634081746558
30
0.0
 70
     192
  0
VERTEX
  8
Layer0
10
92.99452878489733
20
99.75259551675603
30
0.0
 70
     192
  0
VERTEX
  8
Layer0
10
92.99452878489714
20
113.65948261461159
30
0.0
 70
     192
  0
VERTEX
  8
Layer0
10
93.6519297731822
20
113.74602017612449
30
0.0
 70
     192
  0
VERTEX
  8
Layer0
10
93.65192977318256
20
99.66605795524252
30
0.0
 70
     192
  0
VERTEX
  8
Layer0
10
94.30933076146685
20
113.65948261461124
30
0.0
 70
     192
  0
VERTEX
  8
Layer0
10
94.30933076146705
20
99.75259551675568
30
0.0
 70
     192
  0
VERTEX
  8
Layer0
10
94.92192627323264
20
113.40571191397174
30
0.0
 70
     192
  0
VERTEX
  8
Layer0
10
94.92192627323065
20
100.00634081746536
30
0.0
 70
     192
  0
VERTEX
  8
Layer0
10
95.44798422348036
20
100.40999650504062
30
0.0
 70
     192
  0
VERTEX
  8
Layer0
10
95.4479842234798
20
113.00208162632629
30
0.0
 70
     192
  0
VERTEX
  8
Layer0
10
95.85163991105496
20
112.47602367607642
30
0.0
 70
     192
  0
VERTEX
  8
Layer0
10
95.8516399110555
20
100.93605445529067
30
0.0
 70
     192
  0
VERTEX
  8
Layer0
10
96.10538521176522
20
111.86342816431316
30
0.0
 70
     192
  0
VERTEX
  8
Layer0
10
96.10538521176449
20
101.54864996705375
30
0.0
 70
     192
  0
VERTEX
  8
Layer0
10
96.19192277327859
20
102.20605095533884
30
0.0
 70
     192
  0
VERTEX
  8
Layer0
10
96.19192277327843
20
111.20602717602834
30
0.0
 70
     192
  0
VERTEX
  8
Layer0
10
0.0
 20
 0.0
 30
0.0
 70
     128
 71
-1
 72
2
 73
3
  0
VERTEX
  8
Layer0
10
0.0
 20
 0.0
 30
0.0
 70
     128
 71
-2
 72
-1
 73
4
  0
VERTEX
  8
Layer0
10
0.0
 20
 0.0
 30
0.0
 70
     128
 71
-4
 72
-1
 73
5
  0
VERTEX
  8
Layer0
10
0.0
 20
 0.0
 30
0.0
 70
     128
 71
-5
 72
1
 73
-6
  0
VERTEX
  8
Layer0
10
0.0
 20
 0.0
 30
0.0
 70
     128
 71
-5
 72
6
 73
-7
  0
VERTEX
  8
Layer0
10
0.0
 20
 0.0
 30
0.0
 70
     128
 71
-5
 72
-7
 73
8
  0
VERTEX
  8
Layer0
10
0.0
 20
 0.0
 30
0.0
 70
     128
 71
-8
 72
7
 73
-9
  0
VERTEX
  8
Layer0
10
0.0
 20
 0.0
 30
0.0
 70
     128
 71
-8
 72
-9
 73
10
  0
VERTEX
  8
Layer0
10
0.0
 20
 0.0
 30
0.0
 70
     128
 71
-10
 72
-9
 73
11
  0
VERTEX
  8
Layer0
10
0.0
 20
 0.0
 30
0.0
 70
     128
 71
-11
 72
9
 73
-12
  0
VERTEX
  8
Layer0
10
0.0
 20
 0.0
 30
0.0
 70
     128
 71
-11
 72
12
 73
-13
  0
VERTEX
  8
Layer0
10
0.0
 20
 0.0
 30
0.0
 70
     128
 71
-11
 72
-13
 73
14
  0
VERTEX
  8
Layer0
10
0.0
 20
 0.0
 30
0.0
 70
     128
 71
-14
 72
13
 73
-15
  0
VERTEX
  8
Layer0
10
0.0
 20
 0.0
 30
0.0
 70
     128
 71
-14
 72
-15
 73
16
  0
VERTEX
  8
Layer0
10
0.0
 20
 0.0
 30
0.0
 70
     128
 71
-16
 72
15
 73
-17
  0
VERTEX
  8
Layer0
10
0.0
 20
 0.0
 30
0.0
 70
     128
 71
-16
 72
-17
 73
18
  0
VERTEX
  8
Layer0
10
0.0
 20
 0.0
 30
0.0
 70
     128
 71
-18
 72
-17
 73
19
  0
VERTEX
  8
Layer0
10
0.0
 20
 0.0
 30
0.0
 70
     128
 71
-19
 72
17
 73
-20
  0
VERTEX
  8
Layer0
10
0.0
 20
 0.0
 30
0.0
 70
     128
 71
-19
 72
20
 73
-21
  0
VERTEX
  8
Layer0
10
0.0
 20
 0.0
 30
0.0
 70
     128
 71
-19
 72
-21
 73
22
  0
VERTEX
  8
Layer0
10
0.0
 20
 0.0
 30
0.0
 70
     128
 71
-22
 72
21
 73
-23
  0
VERTEX
  8
Layer0
10
0.0
 20
 0.0
 30
0.0
 70
     128
 71
-22
 72
-23
 73
24
  0
VERTEX
  8
Layer0
10
0.0
 20
 0.0
 30
0.0
 70
     128
 71
-24
 72
-23
 73
25
  0
VERTEX
  8
Layer0
10
0.0
 20
 0.0
 30
0.0
 70
     128
 71
-25
 72
23
 73
26
  0
SEQEND
  0
POLYLINE
 8
Layer0
 66
     1
10
0.0
 20
 0.0
 30
0.0
70
    64
71
24
72
   1
  0
VERTEX
  8
Layer0
10
101.22430274335079
20
139.34215247407116
30
0.0
 70
     192
  0
VERTEX
  8
Layer0
10
101.22430274335079
20
137.93653938783197
30
0.0
 70
     192
  0
VERTEX
  8
Layer0
10
101.13177650662868
20
138.63934593095192
30
0.0
 70
     192
  0
VERTEX
  8
Layer0
10
101.49557594339245
20
139.99706391272002
30
0.0
 70
     192
  0
VERTEX
  8
Layer0
10
101.49557594339245
20
137.2816279491831
30
0.0
 70
     192
  0
VERTEX
  8
Layer0
10
101.92710928647023
20
140.5594491146469
30
0.0
 70
     192
  0
VERTEX
  8
Layer0
10
101.92710928647058
20
136.71924274725717
30
0.0
 70
     192
  0
VERTEX
  8
Layer0
10
102.48949448839734
20
140.99098245772518
30
0.0
 70
     192
  0
VERTEX
  8
Layer0
10
102.48949448839876
20
136.28770940417868
30
0.0
 70
     192
  0
VERTEX
  8
Layer0
10
103.14440592704513
20
141.26225565776647
30
0.0
 70
     192
  0
VERTEX
  8
Layer0
10
103.1444059270482
20
136.01643620413702
30
0.0
 70
     192
  0
VERTEX
  8
Layer0
10
103.84721247016506
20
141.35478189448932
30
0.0
 70
     192
  0
VERTEX
  8
Layer0
10
103.84721247016762
20
135.92390996741509
30
0.0
 70
     192
  0
VERTEX
  8
Layer0
10
104.55001901328468
20
141.26225565776667
30
0.0
 70
     192
  0
VERTEX
  8
Layer0
10
104.55001901328703
20
136.01643620413702
30
0.0
 70
     192
  0
VERTEX
  8
Layer0
10
105.20493045193392
20
140.9909824577249
30
0.0
 70
     192
  0
VERTEX
  8
Layer0
10
105.20493045193624
20
136.28770940417914
30
0.0
 70
     192
  0
VERTEX
  8
Layer0
10
105.76731565385977
20
140.5594491146466
30
0.0
 70
     192
  0
VERTEX
  8
Layer0
10
105.76731565386049
20
136.7192427472576
30
0.0
 70
     192
  0
VERTEX
  8
Layer0
10
106.19884899693858
20
139.9970639127206
30
0.0
 70
     192
  0
VERTEX
  8
Layer0
10
106.19884899693876
20
137.28162794918327
30
0.0
 70
     192
  0
VERTEX
  8
Layer0
10
106.47012219698026
20
139.3421524740709
30
0.0
 70
     192
  0
VERTEX
  8
Layer0
10
106.47012219698007
20
137.9365393878326
30
0.0
 70
     192
  0
VERTEX
  8
Layer0
10
106.56264843370253
20
138.6393459309513
30
0.0
 70
     192
  0
VERTEX
  8
Layer0
10
0.0
 20
 0.0
 30
0.0
 70
     128
 71
-1
 72
2
 73
3
  0
VERTEX
  8
Layer0
10
0.0
 20
 0.0
 30
0.0
 70
     128
 71
-2
 72
1
 73
-4
  0
VERTEX
  8
Layer0
10
0.0
 20
 0.0
 30
0.0
 70
     128
 71
-2
 72
-4
 73
5
  0
VERTEX
  8
Layer0
10
0.0
 20
 0.0
 30
0.0
 70
     128
 71
-5
 72
4
 73
-6
  0
VERTEX
  8
Layer0
10
0.0
 20
 0.0
 30
0.0
 70
     128
 71
-5
 72
-6
 73
7
  0
VERTEX
  8
Layer0
10
0.0
 20
 0.0
 30
0.0
 70
     128
 71
-7
 72
6
 73
-8
  0
VERTEX
  8
Layer0
10
0.0
 20
 0.0
 30
0.0
 70
     128
 71
-7
 72
-8
 73
9
  0
VERTEX
  8
Layer0
10
0.0
 20
 0.0
 30
0.0
 70
     128
 71
-9
 72
8
 73
-10
  0
VERTEX
  8
Layer0
10
0.0
 20
 0.0
 30
0.0
 70
     128
 71
-9
 72
-10
 73
11
  0
VERTEX
  8
Layer0
10
0.0
 20
 0.0
 30
0.0
 70
     128
 71
-11
 72
10
 73
-12
  0
VERTEX
  8
Layer0
10
0.0
 20
 0.0
 30
0.0
 70
     128
 71
-11
 72
-12
 73
13
  0
VERTEX
  8
Layer0
10
0.0
 20
 0.0
 30
0.0
 70
     128
 71
-13
 72
12
 73
-14
  0
VERTEX
  8
Layer0
10
0.0
 20
 0.0
 30
0.0
 70
     128
 71
-13
 72
-14
 73
15
  0
VERTEX
  8
Layer0
10
0.0
 20
 0.0
 30
0.0
 70
     128
 71
-15
 72
14
 73
-16
  0
VERTEX
  8
Layer0
10
0.0
 20
 0.0
 30
0.0
 70
     128
 71
-15
 72
-16
 73
17
  0
VERTEX
  8
Layer0
10
0.0
 20
 0.0
 30
0.0
 70
     128
 71
-17
 72
16
 73
-18
  0
VERTEX
  8
Layer0
10
0.0
 20
 0.0
 30
0.0
 70
     128
 71
-17
 72
-18
 73
19
  0
VERTEX
  8
Layer0
10
0.0
 20
 0.0
 30
0.0
 70
     128
 71
-19
 72
18
 73
-20
  0
VERTEX
  8
Layer0
10
0.0
 20
 0.0
 30
0.0
 70
     128
 71
-19
 72
-20
 73
21
  0
VERTEX
  8
Layer0
10
0.0
 20
 0.0
 30
0.0
 70
     128
 71
-21
 72
20
 73
-22
  0
VERTEX
  8
Layer0
10
0.0
 20
 0.0
 30
0.0
 70
     128
 71
-21
 72
-22
 73
23
  0
VERTEX
  8
Layer0
10
0.0
 20
 0.0
 30
0.0
 70
     128
 71
-23
 72
22
 73
24
  0
SEQEND
  0
POLYLINE
 8
Layer0
 66
     1
10
0.0
 20
 0.0
 30
0.0
70
    64
71
24
72
   1
  0
VERTEX
  8
Layer0
10
10.722060431817328
20
93.71235367517025
30
0.0
 70
     192
  0
VERTEX
  8
Layer0
10
10.722060431816606
20
92.41825844900552
30
0.0
 70
     192
  0
VERTEX
  8
Layer0
10
10.636874997496681
20
93.06530606208753
30
0.0
 70
     192
  0
VERTEX
  8
Layer0
10
10.971811488205333
20
91.81530606145938
30
0.0
 70
     192
  0
VERTEX
  8
Layer0
10
10.971811488206775
20
94.31530606271927
30
0.0
 70
     192
  0
VERTEX
  8
Layer0
10
11.36910804490132
20
91.29753910822926
30
0.0
 70
     192
  0
VERTEX
  8
Layer0
10
11.369108044899876
20
94.83307301594373
30
0.0
 70
     192
  0
VERTEX
  8
Layer0
10
11.886874998126084
20
95.23036957264156
30
0.0
 70
     192
  0
VERTEX
  8
Layer0
10
11.886874998128791
20
90.90024255153692
30
0.0
 70
     192
  0
VERTEX
  8
Layer0
10
12.489827385670592
20
95.48012062902835
30
0.0
 70
     192
  0
VERTEX
  8
Layer0
10
12.489827385676186
20
90.65049149514878
30
0.0
 70
     192
  0
VERTEX
  8
Layer0
10
13.136874998753141
20
95.56530606334944
30
0.0
 70
     192
  0
VERTEX
  8
Layer0
10
13.13687499875657
20
90.5653060608293
30
0.0
 70
     192
  0
VERTEX
  8
Layer0
10
13.78392261183569
20
95.4801206290292
30
0.0
 70
     192
  0
VERTEX
  8
Layer0
10
13.783922611840563
20
90.65049149514964
30
0.0
 70
     192
  0
VERTEX
  8
Layer0
10
14.386874999385974
20
95.23036957264188
30
0.0
 70
     192
  0
VERTEX
  8
Layer0
10
14.38687499938868
20
90.90024255153723
30
0.0
 70
     192
  0
VERTEX
  8
Layer0
10
14.904641952613986
20
94.83307301594692
30
0.0
 70
     192
  0
VERTEX
  8
Layer0
10
14.904641952616151
20
91.29753910823246
30
0.0
 70
     192
  0
VERTEX
  8
Layer0
10
15.301938509311418
20
94.31530606271805
30
0.0
 70
     192
  0
VERTEX
  8
Layer0
10
15.301938509309974
20
91.81530606145817
30
0.0
 70
     192
  0
VERTEX
  8
Layer0
10
15.551689565696535
20
92.41825844900583
30
0.0
 70
     192
  0
VERTEX
  8
Layer0
10
15.551689565696535
20
93.71235367517093
30
0.0
 70
     192
  0
VERTEX
  8
Layer0
10
15.63687500001718
20
93.06530606208892
30
0.0
 70
     192
  0
VERTEX
  8
Layer0
10
0.0
 20
 0.0
 30
0.0
 70
     128
 71
-1
 72
2
 73
3
  0
VERTEX
  8
Layer0
10
0.0
 20
 0.0
 30
0.0
 70
     128
 71
-2
 72
-1
 73
4
  0
VERTEX
  8
Layer0
10
0.0
 20
 0.0
 30
0.0
 70
     128
 71
-4
 72
1
 73
-5
  0
VERTEX
  8
Layer0
10
0.0
 20
 0.0
 30
0.0
 70
     128
 71
-4
 72
-5
 73
6
  0
VERTEX
  8
Layer0
10
0.0
 20
 0.0
 30
0.0
 70
     128
 71
-6
 72
5
 73
-7
  0
VERTEX
  8
Layer0
10
0.0
 20
 0.0
 30
0.0
 70
     128
 71
-6
 72
7
 73
-8
  0
VERTEX
  8
Layer0
10
0.0
 20
 0.0
 30
0.0
 70
     128
 71
-6
 72
-8
 73
9
  0
VERTEX
  8
Layer0
10
0.0
 20
 0.0
 30
0.0
 70
     128
 71
-9
 72
8
 73
-10
  0
VERTEX
  8
Layer0
10
0.0
 20
 0.0
 30
0.0
 70
     128
 71
-9
 72
-10
 73
11
  0
VERTEX
  8
Layer0
10
0.0
 20
 0.0
 30
0.0
 70
     128
 71
-11
 72
10
 73
-12
  0
VERTEX
  8
Layer0
10
0.0
 20
 0.0
 30
0.0
 70
     128
 71
-11
 72
-12
 73
13
  0
VERTEX
  8
Layer0
10
0.0
 20
 0.0
 30
0.0
 70
     128
 71
-13
 72
12
 73
-14
  0
VERTEX
  8
Layer0
10
0.0
 20
 0.0
 30
0.0
 70
     128
 71
-13
 72
-14
 73
15
  0
VERTEX
  8
Layer0
10
0.0
 20
 0.0
 30
0.0
 70
     128
 71
-15
 72
14
 73
-16
  0
VERTEX
  8
Layer0
10
0.0
 20
 0.0
 30
0.0
 70
     128
 71
-15
 72
-16
 73
17
  0
VERTEX
  8
Layer0
10
0.0
 20
 0.0
 30
0.0
 70
     128
 71
-17
 72
16
 73
-18
  0
VERTEX
  8
Layer0
10
0.0
 20
 0.0
 30
0.0
 70
     128
 71
-17
 72
-18
 73
19
  0
VERTEX
  8
Layer0
10
0.0
 20
 0.0
 30
0.0
 70
     128
 71
-19
 72
18
 73
-20
  0
VERTEX
  8
Layer0
10
0.0
 20
 0.0
 30
0.0
 70
     128
 71
-19
 72
-20
 73
21
  0
VERTEX
  8
Layer0
10
0.0
 20
 0.0
 30
0.0
 70
     128
 71
-21
 72
-20
 73
22
  0
VERTEX
  8
Layer0
10
0.0
 20
 0.0
 30
0.0
 70
     128
 71
-22
 72
20
 73
-23
  0
VERTEX
  8
Layer0
10
0.0
 20
 0.0
 30
0.0
 70
     128
 71
-22
 72
23
 73
24
  0
SEQEND
  0
POLYLINE
 8
Layer0
 66
     1
10
0.0
 20
 0.0
 30
0.0
70
    64
71
24
72
   1
  0
VERTEX
  8
Layer0
10
123.4647182685533
20
15.118901824997408
30
0.0
 70
     192
  0
VERTEX
  8
Layer0
10
123.46471826855472
20
13.271710299893709
30
0.0
 70
     192
  0
VERTEX
  8
Layer0
10
123.3431245796538
20
14.195306062445468
30
0.0
 70
     192
  0
VERTEX
  8
Layer0
10
123.8212129263014
20
15.979556062646436
30
0.0
 70
     192
  0
VERTEX
  8
Layer0
10
123.8212129263025
20
12.411056062245583
30
0.0
 70
     192
  0
VERTEX
  8
Layer0
10
124.38831403110169
20
16.718616611393315
30
0.0
 70
     192
  0
VERTEX
  8
Layer0
10
124.3883140311037
20
11.671995513498391
30
0.0
 70
     192
  0
VERTEX
  8
Layer0
10
125.12737457985254
20
17.285717716197414
30
0.0
 70
     192
  0
VERTEX
  8
Layer0
10
125.12737457984927
20
11.104894408695012
30
0.0
 70
     192
  0
VERTEX
  8
Layer0
10
125.98802881750031
20
10.748399750947804
30
0.0
 70
     192
  0
VERTEX
  8
Layer0
10
125.98802881750245
20
17.642212373946247
30
0.0
 70
     192
  0
VERTEX
  8
Layer0
10
126.91162458005213
20
10.626806062046533
30
0.0
 70
     192
  0
VERTEX
  8
Layer0
10
126.9116245800543
20
17.763806062847156
30
0.0
 70
     192
  0
VERTEX
  8
Layer0
10
127.835220342604
20
10.748399750944014
30
0.0
 70
     192
  0
VERTEX
  8
Layer0
10
127.83522034260615
20
17.64221237394282
30
0.0
 70
     192
  0
VERTEX
  8
Layer0
10
128.69587458024924
20
11.10489440869447
30
0.0
 70
     192
  0
VERTEX
  8
Layer0
10
128.69587458025245
20
17.285717716197777
30
0.0
 70
     192
  0
VERTEX
  8
Layer0
10
129.43493512899803
20
11.671995513498166
30
0.0
 70
     192
  0
VERTEX
  8
Layer0
10
129.4349351289961
20
16.71861661139327
30
0.0
 70
     192
  0
VERTEX
  8
Layer0
10
130.00203623380358
20
15.979556062646099
30
0.0
 70
     192
  0
VERTEX
  8
Layer0
10
130.0020362338058
20
12.411056062246148
30
0.0
 70
     192
  0
VERTEX
  8
Layer0
10
130.35853089155137
20
15.118901824998153
30
0.0
 70
     192
  0
VERTEX
  8
Layer0
10
130.35853089155245
20
13.271710299894455
30
0.0
 70
     192
  0
VERTEX
  8
Layer0
10
130.48012458045372
20
14.195306062447026
30
0.0
 70
     192
  0
VERTEX
  8
Layer0
10
0.0
 20
 0.0
 30
0.0
 70
     128
 71
-1
 72
2
 73
3
  0
VERTEX
  8
Layer0
10
0.0
 20
 0.0
 30
0.0
 70
     128
 71
-2
 72
1
 73
-4
  0
VERTEX
  8
Layer0
10
0.0
 20
 0.0
 30
0.0
 70
     128
 71
-2
 72
-4
 73
5
  0
VERTEX
  8
Layer0
10
0.0
 20
 0.0
 30
0.0
 70
     128
 71
-5
 72
4
 73
-6
  0
VERTEX
  8
Layer0
10
0.0
 20
 0.0
 30
0.0
 70
     128
 71
-5
 72
-6
 73
7
  0
VERTEX
  8
Layer0
10
0.0
 20
 0.0
 30
0.0
 70
     128
 71
-7
 72
6
 73
-8
  0
VERTEX
  8
Layer0
10
0.0
 20
 0.0
 30
0.0
 70
     128
 71
-7
 72
-8
 73
9
  0
VERTEX
  8
Layer0
10
0.0
 20
 0.0
 30
0.0
 70
     128
 71
-9
 72
-8
 73
10
  0
VERTEX
  8
Layer0
10
0.0
 20
 0.0
 30
0.0
 70
     128
 71
-10
 72
8
 73
-11
  0
VERTEX
  8
Layer0
10
0.0
 20
 0.0
 30
0.0
 70
     128
 71
-10
 72
-11
 73
12
  0
VERTEX
  8
Layer0
10
0.0
 20
 0.0
 30
0.0
 70
     128
 71
-12
 72
11
 73
-13
  0
VERTEX
  8
Layer0
10
0.0
 20
 0.0
 30
0.0
 70
     128
 71
-12
 72
-13
 73
14
  0
VERTEX
  8
Layer0
10
0.0
 20
 0.0
 30
0.0
 70
     128
 71
-14
 72
13
 73
-15
  0
VERTEX
  8
Layer0
10
0.0
 20
 0.0
 30
0.0
 70
     128
 71
-14
 72
-15
 73
16
  0
VERTEX
  8
Layer0
10
0.0
 20
 0.0
 30
0.0
 70
     128
 71
-16
 72
15
 73
-17
  0
VERTEX
  8
Layer0
10
0.0
 20
 0.0
 30
0.0
 70
     128
 71
-16
 72
-17
 73
18
  0
VERTEX
  8
Layer0
10
0.0
 20
 0.0
 30
0.0
 70
     128
 71
-18
 72
17
 73
-19
  0
VERTEX
  8
Layer0
10
0.0
 20
 0.0
 30
0.0
 70
     128
 71
-18
 72
19
 73
-20
  0
VERTEX
  8
Layer0
10
0.0
 20
 0.0
 30
0.0
 70
     128
 71
-18
 72
-20
 73
21
  0
VERTEX
  8
Layer0
10
0.0
 20
 0.0
 30
0.0
 70
     128
 71
-21
 72
20
 73
-22
  0
VERTEX
  8
Layer0
10
0.0
 20
 0.0
 30
0.0
 70
     128
 71
-21
 72
-22
 73
23
  0
VERTEX
  8
Layer0
10
0.0
 20
 0.0
 30
0.0
 70
     128
 71
-23
 72
22
 73
24
  0
SEQEND
  0
POLYLINE
 8
Layer0
 66
     1
10
0.0
 20
 0.0
 30
0.0
70
    64
71
24
72
   1
  0
VERTEX
  8
Layer0
10
9.68146910811403
20
15.118901825001378
30
0.0
 70
     192
  0
VERTEX
  8
Layer0
10
9.68146910811475
20
13.27171029989768
30
0.0
 70
     192
  0
VERTEX
  8
Layer0
10
9.55987541921348
20
14.195306062450275
30
0.0
 70
     192
  0
VERTEX
  8
Layer0
10
10.037963765861416
20
15.979556062650948
30
0.0
 70
     192
  0
VERTEX
  8
Layer0
10
10.037963765861777
20
12.411056062250276
30
0.0
 70
     192
  0
VERTEX
  8
Layer0
10
10.605064870661005
20
16.718616611397827
30
0.0
 70
     192
  0
VERTEX
  8
Layer0
10
10.605064870661547
20
11.671995513502903
30
0.0
 70
     192
  0
VERTEX
  8
Layer0
10
11.344125419414718
20
17.285717716199198
30
0.0
 70
     192
  0
VERTEX
  8
Layer0
10
11.344125419409664
20
11.104894408696072
30
0.0
 70
     192
  0
VERTEX
  8
Layer0
10
12.204779657060318
20
10.748399750949407
30
0.0
 70
     192
  0
VERTEX
  8
Layer0
10
12.204779657062483
20
17.642212373948027
30
0.0
 70
     192
  0
VERTEX
  8
Layer0
10
13.128375419611444
20
10.626806062050482
30
0.0
 70
     192
  0
VERTEX
  8
Layer0
10
13.128375419614333
20
17.763806062851103
30
0.0
 70
     192
  0
VERTEX
  8
Layer0
10
14.051971182164017
20
10.74839975095085
30
0.0
 70
     192
  0
VERTEX
  8
Layer0
10
14.051971182166183
20
17.642212373949473
30
0.0
 70
     192
  0
VERTEX
  8
Layer0
10
14.912625419809615
20
11.104894408698621
30
0.0
 70
     192
  0
VERTEX
  8
Layer0
10
14.912625419814669
20
17.285717716201745
30
0.0
 70
     192
  0
VERTEX
  8
Layer0
10
15.651685968555569
20
11.671995513499812
30
0.0
 70
     192
  0
VERTEX
  8
Layer0
10
15.651685968555388
20
16.718616611394193
30
0.0
 70
     192
  0
VERTEX
  8
Layer0
10
16.218787073363277
20
15.979556062647903
30
0.0
 70
     192
  0
VERTEX
  8
Layer0
10
16.21878707336436
20
12.411056062247209
30
0.0
 70
     192
  0
VERTEX
  8
Layer0
10
16.575281731111748
20
15.11890182500086
30
0.0
 70
     192
  0
VERTEX
  8
Layer0
10
16.575281731112472
20
13.271710299897162
30
0.0
 70
     192
  0
VERTEX
  8
Layer0
10
16.69687542001338
20
14.195306062450094
30
0.0
 70
     192
  0
VERTEX
  8
Layer0
10
0.0
 20
 0.0
 30
0.0
 70
     128
 71
-1
 72
2
 73
3
  0
VERTEX
  8
Layer0
10
0.0
 20
 0.0
 30
0.0
 70
     128
 71
-2
 72
1
 73
-4
  0
VERTEX
  8
Layer0
10
0.0
 20
 0.0
 30
0.0
 70
     128
 71
-2
 72
-4
 73
5
  0
VERTEX
  8
Layer0
10
0.0
 20
 0.0
 30
0.0
 70
     128
 71
-5
 72
4
 73
-6
  0
VERTEX
  8
Layer0
10
0.0
 20
 0.0
 30
0.0
 70
     128
 71
-5
 72
-6
 73
7
  0
VERTEX
  8
Layer0
10
0.0
 20
 0.0
 30
0.0
 70
     128
 71
-7
 72
6
 73
-8
  0
VERTEX
  8
Layer0
10
0.0
 20
 0.0
 30
0.0
 70
     128
 71
-7
 72
-8
 73
9
  0
VERTEX
  8
Layer0
10
0.0
 20
 0.0
 30
0.0
 70
     128
 71
-9
 72
-8
 73
10
  0
VERTEX
  8
Layer0
10
0.0
 20
 0.0
 30
0.0
 70
     128
 71
-10
 72
8
 73
-11
  0
VERTEX
  8
Layer0
10
0.0
 20
 0.0
 30
0.0
 70
     128
 71
-10
 72
-11
 73
12
  0
VERTEX
  8
Layer0
10
0.0
 20
 0.0
 30
0.0
 70
     128
 71
-12
 72
11
 73
-13
  0
VERTEX
  8
Layer0
10
0.0
 20
 0.0
 30
0.0
 70
     128
 71
-12
 72
-13
 73
14
  0
VERTEX
  8
Layer0
10
0.0
 20
 0.0
 30
0.0
 70
     128
 71
-14
 72
13
 73
-15
  0
VERTEX
  8
Layer0
10
0.0
 20
 0.0
 30
0.0
 70
     128
 71
-14
 72
-15
 73
16
  0
VERTEX
  8
Layer0
10
0.0
 20
 0.0
 30
0.0
 70
     128
 71
-16
 72
15
 73
-17
  0
VERTEX
  8
Layer0
10
0.0
 20
 0.0
 30
0.0
 70
     128
 71
-16
 72
-17
 73
18
  0
VERTEX
  8
Layer0
10
0.0
 20
 0.0
 30
0.0
 70
     128
 71
-18
 72
17
 73
-19
  0
VERTEX
  8
Layer0
10
0.0
 20
 0.0
 30
0.0
 70
     128
 71
-18
 72
19
 73
-20
  0
VERTEX
  8
Layer0
10
0.0
 20
 0.0
 30
0.0
 70
     128
 71
-18
 72
-20
 73
21
  0
VERTEX
  8
Layer0
10
0.0
 20
 0.0
 30
0.0
 70
     128
 71
-21
 72
20
 73
-22
  0
VERTEX
  8
Layer0
10
0.0
 20
 0.0
 30
0.0
 70
     128
 71
-21
 72
-22
 73
23
  0
VERTEX
  8
Layer0
10
0.0
 20
 0.0
 30
0.0
 70
     128
 71
-23
 72
22
 73
24
  0
SEQEND
  0
POLYLINE
 8
Layer0
 66
     1
10
0.0
 20
 0.0
 30
0.0
70
    64
71
26
72
   1
  0
VERTEX
  8
Layer0
10
43.95462993274055
20
159.10729796610474
30
0.0
 70
     192
  0
VERTEX
  8
Layer0
10
43.86806697129475
20
149.4499207571302
30
0.0
 70
     192
  0
VERTEX
  8
Layer0
10
43.868066971293466
20
158.4498969778197
30
0.0
 70
     192
  0
VERTEX
  8
Layer0
10
43.95462993273712
20
148.79251976884532
30
0.0
 70
     192
  0
VERTEX
  8
Layer0
10
44.20837523344795
20
148.17992425708206
30
0.0
 70
     192
  0
VERTEX
  8
Layer0
10
44.20837523344811
20
159.71989347786763
30
0.0
 70
     192
  0
VERTEX
  8
Layer0
10
44.61203092102523
20
147.6538663068323
30
0.0
 70
     192
  0
VERTEX
  8
Layer0
10
44.6120309210236
20
160.24595142811802
30
0.0
 70
     192
  0
VERTEX
  8
Layer0
10
45.138063471343386
20
160.64958171576313
30
0.0
 70
     192
  0
VERTEX
  8
Layer0
10
45.138063471345006
20
147.25021061925688
30
0.0
 70
     192
  0
VERTEX
  8
Layer0
10
45.750658983106305
20
160.90335241640295
30
0.0
 70
     192
  0
VERTEX
  8
Layer0
10
45.75065898310538
20
146.99646531854717
30
0.0
 70
     192
  0
VERTEX
  8
Layer0
10
46.4080599713906
20
146.90992775703359
30
0.0
 70
     192
  0
VERTEX
  8
Layer0
10
46.40805997139152
20
160.98988997791602
30
0.0
 70
     192
  0
VERTEX
  8
Layer0
10
47.06546095967582
20
146.99646531854717
30
0.0
 70
     192
  0
VERTEX
  8
Layer0
10
47.06546095967674
20
160.90335241640287
30
0.0
 70
     192
  0
VERTEX
  8
Layer0
10
47.67805647144124
20
147.2502106192568
30
0.0
 70
     192
  0
VERTEX
  8
Layer0
10
47.67805647143961
20
160.64958171576328
30
0.0
 70
     192
  0
VERTEX
  8
Layer0
10
48.204114421689304
20
160.24595142811742
30
0.0
 70
     192
  0
VERTEX
  8
Layer0
10
48.20411442169093
20
147.6538663068321
30
0.0
 70
     192
  0
VERTEX
  8
Layer0
10
48.6077701092648
20
159.7198934778677
30
0.0
 70
     192
  0
VERTEX
  8
Layer0
10
48.60777010926464
20
148.17992425708198
30
0.0
 70
     192
  0
VERTEX
  8
Layer0
10
48.86151540997326
20
148.79251976884487
30
0.0
 70
     192
  0
VERTEX
  8
Layer0
10
48.86151540997669
20
159.10729796610428
30
0.0
 70
     192
  0
VERTEX
  8
Layer0
10
48.94805297148721
20
149.4499207571301
30
0.0
 70
     192
  0
VERTEX
  8
Layer0
10
48.948052971486646
20
158.4498969778196
30
0.0
 70
     192
  0
VERTEX
  8
Layer0
10
0.0
 20
 0.0
 30
0.0
 70
     128
 71
-1
 72
2
 73
3
  0
VERTEX
  8
Layer0
10
0.0
 20
 0.0
 30
0.0
 70
     128
 71
-2
 72
-1
 73
4
  0
VERTEX
  8
Layer0
10
0.0
 20
 0.0
 30
0.0
 70
     128
 71
-4
 72
-1
 73
5
  0
VERTEX
  8
Layer0
10
0.0
 20
 0.0
 30
0.0
 70
     128
 71
-5
 72
1
 73
-6
  0
VERTEX
  8
Layer0
10
0.0
 20
 0.0
 30
0.0
 70
     128
 71
-5
 72
-6
 73
7
  0
VERTEX
  8
Layer0
10
0.0
 20
 0.0
 30
0.0
 70
     128
 71
-7
 72
6
 73
-8
  0
VERTEX
  8
Layer0
10
0.0
 20
 0.0
 30
0.0
 70
     128
 71
-7
 72
8
 73
-9
  0
VERTEX
  8
Layer0
10
0.0
 20
 0.0
 30
0.0
 70
     128
 71
-7
 72
-9
 73
10
  0
VERTEX
  8
Layer0
10
0.0
 20
 0.0
 30
0.0
 70
     128
 71
-10
 72
9
 73
-11
  0
VERTEX
  8
Layer0
10
0.0
 20
 0.0
 30
0.0
 70
     128
 71
-10
 72
-11
 73
12
  0
VERTEX
  8
Layer0
10
0.0
 20
 0.0
 30
0.0
 70
     128
 71
-12
 72
-11
 73
13
  0
VERTEX
  8
Layer0
10
0.0
 20
 0.0
 30
0.0
 70
     128
 71
-13
 72
11
 73
-14
  0
VERTEX
  8
Layer0
10
0.0
 20
 0.0
 30
0.0
 70
     128
 71
-13
 72
-14
 73
15
  0
VERTEX
  8
Layer0
10
0.0
 20
 0.0
 30
0.0
 70
     128
 71
-15
 72
14
 73
-16
  0
VERTEX
  8
Layer0
10
0.0
 20
 0.0
 30
0.0
 70
     128
 71
-15
 72
-16
 73
17
  0
VERTEX
  8
Layer0
10
0.0
 20
 0.0
 30
0.0
 70
     128
 71
-17
 72
16
 73
-18
  0
VERTEX
  8
Layer0
10
0.0
 20
 0.0
 30
0.0
 70
     128
 71
-17
 72
18
 73
-19
  0
VERTEX
  8
Layer0
10
0.0
 20
 0.0
 30
0.0
 70
     128
 71
-17
 72
-19
 73
20
  0
VERTEX
  8
Layer0
10
0.0
 20
 0.0
 30
0.0
 70
     128
 71
-20
 72
19
 73
-21
  0
VERTEX
  8
Layer0
10
0.0
 20
 0.0
 30
0.0
 70
     128
 71
-20
 72
-21
 73
22
  0
VERTEX
  8
Layer0
10
0.0
 20
 0.0
 30
0.0
 70
     128
 71
-22
 72
-21
 73
23
  0
VERTEX
  8
Layer0
10
0.0
 20
 0.0
 30
0.0
 70
     128
 71
-23
 72
21
 73
-24
  0
VERTEX
  8
Layer0
10
0.0
 20
 0.0
 30
0.0
 70
     128
 71
-23
 72
-24
 73
25
  0
VERTEX
  8
Layer0
10
0.0
 20
 0.0
 30
0.0
 70
     128
 71
-25
 72
24
 73
26
  0
SEQEND
 0
ENDSEC
 0
EOF
